<svg width="1692" height="672" viewBox="0 0 1692 672" fill="none" xmlns="http://www.w3.org/2000/svg">
<g filter="url(#filter0_d)">
<path d="M760 345.77C760 504.855 630.624 634.231 471.538 634.231C312.453 634.231 183.077 505.334 183.077 345.77C183.077 186.685 312.453 57.3081 471.538 57.3081C631.103 57.3081 760 186.685 760 345.77Z" fill="#FFB41C" fill-opacity="0.8"/>
</g>
<path d="M439.226 315.348C436.778 314.484 435.374 313.476 435.374 311.46C435.374 309.156 437.246 307.86 439.622 307.86C440.558 307.86 441.494 308.076 442.43 308.436L443.15 312.684H446.102L446.354 307.752C444.626 306.564 442.214 305.88 439.586 305.88C434.15 305.88 430.874 308.796 430.874 312.792C430.874 316.356 433.394 318.876 437.642 320.424L439.406 321.072C441.998 322.008 443.114 322.908 443.114 324.744C443.114 327.048 441.35 328.56 438.326 328.56C436.922 328.56 435.842 328.236 434.726 327.696L434.006 323.376H431.018L430.802 328.668C432.746 329.856 435.662 330.54 438.362 330.54C444.086 330.54 447.866 327.336 447.866 323.16C447.866 320.388 446.246 317.796 441.098 315.996L439.226 315.348ZM455.573 320.676L458.561 312.648L461.441 320.676H455.573ZM469.289 327.948L461.117 306.42H458.957L450.965 327.732L447.761 328.2V330H455.861V328.2L452.945 327.768L454.853 322.656H462.161L464.033 327.876L461.081 328.236V330H471.665V328.236L469.289 327.948ZM489.018 323.016L488.01 328.02H481.17C481.098 324.96 481.098 321.9 481.098 318.84V317.58C481.098 314.52 481.098 311.532 481.17 308.544L484.266 308.22V306.42H472.854V308.22L475.77 308.544C475.842 311.532 475.842 314.556 475.842 317.58V318.84C475.842 321.9 475.842 324.924 475.77 327.876L472.854 328.2V330H491.502L491.862 323.016H489.018ZM510.06 323.736L509.304 328.056H501.6C501.528 325.068 501.528 322.008 501.528 318.768H506.172L506.604 321.936H508.548V313.584H506.604L506.136 316.788H501.528C501.528 313.944 501.528 311.136 501.6 308.4H508.584L509.34 312.684H512.04L511.788 306.42H493.284V308.22L496.2 308.544C496.272 311.532 496.272 314.556 496.272 317.58V318.84C496.272 321.9 496.272 324.924 496.2 327.876L493.284 328.2V330H512.508L512.76 323.736H510.06ZM442.535 363.352H453.407V359.032H440.699L439.943 369.796L440.951 370.408C442.067 370.192 443.435 370.012 444.551 370.012C447.611 370.012 449.087 371.92 449.087 374.944C449.087 378.4 447.467 380.74 444.767 380.74C444.119 380.74 443.507 380.632 442.715 380.38L442.355 378.112C441.995 375.88 441.095 375.232 440.015 375.232C438.935 375.232 438.107 375.88 437.783 377.176C437.783 380.164 440.915 382.54 445.235 382.54C450.347 382.54 454.199 379.768 454.199 374.872C454.199 369.904 450.455 367.492 445.739 367.492C444.551 367.492 443.363 367.6 442.211 367.852L442.535 363.352ZM462.057 370.516C462.057 361.696 463.389 360.292 465.261 360.292C467.133 360.292 468.465 361.732 468.465 370.516C468.465 379.3 467.133 380.74 465.261 380.74C463.389 380.74 462.057 379.336 462.057 370.516ZM465.261 358.492C461.085 358.492 457.089 361.984 457.089 370.516C457.089 379.048 461.085 382.54 465.261 382.54C469.437 382.54 473.433 379.048 473.433 370.516C473.433 361.984 469.437 358.492 465.261 358.492ZM480.714 365.62C480.714 360.724 481.578 359.752 482.622 359.752C483.666 359.752 484.494 360.76 484.494 365.62C484.494 370.48 483.666 371.524 482.622 371.524C481.578 371.524 480.714 370.516 480.714 365.62ZM482.622 358.456C479.886 358.456 477.186 360.652 477.186 365.62C477.186 370.624 479.886 372.82 482.622 372.82C485.358 372.82 487.986 370.624 487.986 365.62C487.986 360.652 485.358 358.456 482.622 358.456ZM497.274 374.944C497.274 370.048 498.138 369.076 499.182 369.076C500.226 369.076 501.054 370.084 501.054 374.944C501.054 379.804 500.226 380.848 499.182 380.848C498.138 380.848 497.274 379.84 497.274 374.944ZM499.182 367.78C496.446 367.78 493.746 369.976 493.746 374.944C493.746 379.948 496.446 382.144 499.182 382.144C501.918 382.144 504.546 379.948 504.546 374.944C504.546 369.976 501.918 367.78 499.182 367.78ZM483.63 382.9L500.154 359.32L498.39 358.132L481.866 381.712L483.63 382.9Z" fill="white"/>
<g filter="url(#filter1_d)">
<path d="M356.154 183.077C356.154 278.528 278.528 356.154 183.077 356.154C87.6259 356.154 10 278.816 10 183.077C10 87.6264 87.6259 10.0005 183.077 10.0005C278.815 10.0005 356.154 87.6264 356.154 183.077Z" fill="#FFB41C"/>
</g>
<path d="M146.129 152.348C143.681 151.484 142.277 150.476 142.277 148.46C142.277 146.156 144.149 144.86 146.525 144.86C147.461 144.86 148.397 145.076 149.333 145.436L150.053 149.684H153.005L153.257 144.752C151.529 143.564 149.117 142.88 146.489 142.88C141.053 142.88 137.777 145.796 137.777 149.792C137.777 153.356 140.297 155.876 144.545 157.424L146.309 158.072C148.901 159.008 150.017 159.908 150.017 161.744C150.017 164.048 148.253 165.56 145.229 165.56C143.825 165.56 142.745 165.236 141.629 164.696L140.909 160.376H137.921L137.705 165.668C139.649 166.856 142.565 167.54 145.265 167.54C150.989 167.54 154.769 164.336 154.769 160.16C154.769 157.388 153.149 154.796 148.001 152.996L146.129 152.348ZM167.382 163.58C166.518 164.3 165.726 164.444 165.258 164.444C164.142 164.444 163.386 163.688 163.386 161.924V152.024H167.49V149.72H163.386V144.68H159.93L158.922 149.684L156.078 150.044V152.024H158.49V159.152C158.49 160.556 158.454 161.456 158.454 162.932C158.454 165.956 160.29 167.36 163.206 167.36C165.762 167.36 167.526 166.208 168.426 164.804L167.382 163.58ZM178.844 150.872C181.364 150.872 182.624 153.356 182.624 158.324C182.624 163.364 181.364 165.74 178.844 165.74C176.36 165.74 175.064 163.364 175.064 158.324C175.064 153.356 176.36 150.872 178.844 150.872ZM178.844 149.072C174.02 149.072 169.736 152.636 169.736 158.36C169.736 164.084 173.66 167.54 178.844 167.54C184.064 167.54 187.952 164.084 187.952 158.36C187.952 152.636 183.632 149.072 178.844 149.072ZM205.668 162.032C204.552 163.868 203.256 164.732 201.348 164.732C198.324 164.732 196.128 162.5 196.128 157.82C196.128 153.284 198.396 150.872 201.06 150.872C201.42 150.872 201.816 150.908 202.176 151.016L202.284 152.924C202.392 155.048 203.472 155.876 204.804 155.876C205.92 155.876 206.676 155.3 206.928 154.148C206.892 151.268 204.048 149.072 200.16 149.072C195.12 149.072 190.908 152.564 190.908 158.36C190.908 164.192 194.328 167.54 199.584 167.54C203.184 167.54 206.028 165.812 206.892 162.716L205.668 162.032ZM226.338 164.804L220.83 155.3L224.538 151.736L227.814 151.304V149.72H219.534V151.304L222.198 151.7L215.718 158.036V146.48L215.862 141.368L215.358 141.08L208.266 142.7V144.14L210.966 144.5V159.44C210.966 160.988 210.966 163.184 210.93 164.984L208.734 165.416V167H217.95V165.416L215.754 164.984C215.754 163.472 215.718 161.672 215.718 160.232L217.446 158.576L222.198 167H228.966V165.416L226.338 164.804ZM153.589 214.68L156.109 212.304C161.221 207.444 164.173 205.32 164.173 201.324C164.173 198.552 162.301 195.492 157.009 195.492C152.725 195.492 149.233 197.436 149.125 201.396C149.557 202.26 150.349 202.8 151.321 202.8C152.401 202.8 153.337 202.152 153.805 199.812L154.309 197.364C154.597 197.292 154.849 197.292 155.101 197.292C157.765 197.292 159.133 199.092 159.133 201.936C159.133 204.996 157.549 207.588 154.309 210.936L149.377 216.012V219H164.893V214.68H153.589ZM173.903 197.364C174.299 197.328 174.659 197.292 174.983 197.292C177.323 197.292 178.727 198.876 178.727 201.576C178.727 204.492 177.467 205.968 174.371 205.968H172.967V207.948H174.695C177.935 207.948 179.303 209.856 179.303 212.628C179.303 216.012 177.575 217.74 174.335 217.74C173.867 217.74 173.435 217.704 173.003 217.596L172.643 215.148C172.283 212.88 171.383 212.34 170.195 212.34C169.403 212.34 168.539 212.592 168.107 213.816C168.107 217.416 171.239 219.54 175.631 219.54C181.535 219.54 184.487 216.696 184.487 212.916C184.487 209.424 182.471 207.516 178.583 206.832C181.715 205.968 183.623 204.132 183.623 201.252C183.623 197.94 180.959 195.492 176.027 195.492C172.391 195.492 169.223 197.22 169.007 201.036C169.547 201.864 170.303 202.332 171.203 202.332C172.175 202.332 173.039 201.756 173.399 199.884L173.903 197.364ZM191.732 202.62C191.732 197.724 192.596 196.752 193.64 196.752C194.684 196.752 195.512 197.76 195.512 202.62C195.512 207.48 194.684 208.524 193.64 208.524C192.596 208.524 191.732 207.516 191.732 202.62ZM193.64 195.456C190.904 195.456 188.204 197.652 188.204 202.62C188.204 207.624 190.904 209.82 193.64 209.82C196.376 209.82 199.004 207.624 199.004 202.62C199.004 197.652 196.376 195.456 193.64 195.456ZM208.292 211.944C208.292 207.048 209.156 206.076 210.2 206.076C211.244 206.076 212.072 207.084 212.072 211.944C212.072 216.804 211.244 217.848 210.2 217.848C209.156 217.848 208.292 216.84 208.292 211.944ZM210.2 204.78C207.464 204.78 204.764 206.976 204.764 211.944C204.764 216.948 207.464 219.144 210.2 219.144C212.936 219.144 215.564 216.948 215.564 211.944C215.564 206.976 212.936 204.78 210.2 204.78ZM194.648 219.9L211.172 196.32L209.408 195.132L192.884 218.712L194.648 219.9Z" fill="white"/>
<g filter="url(#filter2_d)">
<path d="M323.846 479.616C323.846 530.523 282.446 571.923 231.538 571.923C180.631 571.923 139.231 530.676 139.231 479.616C139.231 428.709 180.631 387.308 231.538 387.308C282.599 387.308 323.846 428.709 323.846 479.616Z" fill="#FFB41C"/>
</g>
<path d="M177.511 461.35C177.451 458.83 177.451 456.25 177.451 453.46H178.651C182.281 453.46 183.601 454.63 183.601 457.36C183.601 459.85 182.611 461.35 178.411 461.35H177.511ZM178.981 445C181.561 445 182.701 446.11 182.701 448.39C182.701 450.64 181.441 451.87 178.561 451.87H177.451C177.451 449.56 177.451 447.25 177.511 445H178.981ZM170.581 443.35V444.85L173.011 445.12C173.071 447.61 173.071 450.13 173.071 452.65V453.7C173.071 456.25 173.071 458.77 173.011 461.23L170.581 461.5V463H178.561C186.331 463 187.951 460.12 187.951 457.42C187.951 455.14 186.751 453.22 183.241 452.59C185.911 451.9 186.841 450.22 186.841 448.27C186.841 445.3 184.741 443.35 180.001 443.35H170.581ZM194.64 453.19C194.64 448.84 196.05 444.55 199.71 444.55C203.37 444.55 204.78 448.84 204.78 453.19C204.78 457.48 203.37 461.8 199.71 461.8C196.05 461.8 194.64 457.48 194.64 453.19ZM199.71 442.9C195 442.9 190.05 446.32 190.05 453.19C190.05 460.03 194.97 463.45 199.71 463.45C204.45 463.45 209.37 460.03 209.37 453.19C209.37 446.32 204.42 442.9 199.71 442.9ZM231.894 443.35H224.814V444.85L227.424 445.12V454.51C227.424 459.25 225.684 460.9 222.624 460.9C219.594 460.9 217.854 459.25 217.854 454.51V452.44C217.854 449.98 217.854 447.52 217.914 445.09L220.314 444.85V443.35H210.954V444.85L213.384 445.12C213.444 447.55 213.444 450.01 213.444 452.44V455.44C213.444 461.08 216.654 463.45 221.304 463.45C225.864 463.45 229.224 461.17 229.224 454.51V445.12L231.894 444.85V443.35ZM254.501 443.35H246.521V444.85L249.971 445.24V456.64L239.441 443.35H233.531V444.88L235.571 445.09L236.021 445.63V461.11L233.231 461.5V463H241.211V461.5L237.791 461.11V447.85L250.211 463.3H251.711V445.24L254.501 444.85V443.35ZM271.394 445L271.994 448.87H274.244L274.094 443.35H256.274L256.124 448.87H258.374L258.974 445H262.934C262.994 447.55 262.994 450.1 262.994 452.65V453.7C262.994 456.22 262.994 458.74 262.934 461.2L260.204 461.5V463H270.164V461.5L267.434 461.2C267.374 458.71 267.374 456.19 267.374 453.7V452.65C267.374 450.07 267.374 447.52 267.434 445H271.394ZM290.98 445.24L293.2 444.85V443.35H286.84V444.85L289.24 445.18L285.46 452.86L281.98 445.12L284.35 444.85V443.35H275.14V444.85L277.09 445.06L281.98 454.54V456.25C281.98 458.38 281.98 459.58 281.95 461.2L279.19 461.5V463H289.15V461.5L286.39 461.2C286.36 459.55 286.36 458.35 286.36 456.25V454.21L290.98 445.24ZM212.2 512.9C212.17 511.49 212.17 510.11 212.17 508.73V500.09L212.29 495.83L211.87 495.56L205.45 497.09V498.59L208.09 498.29V508.73C208.09 510.11 208.09 511.52 208.06 512.9L204.22 513.68V515H215.95V513.68L212.2 512.9ZM226.559 513.95C224.669 513.95 223.379 511.55 223.349 506.15C224.309 505.43 225.209 505.04 226.169 505.04C228.029 505.04 229.139 506.3 229.139 509.39C229.139 512.42 228.059 513.95 226.559 513.95ZM231.239 495.2C223.289 495.68 219.149 501.68 219.149 507.05C219.149 512.27 221.879 515.45 226.289 515.45C230.219 515.45 233.189 513.23 233.189 508.94C233.189 505.31 231.209 503.09 227.399 503.09C225.929 503.09 224.609 503.51 223.469 504.41C224.009 501.23 226.259 497.54 231.419 496.55L231.239 495.2ZM239.089 501.35C239.089 497.27 239.809 496.46 240.679 496.46C241.549 496.46 242.239 497.3 242.239 501.35C242.239 505.4 241.549 506.27 240.679 506.27C239.809 506.27 239.089 505.43 239.089 501.35ZM240.679 495.38C238.399 495.38 236.149 497.21 236.149 501.35C236.149 505.52 238.399 507.35 240.679 507.35C242.959 507.35 245.149 505.52 245.149 501.35C245.149 497.21 242.959 495.38 240.679 495.38ZM252.889 509.12C252.889 505.04 253.609 504.23 254.479 504.23C255.349 504.23 256.039 505.07 256.039 509.12C256.039 513.17 255.349 514.04 254.479 514.04C253.609 514.04 252.889 513.2 252.889 509.12ZM254.479 503.15C252.199 503.15 249.949 504.98 249.949 509.12C249.949 513.29 252.199 515.12 254.479 515.12C256.759 515.12 258.949 513.29 258.949 509.12C258.949 504.98 256.759 503.15 254.479 503.15ZM241.519 515.75L255.289 496.1L253.819 495.11L240.049 514.76L241.519 515.75Z" fill="white"/>
<g filter="url(#filter3_d)">
<g filter="url(#filter4_d)">
<path d="M404.615 595C404.615 617.272 386.503 635.385 364.231 635.385C341.959 635.385 323.846 617.339 323.846 595C323.846 572.728 341.959 554.616 364.231 554.616C386.57 554.616 404.615 572.728 404.615 595Z" fill="#FFB41C"/>
</g>
<path d="M349.31 579.8C348.032 579.332 347.312 578.792 347.312 577.712C347.312 576.452 348.32 575.768 349.598 575.768C350.102 575.768 350.57 575.876 351.02 576.074L351.398 578.18H352.694L352.82 575.768C351.992 575.174 350.894 574.814 349.634 574.814C347.114 574.814 345.422 576.2 345.422 578.252C345.422 580.052 346.682 581.204 348.68 581.96L349.472 582.248C350.894 582.788 351.506 583.256 351.506 584.264C351.506 585.542 350.516 586.316 348.914 586.316C348.176 586.316 347.636 586.172 347.078 585.884L346.718 583.742H345.404L345.296 586.334C346.214 586.892 347.6 587.27 348.95 587.27C351.632 587.27 353.468 585.794 353.468 583.688C353.468 582.176 352.622 581.006 350.138 580.106L349.31 579.8ZM359.778 585.506C359.328 585.866 358.95 585.974 358.644 585.974C358.068 585.974 357.672 585.578 357.672 584.678V579.476H359.922V578.432H357.69L357.744 575.912H356.322L355.836 578.396L354.342 578.594V579.476H355.674V583.328C355.674 584.03 355.656 584.444 355.656 585.038C355.656 586.496 356.52 587.18 357.87 587.18C358.986 587.18 359.796 586.712 360.246 586.064L359.778 585.506ZM366.289 585.254C365.551 585.794 365.191 585.974 364.705 585.974C364.291 585.974 363.931 585.848 363.661 585.578C363.445 585.362 363.301 585.092 363.301 584.624C363.301 583.976 363.589 583.31 364.885 582.806C365.209 582.68 365.749 582.5 366.289 582.338V585.254ZM369.493 585.686L369.403 585.776C369.241 585.956 369.061 586.118 368.791 586.118C368.449 586.118 368.269 585.812 368.269 585.272V581.492C368.269 578.99 367.369 578.108 365.299 578.108C363.229 578.108 361.843 579.08 361.609 580.466C361.681 580.97 362.041 581.312 362.563 581.312C363.139 581.312 363.535 580.934 363.679 580.178L363.931 579.026C364.201 578.972 364.453 578.954 364.669 578.954C365.839 578.954 366.289 579.476 366.289 581.114V581.6C365.641 581.78 364.975 581.978 364.489 582.14C361.897 583.04 361.321 583.994 361.321 585.056C361.321 586.496 362.383 587.27 363.751 587.27C364.867 587.27 365.479 586.82 366.361 585.974C366.577 586.712 367.189 587.18 368.179 587.18C368.935 587.18 369.457 586.928 369.907 586.046L369.493 585.686ZM370.741 578.594V579.476H372.073V583.22C372.073 584.156 372.055 585.092 372.037 586.046L370.777 586.28V587H375.583V586.28L374.107 586.01C374.089 585.074 374.071 584.156 374.071 583.22V579.476H376.267V578.432H374.035C373.999 576.74 374.215 575.66 374.683 574.976C374.827 574.742 375.007 574.58 375.187 574.436L375.475 574.724C375.943 575.3 376.393 575.588 376.897 575.588C377.527 575.588 377.977 575.156 377.977 574.58C377.797 573.932 377.095 573.59 376.141 573.59C375.241 573.59 374.269 573.896 373.441 574.742C372.703 575.498 372.289 576.524 372.091 578.414L370.741 578.594ZM377.337 578.594V579.476H378.669V583.22C378.669 584.156 378.651 585.092 378.633 586.046L377.373 586.28V587H382.179V586.28L380.703 586.01C380.685 585.074 380.667 584.156 380.667 583.22V579.476H382.863V578.432H380.631C380.595 576.74 380.811 575.66 381.279 574.976C381.423 574.742 381.603 574.58 381.783 574.436L382.071 574.724C382.539 575.3 382.989 575.588 383.493 575.588C384.123 575.588 384.573 575.156 384.573 574.58C384.393 573.932 383.691 573.59 382.737 573.59C381.837 573.59 380.865 573.896 380.037 574.742C379.299 575.498 378.885 576.524 378.687 578.414L377.337 578.594ZM352.306 601.462V603.298H358.318L353.548 612.82L353.728 613H355.582L359.794 602.56V601.462H352.306ZM363.476 604.828C363.476 602.326 363.998 601.84 364.574 601.84C365.132 601.84 365.618 602.344 365.618 604.828C365.618 607.33 365.132 607.834 364.574 607.834C363.998 607.834 363.476 607.33 363.476 604.828ZM364.574 601.192C363.242 601.192 361.946 602.29 361.946 604.828C361.946 607.384 363.242 608.464 364.574 608.464C365.888 608.464 367.166 607.384 367.166 604.828C367.166 602.29 365.888 601.192 364.574 601.192ZM371.612 609.454C371.612 606.952 372.134 606.466 372.71 606.466C373.268 606.466 373.754 606.97 373.754 609.454C373.754 611.956 373.268 612.46 372.71 612.46C372.134 612.46 371.612 611.956 371.612 609.454ZM372.71 605.818C371.378 605.818 370.082 606.916 370.082 609.454C370.082 612.01 371.378 613.09 372.71 613.09C374.024 613.09 375.302 612.01 375.302 609.454C375.302 606.916 374.024 605.818 372.71 605.818ZM364.916 613.45L373.232 601.534L372.512 601.012L364.196 612.928L364.916 613.45Z" fill="white"/>
</g>
<g filter="url(#filter5_d)">
<g filter="url(#filter6_d)">
<path d="M480.71 634.077C480.71 646.804 470.36 657.154 457.634 657.154C444.907 657.154 434.557 646.843 434.557 634.077C434.557 621.351 444.907 611 457.634 611C470.399 611 480.71 621.351 480.71 634.077Z" fill="#FFB41C"/>
</g>
<path d="M433.489 626.332L434.777 622.762L436.023 626.332H433.489ZM438.753 629.258L435.645 620.732H434.805L431.739 629.174L430.535 629.356V630H433.713V629.356L432.467 629.174L433.237 627.046H436.261L437.017 629.216L435.771 629.37V630H439.733V629.37L438.753 629.258ZM445.127 628.67C444.679 629.048 444.217 629.258 443.727 629.258C442.747 629.258 442.019 628.418 442.019 626.654C442.019 624.848 442.845 624.022 443.769 624.022C444.203 624.022 444.637 624.218 445.127 624.596V628.67ZM446.681 629.258V621.95L446.737 619.962L446.541 619.85L444.035 620.48V621.012L445.197 621.152V623.924C444.679 623.35 444.091 623.084 443.349 623.084C441.655 623.084 440.367 624.498 440.367 626.696C440.367 628.894 441.543 630.21 443.181 630.21C444.035 630.21 444.651 629.86 445.183 629.272L445.295 630.14L447.647 630V629.44L446.681 629.258ZM455.195 623.336H452.577V623.924L453.585 624.092L452.059 628.278L450.505 624.106L451.611 623.924V623.336H447.999V623.924L448.783 624.064L451.289 630.14H451.975L454.369 624.078L455.195 623.924V623.336ZM457.832 621.74C458.42 621.74 458.882 621.32 458.882 620.732C458.882 620.144 458.42 619.724 457.832 619.724C457.244 619.724 456.768 620.144 456.768 620.732C456.768 621.32 457.244 621.74 457.832 621.74ZM458.644 629.258C458.63 628.572 458.63 627.676 458.63 627.06V625.17L458.672 623.224L458.462 623.084L456.012 623.952V624.47L457.034 624.596C457.062 625.156 457.076 625.59 457.076 626.36V627.06C457.076 627.676 457.076 628.558 457.062 629.258L456.11 629.44V630H459.526V629.44L458.644 629.258ZM463.538 625.828C462.488 625.45 462.194 625.198 462.194 624.708C462.194 624.12 462.642 623.756 463.398 623.756C463.748 623.756 464.042 623.84 464.308 623.966L464.532 625.114H465.428L465.498 623.63C464.854 623.28 464.252 623.084 463.454 623.084C461.746 623.084 460.808 623.966 460.808 625.114C460.808 626.066 461.424 626.682 462.502 627.102L463.146 627.34C464.126 627.718 464.476 627.984 464.476 628.53C464.476 629.16 464.028 629.524 463.048 629.524C462.628 629.524 462.278 629.44 461.886 629.244L461.676 628.026H460.738L460.766 629.594C461.494 630 462.152 630.21 463.034 630.21C464.84 630.21 465.876 629.286 465.876 628.082C465.876 627.214 465.428 626.5 464 625.982L463.538 625.828ZM470.552 623.742C471.644 623.742 472.232 624.75 472.232 626.654C472.232 628.586 471.644 629.538 470.552 629.538C469.46 629.538 468.872 628.586 468.872 626.654C468.872 624.75 469.46 623.742 470.552 623.742ZM470.552 623.084C468.802 623.084 467.164 624.4 467.164 626.668C467.164 628.936 468.718 630.21 470.552 630.21C472.386 630.21 473.94 628.936 473.94 626.668C473.94 624.4 472.288 623.084 470.552 623.084ZM477.615 623.224L477.405 623.084L475.151 623.952V624.47L476.173 624.596C476.201 625.156 476.215 625.534 476.215 626.304V627.06C476.215 627.676 476.215 628.572 476.201 629.258L475.263 629.44V630H478.903V629.44L477.783 629.23C477.769 628.53 477.769 627.662 477.769 627.06V625.716C478.007 625.072 478.357 624.582 478.791 624.218L478.861 624.288C479.169 624.61 479.463 624.75 479.799 624.75C480.331 624.75 480.709 624.4 480.709 623.854C480.597 623.28 480.107 623.084 479.715 623.084C479.015 623.084 478.273 623.7 477.755 624.708L477.615 623.224ZM484.426 625.828C483.376 625.45 483.082 625.198 483.082 624.708C483.082 624.12 483.53 623.756 484.286 623.756C484.636 623.756 484.93 623.84 485.196 623.966L485.42 625.114H486.316L486.386 623.63C485.742 623.28 485.14 623.084 484.342 623.084C482.634 623.084 481.696 623.966 481.696 625.114C481.696 626.066 482.312 626.682 483.39 627.102L484.034 627.34C485.014 627.718 485.364 627.984 485.364 628.53C485.364 629.16 484.916 629.524 483.936 629.524C483.516 629.524 483.166 629.44 482.774 629.244L482.564 628.026H481.626L481.654 629.594C482.382 630 483.04 630.21 483.922 630.21C485.728 630.21 486.764 629.286 486.764 628.082C486.764 627.214 486.316 626.5 484.888 625.982L484.426 625.828ZM450.359 642.43L453.187 638.482V642.43H450.359ZM456.029 642.43H454.629V636.886H453.565L449.337 642.64V643.564H453.187V646H454.629V643.564H456.029V642.43ZM458.598 639.644C458.598 637.698 459.004 637.32 459.452 637.32C459.886 637.32 460.264 637.712 460.264 639.644C460.264 641.59 459.886 641.982 459.452 641.982C459.004 641.982 458.598 641.59 458.598 639.644ZM459.452 636.816C458.416 636.816 457.408 637.67 457.408 639.644C457.408 641.632 458.416 642.472 459.452 642.472C460.474 642.472 461.468 641.632 461.468 639.644C461.468 637.67 460.474 636.816 459.452 636.816ZM464.926 643.242C464.926 641.296 465.332 640.918 465.78 640.918C466.214 640.918 466.592 641.31 466.592 643.242C466.592 645.188 466.214 645.58 465.78 645.58C465.332 645.58 464.926 645.188 464.926 643.242ZM465.78 640.414C464.744 640.414 463.736 641.268 463.736 643.242C463.736 645.23 464.744 646.07 465.78 646.07C466.802 646.07 467.796 645.23 467.796 643.242C467.796 641.268 466.802 640.414 465.78 640.414ZM459.718 646.35L466.186 637.082L465.626 636.676L459.158 645.944L459.718 646.35Z" fill="white"/>
</g>
<g filter="url(#filter7_d)">
<path d="M1287.16 252.578C1287.16 356.578 1202.58 441.156 1098.58 441.156C994.578 441.156 910 356.891 910 252.578C910 148.579 994.578 64.0005 1098.58 64.0005C1202.89 64.0005 1287.16 148.579 1287.16 252.578Z" fill="#417691" fill-opacity="0.6"/>
</g>
<path d="M959.57 234.36C959.474 230.28 959.474 226.104 959.474 221.64V220.44C959.474 216.312 959.474 212.232 959.57 208.2H961.25C967.346 208.2 971.378 212.76 971.378 221.256C971.378 229.752 967.346 234.36 961.298 234.36H959.57ZM948.482 205.56V207.96L952.37 208.392C952.466 212.376 952.466 216.408 952.466 220.44V221.64C952.466 226.104 952.466 230.232 952.37 234.168L948.482 234.6V237H962.018C971.666 237 978.722 231.48 978.722 221.064C978.722 211.08 972.386 205.56 962.978 205.56H948.482ZM989.118 223.32C989.598 217.416 992.334 215.496 994.446 215.496C996.462 215.496 997.902 217.32 997.902 220.344C997.902 222.36 997.182 223.32 994.878 223.32H989.118ZM1003.81 225.72C1004 224.952 1004.09 224.088 1004.09 223.224C1004.09 217.272 1000.25 213.096 994.11 213.096C987.294 213.096 982.11 218.232 982.11 225.48C982.11 233.256 986.766 237.72 993.726 237.72C998.574 237.72 1002.32 235.512 1003.61 231.288L1001.98 230.376C1000.54 232.68 998.814 233.976 996.03 233.976C992.142 233.976 989.262 231.384 989.07 225.72H1003.81ZM1031.19 213.96H1022.36V216.072L1025.34 216.6L1020.25 229.992L1015.45 216.744L1018.86 216.072V213.96H1005.75V216.072L1008.34 216.6L1016.89 237.48H1019.62L1028.17 216.6L1031.19 216.072V213.96ZM1039.16 223.32C1039.64 217.416 1042.38 215.496 1044.49 215.496C1046.51 215.496 1047.95 217.32 1047.95 220.344C1047.95 222.36 1047.23 223.32 1044.92 223.32H1039.16ZM1053.85 225.72C1054.04 224.952 1054.14 224.088 1054.14 223.224C1054.14 217.272 1050.3 213.096 1044.16 213.096C1037.34 213.096 1032.16 218.232 1032.16 225.48C1032.16 233.256 1036.81 237.72 1043.77 237.72C1048.62 237.72 1052.36 235.512 1053.66 231.288L1052.03 230.376C1050.59 232.68 1048.86 233.976 1046.08 233.976C1042.19 233.976 1039.31 231.384 1039.12 225.72H1053.85ZM1066.42 234.312C1066.38 231.864 1066.33 229.368 1066.33 226.92V209.64L1066.52 202.824L1065.85 202.44L1056.3 204.6V206.52L1059.9 207V226.92C1059.9 229.368 1059.85 231.816 1059.8 234.312L1056.92 234.888V237H1069.11V234.888L1066.42 234.312ZM1083.98 215.496C1087.34 215.496 1089.02 218.808 1089.02 225.432C1089.02 232.152 1087.34 235.32 1083.98 235.32C1080.67 235.32 1078.94 232.152 1078.94 225.432C1078.94 218.808 1080.67 215.496 1083.98 215.496ZM1083.98 213.096C1077.55 213.096 1071.84 217.848 1071.84 225.48C1071.84 233.112 1077.07 237.72 1083.98 237.72C1090.94 237.72 1096.13 233.112 1096.13 225.48C1096.13 217.848 1090.37 213.096 1083.98 213.096ZM1108.7 218.424C1110.09 217.464 1111.58 216.84 1113.02 216.84C1116.09 216.84 1117.96 219.576 1117.96 225.432C1117.96 231.288 1115.61 234.024 1112.68 234.024C1111.34 234.024 1109.99 233.448 1108.7 232.536V218.424ZM1108.07 213.576L1107.5 213.096L1098.81 216.216V218.04L1102.02 218.472C1102.12 220.392 1102.17 221.544 1102.17 224.184V237C1102.17 239.16 1102.17 242.376 1102.12 244.872L1099.19 245.448V247.56H1112.15V245.448L1108.6 244.728C1108.55 242.232 1108.55 239.16 1108.55 237V235.32C1110.18 236.904 1112.15 237.72 1114.7 237.72C1120.41 237.72 1124.92 233.016 1124.92 225.288C1124.92 217.224 1120.84 213.096 1115.42 213.096C1112.44 213.096 1110.28 214.248 1108.31 216.216L1108.07 213.576ZM1167.09 234.312C1167.04 231.96 1167.04 229.032 1167.04 226.92V221.544C1167.04 215.784 1164.84 213.096 1160.28 213.096C1156.72 213.096 1154.71 214.392 1152.21 217.512C1151.3 214.536 1149.14 213.096 1145.64 213.096C1142.47 213.096 1140.45 214.392 1138.05 217.368L1137.72 213.576L1137 213.096L1128.31 216.216V218.04L1131.62 218.472C1131.72 220.392 1131.76 221.496 1131.76 224.136V226.92C1131.76 228.936 1131.76 231.912 1131.72 234.264L1128.79 234.888V237H1140.88V234.888L1138.24 234.36C1138.2 231.96 1138.2 228.984 1138.2 226.92V219.768C1139.78 218.28 1141.75 217.032 1143.38 217.032C1145.35 217.032 1146.36 218.712 1146.36 222.312V226.92C1146.36 229.032 1146.36 231.96 1146.31 234.264L1143.38 234.888V237H1155.48V234.888L1152.74 234.312C1152.69 231.96 1152.69 229.032 1152.69 226.92V221.544C1152.69 220.92 1152.64 220.296 1152.6 219.72C1154.13 218.328 1156.1 217.032 1157.78 217.032C1159.7 217.032 1160.71 218.712 1160.71 222.312V226.92C1160.71 229.032 1160.71 231.96 1160.66 234.264L1157.73 234.888V237H1169.83V234.888L1167.09 234.312ZM1179.82 223.32C1180.3 217.416 1183.04 215.496 1185.15 215.496C1187.17 215.496 1188.61 217.32 1188.61 220.344C1188.61 222.36 1187.89 223.32 1185.58 223.32H1179.82ZM1194.51 225.72C1194.7 224.952 1194.8 224.088 1194.8 223.224C1194.8 217.272 1190.96 213.096 1184.81 213.096C1178 213.096 1172.81 218.232 1172.81 225.48C1172.81 233.256 1177.47 237.72 1184.43 237.72C1189.28 237.72 1193.02 235.512 1194.32 231.288L1192.69 230.376C1191.25 232.68 1189.52 233.976 1186.73 233.976C1182.85 233.976 1179.97 231.384 1179.77 225.72H1194.51ZM1222.86 234.312C1222.81 232.008 1222.81 229.032 1222.81 226.92V221.544C1222.81 215.784 1220.26 213.096 1215.7 213.096C1212.44 213.096 1210.57 214.344 1207.88 217.368L1207.54 213.576L1206.82 213.096L1198.14 216.216V218.04L1201.35 218.472C1201.45 220.392 1201.5 221.544 1201.5 224.184V226.92C1201.5 228.984 1201.5 231.912 1201.45 234.312L1198.52 234.888V237H1210.81V234.888L1208.07 234.312C1208.02 231.96 1208.02 228.984 1208.02 226.92V219.864C1209.9 218.088 1211.62 217.032 1213.45 217.032C1215.66 217.032 1216.28 218.664 1216.28 222.312V226.92C1216.28 229.032 1216.28 231.96 1216.23 234.312L1213.3 234.888V237H1225.59V234.888L1222.86 234.312ZM1242.64 232.44C1241.49 233.4 1240.43 233.592 1239.81 233.592C1238.32 233.592 1237.31 232.584 1237.31 230.232V217.032H1242.79V213.96H1237.31V207.24H1232.71L1231.36 213.912L1227.57 214.392V217.032H1230.79V226.536C1230.79 228.408 1230.74 229.608 1230.74 231.576C1230.74 235.608 1233.19 237.48 1237.07 237.48C1240.48 237.48 1242.83 235.944 1244.03 234.072L1242.64 232.44ZM1063.65 268.152C1064.18 268.104 1064.66 268.056 1065.09 268.056C1068.21 268.056 1070.08 270.168 1070.08 273.768C1070.08 277.656 1068.4 279.624 1064.28 279.624H1062.4V282.264H1064.71C1069.03 282.264 1070.85 284.808 1070.85 288.504C1070.85 293.016 1068.55 295.32 1064.23 295.32C1063.6 295.32 1063.03 295.272 1062.45 295.128L1061.97 291.864C1061.49 288.84 1060.29 288.12 1058.71 288.12C1057.65 288.12 1056.5 288.456 1055.92 290.088C1055.92 294.888 1060.1 297.72 1065.96 297.72C1073.83 297.72 1077.76 293.928 1077.76 288.888C1077.76 284.232 1075.08 281.688 1069.89 280.776C1074.07 279.624 1076.61 277.176 1076.61 273.336C1076.61 268.92 1073.06 265.656 1066.48 265.656C1061.64 265.656 1057.41 267.96 1057.12 273.048C1057.84 274.152 1058.85 274.776 1060.05 274.776C1061.35 274.776 1062.5 274.008 1062.98 271.512L1063.65 268.152ZM1088.16 281.688C1088.16 269.928 1089.93 268.056 1092.43 268.056C1094.93 268.056 1096.7 269.976 1096.7 281.688C1096.7 293.4 1094.93 295.32 1092.43 295.32C1089.93 295.32 1088.16 293.448 1088.16 281.688ZM1092.43 265.656C1086.86 265.656 1081.53 270.312 1081.53 281.688C1081.53 293.064 1086.86 297.72 1092.43 297.72C1098 297.72 1103.33 293.064 1103.33 281.688C1103.33 270.312 1098 265.656 1092.43 265.656ZM1112.95 275.16C1112.95 268.632 1114.1 267.336 1115.5 267.336C1116.89 267.336 1117.99 268.68 1117.99 275.16C1117.99 281.64 1116.89 283.032 1115.5 283.032C1114.1 283.032 1112.95 281.688 1112.95 275.16ZM1115.5 265.608C1111.85 265.608 1108.25 268.536 1108.25 275.16C1108.25 281.832 1111.85 284.76 1115.5 284.76C1119.14 284.76 1122.65 281.832 1122.65 275.16C1122.65 268.536 1119.14 265.608 1115.5 265.608ZM1135.03 287.592C1135.03 281.064 1136.18 279.768 1137.58 279.768C1138.97 279.768 1140.07 281.112 1140.07 287.592C1140.07 294.072 1138.97 295.464 1137.58 295.464C1136.18 295.464 1135.03 294.12 1135.03 287.592ZM1137.58 278.04C1133.93 278.04 1130.33 280.968 1130.33 287.592C1130.33 294.264 1133.93 297.192 1137.58 297.192C1141.22 297.192 1144.73 294.264 1144.73 287.592C1144.73 280.968 1141.22 278.04 1137.58 278.04ZM1116.84 298.2L1138.87 266.76L1136.52 265.176L1114.49 296.616L1116.84 298.2Z" fill="white"/>
<g filter="url(#filter8_d)">
<path d="M1617.16 468.578C1617.16 572.578 1532.58 657.156 1428.58 657.156C1324.58 657.156 1240 572.891 1240 468.578C1240 364.579 1324.58 280 1428.58 280C1532.89 280 1617.16 364.579 1617.16 468.578Z" fill="#417691" fill-opacity="0.6"/>
</g>
<path d="M1355.2 427.96V425.56H1345.12L1334.56 448.12L1323.71 425.56H1314.06V427.96L1318.04 428.392V453.976L1313.53 454.6V457H1325.2V454.6L1320.68 453.976V433.72L1331.53 457H1333.45L1344.2 433.672V442.12C1344.2 446.2 1344.2 450.232 1344.11 454.168L1340.22 454.6V457H1355.2V454.6L1351.31 454.168C1351.21 450.184 1351.21 446.152 1351.21 442.12V440.44C1351.21 436.36 1351.21 432.328 1351.31 428.392L1355.2 427.96ZM1370.75 452.728C1369.4 453.688 1368.54 453.976 1367.53 453.976C1366.48 453.976 1365.56 453.688 1364.84 452.968C1364.32 452.44 1363.93 451.72 1363.93 450.472C1363.93 448.456 1364.89 446.728 1367.68 445.624C1368.44 445.336 1369.55 444.952 1370.75 444.616V452.728ZM1380.16 453.064L1379.92 453.352C1379.44 453.928 1379.1 454.36 1378.48 454.36C1377.66 454.36 1377.28 453.64 1377.28 452.632V442.744C1377.28 435.592 1374.83 433.096 1368.83 433.096C1362.73 433.096 1358.94 435.88 1358.51 439.624C1358.8 441.112 1359.95 442.072 1361.44 442.072C1363.12 442.072 1364.41 440.872 1364.75 438.376L1365.13 435.592C1365.66 435.544 1366.14 435.496 1366.62 435.496C1369.69 435.496 1370.75 437.08 1370.75 441.112V442.552C1369.21 442.984 1367.68 443.416 1366.57 443.8C1359.28 446.2 1357.69 448.984 1357.69 451.96C1357.69 455.704 1360.38 457.72 1364.17 457.72C1367.2 457.72 1368.92 456.664 1371.08 454.696C1371.8 456.376 1373.58 457.48 1376.17 457.48C1378.62 457.48 1380.16 456.616 1381.4 453.976L1380.16 453.064ZM1392.27 433.576L1391.55 433.096L1382.86 436.216V438.04L1386.08 438.472C1386.17 440.392 1386.22 441.496 1386.22 444.136V446.92C1386.22 448.984 1386.22 451.96 1386.17 454.312L1383.25 454.888V457H1396.45V454.888L1392.8 454.168C1392.75 451.816 1392.75 448.936 1392.75 446.92V441.784C1393.47 440.008 1394.48 438.616 1395.63 437.56L1395.73 437.656C1396.97 439 1398.13 439.624 1399.42 439.624C1401.44 439.624 1402.78 438.184 1402.78 436.072C1402.3 433.768 1400.57 433.096 1399.23 433.096C1397.02 433.096 1394.53 435.064 1392.75 438.28L1392.27 433.576ZM1427.73 454.072L1420.38 441.4L1425.33 436.648L1429.7 436.072V433.96H1418.66V436.072L1422.21 436.6L1413.57 445.048V429.64L1413.76 422.824L1413.09 422.44L1403.63 424.6V426.52L1407.23 427V446.92C1407.23 448.984 1407.23 451.912 1407.18 454.312L1404.26 454.888V457H1416.54V454.888L1413.62 454.312C1413.62 452.296 1413.57 449.896 1413.57 447.976L1415.87 445.768L1422.21 457H1431.23V454.888L1427.73 454.072ZM1439.45 443.32C1439.93 437.416 1442.67 435.496 1444.78 435.496C1446.8 435.496 1448.24 437.32 1448.24 440.344C1448.24 442.36 1447.52 443.32 1445.21 443.32H1439.45ZM1454.14 445.72C1454.33 444.952 1454.43 444.088 1454.43 443.224C1454.43 437.272 1450.59 433.096 1444.45 433.096C1437.63 433.096 1432.45 438.232 1432.45 445.48C1432.45 453.256 1437.1 457.72 1444.06 457.72C1448.91 457.72 1452.65 455.512 1453.95 451.288L1452.32 450.376C1450.88 452.68 1449.15 453.976 1446.37 453.976C1442.48 453.976 1439.6 451.384 1439.41 445.72H1454.14ZM1472.07 452.44C1470.92 453.4 1469.86 453.592 1469.24 453.592C1467.75 453.592 1466.74 452.584 1466.74 450.232V437.032H1472.22V433.96H1466.74V427.24H1462.14L1460.79 433.912L1457 434.392V437.032H1460.22V446.536C1460.22 448.408 1460.17 449.608 1460.17 451.576C1460.17 455.608 1462.62 457.48 1466.5 457.48C1469.91 457.48 1472.26 455.944 1473.46 454.072L1472.07 452.44ZM1481.66 429.112C1483.86 429.112 1485.64 427.48 1485.64 425.272C1485.64 423.064 1483.86 421.48 1481.66 421.48C1479.5 421.48 1477.67 423.064 1477.67 425.272C1477.67 427.48 1479.5 429.112 1481.66 429.112ZM1485.06 454.312C1485.02 451.96 1485.02 448.984 1485.02 446.92V440.44L1485.16 433.576L1484.44 433.096L1475.13 436.216V438.04L1478.34 438.472C1478.44 440.392 1478.49 441.88 1478.49 444.52V446.92C1478.49 448.984 1478.49 451.912 1478.44 454.312L1475.51 454.888V457H1487.8V454.888L1485.06 454.312ZM1514.91 454.312C1514.86 452.008 1514.86 449.032 1514.86 446.92V441.544C1514.86 435.784 1512.32 433.096 1507.76 433.096C1504.49 433.096 1502.62 434.344 1499.93 437.368L1499.6 433.576L1498.88 433.096L1490.19 436.216V438.04L1493.41 438.472C1493.5 440.392 1493.55 441.544 1493.55 444.184V446.92C1493.55 448.984 1493.55 451.912 1493.5 454.312L1490.57 454.888V457H1502.86V454.888L1500.13 454.312C1500.08 451.96 1500.08 448.984 1500.08 446.92V439.864C1501.95 438.088 1503.68 437.032 1505.5 437.032C1507.71 437.032 1508.33 438.664 1508.33 442.312V446.92C1508.33 449.032 1508.33 451.96 1508.29 454.312L1505.36 454.888V457H1517.65V454.888L1514.91 454.312ZM1531.15 446.632C1528.75 446.632 1527.45 444.472 1527.45 440.92C1527.45 437.368 1528.7 435.256 1531.15 435.256C1533.55 435.256 1534.89 437.368 1534.89 440.92C1534.89 444.472 1533.55 446.632 1531.15 446.632ZM1534.6 457.72C1537.58 457.72 1538.49 458.968 1538.49 460.264C1538.49 462.472 1535.85 464.2 1530.95 464.2C1527.93 464.2 1525.87 463.192 1525.87 460.216C1525.87 459.304 1526.06 458.44 1526.54 457.432C1527.35 457.624 1528.31 457.72 1529.37 457.72H1534.6ZM1544.15 433.576L1543.43 433.096L1537.63 434.968C1535.99 433.768 1533.79 433.096 1531.15 433.096C1525.43 433.096 1521.64 436.312 1521.64 440.92C1521.64 443.8 1523.13 446.104 1525.58 447.496C1523.42 448.936 1522.07 450.568 1522.07 452.728C1522.07 454.408 1522.84 455.896 1524.71 456.808C1521.5 458.392 1520.35 459.928 1520.35 461.896C1520.35 464.968 1523.18 466.6 1530.14 466.6C1539.55 466.6 1543.91 462.808 1543.91 458.2C1543.91 454.36 1541.37 451.912 1534.7 451.912H1529.51C1527.83 451.912 1526.87 451.336 1526.87 450.088C1526.87 449.416 1527.11 448.984 1527.5 448.264C1528.6 448.6 1529.8 448.792 1531.15 448.792C1536.86 448.792 1540.65 445.528 1540.65 440.92C1540.65 439.48 1540.27 438.184 1539.59 437.08H1544.15V433.576ZM1391.71 480.152C1392.24 480.104 1392.72 480.056 1393.15 480.056C1396.27 480.056 1398.15 482.168 1398.15 485.768C1398.15 489.656 1396.47 491.624 1392.34 491.624H1390.47V494.264H1392.77C1397.09 494.264 1398.91 496.808 1398.91 500.504C1398.91 505.016 1396.61 507.32 1392.29 507.32C1391.67 507.32 1391.09 507.272 1390.51 507.128L1390.03 503.864C1389.55 500.84 1388.35 500.12 1386.77 500.12C1385.71 500.12 1384.56 500.456 1383.99 502.088C1383.99 506.888 1388.16 509.72 1394.02 509.72C1401.89 509.72 1405.83 505.928 1405.83 500.888C1405.83 496.232 1403.14 493.688 1397.95 492.776C1402.13 491.624 1404.67 489.176 1404.67 485.336C1404.67 480.92 1401.12 477.656 1394.55 477.656C1389.7 477.656 1385.47 479.96 1385.19 485.048C1385.91 486.152 1386.91 486.776 1388.11 486.776C1389.41 486.776 1390.56 486.008 1391.04 483.512L1391.71 480.152ZM1416.22 493.688C1416.22 481.928 1418 480.056 1420.49 480.056C1422.99 480.056 1424.76 481.976 1424.76 493.688C1424.76 505.4 1422.99 507.32 1420.49 507.32C1418 507.32 1416.22 505.448 1416.22 493.688ZM1420.49 477.656C1414.92 477.656 1409.6 482.312 1409.6 493.688C1409.6 505.064 1414.92 509.72 1420.49 509.72C1426.06 509.72 1431.39 505.064 1431.39 493.688C1431.39 482.312 1426.06 477.656 1420.49 477.656ZM1441.01 487.16C1441.01 480.632 1442.17 479.336 1443.56 479.336C1444.95 479.336 1446.05 480.68 1446.05 487.16C1446.05 493.64 1444.95 495.032 1443.56 495.032C1442.17 495.032 1441.01 493.688 1441.01 487.16ZM1443.56 477.608C1439.91 477.608 1436.31 480.536 1436.31 487.16C1436.31 493.832 1439.91 496.76 1443.56 496.76C1447.21 496.76 1450.71 493.832 1450.71 487.16C1450.71 480.536 1447.21 477.608 1443.56 477.608ZM1463.09 499.592C1463.09 493.064 1464.25 491.768 1465.64 491.768C1467.03 491.768 1468.13 493.112 1468.13 499.592C1468.13 506.072 1467.03 507.464 1465.64 507.464C1464.25 507.464 1463.09 506.12 1463.09 499.592ZM1465.64 490.04C1461.99 490.04 1458.39 492.968 1458.39 499.592C1458.39 506.264 1461.99 509.192 1465.64 509.192C1469.29 509.192 1472.79 506.264 1472.79 499.592C1472.79 492.968 1469.29 490.04 1465.64 490.04ZM1444.9 510.2L1466.93 478.76L1464.58 477.176L1442.55 508.616L1444.9 510.2Z" fill="white"/>
<g filter="url(#filter9_d)">
<path d="M1681.08 558.289C1681.08 610.289 1638.8 652.578 1586.8 652.578C1534.8 652.578 1492.51 610.446 1492.51 558.289C1492.51 506.29 1534.8 464 1586.8 464C1638.95 464 1681.08 506.29 1681.08 558.289Z" fill="#E9BCF1"/>
</g>
<path d="M1515.35 532.984V531.788H1507.63V532.984L1509.86 533.218C1509.92 535.428 1509.92 537.638 1509.92 539.848V540.94C1509.92 543.176 1509.92 545.386 1509.86 547.57L1507.63 547.804V549H1515.35V547.804L1513.11 547.57C1513.06 545.36 1513.06 543.15 1513.06 540.94V539.848C1513.06 537.612 1513.06 535.402 1513.11 533.218L1515.35 532.984ZM1530.26 547.622C1530.24 546.348 1530.24 544.71 1530.24 543.54V540.836C1530.24 537.56 1529.02 536.156 1526.65 536.156C1524.93 536.156 1523.58 536.962 1522.2 538.496L1522 536.416L1521.61 536.156L1517.42 537.768V538.73L1519.32 538.964C1519.37 540.004 1519.4 540.706 1519.4 542.136V543.54C1519.4 544.684 1519.4 546.322 1519.37 547.622L1517.6 547.96V549H1523.97V547.96L1522.31 547.622C1522.28 546.322 1522.28 544.684 1522.28 543.54V539.744C1523.43 538.678 1524.41 538.132 1525.53 538.132C1526.88 538.132 1527.35 538.964 1527.35 541.148V543.54C1527.35 544.71 1527.35 546.348 1527.33 547.622L1525.58 547.96V549H1531.93V547.96L1530.26 547.622ZM1541 546.842C1540.35 547.362 1539.8 547.518 1539.36 547.518C1538.53 547.518 1537.96 546.946 1537.96 545.646V538.132H1541.21V536.624H1537.98L1538.06 532.984H1536.01L1535.3 536.572L1533.15 536.858V538.132H1535.07V543.696C1535.07 544.71 1535.04 545.308 1535.04 546.166C1535.04 548.272 1536.29 549.26 1538.24 549.26C1539.85 549.26 1541.02 548.584 1541.67 547.648L1541 546.842ZM1546.13 541.59C1546.39 538.47 1547.98 537.378 1549.3 537.378C1550.63 537.378 1551.62 538.548 1551.62 540.108C1551.62 541.044 1551.28 541.59 1550.03 541.59H1546.13ZM1554.22 542.786C1554.32 542.422 1554.4 541.928 1554.4 541.408C1554.4 538.21 1552.29 536.156 1549.25 536.156C1545.77 536.156 1543.01 538.912 1543.01 542.864C1543.01 546.946 1545.4 549.39 1549.04 549.39C1551.57 549.39 1553.44 548.194 1554.24 546.114L1553.49 545.646C1552.63 546.816 1551.64 547.544 1550.06 547.544C1547.74 547.544 1546.16 545.932 1546.08 542.786H1554.22ZM1561.09 536.416L1560.7 536.156L1556.51 537.768V538.73L1558.41 538.964C1558.46 540.004 1558.49 540.706 1558.49 542.136V543.54C1558.49 544.684 1558.49 546.348 1558.46 547.622L1556.72 547.96V549H1563.48V547.96L1561.4 547.57C1561.37 546.27 1561.37 544.658 1561.37 543.54V541.044C1561.81 539.848 1562.46 538.938 1563.27 538.262L1563.4 538.392C1563.97 538.99 1564.52 539.25 1565.14 539.25C1566.13 539.25 1566.83 538.6 1566.83 537.586C1566.62 536.52 1565.71 536.156 1564.99 536.156C1563.69 536.156 1562.31 537.3 1561.35 539.172L1561.09 536.416ZM1581.06 547.622C1581.03 546.348 1581.03 544.71 1581.03 543.54V540.836C1581.03 537.56 1579.81 536.156 1577.44 536.156C1575.73 536.156 1574.37 536.962 1573 538.496L1572.79 536.416L1572.4 536.156L1568.21 537.768V538.73L1570.11 538.964C1570.16 540.004 1570.19 540.706 1570.19 542.136V543.54C1570.19 544.684 1570.19 546.322 1570.16 547.622L1568.39 547.96V549H1574.76V547.96L1573.1 547.622C1573.07 546.322 1573.07 544.684 1573.07 543.54V539.744C1574.22 538.678 1575.21 538.132 1576.32 538.132C1577.68 538.132 1578.14 538.964 1578.14 541.148V543.54C1578.14 544.71 1578.14 546.348 1578.12 547.622L1576.38 547.96V549H1582.72V547.96L1581.06 547.622ZM1591.82 546.478C1590.75 547.258 1590.23 547.518 1589.53 547.518C1588.93 547.518 1588.41 547.336 1588.02 546.946C1587.71 546.634 1587.5 546.244 1587.5 545.568C1587.5 544.632 1587.92 543.67 1589.79 542.942C1590.26 542.76 1591.04 542.5 1591.82 542.266V546.478ZM1596.45 547.102L1596.32 547.232C1596.08 547.492 1595.82 547.726 1595.43 547.726C1594.94 547.726 1594.68 547.284 1594.68 546.504V541.044C1594.68 537.43 1593.38 536.156 1590.39 536.156C1587.4 536.156 1585.4 537.56 1585.06 539.562C1585.16 540.29 1585.68 540.784 1586.44 540.784C1587.27 540.784 1587.84 540.238 1588.05 539.146L1588.41 537.482C1588.8 537.404 1589.17 537.378 1589.48 537.378C1591.17 537.378 1591.82 538.132 1591.82 540.498V541.2C1590.88 541.46 1589.92 541.746 1589.22 541.98C1585.48 543.28 1584.64 544.658 1584.64 546.192C1584.64 548.272 1586.18 549.39 1588.15 549.39C1589.77 549.39 1590.65 548.74 1591.92 547.518C1592.24 548.584 1593.12 549.26 1594.55 549.26C1595.64 549.26 1596.4 548.896 1597.05 547.622L1596.45 547.102ZM1605.47 546.842C1604.82 547.362 1604.28 547.518 1603.83 547.518C1603 547.518 1602.43 546.946 1602.43 545.646V538.132H1605.68V536.624H1602.46L1602.53 532.984H1600.48L1599.78 536.572L1597.62 536.858V538.132H1599.54V543.696C1599.54 544.71 1599.52 545.308 1599.52 546.166C1599.52 548.272 1600.77 549.26 1602.72 549.26C1604.33 549.26 1605.5 548.584 1606.15 547.648L1605.47 546.842ZM1610.58 533.66C1611.67 533.66 1612.53 532.88 1612.53 531.788C1612.53 530.696 1611.67 529.916 1610.58 529.916C1609.49 529.916 1608.6 530.696 1608.6 531.788C1608.6 532.88 1609.49 533.66 1610.58 533.66ZM1612.09 547.622C1612.06 546.348 1612.06 544.684 1612.06 543.54V540.03L1612.14 536.416L1611.75 536.156L1607.2 537.768V538.73L1609.1 538.964C1609.15 540.004 1609.17 540.81 1609.17 542.24V543.54C1609.17 544.684 1609.17 546.322 1609.15 547.622L1607.38 547.96V549H1613.72V547.96L1612.09 547.622ZM1621.82 537.378C1623.85 537.378 1624.94 539.25 1624.94 542.786C1624.94 546.374 1623.85 548.142 1621.82 548.142C1619.79 548.142 1618.7 546.374 1618.7 542.786C1618.7 539.25 1619.79 537.378 1621.82 537.378ZM1621.82 536.156C1618.57 536.156 1615.53 538.6 1615.53 542.812C1615.53 547.024 1618.41 549.39 1621.82 549.39C1625.22 549.39 1628.11 547.024 1628.11 542.812C1628.11 538.6 1625.04 536.156 1621.82 536.156ZM1642.99 547.622C1642.96 546.348 1642.96 544.71 1642.96 543.54V540.836C1642.96 537.56 1641.74 536.156 1639.37 536.156C1637.66 536.156 1636.31 536.962 1634.93 538.496L1634.72 536.416L1634.33 536.156L1630.14 537.768V538.73L1632.04 538.964C1632.09 540.004 1632.12 540.706 1632.12 542.136V543.54C1632.12 544.684 1632.12 546.322 1632.09 547.622L1630.33 547.96V549H1636.7V547.96L1635.03 547.622C1635.01 546.322 1635.01 544.684 1635.01 543.54V539.744C1636.15 538.678 1637.14 538.132 1638.26 538.132C1639.61 538.132 1640.08 538.964 1640.08 541.148V543.54C1640.08 544.71 1640.08 546.348 1640.05 547.622L1638.31 547.96V549H1644.65V547.96L1642.99 547.622ZM1653.75 546.478C1652.69 547.258 1652.17 547.518 1651.46 547.518C1650.87 547.518 1650.35 547.336 1649.96 546.946C1649.64 546.634 1649.44 546.244 1649.44 545.568C1649.44 544.632 1649.85 543.67 1651.72 542.942C1652.19 542.76 1652.97 542.5 1653.75 542.266V546.478ZM1658.38 547.102L1658.25 547.232C1658.02 547.492 1657.76 547.726 1657.37 547.726C1656.87 547.726 1656.61 547.284 1656.61 546.504V541.044C1656.61 537.43 1655.31 536.156 1652.32 536.156C1649.33 536.156 1647.33 537.56 1646.99 539.562C1647.1 540.29 1647.62 540.784 1648.37 540.784C1649.2 540.784 1649.77 540.238 1649.98 539.146L1650.35 537.482C1650.74 537.404 1651.1 537.378 1651.41 537.378C1653.1 537.378 1653.75 538.132 1653.75 540.498V541.2C1652.82 541.46 1651.85 541.746 1651.15 541.98C1647.41 543.28 1646.58 544.658 1646.58 546.192C1646.58 548.272 1648.11 549.39 1650.09 549.39C1651.7 549.39 1652.58 548.74 1653.86 547.518C1654.17 548.584 1655.05 549.26 1656.48 549.26C1657.57 549.26 1658.33 548.896 1658.98 547.622L1658.38 547.102ZM1664.78 547.622C1664.75 546.27 1664.73 544.892 1664.73 543.54V534.05L1664.83 530.358L1664.47 530.15L1659.81 531.32V532.308L1661.87 532.568V543.54C1661.87 544.892 1661.84 546.244 1661.81 547.622L1659.99 547.96V549H1666.52V547.96L1664.78 547.622ZM1570.24 581.284C1570.21 580.036 1570.21 578.788 1570.21 577.54V570.026L1570.32 566.308L1569.95 566.074L1564.49 567.426V568.596L1567.33 568.336V577.54C1567.33 578.788 1567.33 580.062 1567.3 581.31L1563.79 581.96V583H1573.7V581.96L1570.24 581.284ZM1579.76 568.986H1587.38V566.334H1578.54L1578 574.134L1578.72 574.472C1579.53 574.29 1580.44 574.186 1581.22 574.186C1583.59 574.186 1584.89 575.59 1584.89 577.956C1584.89 580.452 1583.61 582.142 1581.38 582.142C1580.91 582.142 1580.44 582.09 1579.89 581.908L1579.58 580.4C1579.27 578.892 1578.75 578.45 1577.97 578.45C1577.27 578.45 1576.75 578.84 1576.51 579.62C1576.77 581.908 1578.75 583.39 1581.64 583.39C1585.3 583.39 1587.9 581.258 1587.9 577.8C1587.9 574.264 1585.38 572.47 1582 572.47C1581.14 572.47 1580.31 572.574 1579.5 572.756L1579.76 568.986ZM1593.06 571.196C1593.06 567.582 1593.81 566.88 1594.64 566.88C1595.45 566.88 1596.15 567.608 1596.15 571.196C1596.15 574.81 1595.45 575.538 1594.64 575.538C1593.81 575.538 1593.06 574.81 1593.06 571.196ZM1594.64 565.944C1592.72 565.944 1590.85 567.53 1590.85 571.196C1590.85 574.888 1592.72 576.448 1594.64 576.448C1596.54 576.448 1598.39 574.888 1598.39 571.196C1598.39 567.53 1596.54 565.944 1594.64 565.944ZM1604.81 577.878C1604.81 574.264 1605.56 573.562 1606.39 573.562C1607.2 573.562 1607.9 574.29 1607.9 577.878C1607.9 581.492 1607.2 582.22 1606.39 582.22C1605.56 582.22 1604.81 581.492 1604.81 577.878ZM1606.39 572.626C1604.47 572.626 1602.6 574.212 1602.6 577.878C1602.6 581.57 1604.47 583.13 1606.39 583.13C1608.29 583.13 1610.14 581.57 1610.14 577.878C1610.14 574.212 1608.29 572.626 1606.39 572.626ZM1595.14 583.65L1607.15 566.438L1606.11 565.684L1594.1 582.896L1595.14 583.65Z" fill="#282828"/>
<g filter="url(#filter10_d)">
<g filter="url(#filter11_d)">
<path d="M1098.58 410.289C1098.58 462.289 1056.29 504.578 1004.29 504.578C952.289 504.578 910 462.446 910 410.289C910 358.29 952.289 316 1004.29 316C1056.45 316 1098.58 358.29 1098.58 410.289Z" fill="#E9BCF1"/>
</g>
<path d="M982.765 391.848C982.765 389.482 982.765 387.298 982.817 385.114H984.455C987.055 385.114 988.199 386.232 988.199 388.312C988.199 390.34 987.055 391.848 984.325 391.848H982.765ZM991.085 399.57L990.201 396.008C989.733 394.136 988.745 393.096 987.263 392.654C990.201 392.004 991.293 390.106 991.293 388.156C991.293 385.452 988.979 383.788 985.053 383.788H977.357V384.984L979.593 385.218C979.645 387.428 979.645 389.638 979.645 391.848V392.94C979.645 395.176 979.645 397.386 979.593 399.57L977.357 399.804V401H985.079V399.804L982.817 399.544C982.765 397.464 982.765 395.358 982.765 393.174H983.727C985.625 393.174 986.483 393.642 986.899 395.514L987.757 399.336C988.069 400.87 989.213 401.26 991.059 401.26C991.813 401.26 992.489 401.182 993.295 401V399.804L991.085 399.57ZM1001.04 399.57C998.8 399.57 997.474 397.828 997.474 395.8C997.474 394.422 998.046 393.07 999.554 392.082C1000.36 392.992 1001.22 394.084 1002.21 395.254C1003.04 396.19 1003.77 397.1 1004.52 398.01C1003.64 398.868 1002.52 399.57 1001.04 399.57ZM1000.07 389.17C999.19 388.182 998.8 387.272 998.8 386.414C998.8 385.244 999.606 384.386 1000.96 384.386C1002.31 384.386 1003.04 385.4 1003.04 386.83C1003.04 388.104 1002.36 389.248 1001.17 390.288C1000.75 389.872 1000.39 389.508 1000.07 389.17ZM1012.29 389.716V388.624H1006.63V389.716L1008.99 390.054C1008.29 392.186 1007.38 394.162 1006.21 396.034C1005.3 394.916 1004.36 393.85 1003.56 392.914C1002.88 392.134 1002.31 391.51 1001.79 390.964C1004.05 389.716 1005.14 388.52 1005.14 386.752C1005.14 384.828 1003.61 383.398 1001.04 383.398C998.41 383.398 996.512 384.802 996.512 387.012C996.512 388.676 997.396 389.742 998.722 391.172L998.878 391.354C996.044 392.706 994.64 394.318 994.64 396.554C994.64 399.206 996.694 401.39 1000.1 401.39C1002.65 401.39 1004.16 400.246 1005.27 398.946L1005.74 399.492C1006.89 400.792 1007.54 401.26 1009.43 401.26C1010.21 401.26 1010.89 401.182 1011.72 401V399.986L1008.91 399.414C1008.29 398.608 1007.61 397.75 1006.91 396.892C1008.39 394.812 1009.51 392.498 1010.5 390.002L1012.29 389.716ZM1019.65 399.674C1019.6 397.412 1019.6 395.124 1019.6 392.654V391.848C1019.6 389.586 1019.6 387.324 1019.65 385.114H1021.24C1024.7 385.114 1026.98 387.662 1026.98 392.394C1026.98 397.126 1024.7 399.674 1021.26 399.674H1019.65ZM1014.17 383.788V384.984L1016.4 385.218C1016.45 387.428 1016.45 389.638 1016.45 391.848V392.654C1016.45 395.124 1016.45 397.386 1016.4 399.57L1014.17 399.804V401H1021.42C1026.46 401 1030.39 397.984 1030.39 392.342C1030.39 386.83 1026.88 383.788 1021.94 383.788H1014.17ZM987.24 433.284C987.214 432.036 987.214 430.788 987.214 429.54V422.026L987.318 418.308L986.954 418.074L981.494 419.426V420.596L984.328 420.336V429.54C984.328 430.788 984.328 432.062 984.302 433.31L980.792 433.96V435H990.698V433.96L987.24 433.284ZM996.763 420.986H1004.38V418.334H995.541L994.995 426.134L995.723 426.472C996.529 426.29 997.439 426.186 998.219 426.186C1000.59 426.186 1001.89 427.59 1001.89 429.956C1001.89 432.452 1000.61 434.142 998.375 434.142C997.907 434.142 997.439 434.09 996.893 433.908L996.581 432.4C996.269 430.892 995.749 430.45 994.969 430.45C994.267 430.45 993.747 430.84 993.513 431.62C993.773 433.908 995.749 435.39 998.635 435.39C1002.3 435.39 1004.9 433.258 1004.9 429.8C1004.9 426.264 1002.38 424.47 998.999 424.47C998.141 424.47 997.309 424.574 996.503 424.756L996.763 420.986ZM1010.06 423.196C1010.06 419.582 1010.81 418.88 1011.64 418.88C1012.45 418.88 1013.15 419.608 1013.15 423.196C1013.15 426.81 1012.45 427.538 1011.64 427.538C1010.81 427.538 1010.06 426.81 1010.06 423.196ZM1011.64 417.944C1009.72 417.944 1007.85 419.53 1007.85 423.196C1007.85 426.888 1009.72 428.448 1011.64 428.448C1013.54 428.448 1015.39 426.888 1015.39 423.196C1015.39 419.53 1013.54 417.944 1011.64 417.944ZM1021.81 429.878C1021.81 426.264 1022.56 425.562 1023.39 425.562C1024.2 425.562 1024.9 426.29 1024.9 429.878C1024.9 433.492 1024.2 434.22 1023.39 434.22C1022.56 434.22 1021.81 433.492 1021.81 429.878ZM1023.39 424.626C1021.47 424.626 1019.6 426.212 1019.6 429.878C1019.6 433.57 1021.47 435.13 1023.39 435.13C1025.29 435.13 1027.14 433.57 1027.14 429.878C1027.14 426.212 1025.29 424.626 1023.39 424.626ZM1012.14 435.65L1024.15 418.438L1023.11 417.684L1011.1 434.896L1012.14 435.65Z" fill="#282828"/>
</g>
<g filter="url(#filter12_d)">
<g filter="url(#filter13_d)">
<path d="M1469.72 189.86C1469.72 224.526 1441.53 252.719 1406.86 252.719C1372.19 252.719 1344 224.631 1344 189.86C1344 155.193 1372.19 127 1406.86 127C1441.63 127 1469.72 155.193 1469.72 189.86Z" fill="#E9BCF1"/>
</g>
<path d="M1351.01 177.808L1352.48 173.728L1353.91 177.808H1351.01ZM1357.03 181.152L1353.48 171.408H1352.52L1349.01 181.056L1347.64 181.264V182H1351.27V181.264L1349.84 181.056L1350.72 178.624H1354.18L1355.04 181.104L1353.62 181.28V182H1358.15V181.28L1357.03 181.152ZM1364.28 180.48C1363.76 180.912 1363.24 181.152 1362.68 181.152C1361.56 181.152 1360.72 180.192 1360.72 178.176C1360.72 176.112 1361.67 175.168 1362.72 175.168C1363.22 175.168 1363.72 175.392 1364.28 175.824V180.48ZM1366.05 181.152V172.8L1366.12 170.528L1365.89 170.4L1363.03 171.12V171.728L1364.36 171.888V175.056C1363.76 174.4 1363.09 174.096 1362.24 174.096C1360.31 174.096 1358.84 175.712 1358.84 178.224C1358.84 180.736 1360.18 182.24 1362.05 182.24C1363.03 182.24 1363.73 181.84 1364.34 181.168L1364.47 182.16L1367.16 182V181.36L1366.05 181.152ZM1380.85 181.152C1380.83 180.368 1380.83 179.36 1380.83 178.64V176.896C1380.83 174.944 1380.09 174.096 1378.69 174.096C1377.58 174.096 1376.72 174.56 1375.89 175.568C1375.6 174.544 1374.93 174.096 1373.84 174.096C1372.81 174.096 1371.97 174.608 1371.18 175.52L1371.05 174.256L1370.81 174.096L1368.24 175.088V175.68L1369.42 175.824C1369.45 176.464 1369.47 176.896 1369.47 177.776V178.64C1369.47 179.344 1369.47 180.352 1369.45 181.152L1368.37 181.36V182H1372.25V181.36L1371.25 181.152C1371.23 180.368 1371.23 179.344 1371.23 178.64V176.272C1371.85 175.696 1372.53 175.312 1373.17 175.312C1373.95 175.312 1374.3 175.84 1374.3 177.168V178.64C1374.3 179.36 1374.3 180.368 1374.29 181.152L1373.21 181.36V182H1377.09V181.36L1376.06 181.152C1376.05 180.368 1376.05 179.36 1376.05 178.64V176.976C1376.05 176.736 1376.03 176.496 1376.01 176.288C1376.64 175.712 1377.33 175.312 1377.95 175.312C1378.73 175.312 1379.1 175.824 1379.1 177.152V178.64C1379.1 179.36 1379.1 180.368 1379.09 181.152L1378 181.36V182H1381.87V181.36L1380.85 181.152ZM1385.1 172.56C1385.77 172.56 1386.3 172.08 1386.3 171.408C1386.3 170.736 1385.77 170.256 1385.1 170.256C1384.43 170.256 1383.88 170.736 1383.88 171.408C1383.88 172.08 1384.43 172.56 1385.1 172.56ZM1386.03 181.152C1386.01 180.368 1386.01 179.344 1386.01 178.64V176.48L1386.06 174.256L1385.82 174.096L1383.02 175.088V175.68L1384.19 175.824C1384.22 176.464 1384.24 176.96 1384.24 177.84V178.64C1384.24 179.344 1384.24 180.352 1384.22 181.152L1383.13 181.36V182H1387.04V181.36L1386.03 181.152ZM1396.06 181.152C1396.05 180.368 1396.05 179.36 1396.05 178.64V176.976C1396.05 174.96 1395.3 174.096 1393.84 174.096C1392.78 174.096 1391.95 174.592 1391.1 175.536L1390.98 174.256L1390.74 174.096L1388.16 175.088V175.68L1389.33 175.824C1389.36 176.464 1389.38 176.896 1389.38 177.776V178.64C1389.38 179.344 1389.38 180.352 1389.36 181.152L1388.27 181.36V182H1392.19V181.36L1391.17 181.152C1391.15 180.352 1391.15 179.344 1391.15 178.64V176.304C1391.86 175.648 1392.46 175.312 1393.15 175.312C1393.98 175.312 1394.27 175.824 1394.27 177.168V178.64C1394.27 179.36 1394.27 180.368 1394.26 181.152L1393.18 181.36V182H1397.09V181.36L1396.06 181.152ZM1400.3 172.56C1400.97 172.56 1401.5 172.08 1401.5 171.408C1401.5 170.736 1400.97 170.256 1400.3 170.256C1399.63 170.256 1399.09 170.736 1399.09 171.408C1399.09 172.08 1399.63 172.56 1400.3 172.56ZM1401.23 181.152C1401.21 180.368 1401.21 179.344 1401.21 178.64V176.48L1401.26 174.256L1401.02 174.096L1398.22 175.088V175.68L1399.39 175.824C1399.42 176.464 1399.44 176.96 1399.44 177.84V178.64C1399.44 179.344 1399.44 180.352 1399.42 181.152L1398.33 181.36V182H1402.24V181.36L1401.23 181.152ZM1406.79 177.232C1405.59 176.8 1405.25 176.512 1405.25 175.952C1405.25 175.28 1405.76 174.864 1406.63 174.864C1407.03 174.864 1407.36 174.96 1407.67 175.104L1407.92 176.416H1408.95L1409.03 174.72C1408.29 174.32 1407.6 174.096 1406.69 174.096C1404.74 174.096 1403.67 175.104 1403.67 176.416C1403.67 177.504 1404.37 178.208 1405.6 178.688L1406.34 178.96C1407.46 179.392 1407.86 179.696 1407.86 180.32C1407.86 181.04 1407.35 181.456 1406.23 181.456C1405.75 181.456 1405.35 181.36 1404.9 181.136L1404.66 179.744H1403.59L1403.62 181.536C1404.45 182 1405.2 182.24 1406.21 182.24C1408.28 182.24 1409.46 181.184 1409.46 179.808C1409.46 178.816 1408.95 178 1407.32 177.408L1406.79 177.232ZM1415.33 180.672C1414.93 180.992 1414.59 181.088 1414.32 181.088C1413.81 181.088 1413.46 180.736 1413.46 179.936V175.312H1415.46V174.384H1413.47L1413.52 172.144H1412.26L1411.83 174.352L1410.5 174.528V175.312H1411.68V178.736C1411.68 179.36 1411.67 179.728 1411.67 180.256C1411.67 181.552 1412.43 182.16 1413.63 182.16C1414.63 182.16 1415.35 181.744 1415.75 181.168L1415.33 180.672ZM1419.34 174.256L1419.1 174.096L1416.52 175.088V175.68L1417.69 175.824C1417.72 176.464 1417.74 176.896 1417.74 177.776V178.64C1417.74 179.344 1417.74 180.368 1417.72 181.152L1416.65 181.36V182H1420.81V181.36L1419.53 181.12C1419.51 180.32 1419.51 179.328 1419.51 178.64V177.104C1419.78 176.368 1420.18 175.808 1420.68 175.392L1420.76 175.472C1421.11 175.84 1421.45 176 1421.83 176C1422.44 176 1422.87 175.6 1422.87 174.976C1422.74 174.32 1422.18 174.096 1421.74 174.096C1420.94 174.096 1420.09 174.8 1419.5 175.952L1419.34 174.256ZM1428.1 180.448C1427.44 180.928 1427.12 181.088 1426.69 181.088C1426.32 181.088 1426 180.976 1425.76 180.736C1425.57 180.544 1425.44 180.304 1425.44 179.888C1425.44 179.312 1425.7 178.72 1426.85 178.272C1427.14 178.16 1427.62 178 1428.1 177.856V180.448ZM1430.95 180.832L1430.87 180.912C1430.72 181.072 1430.56 181.216 1430.32 181.216C1430.02 181.216 1429.86 180.944 1429.86 180.464V177.104C1429.86 174.88 1429.06 174.096 1427.22 174.096C1425.38 174.096 1424.15 174.96 1423.94 176.192C1424 176.64 1424.32 176.944 1424.79 176.944C1425.3 176.944 1425.65 176.608 1425.78 175.936L1426 174.912C1426.24 174.864 1426.47 174.848 1426.66 174.848C1427.7 174.848 1428.1 175.312 1428.1 176.768V177.2C1427.52 177.36 1426.93 177.536 1426.5 177.68C1424.19 178.48 1423.68 179.328 1423.68 180.272C1423.68 181.552 1424.63 182.24 1425.84 182.24C1426.83 182.24 1427.38 181.84 1428.16 181.088C1428.35 181.744 1428.9 182.16 1429.78 182.16C1430.45 182.16 1430.91 181.936 1431.31 181.152L1430.95 180.832ZM1436.59 180.672C1436.19 180.992 1435.86 181.088 1435.59 181.088C1435.07 181.088 1434.72 180.736 1434.72 179.936V175.312H1436.72V174.384H1434.74L1434.79 172.144H1433.52L1433.09 174.352L1431.76 174.528V175.312H1432.95V178.736C1432.95 179.36 1432.93 179.728 1432.93 180.256C1432.93 181.552 1433.7 182.16 1434.9 182.16C1435.89 182.16 1436.61 181.744 1437.01 181.168L1436.59 180.672ZM1439.83 172.56C1440.51 172.56 1441.03 172.08 1441.03 171.408C1441.03 170.736 1440.51 170.256 1439.83 170.256C1439.16 170.256 1438.62 170.736 1438.62 171.408C1438.62 172.08 1439.16 172.56 1439.83 172.56ZM1440.76 181.152C1440.75 180.368 1440.75 179.344 1440.75 178.64V176.48L1440.79 174.256L1440.55 174.096L1437.75 175.088V175.68L1438.92 175.824C1438.95 176.464 1438.97 176.96 1438.97 177.84V178.64C1438.97 179.344 1438.97 180.352 1438.95 181.152L1437.87 181.36V182H1441.77V181.36L1440.76 181.152ZM1450.45 174.384H1447.46V175.056L1448.61 175.248L1446.87 180.032L1445.09 175.264L1446.35 175.056V174.384H1442.23V175.056L1443.12 175.216L1445.99 182.16H1446.77L1449.51 175.232L1450.45 175.056V174.384ZM1453.02 177.44C1453.18 175.52 1454.16 174.848 1454.97 174.848C1455.79 174.848 1456.4 175.568 1456.4 176.528C1456.4 177.104 1456.19 177.44 1455.42 177.44H1453.02ZM1458 178.176C1458.06 177.952 1458.11 177.648 1458.11 177.328C1458.11 175.36 1456.81 174.096 1454.94 174.096C1452.8 174.096 1451.1 175.792 1451.1 178.224C1451.1 180.736 1452.57 182.24 1454.81 182.24C1456.37 182.24 1457.52 181.504 1458.01 180.224L1457.55 179.936C1457.02 180.656 1456.41 181.104 1455.44 181.104C1454.01 181.104 1453.04 180.112 1452.99 178.176H1458ZM1462.93 177.232C1461.73 176.8 1461.39 176.512 1461.39 175.952C1461.39 175.28 1461.9 174.864 1462.77 174.864C1463.17 174.864 1463.5 174.96 1463.81 175.104L1464.06 176.416H1465.09L1465.17 174.72C1464.43 174.32 1463.74 174.096 1462.83 174.096C1460.88 174.096 1459.81 175.104 1459.81 176.416C1459.81 177.504 1460.51 178.208 1461.74 178.688L1462.48 178.96C1463.6 179.392 1464 179.696 1464 180.32C1464 181.04 1463.49 181.456 1462.37 181.456C1461.89 181.456 1461.49 181.36 1461.04 181.136L1460.8 179.744H1459.73L1459.76 181.536C1460.59 182 1461.34 182.24 1462.35 182.24C1464.42 182.24 1465.6 181.184 1465.6 179.808C1465.6 178.816 1465.09 178 1463.46 177.408L1462.93 177.232ZM1394.02 207.68C1394 206.72 1394 205.76 1394 204.8V199.02L1394.08 196.16L1393.8 195.98L1389.6 197.02V197.92L1391.78 197.72V204.8C1391.78 205.76 1391.78 206.74 1391.76 207.7L1389.06 208.2V209H1396.68V208.2L1394.02 207.68ZM1401.26 202.6C1401.26 197.78 1402.18 196.84 1403.32 196.84C1404.44 196.84 1405.36 197.8 1405.36 202.6C1405.36 207.38 1404.44 208.34 1403.32 208.34C1402.18 208.34 1401.26 207.4 1401.26 202.6ZM1403.32 195.88C1401.08 195.88 1398.94 197.74 1398.94 202.6C1398.94 207.44 1401.08 209.3 1403.32 209.3C1405.52 209.3 1407.68 207.44 1407.68 202.6C1407.68 197.74 1405.52 195.88 1403.32 195.88ZM1411.69 199.92C1411.69 197.14 1412.27 196.6 1412.91 196.6C1413.53 196.6 1414.07 197.16 1414.07 199.92C1414.07 202.7 1413.53 203.26 1412.91 203.26C1412.27 203.26 1411.69 202.7 1411.69 199.92ZM1412.91 195.88C1411.43 195.88 1409.99 197.1 1409.99 199.92C1409.99 202.76 1411.43 203.96 1412.91 203.96C1414.37 203.96 1415.79 202.76 1415.79 199.92C1415.79 197.1 1414.37 195.88 1412.91 195.88ZM1420.73 205.06C1420.73 202.28 1421.31 201.74 1421.95 201.74C1422.57 201.74 1423.11 202.3 1423.11 205.06C1423.11 207.84 1422.57 208.4 1421.95 208.4C1421.31 208.4 1420.73 207.84 1420.73 205.06ZM1421.95 201.02C1420.47 201.02 1419.03 202.24 1419.03 205.06C1419.03 207.9 1420.47 209.1 1421.95 209.1C1423.41 209.1 1424.83 207.9 1424.83 205.06C1424.83 202.24 1423.41 201.02 1421.95 201.02ZM1413.29 209.5L1422.53 196.26L1421.73 195.68L1412.49 208.92L1413.29 209.5Z" fill="#282828"/>
</g>
<defs>
<filter id="filter0_d" x="173.077" y="51.3081" width="596.923" height="596.923" filterUnits="userSpaceOnUse" color-interpolation-filters="sRGB">
<feFlood flood-opacity="0" result="BackgroundImageFix"/>
<feColorMatrix in="SourceAlpha" type="matrix" values="0 0 0 0 0 0 0 0 0 0 0 0 0 0 0 0 0 0 127 0"/>
<feOffset dy="4"/>
<feGaussianBlur stdDeviation="5"/>
<feColorMatrix type="matrix" values="0 0 0 0 0 0 0 0 0 0 0 0 0 0 0 0 0 0 0.25 0"/>
<feBlend mode="normal" in2="BackgroundImageFix" result="effect1_dropShadow"/>
<feBlend mode="normal" in="SourceGraphic" in2="effect1_dropShadow" result="shape"/>
</filter>
<filter id="filter1_d" x="0" y="0.000488281" width="366.154" height="366.154" filterUnits="userSpaceOnUse" color-interpolation-filters="sRGB">
<feFlood flood-opacity="0" result="BackgroundImageFix"/>
<feColorMatrix in="SourceAlpha" type="matrix" values="0 0 0 0 0 0 0 0 0 0 0 0 0 0 0 0 0 0 127 0"/>
<feOffset/>
<feGaussianBlur stdDeviation="5"/>
<feColorMatrix type="matrix" values="0 0 0 0 0 0 0 0 0 0 0 0 0 0 0 0 0 0 0.25 0"/>
<feBlend mode="normal" in2="BackgroundImageFix" result="effect1_dropShadow"/>
<feBlend mode="normal" in="SourceGraphic" in2="effect1_dropShadow" result="shape"/>
</filter>
<filter id="filter2_d" x="129.231" y="377.308" width="204.615" height="204.615" filterUnits="userSpaceOnUse" color-interpolation-filters="sRGB">
<feFlood flood-opacity="0" result="BackgroundImageFix"/>
<feColorMatrix in="SourceAlpha" type="matrix" values="0 0 0 0 0 0 0 0 0 0 0 0 0 0 0 0 0 0 127 0"/>
<feOffset/>
<feGaussianBlur stdDeviation="5"/>
<feColorMatrix type="matrix" values="0 0 0 0 0 0 0 0 0 0 0 0 0 0 0 0 0 0 0.25 0"/>
<feBlend mode="normal" in2="BackgroundImageFix" result="effect1_dropShadow"/>
<feBlend mode="normal" in="SourceGraphic" in2="effect1_dropShadow" result="shape"/>
</filter>
<filter id="filter3_d" x="313.846" y="544.616" width="100.769" height="100.769" filterUnits="userSpaceOnUse" color-interpolation-filters="sRGB">
<feFlood flood-opacity="0" result="BackgroundImageFix"/>
<feColorMatrix in="SourceAlpha" type="matrix" values="0 0 0 0 0 0 0 0 0 0 0 0 0 0 0 0 0 0 127 0"/>
<feOffset/>
<feGaussianBlur stdDeviation="5"/>
<feColorMatrix type="matrix" values="0 0 0 0 0 0 0 0 0 0 0 0 0 0 0 0 0 0 0.25 0"/>
<feBlend mode="normal" in2="BackgroundImageFix" result="effect1_dropShadow"/>
<feBlend mode="normal" in="SourceGraphic" in2="effect1_dropShadow" result="shape"/>
</filter>
<filter id="filter4_d" x="313.846" y="548.616" width="100.769" height="100.769" filterUnits="userSpaceOnUse" color-interpolation-filters="sRGB">
<feFlood flood-opacity="0" result="BackgroundImageFix"/>
<feColorMatrix in="SourceAlpha" type="matrix" values="0 0 0 0 0 0 0 0 0 0 0 0 0 0 0 0 0 0 127 0"/>
<feOffset dy="4"/>
<feGaussianBlur stdDeviation="5"/>
<feColorMatrix type="matrix" values="0 0 0 0 0 0 0 0 0 0 0 0 0 0 0 0 0 0 0.25 0"/>
<feBlend mode="normal" in2="BackgroundImageFix" result="effect1_dropShadow"/>
<feBlend mode="normal" in="SourceGraphic" in2="effect1_dropShadow" result="shape"/>
</filter>
<filter id="filter5_d" x="420.535" y="601" width="76.2296" height="66.1538" filterUnits="userSpaceOnUse" color-interpolation-filters="sRGB">
<feFlood flood-opacity="0" result="BackgroundImageFix"/>
<feColorMatrix in="SourceAlpha" type="matrix" values="0 0 0 0 0 0 0 0 0 0 0 0 0 0 0 0 0 0 127 0"/>
<feOffset/>
<feGaussianBlur stdDeviation="5"/>
<feColorMatrix type="matrix" values="0 0 0 0 0 0 0 0 0 0 0 0 0 0 0 0 0 0 0.25 0"/>
<feBlend mode="normal" in2="BackgroundImageFix" result="effect1_dropShadow"/>
<feBlend mode="normal" in="SourceGraphic" in2="effect1_dropShadow" result="shape"/>
</filter>
<filter id="filter6_d" x="424.557" y="605" width="66.1538" height="66.1538" filterUnits="userSpaceOnUse" color-interpolation-filters="sRGB">
<feFlood flood-opacity="0" result="BackgroundImageFix"/>
<feColorMatrix in="SourceAlpha" type="matrix" values="0 0 0 0 0 0 0 0 0 0 0 0 0 0 0 0 0 0 127 0"/>
<feOffset dy="4"/>
<feGaussianBlur stdDeviation="5"/>
<feColorMatrix type="matrix" values="0 0 0 0 0 0 0 0 0 0 0 0 0 0 0 0 0 0 0.25 0"/>
<feBlend mode="normal" in2="BackgroundImageFix" result="effect1_dropShadow"/>
<feBlend mode="normal" in="SourceGraphic" in2="effect1_dropShadow" result="shape"/>
</filter>
<filter id="filter7_d" x="900" y="54.0005" width="397.156" height="397.156" filterUnits="userSpaceOnUse" color-interpolation-filters="sRGB">
<feFlood flood-opacity="0" result="BackgroundImageFix"/>
<feColorMatrix in="SourceAlpha" type="matrix" values="0 0 0 0 0 0 0 0 0 0 0 0 0 0 0 0 0 0 127 0"/>
<feOffset/>
<feGaussianBlur stdDeviation="5"/>
<feColorMatrix type="matrix" values="0 0 0 0 0 0 0 0 0 0 0 0 0 0 0 0 0 0 0.25 0"/>
<feBlend mode="normal" in2="BackgroundImageFix" result="effect1_dropShadow"/>
<feBlend mode="normal" in="SourceGraphic" in2="effect1_dropShadow" result="shape"/>
</filter>
<filter id="filter8_d" x="1230" y="270" width="397.156" height="397.156" filterUnits="userSpaceOnUse" color-interpolation-filters="sRGB">
<feFlood flood-opacity="0" result="BackgroundImageFix"/>
<feColorMatrix in="SourceAlpha" type="matrix" values="0 0 0 0 0 0 0 0 0 0 0 0 0 0 0 0 0 0 127 0"/>
<feOffset/>
<feGaussianBlur stdDeviation="5"/>
<feColorMatrix type="matrix" values="0 0 0 0 0 0 0 0 0 0 0 0 0 0 0 0 0 0 0.25 0"/>
<feBlend mode="normal" in2="BackgroundImageFix" result="effect1_dropShadow"/>
<feBlend mode="normal" in="SourceGraphic" in2="effect1_dropShadow" result="shape"/>
</filter>
<filter id="filter9_d" x="1482.51" y="454" width="208.578" height="208.578" filterUnits="userSpaceOnUse" color-interpolation-filters="sRGB">
<feFlood flood-opacity="0" result="BackgroundImageFix"/>
<feColorMatrix in="SourceAlpha" type="matrix" values="0 0 0 0 0 0 0 0 0 0 0 0 0 0 0 0 0 0 127 0"/>
<feOffset/>
<feGaussianBlur stdDeviation="5"/>
<feColorMatrix type="matrix" values="0 0 0 0 0 0 0 0 0 0 0 0 0 0 0 0 0 0 0.25 0"/>
<feBlend mode="normal" in2="BackgroundImageFix" result="effect1_dropShadow"/>
<feBlend mode="normal" in="SourceGraphic" in2="effect1_dropShadow" result="shape"/>
</filter>
<filter id="filter10_d" x="906" y="316" width="196.578" height="196.578" filterUnits="userSpaceOnUse" color-interpolation-filters="sRGB">
<feFlood flood-opacity="0" result="BackgroundImageFix"/>
<feColorMatrix in="SourceAlpha" type="matrix" values="0 0 0 0 0 0 0 0 0 0 0 0 0 0 0 0 0 0 127 0"/>
<feOffset dy="4"/>
<feGaussianBlur stdDeviation="2"/>
<feColorMatrix type="matrix" values="0 0 0 0 0 0 0 0 0 0 0 0 0 0 0 0 0 0 0.25 0"/>
<feBlend mode="normal" in2="BackgroundImageFix" result="effect1_dropShadow"/>
<feBlend mode="normal" in="SourceGraphic" in2="effect1_dropShadow" result="shape"/>
</filter>
<filter id="filter11_d" x="900" y="306" width="208.578" height="208.578" filterUnits="userSpaceOnUse" color-interpolation-filters="sRGB">
<feFlood flood-opacity="0" result="BackgroundImageFix"/>
<feColorMatrix in="SourceAlpha" type="matrix" values="0 0 0 0 0 0 0 0 0 0 0 0 0 0 0 0 0 0 127 0"/>
<feOffset/>
<feGaussianBlur stdDeviation="5"/>
<feColorMatrix type="matrix" values="0 0 0 0 0 0 0 0 0 0 0 0 0 0 0 0 0 0 0.25 0"/>
<feBlend mode="normal" in2="BackgroundImageFix" result="effect1_dropShadow"/>
<feBlend mode="normal" in="SourceGraphic" in2="effect1_dropShadow" result="shape"/>
</filter>
<filter id="filter12_d" x="1340" y="127" width="133.719" height="133.719" filterUnits="userSpaceOnUse" color-interpolation-filters="sRGB">
<feFlood flood-opacity="0" result="BackgroundImageFix"/>
<feColorMatrix in="SourceAlpha" type="matrix" values="0 0 0 0 0 0 0 0 0 0 0 0 0 0 0 0 0 0 127 0"/>
<feOffset dy="4"/>
<feGaussianBlur stdDeviation="2"/>
<feColorMatrix type="matrix" values="0 0 0 0 0 0 0 0 0 0 0 0 0 0 0 0 0 0 0.25 0"/>
<feBlend mode="normal" in2="BackgroundImageFix" result="effect1_dropShadow"/>
<feBlend mode="normal" in="SourceGraphic" in2="effect1_dropShadow" result="shape"/>
</filter>
<filter id="filter13_d" x="1334" y="117" width="145.719" height="145.719" filterUnits="userSpaceOnUse" color-interpolation-filters="sRGB">
<feFlood flood-opacity="0" result="BackgroundImageFix"/>
<feColorMatrix in="SourceAlpha" type="matrix" values="0 0 0 0 0 0 0 0 0 0 0 0 0 0 0 0 0 0 127 0"/>
<feOffset/>
<feGaussianBlur stdDeviation="5"/>
<feColorMatrix type="matrix" values="0 0 0 0 0 0 0 0 0 0 0 0 0 0 0 0 0 0 0.25 0"/>
<feBlend mode="normal" in2="BackgroundImageFix" result="effect1_dropShadow"/>
<feBlend mode="normal" in="SourceGraphic" in2="effect1_dropShadow" result="shape"/>
</filter>
</defs>
</svg>
