<svg width="120" height="122" viewBox="0 0 120 122" fill="none" xmlns="http://www.w3.org/2000/svg">
<g filter="url(#filter0_d)">
<rect x="20" y="20" width="80" height="89.2857" rx="7" fill="white"/>
</g>
<path d="M30.2679 36.2896L31.7199 34.8976C33.3879 33.3016 33.9159 32.4736 33.9159 31.4056C33.9159 30.2296 33.2559 29.3776 31.6959 29.3776C30.4839 29.3776 29.4039 29.9656 29.2839 31.2256C29.4159 31.4776 29.6199 31.6216 29.8959 31.6216C30.2319 31.6216 30.4239 31.3936 30.5799 30.8056L30.7959 29.9776C31.0359 29.9296 31.2399 29.9176 31.3959 29.9176C32.2719 29.9176 32.8359 30.5416 32.8359 31.5256C32.8359 32.4616 32.3079 33.4576 31.1919 34.5976L29.3439 36.4936V37.2856H34.2639V36.2896H30.2679ZM40.6342 29.8696L40.8982 31.3936H41.5822L41.4982 29.2576H35.5222V29.7496L36.6262 29.8816C36.6502 30.9136 36.6502 31.9456 36.6502 32.9776V33.5656C36.6502 34.6096 36.6502 35.6536 36.6262 36.6616L35.5222 36.7936V37.2856H38.9182V36.7936L37.8022 36.6616C37.7782 35.6416 37.7782 34.5976 37.7782 33.4696H39.6502L39.8182 34.7176H40.3702V31.7536H39.8182L39.6502 32.9056H37.7782C37.7782 31.8856 37.7782 30.8656 37.8022 29.8696H40.6342ZM43.8462 34.1056L45.0462 30.6376L46.2222 34.1056H43.8462ZM48.2742 36.6856L45.6942 29.2576H44.9742L42.4062 36.6376L41.3862 36.7936V37.2856H44.1462V36.7936L42.9822 36.6376L43.6542 34.6696H46.4142L47.0862 36.6496L45.9102 36.7936V37.2856H49.1742V36.7936L48.2742 36.6856ZM58.7397 35.1496L58.4757 36.6856H55.4037C55.3797 35.6536 55.3797 34.6096 55.3797 33.4696H57.1797L57.3357 34.5976H57.8757V31.7536H57.3357L57.1677 32.9056H55.3797C55.3797 31.8856 55.3797 30.8656 55.4037 29.8696H58.2357L58.4997 31.3936H59.1837L59.0997 29.2576H53.1237V29.7496L54.2277 29.8816C54.2517 30.9136 54.2517 31.9456 54.2517 32.9776V33.5656C54.2517 34.6096 54.2517 35.6536 54.2277 36.6616L53.1237 36.7936V37.2856H59.3397L59.4237 35.1496H58.7397ZM66.1719 36.6856C66.1599 36.0856 66.1479 35.3176 66.1479 34.7656V33.6136C66.1479 32.0416 65.6439 31.3936 64.6119 31.3936C63.8439 31.3936 63.0399 31.8376 62.4519 32.4856L62.3559 31.5136L62.1759 31.3936L60.5079 32.1256V32.5456L61.4559 32.6536C61.4799 33.1336 61.4919 33.4936 61.4919 34.1536V34.7656C61.4919 35.3056 61.4799 36.0856 61.4679 36.6856L60.5799 36.8536V37.2856H63.3639V36.8536L62.5239 36.6856C62.5119 36.0856 62.4999 35.2936 62.4999 34.7656V33.0016C63.1119 32.4736 63.5919 32.2456 64.1559 32.2456C64.8639 32.2456 65.1399 32.6176 65.1399 33.7096V34.7656C65.1399 35.3176 65.1279 36.0976 65.1159 36.6856L64.2279 36.8536V37.2856H67.0119V36.8536L66.1719 36.6856ZM71.515 36.0256C70.843 36.5176 70.603 36.6736 70.207 36.6736C69.919 36.6736 69.667 36.5896 69.475 36.3976C69.343 36.2536 69.247 36.0736 69.247 35.7616C69.247 35.4016 69.367 34.9336 70.423 34.5256C70.675 34.4296 71.095 34.2856 71.515 34.1776V36.0256ZM73.435 36.5056L73.375 36.5776C73.267 36.6736 73.123 36.7816 72.931 36.7816C72.667 36.7816 72.535 36.5536 72.535 36.0736V33.5056C72.535 31.9696 71.935 31.3936 70.675 31.3936C69.451 31.3936 68.551 31.9936 68.335 32.9056C68.371 33.2176 68.563 33.4216 68.899 33.4216C69.223 33.4216 69.439 33.2176 69.547 32.8456L69.787 32.0056C70.027 31.9576 70.231 31.9456 70.399 31.9456C71.191 31.9456 71.515 32.2336 71.515 33.3976V33.7216C71.035 33.8416 70.543 33.9856 70.171 34.1176C68.539 34.7056 68.179 35.2696 68.179 35.9536C68.179 36.9376 68.911 37.4656 69.787 37.4656C70.495 37.4656 70.903 37.1416 71.539 36.5056C71.647 37.0456 72.031 37.4056 72.703 37.4056C73.087 37.4056 73.399 37.2736 73.675 36.7696L73.435 36.5056ZM76.2862 32.7736C76.9342 32.2336 77.4022 32.0776 77.7742 32.0776C78.6862 32.0776 79.2982 32.9416 79.2982 34.4776C79.2982 36.0256 78.5662 36.7816 77.7142 36.7816C77.2702 36.7816 76.7782 36.5776 76.2862 36.1096V32.7736ZM76.2502 30.3376L76.2982 28.6336L76.1302 28.5376L74.2942 29.0776V29.4976L75.2782 29.6176V34.7656C75.2782 35.2936 75.2662 36.0856 75.2542 36.6856L74.3542 36.8536V37.2856L76.1662 37.4056L76.2382 36.7096H76.3342C76.8262 37.2736 77.3662 37.4656 77.9182 37.4656C79.3222 37.4656 80.3782 36.2296 80.3782 34.3816C80.3782 32.5216 79.3702 31.3936 78.0982 31.3936C77.4382 31.3936 76.8142 31.6816 76.2502 32.3176V30.3376ZM83.3805 36.6856C83.3685 36.0496 83.3565 35.4016 83.3565 34.7656V30.3376L83.4045 28.6336L83.2365 28.5376L81.3645 29.0776V29.4976L82.3485 29.6176V34.7656C82.3485 35.4016 82.3365 36.0376 82.3245 36.6856L81.3765 36.8536V37.2856H84.3285V36.8536L83.3805 36.6856ZM86.545 33.8656C86.677 32.4736 87.469 31.9456 88.153 31.9456C88.885 31.9456 89.449 32.5576 89.449 33.2416C89.449 33.5896 89.305 33.8656 88.729 33.8656H86.545ZM90.361 34.3816C90.409 34.2136 90.445 33.9856 90.445 33.7096C90.445 32.2576 89.461 31.3936 88.201 31.3936C86.689 31.3936 85.441 32.6656 85.441 34.4896C85.441 36.3256 86.497 37.4656 88.117 37.4656C89.209 37.4656 90.001 36.9256 90.421 36.0616L90.133 35.8336C89.701 36.3496 89.233 36.6976 88.465 36.6976C87.313 36.6976 86.545 35.8576 86.521 34.3816H90.361Z" fill="#151D59"/>
<path d="M69.169 65.9721C69.1322 65.8008 69.0364 65.6478 68.8984 65.5398C68.7603 65.4319 68.5887 65.3758 68.4136 65.3814C64.4643 65.4923 61.9969 62.9742 61.9741 62.9503C61.9039 62.8763 61.8194 62.8174 61.7256 62.7771C61.6319 62.7368 61.531 62.7161 61.429 62.7161C61.327 62.7161 61.2261 62.7368 61.1324 62.7771C61.0386 62.8174 60.9541 62.8763 60.8839 62.9503C60.859 62.9773 58.4238 65.4954 54.4444 65.3814C54.2696 65.3757 54.0982 65.4315 53.9602 65.539C53.8222 65.6466 53.7262 65.7991 53.689 65.9701C53.6672 66.0737 53.1543 68.4571 53.8051 71.422C54.4092 74.1774 56.1636 77.9713 61.0964 80.4014C61.2 80.4518 61.3137 80.4781 61.429 80.4781C61.5443 80.4781 61.658 80.4518 61.7617 80.4014C66.6944 77.9713 68.4488 74.1774 69.053 71.422C69.7037 68.454 69.1908 66.0726 69.169 65.9721ZM65.9368 70.3028L61.4373 74.8023C61.2607 74.9782 61.0217 75.0769 60.7725 75.0769C60.5233 75.0769 60.2843 74.9782 60.1077 74.8023L57.6642 72.3733C57.4885 72.1968 57.3898 71.9579 57.3897 71.7089C57.3897 71.4599 57.4882 71.2209 57.6638 71.0444C57.8394 70.8678 58.0778 70.7679 58.3268 70.7667C58.5759 70.7654 58.8153 70.8627 58.9927 71.0375L60.7699 72.7992L64.6042 68.9649C64.7812 68.79 65.0204 68.6922 65.2693 68.693C65.5182 68.6938 65.7567 68.7931 65.9326 68.9691C66.1086 69.1452 66.2077 69.3838 66.2083 69.6327C66.2089 69.8816 66.1109 70.1207 65.9358 70.2976L65.9368 70.3028Z" fill="#01AC5A"/>
<path d="M71.9401 47.1428H50.917C48.8326 47.1428 47.1428 48.8326 47.1428 50.917V94.1467C47.1428 96.2311 48.8326 97.9208 50.917 97.9208H71.9401C74.0245 97.9208 75.7143 96.2311 75.7143 94.1467V50.917C75.7143 48.8326 74.0245 47.1428 71.9401 47.1428Z" stroke="#01AC5A" stroke-width="2" stroke-linecap="round" stroke-linejoin="round"/>
<path d="M72.2024 55.7512H50.6549V87.703H72.2024V55.7512Z" stroke="#01AC5A" stroke-width="2" stroke-linecap="round" stroke-linejoin="round"/>
<path d="M61.0736 51.5317H65.1939" stroke="#01AC5A" stroke-width="2" stroke-linecap="round" stroke-linejoin="round"/>
<path d="M57.6642 51.5232H58.3896" stroke="#01AC5A" stroke-width="2" stroke-linecap="round" stroke-linejoin="round"/>
<path d="M61.429 94.3818C62.3705 94.3818 63.1337 93.6186 63.1337 92.6771C63.1337 91.7356 62.3705 90.9724 61.429 90.9724C60.4876 90.9724 59.7244 91.7356 59.7244 92.6771C59.7244 93.6186 60.4876 94.3818 61.429 94.3818Z" fill="#01AC5A" stroke="#01AC5A" stroke-width="2" stroke-linecap="round" stroke-linejoin="round"/>
<defs>
<filter id="filter0_d" x="0" y="0" width="120" height="129.286" filterUnits="userSpaceOnUse" color-interpolation-filters="sRGB">
<feFlood flood-opacity="0" result="BackgroundImageFix"/>
<feColorMatrix in="SourceAlpha" type="matrix" values="0 0 0 0 0 0 0 0 0 0 0 0 0 0 0 0 0 0 127 0"/>
<feOffset/>
<feGaussianBlur stdDeviation="10"/>
<feColorMatrix type="matrix" values="0 0 0 0 0.112772 0 0 0 0 0.0662216 0 0 0 0 0.338542 0 0 0 0.115517 0"/>
<feBlend mode="normal" in2="BackgroundImageFix" result="effect1_dropShadow"/>
<feBlend mode="normal" in="SourceGraphic" in2="effect1_dropShadow" result="shape"/>
</filter>
</defs>
</svg>
