<svg width="120" height="122" viewBox="0 0 120 122" fill="none" xmlns="http://www.w3.org/2000/svg">
<g filter="url(#filter0_d)">
<rect x="20" y="20" width="80" height="89.2857" rx="7" fill="white"/>
</g>
<path d="M28.7601 36.2898L30.2121 34.8978C31.8801 33.3018 32.4081 32.4738 32.4081 31.4058C32.4081 30.2298 31.7481 29.3778 30.1881 29.3778C28.9761 29.3778 27.8961 29.9658 27.7761 31.2258C27.9081 31.4778 28.1121 31.6218 28.3881 31.6218C28.7241 31.6218 28.9161 31.3938 29.0721 30.8058L29.2881 29.9778C29.5281 29.9298 29.7321 29.9178 29.8881 29.9178C30.7641 29.9178 31.3281 30.5418 31.3281 31.5258C31.3281 32.4618 30.8001 33.4578 29.6841 34.5978L27.8361 36.4938V37.2858H32.7561V36.2898H28.7601ZM39.1263 29.8698L39.3903 31.3938H40.0743L39.9903 29.2578H34.0143V29.7498L35.1183 29.8818C35.1423 30.9138 35.1423 31.9458 35.1423 32.9778V33.5658C35.1423 34.6098 35.1423 35.6538 35.1183 36.6618L34.0143 36.7938V37.2858H37.4103V36.7938L36.2943 36.6618C36.2703 35.6418 36.2703 34.5978 36.2703 33.4698H38.1423L38.3103 34.7178H38.8623V31.7538H38.3103L38.1423 32.9058H36.2703C36.2703 31.8858 36.2703 30.8658 36.2943 29.8698H39.1263ZM42.3384 34.1058L43.5384 30.6378L44.7144 34.1058H42.3384ZM46.7664 36.6858L44.1864 29.2578H43.4664L40.8984 36.6378L39.8784 36.7938V37.2858H42.6384V36.7938L41.4744 36.6378L42.1464 34.6698H44.9064L45.5784 36.6498L44.4024 36.7938V37.2858H47.6664V36.7938L46.7664 36.6858ZM53.8959 36.7218C53.8719 35.6658 53.8719 34.5978 53.8719 33.4218V32.9778C53.8719 31.9098 53.8719 30.8538 53.8959 29.8218H54.9519C56.6199 29.8218 57.7239 31.0218 57.7239 33.2778C57.7239 35.5218 56.6199 36.7218 54.9639 36.7218H53.8959ZM51.6159 29.2578V29.7498L52.7199 29.8818C52.7439 30.9138 52.7439 31.9458 52.7439 32.9778V33.4218C52.7439 34.5858 52.7439 35.6418 52.7199 36.6618L51.6159 36.7938V37.2858H54.9279C57.1839 37.2858 59.0319 35.8698 59.0319 33.2658C59.0319 30.6738 57.3759 29.2578 55.1679 29.2578H51.6159ZM61.6817 30.1098C62.1377 30.1098 62.4857 29.7858 62.4857 29.3298C62.4857 28.8738 62.1377 28.5618 61.6817 28.5618C61.2257 28.5618 60.8777 28.8738 60.8777 29.3298C60.8777 29.7858 61.2257 30.1098 61.6817 30.1098ZM62.2217 36.6858C62.2097 36.0858 62.1977 35.2938 62.1977 34.7658V33.1458L62.2337 31.5138L62.0537 31.3938L60.2057 32.1258V32.5458L61.1537 32.6538C61.1777 33.1338 61.1897 33.5058 61.1897 34.1658V34.7658C61.1897 35.2938 61.1777 36.0858 61.1657 36.6858L60.2657 36.8538V37.2858H63.0497V36.8538L62.2217 36.6858ZM66.4059 33.8298C65.5779 33.5298 65.2899 33.3018 65.2899 32.8218C65.2899 32.2818 65.6739 31.9458 66.4059 31.9458C66.6939 31.9458 66.9699 32.0178 67.2459 32.1498L67.4259 33.1098H68.0499L68.0979 31.8858C67.5699 31.5738 67.0659 31.3938 66.4179 31.3938C65.1339 31.3938 64.3179 32.2098 64.3179 33.1338C64.3179 33.9018 64.8939 34.4058 65.7699 34.7298L66.3219 34.9338C67.0899 35.2218 67.4619 35.4858 67.4619 35.9898C67.4619 36.5418 67.0179 36.9138 66.1059 36.9138C65.7339 36.9138 65.4219 36.8538 65.1339 36.7218L64.9059 35.6898H64.2459L64.2819 36.9978C64.8819 37.3098 65.3979 37.4658 66.0819 37.4658C67.6299 37.4658 68.4099 36.6378 68.4099 35.7378C68.4099 34.9938 67.9779 34.4058 66.7659 33.9618L66.4059 33.8298ZM73.0228 36.0258C72.3508 36.5178 72.1108 36.6738 71.7148 36.6738C71.4268 36.6738 71.1748 36.5898 70.9828 36.3978C70.8508 36.2538 70.7548 36.0738 70.7548 35.7618C70.7548 35.4018 70.8748 34.9338 71.9308 34.5258C72.1828 34.4298 72.6028 34.2858 73.0228 34.1778V36.0258ZM74.9428 36.5058L74.8828 36.5778C74.7748 36.6738 74.6308 36.7818 74.4388 36.7818C74.1748 36.7818 74.0428 36.5538 74.0428 36.0738V33.5058C74.0428 31.9698 73.4428 31.3938 72.1828 31.3938C70.9588 31.3938 70.0588 31.9938 69.8428 32.9058C69.8788 33.2178 70.0708 33.4218 70.4068 33.4218C70.7308 33.4218 70.9468 33.2178 71.0548 32.8458L71.2948 32.0058C71.5348 31.9578 71.7388 31.9458 71.9068 31.9458C72.6988 31.9458 73.0228 32.2338 73.0228 33.3978V33.7218C72.5428 33.8418 72.0508 33.9858 71.6788 34.1178C70.0468 34.7058 69.6868 35.2698 69.6868 35.9538C69.6868 36.9378 70.4188 37.4658 71.2948 37.4658C72.0028 37.4658 72.4108 37.1418 73.0468 36.5058C73.1548 37.0458 73.5388 37.4058 74.2108 37.4058C74.5948 37.4058 74.9068 37.2738 75.1828 36.7698L74.9428 36.5058ZM77.794 32.7738C78.442 32.2338 78.91 32.0778 79.282 32.0778C80.194 32.0778 80.806 32.9418 80.806 34.4778C80.806 36.0258 80.074 36.7818 79.222 36.7818C78.778 36.7818 78.286 36.5778 77.794 36.1098V32.7738ZM77.758 30.3378L77.806 28.6338L77.638 28.5378L75.802 29.0778V29.4978L76.786 29.6178V34.7658C76.786 35.2938 76.774 36.0858 76.762 36.6858L75.862 36.8538V37.2858L77.674 37.4058L77.746 36.7098H77.842C78.334 37.2738 78.874 37.4658 79.426 37.4658C80.83 37.4658 81.886 36.2298 81.886 34.3818C81.886 32.5218 80.878 31.3938 79.606 31.3938C78.946 31.3938 78.322 31.6818 77.758 32.3178V30.3378ZM84.8883 36.6858C84.8763 36.0498 84.8643 35.4018 84.8643 34.7658V30.3378L84.9123 28.6338L84.7443 28.5378L82.8723 29.0778V29.4978L83.8563 29.6178V34.7658C83.8563 35.4018 83.8443 36.0378 83.8323 36.6858L82.8843 36.8538V37.2858H85.8363V36.8538L84.8883 36.6858ZM88.0528 33.8658C88.1848 32.4738 88.9768 31.9458 89.6608 31.9458C90.3928 31.9458 90.9568 32.5578 90.9568 33.2418C90.9568 33.5898 90.8128 33.8658 90.2368 33.8658H88.0528ZM91.8688 34.3818C91.9168 34.2138 91.9528 33.9858 91.9528 33.7098C91.9528 32.2578 90.9688 31.3938 89.7088 31.3938C88.1968 31.3938 86.9488 32.6658 86.9488 34.4898C86.9488 36.3258 88.0048 37.4658 89.6248 37.4658C90.7168 37.4658 91.5088 36.9258 91.9288 36.0618L91.6408 35.8338C91.2088 36.3498 90.7408 36.6978 89.9728 36.6978C88.8208 36.6978 88.0528 35.8578 88.0288 34.3818H91.8688Z" fill="#151D59"/>
<path d="M69.169 65.9721C69.1322 65.8008 69.0364 65.6478 68.8984 65.5398C68.7603 65.4319 68.5887 65.3758 68.4136 65.3814C64.4643 65.4923 61.9969 62.9742 61.9741 62.9503C61.9039 62.8763 61.8194 62.8174 61.7256 62.7771C61.6319 62.7368 61.531 62.7161 61.429 62.7161C61.327 62.7161 61.2261 62.7368 61.1324 62.7771C61.0386 62.8174 60.9541 62.8763 60.8839 62.9503C60.859 62.9773 58.4238 65.4954 54.4444 65.3814C54.2696 65.3757 54.0982 65.4315 53.9602 65.539C53.8222 65.6466 53.7262 65.7991 53.689 65.9701C53.6672 66.0737 53.1543 68.4571 53.8051 71.422C54.4092 74.1774 56.1636 77.9713 61.0964 80.4014C61.2 80.4518 61.3137 80.4781 61.429 80.4781C61.5443 80.4781 61.658 80.4518 61.7617 80.4014C66.6944 77.9713 68.4488 74.1774 69.053 71.422C69.7037 68.454 69.1908 66.0726 69.169 65.9721ZM65.9368 70.3028L61.4373 74.8023C61.2607 74.9782 61.0217 75.0769 60.7725 75.0769C60.5233 75.0769 60.2843 74.9782 60.1077 74.8023L57.6642 72.3733C57.4885 72.1968 57.3898 71.9579 57.3897 71.7089C57.3897 71.4599 57.4882 71.2209 57.6638 71.0444C57.8394 70.8678 58.0778 70.7679 58.3268 70.7667C58.5759 70.7654 58.8153 70.8627 58.9927 71.0375L60.7699 72.7992L64.6042 68.9649C64.7812 68.79 65.0204 68.6922 65.2693 68.693C65.5182 68.6938 65.7567 68.7931 65.9326 68.9691C66.1086 69.1452 66.2077 69.3838 66.2083 69.6327C66.2089 69.8816 66.1109 70.1207 65.9358 70.2976L65.9368 70.3028Z" fill="#C4302B"/>
<path d="M71.9401 47.1428H50.917C48.8326 47.1428 47.1428 48.8326 47.1428 50.917V94.1467C47.1428 96.2311 48.8326 97.9208 50.917 97.9208H71.9401C74.0245 97.9208 75.7143 96.2311 75.7143 94.1467V50.917C75.7143 48.8326 74.0245 47.1428 71.9401 47.1428Z" stroke="#C4302B" stroke-width="2" stroke-linecap="round" stroke-linejoin="round"/>
<path d="M72.2024 55.7512H50.6549V87.703H72.2024V55.7512Z" stroke="#C4302B" stroke-width="2" stroke-linecap="round" stroke-linejoin="round"/>
<path d="M61.0736 51.5317H65.1939" stroke="#C4302B" stroke-width="2" stroke-linecap="round" stroke-linejoin="round"/>
<path d="M57.6642 51.5232H58.3896" stroke="#C4302B" stroke-width="2" stroke-linecap="round" stroke-linejoin="round"/>
<path d="M61.429 94.3818C62.3705 94.3818 63.1337 93.6186 63.1337 92.6771C63.1337 91.7356 62.3705 90.9724 61.429 90.9724C60.4876 90.9724 59.7244 91.7356 59.7244 92.6771C59.7244 93.6186 60.4876 94.3818 61.429 94.3818Z" fill="#C4302B" stroke="#C4302B" stroke-width="2" stroke-linecap="round" stroke-linejoin="round"/>
<defs>
<filter id="filter0_d" x="0" y="0" width="120" height="129.286" filterUnits="userSpaceOnUse" color-interpolation-filters="sRGB">
<feFlood flood-opacity="0" result="BackgroundImageFix"/>
<feColorMatrix in="SourceAlpha" type="matrix" values="0 0 0 0 0 0 0 0 0 0 0 0 0 0 0 0 0 0 127 0"/>
<feOffset/>
<feGaussianBlur stdDeviation="10"/>
<feColorMatrix type="matrix" values="0 0 0 0 0.112772 0 0 0 0 0.0662216 0 0 0 0 0.338542 0 0 0 0.115517 0"/>
<feBlend mode="normal" in2="BackgroundImageFix" result="effect1_dropShadow"/>
<feBlend mode="normal" in="SourceGraphic" in2="effect1_dropShadow" result="shape"/>
</filter>
</defs>
</svg>
