<svg width="1069" height="752" viewBox="0 0 1069 752" fill="none" xmlns="http://www.w3.org/2000/svg">
<rect width="1069" height="718" fill="#DADADA" fill-opacity="0.17"/>
<path opacity="0.15" d="M1069.57 551.917C1069.57 662.216 979.868 751.917 869.569 751.917C759.27 751.917 669.569 662.548 669.569 551.917C669.569 441.618 759.27 351.917 869.569 351.917C980.201 351.917 1069.57 441.618 1069.57 551.917Z" fill="#FFB71C"/>
<path opacity="0.4" d="M888 112.393C888 139.968 865.575 162.393 838 162.393C810.425 162.393 788 140.051 788 112.393C788 84.8182 810.425 62.3929 838 62.3929C865.658 62.3929 888 84.8182 888 112.393Z" fill="#E9BCF1"/>
<path opacity="0.4" d="M549 379.97C549 405.207 526.575 425.731 499 425.731C471.425 425.731 449 405.283 449 379.97C449 354.734 471.425 334.21 499 334.21C526.658 334.21 549 354.734 549 379.97Z" fill="#151D59"/>
<path opacity="0.3" d="M36 75.6083C36 95.7977 53.9402 112.217 76 112.217C98.0598 112.217 116 95.8585 116 75.6083C116 55.419 98.0598 39 76 39C53.8738 39 36 55.419 36 75.6083Z" fill="#FFF988"/>
</svg>
