<svg width="35" height="29" viewBox="0 0 35 29" fill="none" xmlns="http://www.w3.org/2000/svg">
<path d="M13.005 27.2437C11.975 27.2437 12.15 26.8547 11.7947 25.8739L8.76562 15.9049L32.0823 2.07227" fill="#C8DAEA"/>
<path d="M13.0049 27.2437C13.7998 27.2437 14.151 26.8802 14.5947 26.4488L18.834 22.3265L13.5459 19.1377" fill="#A9C9DD"/>
<path d="M13.5452 19.1381L26.3588 28.605C27.821 29.4118 28.8763 28.9941 29.2405 27.2474L34.4563 2.66877C34.9903 0.527818 33.6402 -0.443216 32.2413 0.191845L1.61437 12.0015C-0.476207 12.84 -0.46402 14.0063 1.2333 14.526L9.09287 16.9791L27.2886 5.49965C28.1476 4.97876 28.936 5.2588 28.2889 5.83308" fill="url(#paint0_linear)"/>
<defs>
<linearGradient id="paint0_linear" x1="22.8095" y1="12.6701" x2="31.284" y2="34.5691" gradientUnits="userSpaceOnUse">
<stop stop-color="#0088CC"/>
<stop offset="1" stop-color="white"/>
</linearGradient>
</defs>
</svg>
