<svg width="36" height="29" viewBox="0 0 36 29" fill="none" xmlns="http://www.w3.org/2000/svg">
<path d="M9.90272 28.961C6.96759 28.7732 4.3037 28.0533 1.74067 26.7561C0.912993 26.3353 -0.0816156 25.7511 0.00532566 25.7372C0.0366245 25.7302 0.248761 25.7407 0.478286 25.7615C1.07296 25.8172 2.32144 25.8067 2.98567 25.7441C5.70172 25.4868 8.21954 24.527 10.407 22.9168L10.7165 22.6873L10.5809 22.6803C8.61599 22.5586 6.93629 21.804 5.60434 20.4373C4.90534 19.7278 4.30023 18.7576 3.9768 17.8395L3.88638 17.5856L3.96289 17.6065C4.0081 17.6169 4.30023 17.6551 4.61669 17.6864C5.11052 17.7351 5.26701 17.7386 5.73997 17.7038C6.19207 17.669 7.09626 17.523 7.14147 17.4778C7.14842 17.4708 6.96411 17.4152 6.7311 17.3491C5.44785 16.9979 4.33848 16.3441 3.41342 15.3947C2.30753 14.261 1.61548 12.8629 1.40334 11.3328C1.34422 10.912 1.29901 10.2199 1.33031 10.2199C1.34074 10.2199 1.51115 10.2964 1.7059 10.3903C2.26232 10.6546 2.83613 10.8494 3.4169 10.9676C3.68816 11.0233 4.58539 11.1311 4.60626 11.1102C4.61321 11.1067 4.47411 10.9954 4.30023 10.8633C3.4482 10.2304 2.68659 9.32617 2.19625 8.36982C1.8137 7.62213 1.61896 7.00658 1.44507 6.01197C1.38595 5.67117 1.38943 4.37748 1.44855 4.02972C1.56679 3.33766 1.7059 2.80558 1.90412 2.30828C2.00498 2.05093 2.34579 1.35193 2.37013 1.35193C2.37361 1.35193 2.54401 1.5432 2.74572 1.77968C3.6047 2.77776 4.67929 3.80367 5.71215 4.60701C8.59165 6.84661 11.9128 8.26897 15.4878 8.79062C16.3468 8.91581 17.4492 9.00971 17.4492 8.95407C17.4492 8.94711 17.4318 8.85669 17.411 8.75584C17.1015 7.15612 17.3206 5.50772 18.0404 4.06449C19.3863 1.35888 22.2832 -0.258223 25.26 0.0338991C26.9328 0.197349 28.4143 0.868534 29.6419 2.02311C29.7984 2.17265 29.9514 2.29089 29.9862 2.29089C30.087 2.29089 30.7652 2.12397 31.2659 1.9779C32.2849 1.67883 33.4569 1.18152 34.3437 0.673786C34.4619 0.604233 34.5593 0.565979 34.5593 0.586845C34.5593 0.666831 34.2672 1.35541 34.0863 1.69621C33.7003 2.42652 33.3004 2.9586 32.6779 3.56023C32.2814 3.94625 31.9197 4.2349 31.5754 4.44703C31.4746 4.50963 31.3946 4.56527 31.4016 4.56875C31.4155 4.58266 31.9649 4.50268 32.3684 4.42965C33.276 4.25924 34.5767 3.86627 35.3522 3.52198C35.4496 3.48025 35.533 3.45243 35.533 3.46286C35.533 3.49764 35.1261 4.05754 34.8027 4.46442C34.0898 5.35818 33.1334 6.29714 32.2779 6.94398L31.9267 7.21176L31.9058 8.44633C31.878 10.2095 31.7493 11.2563 31.3529 12.9325C30.4278 16.8588 28.3343 20.5694 25.4756 23.3515C23.2847 25.4764 20.6278 27.0761 17.7622 27.9872C15.2896 28.7697 12.4449 29.1244 9.90272 28.961Z" fill="#00ACED"/>
</svg>
