<svg width="48" height="47" viewBox="0 0 48 47" fill="none" xmlns="http://www.w3.org/2000/svg">
<path d="M24.113 9.69602C23.529 9.77202 22.812 9.86402 22.002 9.94002V20.555H0V12.034C0 10.694 1.072 9.62002 2.414 9.62002H12.441C9.748 9.05602 7.728 7.90302 7.654 5.77402C7.578 3.26602 10.406 -0.787982 14.535 0.137018C18.797 1.09602 21.775 4.39702 24.056 7.22502C26.357 4.34202 29.618 0.627019 34.066 0.0410191C37.783 -0.429981 40.855 3.28502 40.459 5.73602C40.121 7.88402 38.064 9.05402 35.443 9.61902H45.341C46.681 9.61902 47.755 10.693 47.755 12.033V20.554H25.754V9.86402C25.207 9.81102 24.678 9.75102 24.227 9.67802V9.65802C24.19 9.65802 24.17 9.65802 24.151 9.65802H24.131L24.151 9.67802C24.15 9.67902 24.131 9.69602 24.113 9.69602ZM37.48 6.51102C38.894 4.70002 36.123 0.929019 33.144 2.32302C30.296 3.66302 28.242 5.84802 26.47 7.99902C27.995 8.13202 29.542 8.16702 31.07 8.09302C32.937 8.01702 36.387 7.88602 37.48 6.51102ZM10.633 6.52802C12.612 8.56502 18.041 8.41502 21.682 8.03602C19.965 5.89002 17.854 3.49302 14.989 2.36002C12.932 1.54902 11.727 2.41902 10.86 3.85202C10.388 4.66102 9.881 5.73702 10.633 6.52802Z" fill="#FFF"/>
<path d="M45.719 22.272V43.838C45.719 45.065 44.739 46.043 43.531 46.043H25.603V22.272H45.719Z" fill="#FFF"/>
<path d="M24.15 9.67906L24.13 9.65906H24.15C24.17 9.65906 24.189 9.65906 24.226 9.65906V9.67906C24.206 9.67906 24.206 9.67906 24.189 9.67906C24.17 9.67906 24.17 9.67906 24.15 9.67906Z" fill="#FFF"/>
<path d="M22.1521 22.272V46.043H4.22206C3.01506 46.043 2.03406 45.064 2.03406 43.838V22.272H22.1521Z" fill="#FFF"/>
</svg>
