<svg width="35" height="29" viewBox="0 0 35 29" fill="none" xmlns="http://www.w3.org/2000/svg">
<path d="M11.2676 17.8791C11.3702 18.1679 11.4627 18.4506 11.5425 18.7262L21.1104 13.5154C21.0256 13.2331 20.9292 12.9489 20.8231 12.6636L11.2676 17.8791Z" fill="#053CCE"/>
<path d="M11.6855 19.2649C11.7607 19.5766 11.8199 19.8794 11.8629 20.1717L22.211 14.4335C22.1626 14.1377 22.0952 13.8353 22.0132 13.5291L11.6855 19.2649Z" fill="#053CCE"/>
<path d="M22.5847 14.6465L11.9287 20.7479C11.9558 21.1002 11.9577 21.4375 11.9353 21.76L22.6214 15.6489C22.6389 15.3283 22.6249 14.993 22.5847 14.6465Z" fill="#053CCE"/>
<path d="M10.7031 16.4853C10.827 16.7594 10.9416 17.0293 11.047 17.2934C13.9025 15.8065 19.662 12.8213 21.7525 11.6698C21.6417 11.3964 21.5221 11.1238 21.397 10.8528C19.5083 11.9025 13.6783 14.9338 10.7031 16.4853Z" fill="#053CCE"/>
<path d="M8.94141 13.245C9.32434 13.8789 9.91675 14.8647 10.2846 15.6015C10.345 15.7215 10.4031 15.8404 10.46 15.9581C15.0552 13.755 19.3825 11.5348 21.2329 10.5045C20.8178 9.64375 20.3481 8.80509 19.8788 8.04077C18.0741 9.0165 13.6474 11.1503 8.94141 13.245Z" fill="#053CCE"/>
<path d="M29.4641 7.83413C28.936 6.51031 28.2189 5.18302 27.5061 4.02686L21.2734 7.33039C22.047 8.73435 22.6731 10.016 23.1529 11.1779L29.4641 7.83413Z" fill="#053CCE"/>
<path d="M23.6172 12.3972L29.8731 8.98797C29.7867 8.70648 29.6895 8.42306 29.5827 8.1377L23.3066 11.5578C23.4201 11.8455 23.5227 12.125 23.6172 12.3972Z" fill="#053CCE"/>
<path d="M23.9791 13.575L29.5168 10.4376C29.4603 10.1437 29.3875 9.84478 29.3007 9.54199L23.7197 12.7034C23.8185 13.0035 23.9052 13.2939 23.9791 13.575Z" fill="#053CCE"/>
<path d="M30.1974 10.3474L24.0596 13.8914C24.1099 14.1013 24.1517 14.3045 24.1881 14.5035C24.2234 14.6011 24.257 14.6956 24.288 14.7858L30.288 11.3208C30.2829 11.0072 30.2512 10.6819 30.1974 10.3474Z" fill="#053CCE"/>
<path d="M30.7923 0.235014C30.5112 -0.0182107 30.1039 -0.0716433 29.7659 0.0983347C29.5913 0.186615 12.4127 9.25391 3.65396 11.9952C3.33956 12.0936 3.1026 12.353 3.03252 12.6744C2.96243 12.9961 3.07046 13.3307 3.31478 13.5506C4.11278 14.2685 4.82909 15.2028 5.4304 16.2536L1.54182 18.2593C1.53795 18.2612 1.53485 18.2639 1.53137 18.2658C0.712452 18.672 0.172318 19.5645 0.037187 20.7536C-0.21565 22.9764 0.8259 26.2707 3.00619 27.9364C4.064 28.7441 4.95764 29 5.66427 29C6.07547 29 6.42239 28.9133 6.7035 28.799C6.9211 28.7108 7.15264 28.5834 7.38534 28.401C8.15083 27.8926 20.2924 19.7581 32.7802 12.427C32.7918 12.4196 32.8038 12.413 32.8143 12.4057L32.8491 12.3824C33.6069 11.8826 34.111 10.8995 34.3088 9.54005C34.7491 6.49671 33.0783 2.29179 30.7923 0.235014ZM5.90472 17.5658C6.53584 19.0805 6.93426 20.7183 7.01829 22.2532L6.44911 22.5927C6.20557 21.1098 5.45983 19.5877 4.44926 18.6774C4.36136 18.5977 4.27115 18.5249 4.18132 18.4548L5.90472 17.5658ZM6.01119 27.102C5.43002 27.3389 4.66066 26.8944 4.11859 26.4798C2.38435 25.1552 1.69089 22.4231 1.85738 20.9603C1.92088 20.3981 2.12261 19.9881 2.38164 19.8897C2.43353 19.8704 2.49044 19.8607 2.55201 19.8607C2.82459 19.8607 3.19088 20.0442 3.55639 20.3726C4.52941 21.2488 5.19344 23.0845 5.00488 24.3816C4.95416 24.7308 5.10942 25.0789 5.40369 25.2748C5.69718 25.4711 6.07779 25.4804 6.38096 25.2992L7.22892 24.7928C7.00822 26.0236 6.56101 26.8778 6.01119 27.102ZM32.4941 9.27676C32.3237 10.4507 31.9493 10.7802 31.8451 10.8488L31.8343 10.8561C22.5296 16.3198 13.412 22.2636 9.03285 25.1234C9.05376 25.0092 9.07235 24.8915 9.08977 24.7707C9.16256 24.2689 9.19818 23.7481 9.19935 23.2161C9.21057 23.129 9.21019 23.0403 9.19664 22.9524C9.15675 20.8643 8.59842 18.6128 7.66567 16.597L7.31139 15.8807C6.81772 14.9337 6.24003 14.052 5.59419 13.2842C13.8724 10.4279 26.9909 3.53739 29.9986 2.03198C31.5729 3.78287 32.8154 7.05814 32.4941 9.27676Z" fill="#053CCE"/>
</svg>
