<svg width="31" height="29" viewBox="0 0 31 29" fill="none" xmlns="http://www.w3.org/2000/svg">
<path fill-rule="evenodd" clip-rule="evenodd" d="M16.9981 12.0989C17.1236 11.9639 17.1725 11.9226 17.2076 11.8715C18.9191 9.37416 21.3635 8.6399 24.2158 9.0783C27.5118 9.58559 29.6211 11.8928 30.1595 15.4231C30.2872 16.2601 30.3507 17.1006 30.3501 17.9469C30.3481 21.4619 30.3426 24.9766 30.3575 28.4914C30.3598 28.8873 30.2624 29.0035 29.8567 28.9986C28.0154 28.9764 26.1732 28.9768 24.3316 28.9986C23.9287 29.003 23.8255 28.8882 23.8276 28.4917C23.8425 25.2135 23.8373 21.9354 23.834 18.6576C23.8328 17.9125 23.7817 17.1722 23.5722 16.4507C22.9009 14.1366 20.2681 13.3243 18.3934 14.8631C17.3804 15.6941 16.9845 16.7931 16.9921 18.0865C17.0085 21.1788 16.9969 24.271 16.9969 27.3633C16.9969 27.769 16.9743 28.1759 17.0037 28.5793C17.0296 28.9297 16.8863 28.9972 16.5688 28.9951C14.6931 28.9825 12.8177 28.9812 10.9423 28.996C10.6019 28.9986 10.4797 28.9294 10.4835 28.5554C10.511 25.768 10.5221 22.9794 10.5233 20.1918C10.5238 16.7616 10.517 13.3315 10.4931 9.90136C10.4906 9.52584 10.5692 9.41471 10.9571 9.41908C12.8328 9.44011 14.7083 9.43691 16.5838 9.42117C16.9215 9.41804 17.0157 9.51977 17.0049 9.84828C16.9818 10.5551 16.9981 11.2631 16.9981 12.0989Z" fill="#0077B5"/>
<path fill-rule="evenodd" clip-rule="evenodd" d="M6.91625 19.2113C6.91625 22.3022 6.90965 25.3934 6.92415 28.4846C6.92572 28.8685 6.8484 29.0052 6.42992 28.9997C4.57222 28.975 2.71401 28.9807 0.856119 28.9963C0.511221 28.9992 0.394862 28.913 0.395254 28.5504C0.40433 22.3172 0.402763 16.0844 0.393556 9.85143C0.393164 9.52671 0.472304 9.41812 0.813022 9.42132C2.705 9.43751 4.59697 9.43947 6.48855 9.42001C6.8661 9.41583 6.92487 9.55368 6.92336 9.88721C6.91174 12.9955 6.91671 16.1032 6.91625 19.2113Z" fill="#0077B5"/>
<path fill-rule="evenodd" clip-rule="evenodd" d="M3.70957 3.632e-06C6.20201 0.0026155 7.82137 1.97686 7.23063 4.29241C6.78426 6.04079 4.976 7.04734 2.88879 6.70845C0.671834 6.34867 -0.563906 4.18506 0.253021 2.0942C0.762923 0.788591 2.06775 -0.00195527 3.70957 3.632e-06Z" fill="#0077B5"/>
</svg>
