<svg width="34" height="24" viewBox="0 0 34 24" fill="none" xmlns="http://www.w3.org/2000/svg">
<path d="M5.21767 23.3817C2.70201 23.0594 0.695689 21.2533 0.118019 18.7905C0.00621151 18.3344 0 17.9148 0 11.6756V5.04728L0.136653 4.51215C0.552824 2.92499 1.55288 1.6054 2.95047 0.796619C3.46602 0.498647 4.16171 0.237161 4.75181 0.109459C5.25494 0.00608106 5.8823 0 17.0195 0C28.2313 0 28.7841 0.00608106 29.2562 0.11554C30.6787 0.437836 31.8526 1.14324 32.716 2.20742C33.1446 2.73648 33.6478 3.70945 33.8403 4.37836L33.977 4.86485L33.9956 11.4324C34.008 16.2425 33.9956 18.1216 33.9397 18.456C33.5981 20.627 32.07 22.4026 29.9395 23.1202C28.9581 23.4486 29.2562 23.4425 16.9574 23.4364C10.7024 23.4303 5.42265 23.406 5.21767 23.3817ZM18.4047 13.7128C20.6036 12.5696 22.3801 11.6087 22.349 11.5844C22.2372 11.481 13.6529 7.14525 13.5597 7.14525C13.4044 7.14525 13.3858 7.6743 13.3858 12.15V16.3398L13.9014 16.0662C14.1809 15.9202 16.2058 14.8621 18.4047 13.7128Z" fill="#C4302B"/>
</svg>
