<svg width="14" height="29" viewBox="0 0 14 29" fill="none" xmlns="http://www.w3.org/2000/svg">
<path d="M3.02677 28.7948C2.98829 28.6794 2.94981 25.4217 2.94981 21.5485V14.5074L2.64201 14.4305C2.47528 14.392 2.25725 14.3664 2.16747 14.3792C2.06487 14.4048 1.53903 14.4048 0.987546 14.392L0 14.3792L0.0256506 11.9167L0.0641264 9.44145L1.51338 9.40298L2.94981 9.3645V7.54331C2.94981 5.08086 3.10372 4.13179 3.66803 2.97752C4.43755 1.42566 5.57899 0.489413 7.14368 0.155955C7.65669 0.0533531 11.4786 -0.0364238 13.3768 0.0148773C13.582 0.0148773 13.5948 0.220082 13.5948 2.45168V4.88848H12.0558C9.36245 4.88848 9.05464 5.18346 9.05464 7.71004L9.04182 9.3132L11.2606 9.35168L13.4665 9.37733V9.80056C13.4665 10.0186 13.4152 10.6983 13.3511 11.3011C13.2742 11.9039 13.1844 12.8273 13.1459 13.3532C13.0946 13.879 12.992 14.3535 12.9022 14.4048C12.8253 14.4561 11.9403 14.5074 10.94 14.5074H9.10595V21.5998C9.10595 26.948 9.06747 28.7307 8.95204 28.8461C8.83661 28.9615 7.99015 29 5.95093 29C3.47565 29 3.09089 28.9743 3.02677 28.7948Z" fill="#3B5998"/>
</svg>
