<svg width="29" height="29" viewBox="0 0 29 29" fill="none" xmlns="http://www.w3.org/2000/svg">
<path d="M28.5626 18.0077C26.626 25.7756 18.7585 30.503 10.9897 28.5659C3.22416 26.6292 -1.50324 18.7613 0.434298 10.9939C2.37003 3.22513 10.2376 -1.50273 18.004 0.433906C25.7723 2.37054 30.4993 10.2394 28.5626 18.0077Z" fill="#FF9900"/>
<path d="M20.8912 12.4345C21.1799 10.5051 19.7109 9.46794 17.7022 8.77602L18.3538 6.16243L16.7629 5.76595L16.1285 8.31067C15.7103 8.20645 15.2807 8.10812 14.8539 8.0107L15.4928 5.44921L13.9028 5.05273L13.2507 7.66543C12.9045 7.58658 12.5647 7.50864 12.2348 7.42663L12.2366 7.41848L10.0426 6.87065L9.61942 8.56986C9.61942 8.56986 10.7998 8.84037 10.7749 8.85713C11.4192 9.01799 11.5357 9.44438 11.5162 9.78241L10.774 12.7599C10.8184 12.7712 10.8759 12.7875 10.9394 12.8129C10.8863 12.7997 10.8297 12.7852 10.7713 12.7712L9.73088 16.9422C9.65204 17.1379 9.45222 17.4315 9.00182 17.3201C9.01768 17.3432 7.84545 17.0314 7.84545 17.0314L7.05566 18.8525L9.12597 19.3686C9.51112 19.4651 9.88857 19.5662 10.2601 19.6613L9.60175 22.3048L11.1908 22.7013L11.8429 20.0859C12.277 20.2037 12.6984 20.3125 13.1107 20.4149L12.4609 23.0181L14.0518 23.4145L14.7102 20.776C17.4231 21.2894 19.463 21.0823 20.3217 18.6287C21.0136 16.6531 20.2872 15.5135 18.8599 14.7704C19.8994 14.5307 20.6824 13.8469 20.8912 12.4345L20.8912 12.4345ZM17.2563 17.5317C16.7647 19.5073 13.4383 18.4393 12.3599 18.1715L13.2335 14.6693C14.3119 14.9385 17.7702 15.4713 17.2563 17.5317ZM17.7484 12.406C17.2998 14.203 14.5312 13.29 13.6332 13.0662L14.4252 9.88979C15.3233 10.1136 18.2156 10.5314 17.7484 12.406Z" fill="white"/>
</svg>
