<svg width="48" height="50" viewBox="0 0 48 50" fill="none" xmlns="http://www.w3.org/2000/svg">
<path d="M16 8C16 11.309 13.309 14 10 14C6.69103 14 4 11.3189 4 8C4 4.69103 6.69103 2 10 2C13.3189 2 16 4.69103 16 8Z" fill="#151D59"/>
<path d="M47 11C47 17.0664 42.0664 22 36 22C29.9336 22 25 17.0847 25 11C25 4.93355 29.9336 0 36 0C42.0847 0 47 4.93355 47 11Z" fill="#6C7EA0"/>
<path d="M28 25C28 32.7209 21.7209 39 14 39C6.27907 39 0 32.7442 0 25C0 17.2791 6.27907 11 14 11C21.7442 11 28 17.2791 28 25Z" fill="#FFB71C"/>
<path d="M48 33C48 42.3754 40.3754 50 31 50C21.6246 50 14 42.4037 14 33C14 23.6246 21.6246 16 31 16C40.4037 16 48 23.6246 48 33Z" fill="#E9BCF1"/>
</svg>
