<svg width="38" height="29" viewBox="0 0 38 29" fill="none" xmlns="http://www.w3.org/2000/svg">
<path d="M0.073408 28.9842C0.073408 28.9684 0.633361 27.1623 1.31556 24.9777L2.55376 20.9989L2.24618 20.5415C1.14599 18.905 0.479571 17.2764 0.171991 15.4349C0.0221447 14.5437 -0.0172886 13.9088 0.00637137 12.9663C0.0931247 9.8156 1.15782 7.01189 3.13738 4.71686C3.55537 4.23183 4.48994 3.32881 4.98286 2.93447C7.32125 1.06928 10.121 0.083441 13.2836 0.00457419C14.8294 -0.0309159 16.1149 0.138648 17.5227 0.564528C17.8815 0.674942 18.0353 0.702545 18.1536 0.682828C18.2403 0.670998 18.6426 0.659168 19.0527 0.659168C19.7861 0.659168 19.8058 0.659168 20.2593 0.525095C20.977 0.316098 21.5922 0.185968 22.4715 0.0637243C22.9723 -0.00331249 24.9913 -0.00331249 25.5473 0.0637243C28.3826 0.414681 30.6618 1.33742 32.7045 2.97391C33.5484 3.64822 34.5894 4.7563 35.2755 5.71059C36.009 6.72797 36.6596 8.06081 37.0422 9.31874C37.4562 10.691 37.6337 11.8937 37.6297 13.3607C37.6297 14.4845 37.5469 15.2061 37.2985 16.259C36.9357 17.8048 36.1312 19.5556 35.2361 20.7702L35.0784 20.9831L35.1415 21.1842C35.177 21.2947 35.7369 23.0968 36.3915 25.1867C37.0422 27.2767 37.5706 28.996 37.5627 28.9999C37.5548 29.0078 35.7724 28.1797 33.5996 27.1623L29.6523 25.3129L29.2856 25.4628C28.0868 25.9596 26.6436 26.3027 25.2871 26.4171C24.597 26.4723 23.0591 26.4407 22.3927 26.3579C21.5725 26.2514 20.8074 26.0858 20.0543 25.8532C19.6954 25.7427 19.6402 25.7388 19.2656 25.7585C19.0448 25.7743 18.6702 25.7703 18.4296 25.7506C18.055 25.723 17.9683 25.7309 17.779 25.794C17.0771 26.0267 15.9808 26.2633 15.0581 26.3816C14.4271 26.4604 12.416 26.4486 11.7851 26.3579C10.4996 26.1805 9.4546 25.9044 8.2716 25.4352L7.9719 25.3129L4.19025 27.0914C-0.0133453 29.063 0.073408 29.0236 0.073408 28.9842ZM35.1494 26.1292C34.9995 25.6797 33.4734 20.7505 33.4734 20.715C33.4734 20.6913 33.6193 20.4784 33.7968 20.2418C35.106 18.4791 35.8237 16.748 36.0997 14.6975C36.1825 14.0823 36.1943 12.6824 36.1234 12.0791C35.7724 9.14129 34.6525 6.84627 32.5822 4.84305C30.6776 2.99757 28.4181 1.92498 25.6459 1.55036C25.3857 1.51487 24.7823 1.47544 24.3052 1.46755L23.4377 1.44784L23.7531 1.58191C24.8967 2.063 25.7958 2.5914 26.7579 3.34458C27.31 3.77835 28.3589 4.82333 28.7966 5.3754C30.441 7.45354 31.3046 9.75645 31.5018 12.5917C31.5964 13.9482 31.3677 15.6596 30.8827 17.166C29.8101 20.5218 27.1562 23.4083 23.9109 24.7569C23.694 24.8476 23.481 24.9344 23.4377 24.958C23.2839 25.029 25.3226 24.9659 25.8865 24.8792C26.9788 24.7135 28.1105 24.3902 29.0175 23.988C29.2462 23.8854 29.4867 23.779 29.5498 23.7514C29.6681 23.7001 29.7509 23.7356 32.4285 24.9935C33.9466 25.7073 35.1927 26.2909 35.1967 26.2909C35.2006 26.2948 35.177 26.2199 35.1494 26.1292ZM5.23129 24.9777L7.96007 23.7001L8.49637 23.9328C9.55318 24.3941 10.6179 24.7056 11.7654 24.8831C12.3135 24.9659 14.0486 25.029 14.3325 24.9777L14.4823 24.9462L14.021 24.7569C11.0004 23.5108 8.4175 20.8412 7.25422 17.7693C6.65089 16.1762 6.33542 14.2085 6.42612 12.6311C6.63906 9.05454 8.09415 6.02605 10.6967 3.75469C11.7496 2.83195 13.0312 2.03145 14.1314 1.60951C14.2615 1.55825 14.3838 1.50304 14.4035 1.48333C14.4587 1.43601 13.0785 1.44389 12.5343 1.49121C9.32841 1.78302 6.63117 3.08827 4.54515 5.35568C2.84951 7.19722 1.91494 9.22016 1.54427 11.8346C1.45752 12.434 1.44963 14.0547 1.5285 14.6225C1.80453 16.6533 2.46701 18.3372 3.61452 19.9421C3.78014 20.1708 3.97336 20.435 4.04829 20.5297L4.18236 20.6953L3.36609 23.3097C2.91261 24.7451 2.52222 25.9951 2.49461 26.0898C2.46701 26.1805 2.45518 26.2554 2.47095 26.2554C2.48673 26.2554 3.72888 25.6797 5.23129 24.9777ZM20.0464 24.1891C20.0898 24.1851 20.2238 24.1654 20.3421 24.1496C20.5235 24.126 21.1269 24.0195 21.4739 23.9525C21.7617 23.8933 22.7239 23.6055 22.9329 23.5108C22.9999 23.4793 23.067 23.4556 23.0788 23.4556C23.1419 23.4556 24.0292 23.0337 24.3446 22.8562C25.2634 22.3318 26.0166 21.76 26.7658 21.0068C27.8069 19.9697 28.5758 18.8419 29.0963 17.5998C29.187 17.3829 29.2738 17.1699 29.2935 17.1266C29.3684 16.9491 29.6642 15.9554 29.7115 15.7148C29.9481 14.5042 29.9836 14.1651 29.9796 13.1635C29.9796 12.154 29.8811 11.3653 29.6287 10.3637C29.4118 9.4883 28.9071 8.28953 28.426 7.5048C27.2587 5.59229 25.4409 3.97552 23.5323 3.14741C23.3706 3.07643 23.1892 2.99757 23.1222 2.96996C22.4479 2.67816 21.115 2.33903 20.3027 2.25622C20.1844 2.24439 19.9794 2.21679 19.8492 2.20101C19.6323 2.16947 18.1023 2.1813 17.917 2.21284C17.8736 2.22073 17.7317 2.24045 17.6015 2.25622C17.2703 2.2996 17.2466 2.30354 16.7892 2.39424C16.5644 2.44156 16.3436 2.48493 16.3002 2.49282C16.0676 2.54014 15.2947 2.78463 14.9003 2.93842C14.4311 3.12375 13.7016 3.47471 13.323 3.69948C13.0903 3.8375 12.3017 4.37379 12.1637 4.48815C11.3277 5.19006 10.9412 5.57651 10.2511 6.40067C10.0303 6.66487 9.50192 7.4772 9.2732 7.90702C9.03266 8.35262 8.94196 8.5419 8.72902 9.04271C8.14935 10.3913 7.81023 12.5878 7.96007 14.0507C7.99951 14.4411 8.09415 15.147 8.13358 15.352C8.28737 16.1328 8.61072 17.1305 8.94196 17.86C9.63599 19.3821 10.8111 20.8569 12.1794 21.9216C12.5146 22.1819 13.1732 22.6393 13.3624 22.7379C13.4176 22.7655 13.5872 22.8602 13.7371 22.943C14.8767 23.57 16.3397 24.0037 17.9091 24.1851C18.331 24.2324 19.7309 24.2364 20.0464 24.1891Z" fill="#282828"/>
<path d="M19.829 23.4042C19.829 23.3727 19.8842 23.2662 19.9512 23.1637C20.3022 22.6392 20.8267 21.2788 21.1106 20.1628L21.2841 19.4925L18.993 19.4806C17.7311 19.4767 16.6901 19.4806 16.6783 19.4964C16.6388 19.5358 17.0174 20.9357 17.2067 21.4602C17.4314 22.0793 17.7745 22.8482 17.9559 23.144C18.1018 23.3806 18.1136 23.4161 18.0584 23.4161C18.019 23.4161 17.5143 22.7615 17.2934 22.4224C16.903 21.819 16.4574 20.8647 16.138 19.9459L15.9645 19.453L15.2666 19.4254C14.8801 19.4096 14.2097 19.3781 13.7799 19.3544C13.3461 19.3347 12.9873 19.3229 12.9755 19.3347C12.94 19.3663 13.567 20.4783 13.9376 21.0343C14.1388 21.3419 14.4661 21.7914 14.6632 22.032C14.8604 22.2725 15.0063 22.4697 14.9905 22.4697C14.9708 22.4697 14.7421 22.2843 14.4818 22.0596C14.0086 21.6534 13.492 21.1132 13.0938 20.6084C12.8848 20.3442 12.2381 19.3978 12.2105 19.315C12.1986 19.2795 11.6387 19.2164 10.6647 19.1415C10.3255 19.1178 10.2782 19.0784 10.5858 19.0784C10.8579 19.0745 11.9423 18.9759 11.9699 18.9483C11.9778 18.9364 11.895 18.7472 11.7806 18.5224C11.1103 17.1856 10.6883 15.5412 10.6134 13.9639C10.5897 13.471 10.5858 13.4355 10.5069 13.4197C10.4596 13.4118 10.0771 13.3763 9.65518 13.3408C9.23324 13.3054 8.83496 13.2699 8.76792 13.2659C8.70483 13.258 8.59047 13.2501 8.51949 13.2462C8.44851 13.2462 8.39725 13.2265 8.41302 13.2068C8.42485 13.1831 8.46429 13.1713 8.50372 13.1713C8.53921 13.1752 8.68511 13.1634 8.82707 13.1516C8.96903 13.1358 9.41069 13.0964 9.81291 13.0648C10.2112 13.0293 10.5464 12.9938 10.5543 12.9859C10.5621 12.982 10.5819 12.7493 10.6016 12.4733C10.7238 10.7895 11.0906 9.33835 11.7491 7.96213C11.8753 7.69398 11.9778 7.46921 11.9739 7.46133C11.962 7.45738 11.5677 7.42189 10.6055 7.34697C10.3334 7.32331 10.294 7.28782 10.5464 7.28387C10.6528 7.28387 10.8027 7.27599 10.8776 7.2681C10.9525 7.26021 11.2719 7.23261 11.5874 7.20895C11.9029 7.18135 12.1631 7.15769 12.1631 7.15374C12.1671 7.15374 12.3327 6.90531 12.5299 6.60956C13.2594 5.51332 13.9337 4.77591 14.9432 3.96358C15.1956 3.75853 15.4913 3.58108 15.4401 3.66389C15.4164 3.70332 15.3809 3.73881 15.3691 3.73881C15.3178 3.73881 14.6948 4.46833 14.3714 4.9021C13.7957 5.67894 12.9912 7.01178 13.0622 7.07882C13.0741 7.09065 13.5236 7.07882 14.0599 7.05516C14.5962 7.02756 15.2508 6.99995 15.511 6.98812L15.9842 6.96446L16.0947 6.62534C16.3549 5.80512 16.9267 4.5748 17.3171 3.99907C17.6247 3.54165 18.2122 2.81607 18.2122 2.89494C18.2122 2.90283 18.1452 3.01324 18.0663 3.13548C17.7154 3.68361 17.2303 4.84689 16.9543 5.78935C16.8439 6.17185 16.6743 6.85799 16.6743 6.92503C16.6743 6.9408 17.7035 6.95263 18.9615 6.95263C20.6729 6.95263 21.2486 6.9408 21.2486 6.90531C21.2486 6.81462 21.0514 6.02989 20.9134 5.57641C20.665 4.75619 20.2746 3.85317 19.8093 3.02901L19.7107 2.85156L19.8329 2.98958C20.0695 3.25378 20.3692 3.64417 20.5704 3.94387C20.9883 4.56297 21.5601 5.78146 21.8401 6.63717C21.8874 6.79096 21.9426 6.92897 21.9584 6.94869C21.9781 6.96446 22.3803 6.99601 22.8535 7.01178C23.3267 7.0315 23.9419 7.0591 24.2219 7.07488L24.7306 7.10248L24.5216 6.71209C23.9616 5.67105 23.2439 4.65367 22.5341 3.90838C22.3843 3.75064 22.2778 3.62051 22.2936 3.62051C22.3843 3.62051 23.311 4.38158 23.7369 4.80352C24.3086 5.36741 24.7266 5.88399 25.2156 6.62139C25.4049 6.90531 25.5823 7.14586 25.6021 7.1498C25.6691 7.17346 27.0493 7.28782 27.2385 7.28782C27.5934 7.28782 27.3568 7.32331 26.5721 7.39035C26.1265 7.42584 25.7558 7.46133 25.748 7.46921C25.7401 7.4771 25.7795 7.55597 25.8308 7.65061C25.9727 7.89509 26.2448 8.51025 26.4026 8.94402C26.8048 10.0521 27.0532 11.2785 27.1439 12.6232C27.1597 12.8322 27.1873 13.0057 27.207 13.0057C27.2307 13.0057 27.6408 13.0411 28.1219 13.0845C28.6029 13.1279 29.0919 13.1713 29.2102 13.1831C29.4626 13.2068 29.5257 13.2423 29.3088 13.2423C29.0683 13.2383 27.2267 13.4079 27.1952 13.4355C27.1833 13.4473 27.1518 13.7155 27.1242 14.0309C26.9862 15.7818 26.6234 17.1738 25.9451 18.5461C25.8387 18.7629 25.7558 18.9443 25.7598 18.9522C25.7795 18.968 26.9743 19.0784 27.2031 19.0823C27.4042 19.0863 27.4121 19.0902 27.2819 19.1178C27.207 19.1376 26.8521 19.1691 26.4933 19.1967C25.4759 19.2677 25.6021 19.2085 25.2353 19.7685C24.5492 20.8174 23.6264 21.8309 22.8457 22.3869C22.6564 22.5209 22.6564 22.5209 22.96 22.17C23.4884 21.5548 24.1233 20.6045 24.561 19.7606C24.6754 19.5358 24.7621 19.3465 24.7503 19.3347C24.7385 19.3229 24.4388 19.3308 24.0839 19.3505C23.729 19.3742 23.1059 19.4018 22.6998 19.4175L21.9624 19.4412L21.8559 19.7645C21.572 20.636 21.0909 21.6928 20.6926 22.3159C20.5033 22.6195 19.8763 23.4555 19.8448 23.4555C19.8369 23.4555 19.829 23.4318 19.829 23.4042ZM14.0086 18.8418C14.3951 18.8181 14.8919 18.8024 15.1167 18.8024C15.6609 18.8024 15.7792 18.7787 15.7476 18.6683C15.7003 18.5066 15.4558 17.3591 15.3967 17.0279C15.2823 16.3733 15.1719 15.3401 15.1246 14.5041L15.0773 13.6563L14.3478 13.6287C13.3225 13.5932 11.9541 13.5183 11.7491 13.4907L11.5795 13.467L11.6032 13.9166C11.6702 15.072 11.8161 15.9987 12.0882 17.0081C12.2341 17.5523 12.4983 18.3173 12.6718 18.6959L12.7783 18.9246L13.0386 18.9009C13.1845 18.8891 13.6182 18.8615 14.0086 18.8418ZM24.9869 18.8733C25.0421 18.7984 25.3615 17.9743 25.5074 17.5208C25.8505 16.4443 26.0555 15.2573 26.1226 13.9797L26.1502 13.471L25.8978 13.4946C25.5035 13.5301 24.3757 13.5932 23.5673 13.6208L22.8259 13.6445V13.9599C22.8259 15.0799 22.5854 16.9766 22.2739 18.27C22.2147 18.5303 22.1713 18.755 22.1792 18.7708C22.1911 18.7905 22.4356 18.8024 22.7195 18.8063C23.1296 18.8103 24.1036 18.8576 24.8607 18.9128C24.908 18.9167 24.9632 18.897 24.9869 18.8733ZM21.4221 18.6446C21.6232 17.643 21.7849 15.9987 21.8559 14.2084L21.8795 13.6918L18.9812 13.6957H16.0828V14.2478C16.0828 15.3046 16.2208 16.8504 16.422 18.1123L16.5245 18.7432H18.9654H21.4063L21.4221 18.6446ZM13.3422 12.8479C13.9061 12.8243 14.5291 12.7967 14.7263 12.7848L15.0812 12.7612L15.1325 11.9094C15.2074 10.5687 15.3612 9.4606 15.6333 8.28154C15.7122 7.94636 15.7674 7.67032 15.7595 7.66244C15.7398 7.64272 13.5078 7.54414 13.1095 7.54414H12.7941L12.6482 7.88326C12.0803 9.19639 11.7254 10.7856 11.6071 12.5482L11.5795 12.9386L11.9463 12.915C12.1513 12.8992 12.7783 12.8716 13.3422 12.8479ZM26.1226 12.4851C26.024 10.8684 25.6928 9.35807 25.1486 8.05283C25.0618 7.83989 24.979 7.62695 24.9672 7.58751C24.9435 7.51653 24.912 7.51653 24.4861 7.54019C24.2337 7.55597 23.6146 7.58357 23.1059 7.60329C22.5972 7.62695 22.1753 7.65061 22.1674 7.65455C22.1595 7.66244 22.2068 7.89115 22.2699 8.1593C22.5775 9.44877 22.7865 11.0419 22.8378 12.5325L22.8457 12.7888L23.7132 12.8164C24.1903 12.8361 24.8134 12.8637 25.0934 12.8834C25.3773 12.8992 25.7282 12.9189 25.8781 12.9228L26.1502 12.9268L26.1226 12.4851ZM21.848 12.1973C21.8243 10.9551 21.6666 9.24766 21.4852 8.19479C21.4418 7.94636 21.4063 7.72947 21.4063 7.7137C21.4063 7.69398 20.3101 7.68215 18.9654 7.68215H16.5284L16.4259 8.34463C16.2208 9.65776 16.0828 11.2075 16.0828 12.2052V12.7296L18.8156 12.7415C20.314 12.7454 21.6153 12.7493 21.7021 12.7493H21.8598L21.848 12.1973Z" fill="#282828"/>
</svg>
