<svg width="48" height="50" viewBox="0 0 48 50" fill="none" xmlns="http://www.w3.org/2000/svg">
<path d="M36.2076 50H29.952C29.2951 50 28.7619 49.4669 28.7619 48.8099V37.8437C28.7619 36.4251 27.6098 35.273 26.1912 35.273H21.8019C20.3856 35.273 19.2335 36.4251 19.2335 37.8437V48.8099C19.2335 49.4669 18.7003 50 18.0433 50H11.7616C9.03133 50 6.81052 47.7768 6.81052 45.0489V27.8654C5.37282 27.8821 3.05668 27.9844 3.04958 27.9844C2.72105 28.0273 2.38068 27.8773 2.14267 27.6369C0.131234 25.6184 0.119394 21.6765 2.12128 19.6747L20.3404 1.46034C22.2827 -0.486779 25.6818 -0.486779 27.6265 1.46034L31.2541 5.08562V4.5429C31.2541 2.1578 33.194 0.220235 35.5791 0.220235C37.9618 0.220235 39.9019 2.1578 39.9019 4.5429V12.4004C40.5208 13.3192 43.339 16.735 45.9075 19.7461C47.8593 21.6907 47.876 25.6374 45.8742 27.6393C45.6337 27.8796 45.3052 28.0296 44.9696 27.9868C44.9624 27.9868 42.6535 27.9153 41.1538 27.8677V45.0513C41.1586 47.7791 38.9378 50 36.2076 50ZM31.1422 47.6197H36.2075C37.6262 47.6197 38.7783 46.4676 38.7783 45.0489V26.7966C38.7783 25.4851 40.166 25.4851 41.2824 25.4851C42.3201 25.4851 43.7103 25.5422 44.4935 25.5779C45.2456 24.3901 45.1315 22.324 44.165 21.3576C37.5238 13.5835 37.5238 13.2073 37.5238 12.6932V4.5429C37.5238 3.47177 36.6526 2.6006 35.5814 2.6006C34.5078 2.6006 33.6367 3.47177 33.6367 4.5429V7.96111C33.6367 8.44195 33.3463 8.87757 32.9012 9.06081C32.4585 9.2465 31.9467 9.14415 31.6039 8.80378L25.9435 3.14576C24.8985 2.10074 23.0681 2.10074 22.0256 3.14576L3.80418 21.3575C2.82822 22.3334 2.73778 24.3734 3.52332 25.5778C4.30167 25.5421 5.67278 25.485 6.6987 25.485C7.80788 25.485 9.18853 25.485 9.18853 26.7965V45.0489C9.18853 46.4675 10.3406 47.6196 11.7593 47.6196H16.8509V37.8437C16.8509 35.1158 19.0717 32.8927 21.7996 32.8927H26.1889C28.9191 32.8927 31.1399 35.1158 31.1399 37.8437V47.6197H31.1422Z" fill="white"/>
</svg>
