<svg width="17" height="19" viewBox="0 0 17 19" fill="none" xmlns="http://www.w3.org/2000/svg">
<path d="M3.46573 6.24292C3.46573 6.69851 3.76414 7.07126 4.12886 7.07126L15.7999 7.07126C16.0541 7.07126 16.2862 6.8918 16.3967 6.61567C16.5073 6.33954 16.4852 5.99442 16.3304 5.74592L13.0811 0.334093C12.86 -0.038659 12.4511 -0.107703 12.1527 0.168425C11.8543 0.444554 11.799 0.955347 12.0201 1.3281L14.4737 5.41458L4.12886 5.41458C3.76414 5.41458 3.46573 5.78733 3.46573 6.24292Z" fill="#8D9BAE"/>
<path d="M12.8868 12.0049C12.8868 11.5493 12.5884 11.1765 12.2237 11.1765L0.663147 11.1765C0.408935 11.1765 0.187917 11.356 0.0663309 11.6321C0.0221348 11.7564 1.81198e-05 11.8806 1.81198e-05 12.0049C1.81198e-05 12.1843 0.0442133 12.35 0.132644 12.5019L3.3267 17.9137C3.54776 18.2864 3.95668 18.3555 4.25508 18.0931C4.55349 17.817 4.60877 17.3062 4.39875 16.9335L1.97833 12.8332L12.2237 12.8332C12.5884 12.8332 12.8868 12.4604 12.8868 12.0049Z" fill="#8D9BAE"/>
</svg>
