<svg width="50" height="50" viewBox="0 0 50 50" fill="none" xmlns="http://www.w3.org/2000/svg">
<path d="M43.0553 4.05341H38.8895V0.000244141H36.1105V4.05341H13.8895V0.000244141H11.1105V4.05341H6.94473C3.11459 4.05341 0 7.08379 0 10.8104V43.2433C0 46.9699 3.11459 50.0002 6.94473 50.0002H43.0553C46.8854 50.0002 50 46.9699 50 43.2433V17.5673V14.8661V10.8104C50 7.08632 46.8854 4.05341 43.0553 4.05341ZM47.2237 43.2433C47.2237 45.4787 45.3554 47.2964 43.0579 47.2964H6.94473C4.64717 47.2964 2.77893 45.4787 2.77893 43.2433V17.5673H47.2237V43.2433ZM47.2237 14.8661H2.77633V10.8104C2.77633 8.57493 4.64457 6.75721 6.94213 6.75721H11.1079V9.461H13.8895V6.75721H36.1131V9.461H38.8921V6.75721H43.0579C45.3554 6.75721 47.2237 8.57493 47.2237 10.8104V14.8661Z" fill="#5E6875"/>
<path d="M22.2213 31.0815H27.7766C29.3092 31.0815 30.5555 29.8688 30.5555 28.3777V22.9726C30.5555 21.4815 29.3092 20.2688 27.7766 20.2688H22.2213C20.6887 20.2688 19.4424 21.4815 19.4424 22.9726V28.3777C19.445 29.8688 20.6913 31.0815 22.2213 31.0815ZM22.2213 22.9726H27.7766L27.7792 28.3777H22.2213V22.9726Z" fill="#5E6875"/>
<path d="M36.1105 31.0815H41.6657C43.1983 31.0815 44.4447 29.8688 44.4447 28.3777V22.9726C44.4447 21.4815 43.1983 20.2688 41.6657 20.2688H36.1105C34.5779 20.2688 33.3315 21.4815 33.3315 22.9726V28.3777C33.3341 29.8688 34.5805 31.0815 36.1105 31.0815ZM36.1105 22.9726H41.6657L41.6683 28.3777H36.1105V22.9726Z" fill="#5E6875"/>
<path d="M8.33362 44.595H13.8889C15.4215 44.595 16.6678 43.3824 16.6678 41.8912V36.4861C16.6678 34.995 15.4215 33.7823 13.8889 33.7823H8.33362C6.80104 33.7823 5.55469 34.995 5.55469 36.4861V41.8912C5.55469 43.3824 6.80104 44.595 8.33362 44.595ZM8.33362 36.4861H13.8889L13.8915 41.8912H8.33362V36.4861Z" fill="#5E6875"/>
<path d="M22.2213 44.595H27.7766C29.3092 44.595 30.5555 43.3824 30.5555 41.8912V36.4861C30.5555 34.995 29.3092 33.7823 27.7766 33.7823H22.2213C20.6887 33.7823 19.4424 34.995 19.4424 36.4861V41.8912C19.445 43.3824 20.6913 44.595 22.2213 44.595ZM22.2213 36.4861H27.7766L27.7792 41.8912H22.2213V36.4861Z" fill="#5E6875"/>
<path d="M36.1105 44.595H41.6657C43.1983 44.595 44.4447 43.3824 44.4447 41.8912V36.4861C44.4447 34.995 43.1983 33.7823 41.6657 33.7823H36.1105C34.5779 33.7823 33.3315 34.995 33.3315 36.4861V41.8912C33.3341 43.3824 34.5805 44.595 36.1105 44.595ZM36.1105 36.4861H41.6657L41.6683 41.8912H36.1105V36.4861Z" fill="#5E6875"/>
</svg>
