<svg width="38" height="38" viewBox="0 0 38 38" fill="none" xmlns="http://www.w3.org/2000/svg">
<path d="M36.845 10.322L27.6783 1.15533C27.365 0.841993 26.9417 0.666992 26.5 0.666992H12.3333C10.4917 0.666992 9 2.15866 9 4.00033V34.0003C9 35.842 10.4917 37.3337 12.3333 37.3337H34C35.8417 37.3337 37.3333 35.842 37.3333 34.0003V11.5003C37.3333 11.0587 37.1583 10.6353 36.845 10.322ZM25.6667 29.0003H17.3333C16.4133 29.0003 15.6667 28.2537 15.6667 27.3337C15.6667 26.4137 16.4133 25.667 17.3333 25.667H25.6667C26.5867 25.667 27.3333 26.4137 27.3333 27.3337C27.3333 28.2537 26.5867 29.0003 25.6667 29.0003ZM29 22.3337H17.3333C16.4133 22.3337 15.6667 21.587 15.6667 20.667C15.6667 19.747 16.4133 19.0003 17.3333 19.0003H29C29.92 19.0003 30.6667 19.747 30.6667 20.667C30.6667 21.587 29.92 22.3337 29 22.3337ZM27.3333 12.3337C26.4133 12.3337 25.6667 11.587 25.6667 10.667V3.84032L34.16 12.3337H27.3333Z" fill="#5E6875"/>
<path d="M5.6665 34.0003V4.00033C5.6665 2.78033 6.01984 1.65199 6.59317 0.666992H3.99984C2.15817 0.666992 0.666504 2.15866 0.666504 4.00033V34.0003C0.666504 35.842 2.15817 37.3337 3.99984 37.3337H6.59317C6.01984 36.3487 5.6665 35.2203 5.6665 34.0003Z" fill="#5E6875"/>
</svg>
