<svg width="25" height="25" viewBox="0 0 25 25" fill="none" xmlns="http://www.w3.org/2000/svg">
<path d="M12.5108 24.9998C19.4014 24.9998 25 19.3963 25 12.4998C25 6.61616 20.9948 1.59461 15.267 0.301505C14.7933 0.193746 14.3196 0.49547 14.2119 0.969608C14.1042 1.44375 14.4057 1.91788 14.8794 2.02564C19.8105 3.12478 23.2558 7.43512 23.2558 12.4998C23.2558 18.4265 18.4324 23.2541 12.5108 23.2541C6.58915 23.2541 1.76572 18.4265 1.76572 12.4998C1.76572 7.45668 5.18949 3.16788 10.0775 2.02564C10.5512 1.91788 10.8527 1.44375 10.745 0.969608C10.6374 0.49547 10.1637 0.193746 9.68992 0.301505C3.98363 1.61616 0 6.63771 0 12.4998C0 19.3963 5.62015 24.9998 12.5108 24.9998Z" fill="#5E6875"/>
<path d="M11.6279 0.883621V12.5C11.6279 12.9957 12.0155 13.3836 12.5108 13.3836C13.0061 13.3836 13.3936 12.9957 13.3936 12.5V0.883621C13.3936 0.387931 13.0061 0 12.5108 0C12.0155 0 11.6279 0.387931 11.6279 0.883621Z" fill="#5E6875"/>
</svg>
