<svg width="20" height="24" viewBox="0 0 20 24" fill="none" xmlns="http://www.w3.org/2000/svg">
<path d="M9.96982 23.4099C11.7543 23.4099 13.2061 21.9884 13.2968 20.2341H6.64282C6.73356 21.9884 8.18534 23.4099 9.96982 23.4099Z" fill="#5E6875"/>
<path d="M15.9281 8.5897C15.9281 5.98859 14.2948 3.6597 11.966 2.78258C12.0264 2.57086 12.0869 2.3289 12.0869 2.11718C12.0869 0.937608 11.1493 0 9.96975 0C8.79018 0 7.91307 0.937608 7.91307 2.11718C7.91307 2.35914 7.94331 2.57086 8.03405 2.78258C5.70515 3.6597 4.0719 5.98859 4.0719 8.5897C4.0719 11.8864 3.19478 13.9734 0.623921 16.5442C-0.827859 17.996 0.442448 19.3268 2.49914 19.3268H9.96975H17.5009C19.5576 19.3268 20.8279 17.996 19.3761 16.5442C16.8355 13.9734 15.9281 11.8562 15.9281 8.5897Z" fill="#5E6875"/>
<path d="M16.2607 2.84309C17.1983 3.81095 17.9242 4.96027 18.4686 6.26083C18.5594 6.50279 18.8013 6.62377 19.013 6.62377C19.1038 6.62377 19.1643 6.62377 19.255 6.56328C19.5575 6.4423 19.7087 6.07935 19.5877 5.7769C18.9828 4.32512 18.1662 3.05481 17.1378 1.99622C16.5632 1.39132 15.8978 0.846897 15.2021 0.393216C14.9299 0.211743 14.5367 0.272234 14.3553 0.574689C14.1738 0.846897 14.2343 1.24009 14.5367 1.42156C15.1719 1.81475 15.7768 2.29868 16.2607 2.84309Z" fill="#5E6875"/>
<path d="M0.896212 6.62364C1.13818 6.62364 1.34989 6.47242 1.44063 6.2607C2.2875 4.23426 3.64855 2.54051 5.37253 1.39119C5.64474 1.20972 5.73548 0.816526 5.55401 0.544318C5.37253 0.272109 4.97934 0.181373 4.70713 0.362845C2.77143 1.63315 1.25916 3.50837 0.321549 5.74653C0.200568 6.04898 0.351795 6.41193 0.654249 6.53291C0.744985 6.5934 0.805476 6.62364 0.896212 6.62364Z" fill="#5E6875"/>
</svg>
