<svg width="50" height="50" viewBox="0 0 50 50" fill="none" xmlns="http://www.w3.org/2000/svg">
<path d="M25 49.0002C38.2548 49.0002 49 38.2551 49 25.0002C49 11.7454 38.2548 1.00024 25 1.00024C11.7452 1.00024 1 11.7454 1 25.0002C1 38.2551 11.7452 49.0002 25 49.0002Z" stroke="#FFF" stroke-width="2" stroke-miterlimit="10" stroke-linecap="round"/>
<path d="M29.933 35.5284C29.787 33.9164 29.843 32.7914 29.843 31.3184C30.573 30.9354 31.881 28.4934 32.102 26.4304C32.676 26.3834 33.581 25.8234 33.846 23.6124C33.989 22.4254 33.421 21.7574 33.075 21.5474C34.009 18.7384 35.949 10.0484 29.487 9.15036C28.822 7.98236 27.119 7.39136 24.906 7.39136C16.052 7.55436 14.984 14.0774 16.925 21.5474C16.58 21.7574 16.012 22.4254 16.154 23.6124C16.42 25.8234 17.324 26.3834 17.898 26.4304C18.118 28.4924 19.478 30.9354 20.21 31.3184C20.21 32.7914 20.265 33.9164 20.119 35.5284C18.858 38.9184 12.382 39.1834 8.646 42.4524C12.552 46.3854 18.882 49.1984 25.562 49.1984C32.242 49.1984 40.094 43.9244 41.401 42.4854C37.688 39.1864 31.197 38.9304 29.933 35.5284Z" fill="#FFF"/>
</svg>
