<svg width="42" height="42" viewBox="0 0 42 42" fill="none" xmlns="http://www.w3.org/2000/svg">
<path d="M37.6665 10.5835H7.6665C5.1665 10.5835 4.33317 9.33348 4.33317 8.50015L37.6665 5.37515V2.25015C37.6665 1.00015 36.4165 -0.0415184 35.1665 0.166815L3.70817 5.79181C1.62484 6.20848 0.166504 7.87515 0.166504 9.95848V37.6668C0.166504 39.9585 2.0415 41.8335 4.33317 41.8335H37.6665C39.9582 41.8335 41.8332 39.9585 41.8332 37.6668V14.7501C41.8332 12.4585 39.9582 10.5835 37.6665 10.5835ZM34.5415 29.3335C32.8748 29.3335 31.4165 27.8751 31.4165 26.2085C31.4165 24.5418 32.8748 23.0835 34.5415 23.0835C36.2082 23.0835 37.6665 24.5418 37.6665 26.2085C37.6665 27.8751 36.2082 29.3335 34.5415 29.3335Z" fill="#5E6875"/>
<path d="M19.8863 16.0002C15.5561 16.0002 11.834 18.6042 10.305 22.3087L9.69564 21.245C9.61741 21.0994 9.49969 20.9782 9.35565 20.8949C9.21161 20.8116 9.04692 20.7695 8.88 20.7732C8.72373 20.7767 8.57107 20.8202 8.43704 20.8996C8.303 20.9789 8.19222 21.0913 8.11559 21.2257C8.03896 21.3602 7.99913 21.5119 8.00001 21.6661C8.0009 21.8204 8.04247 21.9717 8.12064 22.1052L9.77064 25.019C9.88534 25.2197 10.0746 25.3687 10.2986 25.4343C10.5225 25.4998 10.7635 25.477 10.9706 25.3705L13.905 23.8905C14.0153 23.8406 14.1142 23.7693 14.1959 23.6808C14.2775 23.5922 14.3402 23.4883 14.3801 23.3753C14.42 23.2623 14.4364 23.1425 14.4282 23.023C14.42 22.9036 14.3874 22.7871 14.3324 22.6804C14.2774 22.5737 14.2011 22.4791 14.1081 22.4022C14.0151 22.3254 13.9073 22.2679 13.7912 22.2332C13.6751 22.1984 13.553 22.1872 13.4325 22.2002C13.3119 22.2132 13.1952 22.2501 13.0894 22.3087L12.0113 22.8545C13.3005 19.8785 16.338 17.7762 19.8863 17.7762C24.6115 17.7762 28.4081 21.483 28.4081 26.0642C28.4081 30.6082 24.6694 34.2924 19.9988 34.3523C19.8798 34.3523 19.7621 34.3757 19.6524 34.4209C19.5426 34.4662 19.4431 34.5324 19.3594 34.6158C19.2758 34.6992 19.2098 34.7982 19.1651 34.907C19.1205 35.0157 19.0981 35.1322 19.0993 35.2495C19.1006 35.3669 19.1254 35.4828 19.1723 35.5906C19.2192 35.6985 19.2873 35.796 19.3727 35.8778C19.458 35.9595 19.5589 36.0237 19.6696 36.0667C19.7803 36.1097 19.8985 36.1306 20.0174 36.1283C25.6403 36.0562 30.2081 31.5735 30.2081 26.0642C30.2081 20.51 25.5713 16.0002 19.8863 16.0002ZM19.6988 20.4217C19.5798 20.423 19.4622 20.4474 19.3529 20.4938C19.2435 20.5401 19.1446 20.6073 19.0618 20.6916C18.9789 20.7759 18.9139 20.8756 18.8703 20.9849C18.8268 21.0942 18.8057 21.2109 18.8081 21.3282V26.0642C18.8081 26.1975 18.8384 26.329 18.8968 26.4491C18.9552 26.5691 19.0403 26.6747 19.1456 26.758L22.1456 29.126C22.238 29.1989 22.344 29.2531 22.4575 29.2856C22.5711 29.3181 22.6901 29.3282 22.8076 29.3153C22.9251 29.3024 23.0389 29.2668 23.1425 29.2105C23.2461 29.1543 23.3375 29.0784 23.4113 28.9873C23.4852 28.8962 23.5402 28.7916 23.5731 28.6795C23.606 28.5675 23.6162 28.4501 23.6031 28.3341C23.5901 28.2182 23.554 28.1059 23.4969 28.0037C23.4399 27.9015 23.363 27.8114 23.2706 27.7385L20.6081 25.6387V21.3282C20.6106 21.2093 20.5889 21.0911 20.5442 20.9806C20.4995 20.8701 20.4328 20.7696 20.348 20.685C20.2631 20.6005 20.162 20.5336 20.0505 20.4884C19.9389 20.4432 19.8193 20.4205 19.6988 20.4217Z" fill="#434E5B"/>
</svg>
