<svg width="13" height="11" viewBox="0 0 13 11" fill="none" xmlns="http://www.w3.org/2000/svg">
<path fill-rule="evenodd" clip-rule="evenodd" d="M5 1C2.23858 1 0 3.23858 0 6C0 8.76142 2.23858 11 5 11C7.76142 11 10 8.76142 10 6C10 3.23858 7.76142 1 5 1Z" fill="#185DDE"/>
<path d="M5.70055 5.42842L5.70061 5.42837C5.27952 4.99299 5.28197 4.30616 5.70304 3.87088L5.70895 3.86476L5.709 3.86482L8.14902 1.42687L8.14905 1.42684C8.35774 1.21836 8.6413 1.1 8.94061 1.1C9.24 1.1 9.52284 1.21836 9.7317 1.426L9.73258 1.42688L12.1725 3.86478C12.1726 3.86479 12.1726 3.8648 12.1726 3.86481C12.6092 4.30098 12.6091 5.00078 12.1725 5.43694C11.7362 5.87285 11.0369 5.8726 10.6006 5.4367L10.6 5.43611L10.0541 4.88898L10.0541 9.39204V9.39244H9.55413C9.55467 9.72974 9.27891 10 8.94098 10C8.60344 10 8.33333 9.73016 8.33333 9.39276L5.70055 5.42842ZM5.70055 5.42842L5.7066 5.43446C6.14393 5.87143 6.84324 5.87402 7.28075 5.43698C7.28076 5.43697 7.28078 5.43696 7.28079 5.43695L7.83333 4.88507L5.70055 5.42842Z" fill="#185DDE" stroke="white"/>
</svg>
