<svg width="36" height="36" viewBox="0 0 36 36" fill="none" xmlns="http://www.w3.org/2000/svg">
<path fill-rule="evenodd" clip-rule="evenodd" d="M18 36C27.9411 36 36 27.9411 36 18C36 8.05887 27.9411 0 18 0C8.05887 0 0 8.05887 0 18C0 27.9411 8.05887 36 18 36Z" fill="url(#paint0_linear)"/>
<path d="M15.8174 22.6922C15.8595 22.8355 15.8806 22.95 15.8806 23.1775C15.4931 23.1522 14.9876 23.1396 14.3641 23.1396C13.766 23.1396 13.2521 23.1522 12.8224 23.1775C12.8224 22.9753 12.8477 22.865 12.8982 22.7049C13.2184 22.6712 13.4332 22.5996 13.5427 22.4901C13.6522 22.3805 13.707 22.1076 13.707 21.8127C13.707 21.6442 13.6944 21.4336 13.6691 21.1808L13.2142 16.8463L10.5983 23.1649C10.455 23.2238 10.2823 23.2533 10.0801 23.2533L7.13569 16.8589L6.73128 20.9154C6.70601 21.1682 6.69339 21.3872 6.69339 21.5726C6.69339 21.9601 6.75656 22.3005 6.88293 22.4521C7.01773 22.5954 7.24099 22.6796 7.55271 22.7049C7.59483 22.8481 7.61588 22.9584 7.61588 23.1775C7.2115 23.1522 6.76079 23.1396 6.26373 23.1396C5.76666 23.1396 5.34541 23.1522 5 23.1775C5 22.9669 5.02106 22.8565 5.06319 22.7049C5.29909 22.6796 5.48021 22.6206 5.60659 22.528C5.73296 22.4353 5.82984 22.196 5.89724 21.9517C5.97306 21.699 6.03625 21.3156 6.0868 20.8017L6.49119 16.3029C6.49959 16.2271 6.5038 16.126 6.5038 15.9996C6.5038 15.671 6.43642 15.4394 6.30162 15.3046C6.16682 15.1698 5.94777 15.1024 5.64448 15.1024C5.60236 14.9676 5.58131 14.7864 5.58131 14.559C5.83405 14.5842 6.15418 14.5969 6.54172 14.5969C6.85344 14.5969 7.17359 14.5842 7.50215 14.559L10.6614 21.5473L13.4163 14.559C13.7028 14.5842 14.0313 14.5969 14.402 14.5969C14.7053 14.5969 15.0255 14.5842 15.3625 14.559C15.3625 14.7612 15.3414 14.9423 15.2993 15.1024C15.0128 15.1024 14.7938 15.174 14.6421 15.3172C14.4989 15.4604 14.4273 15.7089 14.4273 16.0628C14.4273 16.1976 14.4315 16.3029 14.4399 16.3787L14.8949 21.0165C14.937 21.4378 14.9918 21.7621 15.0592 21.9896C15.1266 22.2087 15.2192 22.4353 15.3372 22.528C15.4551 22.6206 15.6152 22.6754 15.8174 22.6922H15.8174Z" fill="white"/>
<path d="M28.2853 11.6191L21.8959 26.4476L17.5465 22.7624" stroke="white" stroke-width="0.1" stroke-linecap="round" stroke-linejoin="round"/>
<path d="M21.5862 27.1703C22.1339 27.1703 22.5778 26.7384 22.5778 26.2056C22.5778 25.6729 22.1339 25.241 21.5862 25.241C21.0386 25.241 20.5946 25.6729 20.5946 26.2056C20.5946 26.7384 21.0386 27.1703 21.5862 27.1703Z" fill="white"/>
<path d="M6.92895 13.3235C7.45104 13.3235 7.87427 12.9019 7.87427 12.3818C7.87427 11.8617 7.45104 11.4401 6.92895 11.4401C6.40687 11.4401 5.98364 11.8617 5.98364 12.3818C5.98364 12.9019 6.40687 13.3235 6.92895 13.3235Z" fill="white"/>
<path d="M28.5995 12.8386C29.373 12.8386 30.0001 12.2032 30.0001 11.4193C30.0001 10.6355 29.373 10 28.5995 10C27.8259 10 27.1989 10.6355 27.1989 11.4193C27.1989 12.2032 27.8259 12.8386 28.5995 12.8386Z" fill="white"/>
<path d="M12.8403 27.1943C13.5778 27.1943 14.1757 26.5884 14.1757 25.841C14.1757 25.0937 13.5778 24.4878 12.8403 24.4878C12.1028 24.4878 11.5049 25.0937 11.5049 25.841C11.5049 26.5884 12.1028 27.1943 12.8403 27.1943Z" fill="white"/>
<defs>
<linearGradient id="paint0_linear" x1="66.5839" y1="27.0886" x2="31.4542" y2="-26.4956" gradientUnits="userSpaceOnUse">
<stop stop-color="#0D2A93"/>
<stop offset="0.574452" stop-color="#9C5EBE"/>
<stop offset="1" stop-color="#E2689A"/>
</linearGradient>
</defs>
</svg>
