<svg width="50" height="50" viewBox="0 0 50 50" fill="none" xmlns="http://www.w3.org/2000/svg">
<mask id="path-1-inside-1" fill="white">
<path d="M49.2517 31.0478C45.9123 44.4406 32.346 52.5913 18.95 49.2515C5.55954 45.9125 -2.5921 32.347 0.748878 18.955C4.08673 5.56056 17.653 -2.59091 31.0451 0.748114C44.4402 4.08714 52.5911 17.6542 49.2517 31.0478Z"/>
</mask>
<path d="M49.2517 31.0478C45.9123 44.4406 32.346 52.5913 18.95 49.2515C5.55954 45.9125 -2.5921 32.347 0.748878 18.955C4.08673 5.56056 17.653 -2.59091 31.0451 0.748114C44.4402 4.08714 52.5911 17.6542 49.2517 31.0478Z" stroke="white" stroke-width="2" mask="url(#path-1-inside-1)"/>
<mask id="path-2-inside-2" fill="white">
<path d="M36.0237 21.4386C36.5214 18.1121 33.9884 16.3238 30.5247 15.1309L31.6483 10.6247L28.905 9.9411L27.8111 14.3285C27.09 14.1489 26.3493 13.9793 25.6132 13.8114L26.7149 9.39501L23.9732 8.71143L22.8489 13.2161C22.252 13.0801 21.6659 12.9457 21.0971 12.8043L21.1003 12.7903L17.3171 11.8458L16.5873 14.7754C16.5873 14.7754 18.6227 15.2418 18.5797 15.2707C19.6907 15.5481 19.8915 16.2832 19.8579 16.866L18.5781 21.9996C18.6547 22.0191 18.7539 22.0472 18.8633 22.091C18.7719 22.0683 18.6742 22.0433 18.5734 22.0191L16.7795 29.2104C16.6435 29.5479 16.299 30.0542 15.5223 29.862C15.5497 29.9018 13.5284 29.3643 13.5284 29.3643L12.1665 32.5042L15.7364 33.394C16.4005 33.5604 17.0514 33.7346 17.6921 33.8987L16.5568 38.4564L19.297 39.14L20.4213 34.6307C21.1698 34.8338 21.8965 35.0213 22.6075 35.1979L21.487 39.6861L24.2303 40.3697L25.3656 35.8205C30.0434 36.7057 33.561 36.3486 35.0416 32.1182C36.2347 28.712 34.9822 26.7472 32.521 25.4659C34.3134 25.0527 35.6635 23.8738 36.0237 21.4386L36.0237 21.4386ZM29.7559 30.2268C28.9081 33.633 23.1724 31.7917 21.3128 31.3299L22.8192 25.2917C24.6788 25.7558 30.6419 26.6745 29.7559 30.2268ZM30.6044 21.3894C29.8309 24.4878 25.0569 22.9136 23.5083 22.5277L24.8741 17.0512C26.4227 17.4371 31.41 18.1574 30.6044 21.3894Z"/>
</mask>
<path d="M36.0237 21.4386C36.5214 18.1121 33.9884 16.3238 30.5247 15.1309L31.6483 10.6247L28.905 9.9411L27.8111 14.3285C27.09 14.1489 26.3493 13.9793 25.6132 13.8114L26.7149 9.39501L23.9732 8.71143L22.8489 13.2161C22.252 13.0801 21.6659 12.9457 21.0971 12.8043L21.1003 12.7903L17.3171 11.8458L16.5873 14.7754C16.5873 14.7754 18.6227 15.2418 18.5797 15.2707C19.6907 15.5481 19.8915 16.2832 19.8579 16.866L18.5781 21.9996C18.6547 22.0191 18.7539 22.0472 18.8633 22.091C18.7719 22.0683 18.6742 22.0433 18.5734 22.0191L16.7795 29.2104C16.6435 29.5479 16.299 30.0542 15.5223 29.862C15.5497 29.9018 13.5284 29.3643 13.5284 29.3643L12.1665 32.5042L15.7364 33.394C16.4005 33.5604 17.0514 33.7346 17.6921 33.8987L16.5568 38.4564L19.297 39.14L20.4213 34.6307C21.1698 34.8338 21.8965 35.0213 22.6075 35.1979L21.487 39.6861L24.2303 40.3697L25.3656 35.8205C30.0434 36.7057 33.561 36.3486 35.0416 32.1182C36.2347 28.712 34.9822 26.7472 32.521 25.4659C34.3134 25.0527 35.6635 23.8738 36.0237 21.4386L36.0237 21.4386ZM29.7559 30.2268C28.9081 33.633 23.1724 31.7917 21.3128 31.3299L22.8192 25.2917C24.6788 25.7558 30.6419 26.6745 29.7559 30.2268ZM30.6044 21.3894C29.8309 24.4878 25.0569 22.9136 23.5083 22.5277L24.8741 17.0512C26.4227 17.4371 31.41 18.1574 30.6044 21.3894Z" stroke="white" stroke-width="2" mask="url(#path-2-inside-2)"/>
</svg>
