<svg width="52" height="52" viewBox="0 0 52 52" fill="none" xmlns="http://www.w3.org/2000/svg">
<path d="M22.5891 28.5676L22.5891 28.5676V28.5758C22.5891 30.4325 21.23 31.8772 19.5959 31.8772C17.993 31.8772 16.6028 30.4291 16.6028 28.5758C16.6028 26.7191 17.9618 25.2744 19.5959 25.2744C21.237 25.2744 22.6193 26.7252 22.5891 28.5676ZM29.1028 28.5758C29.1028 26.7191 30.4618 25.2744 32.0959 25.2744C33.73 25.2744 35.0891 26.7191 35.0891 28.5758C35.0891 30.4325 33.73 31.8772 32.0959 31.8772C30.493 31.8772 29.1028 30.4291 29.1028 28.5758Z" stroke="white"/>
<path d="M37.6749 14.965C36.5051 14.2445 34.8496 13.378 32.6809 12.5931C33.1219 12.6511 33.6664 12.7451 34.289 12.897C36.0041 13.3155 38.3093 14.1733 40.6807 15.9307C40.6811 15.9316 40.6816 15.9325 40.6821 15.9334C40.7168 15.999 40.7684 16.0977 40.8344 16.2279C40.9665 16.4883 41.1562 16.8745 41.3844 17.3732C41.8409 18.3706 42.4508 19.8169 43.061 21.6053C44.2716 25.1529 45.4783 30.032 45.4997 35.4167C45.4852 35.4385 45.4683 35.4633 45.4491 35.4911C45.3625 35.6161 45.2281 35.7991 45.0428 36.0214C44.672 36.4663 44.0985 37.0671 43.296 37.6766C41.7308 38.8655 39.2852 40.0956 35.7471 40.2583L35.6964 40.1974C35.5652 40.0395 35.3795 39.8155 35.1618 39.5508C34.8529 39.1752 34.4801 38.7188 34.1073 38.2544C36.0526 37.5972 37.442 36.6654 38.3702 35.8578C38.8884 35.4069 39.2622 34.9952 39.5089 34.6925C39.6322 34.5411 39.7239 34.4168 39.7859 34.3283C39.817 34.2841 39.8406 34.2487 39.8572 34.2234C39.8655 34.2107 39.872 34.2005 39.8767 34.193L39.8826 34.1837L39.8845 34.1805L39.8852 34.1793L39.8855 34.1788C39.8857 34.1786 39.8858 34.1784 39.4589 33.9181L39.8858 34.1784L39.1839 33.5005C37.8115 34.4043 36.5097 35.0379 35.3465 35.4699L35.3366 35.4736L35.3269 35.4777C33.6473 36.1831 32.0402 36.6512 30.4709 36.9183L30.4709 36.9183L30.4627 36.9198C27.2476 37.5226 24.2979 37.356 21.7782 36.8858C19.8635 36.5161 18.2157 35.9784 16.8329 35.4388C16.0635 35.1377 15.235 34.773 14.4097 34.312C14.3386 34.2663 14.2711 34.2326 14.2264 34.2103L14.2202 34.2072C14.1656 34.1799 14.1415 34.1672 14.1198 34.1528L14.0939 34.1355L14.0703 34.1237L14.0692 34.1226L14.059 34.1125L14.0095 34.063L13.9483 34.029C13.649 33.8627 13.4173 33.722 13.2619 33.6238C13.1841 33.5747 13.1255 33.5363 13.0871 33.5106C13.0678 33.4978 13.0537 33.4882 13.0446 33.482L13.035 33.4754L13.0333 33.4742L13.0332 33.4742L13.033 33.4745L12.3178 34.1411L12.7466 33.8838C12.3178 34.1411 12.318 34.1413 12.3181 34.1415L12.3184 34.142L12.3191 34.1432L12.321 34.1463L12.3266 34.1555C12.3312 34.1629 12.3375 34.1729 12.3455 34.1853C12.3615 34.2101 12.3843 34.2447 12.4142 34.2881C12.474 34.3748 12.5623 34.4965 12.6812 34.6449C12.9189 34.9417 13.2796 35.3458 13.7802 35.7903C14.6759 36.5856 16.018 37.5085 17.9011 38.1768C17.5211 38.6526 17.1375 39.1271 16.8191 39.5189C16.597 39.7923 16.4068 40.0252 16.2723 40.1897L16.2162 40.2581C12.6799 40.0951 10.2438 38.8654 8.68784 37.6774C7.88986 37.0681 7.32065 36.4676 6.95311 36.023C6.76943 35.8008 6.63643 35.6179 6.55074 35.493C6.53155 35.465 6.51475 35.4399 6.50028 35.418C6.52148 30.0328 7.72829 25.1532 8.93896 21.6053C9.54921 19.8169 10.1591 18.3706 10.6156 17.3732C10.8438 16.8745 11.0335 16.4883 11.1656 16.2279C11.2316 16.0977 11.2832 15.999 11.3179 15.9334C11.3184 15.9325 11.3189 15.9316 11.3193 15.9307C13.6907 14.1733 15.9959 13.3155 17.711 12.897C17.8748 12.857 18.0333 12.821 18.1858 12.7887C16.3349 13.4938 14.8874 14.2486 13.8228 14.8948C13.065 15.3547 12.5013 15.7595 12.1244 16.0519C11.9359 16.1982 11.7941 16.3163 11.6979 16.3993C11.6499 16.4407 11.6132 16.4734 11.5879 16.4964L11.5584 16.5235L11.5499 16.5314L11.5473 16.5339L11.5464 16.5347L11.546 16.5351C11.5458 16.5352 11.5457 16.5354 11.8904 16.8975L11.5457 16.5354L12.1296 17.3362L12.1298 17.3365L12.1298 17.3365L12.13 17.3364L12.1313 17.3357L12.1371 17.3326L12.1615 17.3194C12.1836 17.3076 12.2168 17.2899 12.2609 17.2666C12.3491 17.2202 12.4805 17.1519 12.6513 17.0654C12.9924 16.8928 13.4905 16.6479 14.1159 16.3605C17.7218 14.7772 20.5766 14.3437 21.7276 14.245L21.7475 14.2433L21.7671 14.2401C21.7952 14.2354 21.8216 14.2309 21.8467 14.2267C22.0225 14.197 22.1325 14.1784 22.2671 14.1784H22.2998L22.3321 14.1741C24.3843 13.905 26.7064 13.8377 29.1286 14.1067C32.3243 14.4769 35.7539 15.4183 39.2528 17.336L39.8374 16.5349L39.4932 16.8975C39.8374 16.5349 39.8373 16.5348 39.8371 16.5347L39.8368 16.5343L39.8359 16.5335L39.8333 16.5311L39.8253 16.5236L39.7971 16.4978C39.773 16.4759 39.7381 16.4448 39.6923 16.4053C39.6009 16.3263 39.466 16.2137 39.2868 16.074C38.9286 15.7948 38.3935 15.4075 37.6749 14.965ZM39.0327 33.6567C39.0328 33.6565 39.0328 33.6565 39.0327 33.6566L39.0327 33.6567Z" stroke="white"/>
<path d="M50.9911 26.7179C51.3686 12.3309 39.685 0.685329 25.4272 1.00649C12.1355 1.30739 1.08243 12.0966 1 25.9932C1.06797 39.91 12.1847 50.8627 25.7005 50.9987C39.886 51.1419 50.6469 39.8333 50.9911 26.7179Z" stroke="white"/>
</svg>
