<svg width="50" height="50" viewBox="0 0 50 50" fill="none" xmlns="http://www.w3.org/2000/svg">
<mask id="path-1-inside-1" fill="white">
<path d="M21.5608 49.8147C15.7672 48.9285 10.8333 46.3888 6.86506 42.2354C4.17987 39.4311 2.42062 36.455 1.17723 32.6587C0.277758 29.8809 0.0793457 28.5317 0.0793457 25.0661C0.0793457 22.447 0.119028 21.7989 0.370351 20.4364C0.872997 17.7777 1.81215 15.2116 3.18781 12.7248C5.58199 8.41262 9.32538 4.85442 13.8624 2.57929C15.2645 1.87823 18.1084 0.87294 19.6561 0.529024C22.0635 -7.60723e-05 25.7804 -0.145579 28.3069 0.185109C29.7354 0.383522 31.3492 0.71421 31.8122 0.912622C31.9577 0.965532 32.5926 1.17717 33.2275 1.37559C34.5635 1.78564 37.1693 3.04225 38.545 3.9285C43.3069 6.99728 46.9444 11.693 48.7434 17.1031C49.7222 20.0132 49.9338 21.4814 49.9206 25.1322C49.9206 27.9629 49.8809 28.3862 49.5635 29.8941C48.545 34.7486 46.3227 38.9417 42.9365 42.4338C40.1984 45.2645 36.7328 47.4735 33.3862 48.5581C32.6719 48.7962 31.9709 49.0343 31.8518 49.0872C31.7196 49.1534 30.8862 49.3518 30 49.5502C28.6111 49.8412 27.9629 49.8941 25.5291 49.9338C23.6111 49.9735 22.3148 49.9338 21.5608 49.8147Z"/>
</mask>
<path d="M21.5608 49.8147C15.7672 48.9285 10.8333 46.3888 6.86506 42.2354C4.17987 39.4311 2.42062 36.455 1.17723 32.6587C0.277758 29.8809 0.0793457 28.5317 0.0793457 25.0661C0.0793457 22.447 0.119028 21.7989 0.370351 20.4364C0.872997 17.7777 1.81215 15.2116 3.18781 12.7248C5.58199 8.41262 9.32538 4.85442 13.8624 2.57929C15.2645 1.87823 18.1084 0.87294 19.6561 0.529024C22.0635 -7.60723e-05 25.7804 -0.145579 28.3069 0.185109C29.7354 0.383522 31.3492 0.71421 31.8122 0.912622C31.9577 0.965532 32.5926 1.17717 33.2275 1.37559C34.5635 1.78564 37.1693 3.04225 38.545 3.9285C43.3069 6.99728 46.9444 11.693 48.7434 17.1031C49.7222 20.0132 49.9338 21.4814 49.9206 25.1322C49.9206 27.9629 49.8809 28.3862 49.5635 29.8941C48.545 34.7486 46.3227 38.9417 42.9365 42.4338C40.1984 45.2645 36.7328 47.4735 33.3862 48.5581C32.6719 48.7962 31.9709 49.0343 31.8518 49.0872C31.7196 49.1534 30.8862 49.3518 30 49.5502C28.6111 49.8412 27.9629 49.8941 25.5291 49.9338C23.6111 49.9735 22.3148 49.9338 21.5608 49.8147Z" stroke="white" stroke-width="2" mask="url(#path-1-inside-1)"/>
<mask id="path-2-inside-2" fill="white">
<path d="M21.1111 39.8678C21.0714 39.7488 21.0317 36.389 21.0317 32.3943V25.1324L20.7143 25.053C20.5423 25.0133 20.3175 24.9869 20.2249 25.0001C20.119 25.0265 19.5767 25.0265 19.0079 25.0133L17.9894 25.0001L18.0159 22.4604L18.0555 19.9075L19.5503 19.8678L21.0317 19.8281V17.9498C21.0317 15.4101 21.1905 14.4313 21.7725 13.2408C22.5661 11.6403 23.7434 10.6747 25.3571 10.3308C25.8862 10.2249 29.828 10.1324 31.7857 10.1853C31.9973 10.1853 32.0106 10.3969 32.0106 12.6985V15.2117H30.4233C27.6455 15.2117 27.328 15.516 27.328 18.1218L27.3148 19.7752L29.6032 19.8149L31.8783 19.8413V20.2779C31.8783 20.5027 31.8254 21.2038 31.7593 21.8255C31.6799 22.4472 31.5873 23.3996 31.5476 23.9419C31.4947 24.4842 31.3889 24.9736 31.2963 25.0265C31.2169 25.0794 30.3042 25.1324 29.2725 25.1324H27.3809V32.4472C27.3809 37.963 27.3413 39.8017 27.2222 39.9207C27.1032 40.0398 26.2302 40.0794 24.127 40.0794C21.5741 40.0794 21.1772 40.053 21.1111 39.8678Z"/>
</mask>
<path d="M21.1111 39.8678C21.0714 39.7488 21.0317 36.389 21.0317 32.3943V25.1324L20.7143 25.053C20.5423 25.0133 20.3175 24.9869 20.2249 25.0001C20.119 25.0265 19.5767 25.0265 19.0079 25.0133L17.9894 25.0001L18.0159 22.4604L18.0555 19.9075L19.5503 19.8678L21.0317 19.8281V17.9498C21.0317 15.4101 21.1905 14.4313 21.7725 13.2408C22.5661 11.6403 23.7434 10.6747 25.3571 10.3308C25.8862 10.2249 29.828 10.1324 31.7857 10.1853C31.9973 10.1853 32.0106 10.3969 32.0106 12.6985V15.2117H30.4233C27.6455 15.2117 27.328 15.516 27.328 18.1218L27.3148 19.7752L29.6032 19.8149L31.8783 19.8413V20.2779C31.8783 20.5027 31.8254 21.2038 31.7593 21.8255C31.6799 22.4472 31.5873 23.3996 31.5476 23.9419C31.4947 24.4842 31.3889 24.9736 31.2963 25.0265C31.2169 25.0794 30.3042 25.1324 29.2725 25.1324H27.3809V32.4472C27.3809 37.963 27.3413 39.8017 27.2222 39.9207C27.1032 40.0398 26.2302 40.0794 24.127 40.0794C21.5741 40.0794 21.1772 40.053 21.1111 39.8678Z" stroke="white" stroke-width="2" mask="url(#path-2-inside-2)"/>
</svg>
