<svg width="50" height="50" viewBox="0 0 50 50" fill="none" xmlns="http://www.w3.org/2000/svg">
<mask id="path-1-inside-1" fill="white">
<path fill-rule="evenodd" clip-rule="evenodd" d="M49.375 25.0001C49.375 38.4619 38.4618 49.3752 25 49.3752C11.5376 49.3752 0.625 38.4619 0.625 25.0001C0.625 11.5378 11.5376 0.625 25 0.625C38.4618 0.625 49.375 11.5378 49.375 25.0001Z"/>
</mask>
<path fill-rule="evenodd" clip-rule="evenodd" d="M49.375 25.0001C49.375 38.4619 38.4618 49.3752 25 49.3752C11.5376 49.3752 0.625 38.4619 0.625 25.0001C0.625 11.5378 11.5376 0.625 25 0.625C38.4618 0.625 49.375 11.5378 49.375 25.0001Z" stroke="white" stroke-width="2" mask="url(#path-1-inside-1)"/>
<mask id="path-2-inside-2" fill="white">
<path fill-rule="evenodd" clip-rule="evenodd" d="M26.575 22.7027C26.6952 22.5735 26.742 22.5339 26.7756 22.485C28.4137 20.0947 30.7535 19.3918 33.4836 19.8115C36.6385 20.297 38.6574 22.5054 39.1727 25.8845C39.295 26.6857 39.3558 27.4902 39.3552 28.3003C39.3533 31.6647 39.348 35.0289 39.3623 38.3932C39.3644 38.7721 39.2713 38.8833 38.8829 38.8786C37.1204 38.8574 35.3572 38.8577 33.5944 38.8786C33.2088 38.8828 33.11 38.7729 33.112 38.3934C33.1263 35.2557 33.1213 32.1179 33.1182 28.9805C33.1171 28.2673 33.0681 27.5587 32.8676 26.8682C32.225 24.6532 29.705 23.8756 27.9106 25.3485C26.9409 26.144 26.562 27.1958 26.5693 28.4339C26.585 31.3937 26.5739 34.3535 26.5739 37.3133C26.5739 37.7017 26.5522 38.0912 26.5804 38.4772C26.6052 38.8127 26.4681 38.8773 26.1641 38.8753C24.3688 38.8632 22.5737 38.862 20.7786 38.8761C20.4528 38.8786 20.3358 38.8123 20.3394 38.4543C20.3657 35.7863 20.3764 33.1172 20.3776 30.449C20.3781 27.1657 20.3715 23.8825 20.3486 20.5993C20.3462 20.2398 20.4215 20.1335 20.7927 20.1377C22.5881 20.1578 24.3833 20.1547 26.1784 20.1397C26.5017 20.1367 26.5919 20.234 26.5816 20.5485C26.5594 21.225 26.575 21.9027 26.575 22.7027Z"/>
</mask>
<path fill-rule="evenodd" clip-rule="evenodd" d="M26.575 22.7027C26.6952 22.5735 26.742 22.5339 26.7756 22.485C28.4137 20.0947 30.7535 19.3918 33.4836 19.8115C36.6385 20.297 38.6574 22.5054 39.1727 25.8845C39.295 26.6857 39.3558 27.4902 39.3552 28.3003C39.3533 31.6647 39.348 35.0289 39.3623 38.3932C39.3644 38.7721 39.2713 38.8833 38.8829 38.8786C37.1204 38.8574 35.3572 38.8577 33.5944 38.8786C33.2088 38.8828 33.11 38.7729 33.112 38.3934C33.1263 35.2557 33.1213 32.1179 33.1182 28.9805C33.1171 28.2673 33.0681 27.5587 32.8676 26.8682C32.225 24.6532 29.705 23.8756 27.9106 25.3485C26.9409 26.144 26.562 27.1958 26.5693 28.4339C26.585 31.3937 26.5739 34.3535 26.5739 37.3133C26.5739 37.7017 26.5522 38.0912 26.5804 38.4772C26.6052 38.8127 26.4681 38.8773 26.1641 38.8753C24.3688 38.8632 22.5737 38.862 20.7786 38.8761C20.4528 38.8786 20.3358 38.8123 20.3394 38.4543C20.3657 35.7863 20.3764 33.1172 20.3776 30.449C20.3781 27.1657 20.3715 23.8825 20.3486 20.5993C20.3462 20.2398 20.4215 20.1335 20.7927 20.1377C22.5881 20.1578 24.3833 20.1547 26.1784 20.1397C26.5017 20.1367 26.5919 20.234 26.5816 20.5485C26.5594 21.225 26.575 21.9027 26.575 22.7027Z" stroke="white" stroke-width="2" mask="url(#path-2-inside-2)"/>
<mask id="path-3-inside-3" fill="white">
<path fill-rule="evenodd" clip-rule="evenodd" d="M16.9255 29.5104C16.9255 32.469 16.9192 35.4278 16.933 38.3866C16.9345 38.754 16.8605 38.8849 16.46 38.8796C14.6818 38.856 12.9032 38.8615 11.1249 38.8764C10.7948 38.8791 10.6834 38.7966 10.6838 38.4495C10.6924 32.4834 10.6909 26.5174 10.6821 20.5515C10.6818 20.2406 10.7575 20.1367 11.0836 20.1398C12.8946 20.1553 14.7055 20.1571 16.5161 20.1385C16.8775 20.1345 16.9337 20.2665 16.9323 20.5857C16.9212 23.5608 16.9259 26.5355 16.9255 29.5104Z"/>
</mask>
<path fill-rule="evenodd" clip-rule="evenodd" d="M16.9255 29.5104C16.9255 32.469 16.9192 35.4278 16.933 38.3866C16.9345 38.754 16.8605 38.8849 16.46 38.8796C14.6818 38.856 12.9032 38.8615 11.1249 38.8764C10.7948 38.8791 10.6834 38.7966 10.6838 38.4495C10.6924 32.4834 10.6909 26.5174 10.6821 20.5515C10.6818 20.2406 10.7575 20.1367 11.0836 20.1398C12.8946 20.1553 14.7055 20.1571 16.5161 20.1385C16.8775 20.1345 16.9337 20.2665 16.9323 20.5857C16.9212 23.5608 16.9259 26.5355 16.9255 29.5104Z" stroke="white" stroke-width="2" mask="url(#path-3-inside-3)"/>
<mask id="path-4-inside-4" fill="white">
<path fill-rule="evenodd" clip-rule="evenodd" d="M13.8556 11.1218C16.2413 11.1243 17.7913 13.014 17.2259 15.2304C16.7986 16.9039 15.0678 17.8673 13.07 17.543C10.948 17.1986 9.76518 15.1276 10.5471 13.1263C11.0352 11.8766 12.2841 11.12 13.8556 11.1218Z"/>
</mask>
<path fill-rule="evenodd" clip-rule="evenodd" d="M13.8556 11.1218C16.2413 11.1243 17.7913 13.014 17.2259 15.2304C16.7986 16.9039 15.0678 17.8673 13.07 17.543C10.948 17.1986 9.76518 15.1276 10.5471 13.1263C11.0352 11.8766 12.2841 11.12 13.8556 11.1218Z" stroke="white" stroke-width="2" mask="url(#path-4-inside-4)"/>
</svg>
