<svg width="90" height="90" viewBox="0 0 90 90" fill="none" xmlns="http://www.w3.org/2000/svg">
<g clip-path="url(#clip0)">
<path d="M22.7655 49.8006C22.8245 50.0016 22.854 50.1624 22.854 50.4816C22.3117 50.4461 21.6044 50.4284 20.732 50.4284C19.895 50.4284 19.1759 50.4461 18.5746 50.4816C18.5746 50.1978 18.61 50.043 18.6808 49.8184C19.1287 49.7711 19.4293 49.6706 19.5826 49.5169C19.7358 49.3632 19.8125 48.9801 19.8125 48.5663C19.8125 48.3299 19.7948 48.0343 19.7594 47.6797L19.1228 41.597L15.4624 50.4639C15.262 50.5466 15.0204 50.588 14.7374 50.588L10.6173 41.6147L10.0514 47.3073C10.016 47.6619 9.99839 47.9693 9.99839 48.2294C9.99839 48.7732 10.0868 49.2509 10.2636 49.4637C10.4522 49.6647 10.7646 49.7829 11.2008 49.8184C11.2598 50.0193 11.2892 50.1742 11.2892 50.4816C10.7234 50.4461 10.0927 50.4284 9.39716 50.4284C8.70163 50.4284 8.11218 50.4461 7.62885 50.4816C7.62885 50.186 7.65832 50.0312 7.71727 49.8184C8.04736 49.7829 8.3008 49.7001 8.47763 49.5701C8.65447 49.44 8.79004 49.1043 8.88434 48.7614C8.99044 48.4067 9.07887 47.8688 9.1496 47.1477L9.71545 40.8345C9.72721 40.7281 9.73311 40.5862 9.73311 40.4088C9.73311 39.9478 9.63881 39.6227 9.45019 39.4335C9.26157 39.2443 8.95506 39.1498 8.53066 39.1498C8.47172 38.9606 8.44226 38.7064 8.44226 38.3872C8.79592 38.4227 9.24388 38.4404 9.78616 38.4404C10.2223 38.4404 10.6703 38.4227 11.1301 38.3872L15.5508 48.1939L19.4058 38.3872C19.8066 38.4227 20.2663 38.4404 20.785 38.4404C21.2094 38.4404 21.6574 38.4227 22.1289 38.3872C22.1289 38.6709 22.0995 38.9251 22.0405 39.1498C21.6397 39.1498 21.3332 39.2503 21.121 39.4512C20.9206 39.6522 20.8204 40.001 20.8204 40.4975C20.8204 40.6867 20.8263 40.8345 20.8381 40.9409L21.4746 47.4491C21.5336 48.0402 21.6102 48.4954 21.7045 48.8146C21.7988 49.122 21.9285 49.44 22.0935 49.5701C22.2586 49.7001 22.4826 49.777 22.7655 49.8006H22.7655Z" fill="white"/>
<path d="M31.5305 47.7486C31.8346 47.8432 32.0652 47.9694 32.2225 48.1271C32.0233 48.7476 31.8608 49.531 31.7349 50.4774C30.917 50.4564 29.7951 50.4459 28.369 50.4459C26.4397 50.4459 25.0818 50.4616 24.2953 50.4932C24.2953 50.1882 24.3215 49.9621 24.374 49.8149C24.6676 49.7939 24.8878 49.7413 25.0346 49.6572C25.1919 49.5731 25.302 49.4258 25.3649 49.2155C25.4278 49.0052 25.4593 48.6897 25.4593 48.2691V41.7862C25.4593 41.2604 25.3806 40.9081 25.2233 40.7293C25.0765 40.54 24.7934 40.4349 24.374 40.4139C24.3215 40.2666 24.2953 40.0406 24.2953 39.7356C24.914 39.7671 25.7948 39.7829 26.9377 39.7829C28.8461 39.7829 30.3194 39.7671 31.3574 39.7356C31.4623 40.8923 31.5724 41.7231 31.6878 42.2278C31.5305 42.354 31.2945 42.4171 30.98 42.4171C30.9275 41.8282 30.7126 41.3498 30.3351 40.9817C29.9681 40.6031 29.3232 40.4139 28.4005 40.4139H26.9377V44.7358H27.9286C28.5892 44.7358 29.0401 44.6517 29.2813 44.4834C29.533 44.3047 29.664 43.9629 29.6745 43.4582C29.9261 43.3846 30.1778 43.3477 30.4295 43.3477C30.4085 43.7053 30.398 44.2784 30.398 45.0671C30.398 45.9294 30.4085 46.5393 30.4295 46.8968C30.1463 46.8968 29.9052 46.8705 29.706 46.8179C29.664 46.2711 29.5172 45.9031 29.2656 45.7138C29.0244 45.514 28.5787 45.4141 27.9286 45.4141H26.9377V48.2691C26.9377 48.6687 26.9744 48.9737 27.0478 49.184C27.1212 49.3838 27.2576 49.5257 27.4568 49.6099C27.6665 49.694 27.9706 49.736 28.369 49.736H28.4634C29.1869 49.736 29.7427 49.6624 30.1306 49.5152C30.5186 49.368 30.8017 49.1629 30.98 48.9C31.1687 48.6372 31.3522 48.2533 31.5305 47.7486Z" fill="white"/>
<path d="M37.8464 39.7514C39.5765 39.7514 41.0026 40.1142 42.1246 40.8398C43.257 41.5548 43.8232 42.8903 43.8232 44.8462C43.8232 47.065 43.1888 48.553 41.9201 49.3101C40.6618 50.0673 39.3039 50.4458 37.8464 50.4458C35.917 50.4458 34.5591 50.4616 33.7727 50.4932C33.7727 50.1882 33.7989 49.9621 33.8514 49.8149C34.145 49.7939 34.3651 49.7413 34.5119 49.6572C34.6692 49.573 34.7793 49.4258 34.8422 49.2155C34.9156 48.9947 34.9523 48.6792 34.9523 48.2691V41.7862C34.9523 41.2604 34.8737 40.9081 34.7164 40.7293C34.5696 40.54 34.2865 40.4349 33.8671 40.4139C33.8147 40.2666 33.7884 40.0406 33.7884 39.7356C34.2813 39.7671 35.0153 39.7829 35.9904 39.7829C36.8083 39.7619 37.427 39.7514 37.8464 39.7514V39.7514ZM37.8464 49.736C39.2095 49.736 40.2738 49.3838 41.0393 48.6792C41.8152 47.9641 42.2032 46.7654 42.2032 45.0828C42.2032 43.9997 41.9882 43.1059 41.5583 42.4013C41.1389 41.6863 40.5832 41.1657 39.8911 40.8398C39.199 40.5138 38.4336 40.3508 37.5947 40.3508C37.406 40.3508 37.1963 40.3665 36.9656 40.3981C36.7454 40.4191 36.5672 40.4507 36.4308 40.4927V48.2691C36.4308 48.6792 36.4675 48.9842 36.5409 49.184C36.6143 49.3838 36.7506 49.5257 36.9499 49.6099C37.1491 49.694 37.4479 49.736 37.8464 49.736Z" fill="white"/>
<path d="M58.4056 48.4426C58.4056 48.9684 58.4737 49.3312 58.61 49.531C58.7464 49.7202 58.9876 49.8149 59.3336 49.8149C59.386 49.9937 59.4122 50.2198 59.4122 50.4932C58.8669 50.4616 58.2745 50.4458 57.6349 50.4458C56.9533 50.4458 56.3504 50.4616 55.8261 50.4932C55.8261 50.2092 55.8523 49.9831 55.9048 49.8149C56.3242 49.8149 56.6073 49.7202 56.7541 49.531C56.9114 49.3312 56.99 48.9684 56.99 48.4426V42.0875C56.99 41.8141 56.9638 41.458 56.9114 41.3003C56.6421 40.9045 56.7158 40.9001 56.6916 40.8833C56.6916 40.6414 56.7388 40.4469 56.8332 40.2997C57.2465 40.1538 57.4013 40.1482 58.0596 39.8477C58.2902 39.9213 58.4056 40.1316 58.4056 40.4786V41.7003V48.4426Z" fill="white"/>
<path d="M64.3947 39.6411C64.9085 39.6411 65.4013 39.7095 65.8731 39.8462C66.345 39.9724 66.7277 40.1354 67.0213 40.3352C67.0213 41.2711 67.0528 41.9651 67.1157 42.4173C66.885 42.5119 66.5914 42.5592 66.2349 42.5592C66.0881 41.6969 65.8679 41.1133 65.5743 40.8084C65.2807 40.4929 64.8823 40.3352 64.379 40.3352C63.8232 40.3352 63.388 40.4719 63.0735 40.7453C62.7589 41.0187 62.6016 41.4025 62.6016 41.8967C62.6016 42.3069 62.7065 42.6591 62.9162 42.9536C63.1364 43.248 63.3985 43.4899 63.7026 43.6792C64.0172 43.8684 64.4471 44.0998 64.9924 44.3732C65.611 44.6676 66.1038 44.9358 66.4708 45.1776C66.8483 45.4195 67.1681 45.735 67.4303 46.124C67.6924 46.5131 67.8235 46.9916 67.8235 47.5594C67.8235 48.1063 67.6924 48.611 67.4303 49.0737C67.1786 49.5259 66.7802 49.8939 66.2349 50.1779C65.7001 50.4513 65.0343 50.588 64.2374 50.588C63.6292 50.588 63.084 50.5091 62.6016 50.3514C62.1193 50.1831 61.6002 49.9255 61.0445 49.5785C61.1389 48.9896 61.1861 48.243 61.1861 47.3386C61.4272 47.2755 61.7103 47.244 62.0354 47.244C62.0773 48.0852 62.287 48.7267 62.6645 49.1684C63.0525 49.61 63.6502 49.8308 64.4576 49.8308C65.1391 49.8308 65.6425 49.6836 65.9675 49.3892C66.3031 49.0842 66.4708 48.6846 66.4708 48.1904C66.4708 47.7803 66.366 47.4333 66.1563 47.1493C65.9466 46.8654 65.6896 46.6341 65.3856 46.4553C65.0815 46.266 64.6568 46.0452 64.1116 45.7928C63.4824 45.4878 62.9791 45.2144 62.6016 44.9726C62.2241 44.7307 61.8991 44.41 61.6265 44.0104C61.3643 43.6003 61.2332 43.0903 61.2332 42.4804C61.2332 41.597 61.5163 40.903 62.0826 40.3982C62.6488 39.8935 63.4195 39.6411 64.3947 39.6411Z" fill="white"/>
<path d="M78.4675 48.4426C78.4675 48.9684 78.5409 49.3259 78.6877 49.5152C78.845 49.694 79.1334 49.7939 79.5528 49.8149C79.6052 49.9621 79.6314 50.1882 79.6314 50.4932C79.0023 50.4616 78.3679 50.4458 77.7283 50.4458C76.9943 50.4458 76.3599 50.4616 75.8251 50.4932C75.8251 50.1882 75.8513 49.9621 75.9038 49.8149C76.3232 49.7939 76.6063 49.694 76.7531 49.5152C76.9104 49.3259 76.989 48.9684 76.989 48.4426V45.3194C74.6298 45.3194 73.0307 45.3457 72.1918 45.3983V48.4426C72.1918 48.9684 72.2652 49.3259 72.412 49.5152C72.5693 49.694 72.8577 49.7939 73.2771 49.8149C73.3295 49.9621 73.3557 50.1882 73.3557 50.4932C72.7266 50.4616 72.0922 50.4458 71.4526 50.4458C70.7186 50.4458 70.0842 50.4616 69.5494 50.4932C69.5494 50.1882 69.5757 49.9621 69.6281 49.8149C70.0475 49.7939 70.3306 49.694 70.4774 49.5152C70.6347 49.3259 70.7134 48.9684 70.7134 48.4426V41.7862C70.7134 41.2604 70.6347 40.9081 70.4774 40.7293C70.3306 40.54 70.0475 40.4349 69.6281 40.4139C69.5757 40.2666 69.5494 40.0406 69.5494 39.7356C70.1262 39.7671 70.7605 39.7829 71.4526 39.7829C72.0922 39.7829 72.7266 39.7671 73.3557 39.7356C73.3557 40.0406 73.3295 40.2666 73.2771 40.4139C72.8577 40.4349 72.5693 40.54 72.412 40.7293C72.2652 40.9081 72.1918 41.2604 72.1918 41.7862V44.6412H76.989V41.7862C76.989 41.2604 76.9104 40.9081 76.7531 40.7293C76.6063 40.54 76.3232 40.4349 75.9038 40.4139C75.8513 40.2666 75.8251 40.0406 75.8251 39.7356C76.4018 39.7671 77.0362 39.7829 77.7283 39.7829C78.3679 39.7829 79.0023 39.7671 79.6314 39.7356C79.6314 40.0406 79.6052 40.2666 79.5528 40.4139C79.1334 40.4349 78.845 40.54 78.6877 40.7293C78.5409 40.9081 78.4675 41.2604 78.4675 41.7862V48.4426Z" fill="white"/>
<path d="M57.2568 36.0208L49.6107 53.8163L44.406 49.3937" stroke="#FFB71C" stroke-width="0.440549" stroke-linecap="round" stroke-linejoin="round"/>
<path d="M49.2404 54.6835C49.8957 54.6835 50.427 54.1652 50.427 53.5258C50.427 52.8865 49.8957 52.3682 49.2404 52.3682C48.585 52.3682 48.0538 52.8865 48.0538 53.5258C48.0538 54.1652 48.585 54.6835 49.2404 54.6835Z" fill="#FFB71C"/>
<path d="M31.7004 38.0662C32.3252 38.0662 32.8317 37.5602 32.8317 36.9361C32.8317 36.3119 32.3252 35.8059 31.7004 35.8059C31.0757 35.8059 30.5692 36.3119 30.5692 36.9361C30.5692 37.5602 31.0757 38.0662 31.7004 38.0662Z" fill="#FFB71C"/>
<path d="M57.6328 37.4843C58.5585 37.4843 59.3089 36.7217 59.3089 35.781C59.3089 34.8402 58.5585 34.0776 57.6328 34.0776C56.7071 34.0776 55.9567 34.8402 55.9567 35.781C55.9567 36.7217 56.7071 37.4843 57.6328 37.4843Z" fill="#FFB71C"/>
<path d="M38.7742 54.7124C39.6568 54.7124 40.3722 53.9853 40.3722 53.0884C40.3722 52.1915 39.6568 51.4644 38.7742 51.4644C37.8916 51.4644 37.1761 52.1915 37.1761 53.0884C37.1761 53.9853 37.8916 54.7124 38.7742 54.7124Z" fill="#FFB71C"/>
<path d="M88.8847 54.1705C86.8453 63.5436 81.8903 72.023 74.7391 78.3776C67.5879 84.7322 58.6129 88.6312 49.1171 89.5084C39.6214 90.3857 30.0992 88.1956 21.9333 83.256C13.7674 78.3164 7.38274 70.8846 3.70647 62.0396" stroke="#41769A" stroke-width="1.20162" stroke-linecap="round" stroke-linejoin="round"/>
<path d="M68.0615 5.81348C71.9282 8.1295 75.4253 11.0187 78.435 14.384" stroke="#E9BCF1" stroke-width="1.20162" stroke-linecap="round" stroke-linejoin="round"/>
<path d="M82.7601 19.9734C87.6773 27.7911 90.0826 36.9449 89.6497 46.1927" stroke="#9788CF" stroke-width="1.20162" stroke-linecap="round" stroke-linejoin="round"/>
<path d="M53.9507 0.952391C41.492 -1.66874 28.454 1.17152 18.1469 8.84227C7.15267 17.0244 0.469344 29.8062 0.000478721 43.547C-0.00168927 43.5839 0.0035215 43.6208 0.0158035 43.6556C0.0280855 43.6905 0.0471912 43.7225 0.0719959 43.7498C0.0968005 43.7771 0.126804 43.7992 0.160238 43.8147C0.193673 43.8302 0.229862 43.8389 0.26668 43.8401C0.303498 43.8414 0.340202 43.8353 0.374626 43.8221C0.40905 43.809 0.440499 43.789 0.467127 43.7635C0.493754 43.738 0.515019 43.7074 0.529671 43.6735C0.544324 43.6396 0.552069 43.6031 0.552447 43.5661C1.01558 29.9934 7.61691 17.3688 18.4761 9.28716C29.3353 1.20553 43.2612 -1.44695 56.2894 2.08446C56.3244 2.09398 56.361 2.09649 56.397 2.09183C56.433 2.08717 56.4677 2.07544 56.4992 2.05731C56.5307 2.03918 56.5583 2.01502 56.5805 1.98618C56.6026 1.95735 56.6189 1.92441 56.6284 1.88927C56.6378 1.85412 56.6403 1.81745 56.6356 1.78135C56.6309 1.74525 56.6192 1.71043 56.6011 1.67888C56.583 1.64732 56.5589 1.61965 56.5301 1.59744C56.5014 1.57524 56.4685 1.55895 56.4335 1.54949C55.609 1.32601 54.7812 1.12713 53.9507 0.952391Z" fill="url(#paint0_linear)"/>
<path d="M82.7008 36.6445C82.7008 36.3994 82.5014 36.2 82.2563 36.2H81.6V36.2833H81.5999V37.8194H81.7666V37.089H82.2563C82.4095 37.089 82.5342 37.2137 82.5342 37.3669V37.8194H82.7008V37.3669C82.7008 37.2179 82.6265 37.0864 82.5135 37.0057C82.6265 36.925 82.7008 36.7936 82.7008 36.6445ZM82.2563 36.9224H81.7667V36.3666H82.2563C82.4095 36.3666 82.5342 36.4913 82.5342 36.6445C82.5342 36.7977 82.4095 36.9224 82.2563 36.9224Z" fill="white"/>
<path d="M82 35C80.8972 35 80 35.8972 80 37C80 38.1028 80.8972 39 82 39C83.1028 39 84 38.1028 84 37C84 35.8972 83.1028 35 82 35ZM82 38.8333C80.9891 38.8333 80.1667 38.0109 80.1667 37C80.1667 35.9891 80.9891 35.1667 82 35.1667C83.0109 35.1667 83.8333 35.9891 83.8333 37C83.8333 38.0109 83.0109 38.8333 82 38.8333Z" fill="white"/>
</g>
<defs>
<linearGradient id="paint0_linear" x1="7.33385" y1="34.5623" x2="76.3807" y2="-5.6721" gradientUnits="userSpaceOnUse">
<stop stop-color="#FFFA8A"/>
<stop offset="1" stop-color="#FFB71C"/>
</linearGradient>
<clipPath id="clip0">
<rect width="90" height="90" fill="white"/>
</clipPath>
</defs>
</svg>
