<svg width="50" height="50" viewBox="0 0 50 50" fill="none" xmlns="http://www.w3.org/2000/svg">
<mask id="path-1-inside-1" fill="white">
<path d="M25 0C11.1922 0 0 11.1922 0 25C0 38.8063 11.1922 50 25 50C38.8078 50 50 38.8063 50 25C50 11.1922 38.8078 0 25 0Z"/>
</mask>
<path d="M25 0C11.1922 0 0 11.1922 0 25C0 38.8063 11.1922 50 25 50C38.8078 50 50 38.8063 50 25C50 11.1922 38.8078 0 25 0Z" stroke="white" stroke-width="2" mask="url(#path-1-inside-1)"/>
<mask id="path-2-inside-2" fill="white">
<path d="M38.9985 17.3063L29.9984 12.8062C29.9578 12.7859 29.9125 12.7766 29.8688 12.775C29.8656 12.775 29.8625 12.7734 29.8594 12.7734C29.75 12.7734 29.6406 12.8281 29.5828 12.9234L24.0359 21.9375L30.2281 32L39.086 17.6062C39.15 17.5016 39.111 17.3625 38.9985 17.3063Z"/>
</mask>
<path d="M38.9985 17.3063L29.9984 12.8062C29.9578 12.7859 29.9125 12.7766 29.8688 12.775C29.8656 12.775 29.8625 12.7734 29.8594 12.7734C29.75 12.7734 29.6406 12.8281 29.5828 12.9234L24.0359 21.9375L30.2281 32L39.086 17.6062C39.15 17.5016 39.111 17.3625 38.9985 17.3063Z" stroke="white" stroke-width="2" mask="url(#path-2-inside-2)"/>
<mask id="path-3-inside-3" fill="white">
<path d="M21.1016 18.7703V28.4843L29.7359 32.7999L21.1016 18.7703Z"/>
</mask>
<path d="M21.1016 18.7703V28.4843L29.7359 32.7999L21.1016 18.7703Z" stroke="white" stroke-width="2" mask="url(#path-3-inside-3)"/>
<mask id="path-4-inside-4" fill="white">
<path d="M30.4906 33.1718L38.4188 37.1358C38.8516 37.3515 39.2063 37.1327 39.2063 36.6499V19.0093L30.4906 33.1718Z"/>
</mask>
<path d="M30.4906 33.1718L38.4188 37.1358C38.8516 37.3515 39.2063 37.1327 39.2063 36.6499V19.0093L30.4906 33.1718Z" stroke="white" stroke-width="2" mask="url(#path-4-inside-4)"/>
<mask id="path-5-inside-5" fill="white">
<path d="M20.1485 17.3517L11.8438 13.2001L11.3188 12.9376C11.2438 12.9001 11.1719 12.8813 11.1063 12.8813C11.0141 12.8813 10.9359 12.9173 10.8797 12.9845C10.8266 13.0501 10.7938 13.1438 10.7938 13.261V32.2142C10.7938 32.536 11.0297 32.9188 11.3188 33.0626L19.4781 37.1423C19.5922 37.1985 19.7 37.2251 19.7969 37.2251C20.0719 37.2251 20.2641 37.0126 20.2641 36.6548V17.5407C20.2656 17.461 20.2203 17.3876 20.1485 17.3517Z"/>
</mask>
<path d="M20.1485 17.3517L11.8438 13.2001L11.3188 12.9376C11.2438 12.9001 11.1719 12.8813 11.1063 12.8813C11.0141 12.8813 10.9359 12.9173 10.8797 12.9845C10.8266 13.0501 10.7938 13.1438 10.7938 13.261V32.2142C10.7938 32.536 11.0297 32.9188 11.3188 33.0626L19.4781 37.1423C19.5922 37.1985 19.7 37.2251 19.7969 37.2251C20.0719 37.2251 20.2641 37.0126 20.2641 36.6548V17.5407C20.2656 17.461 20.2203 17.3876 20.1485 17.3517Z" stroke="white" stroke-width="2" mask="url(#path-5-inside-5)"/>
</svg>
