<?xml version="1.0" encoding="UTF-8" standalone="no"?>
<svg
   xmlns:dc="http://purl.org/dc/elements/1.1/"
   xmlns:cc="http://creativecommons.org/ns#"
   xmlns:rdf="http://www.w3.org/1999/02/22-rdf-syntax-ns#"
   xmlns:svg="http://www.w3.org/2000/svg"
   xmlns="http://www.w3.org/2000/svg"
   viewBox="0 0 66.666664 67"
   height="67"
   width="66.666664"
   id="svg934"
   version="1.1">
  <metadata
     id="metadata940">
    <rdf:RDF>
      <cc:Work
         rdf:about="">
        <dc:format>image/svg+xml</dc:format>
        <dc:type
           rdf:resource="http://purl.org/dc/dcmitype/StillImage" />
        <dc:title></dc:title>
      </cc:Work>
    </rdf:RDF>
  </metadata>
  <defs
     id="defs938" />
  <path
     id="path1487"
     d="M 11,64.81754 C 3.3454435,62.691937 -1.4810468,54.249253 0.58778694,46.604097 1.0389581,44.93684 2.0968206,42.742717 4.1736265,39.166667 c 0.9582446,-1.65 5.3986878,-9.365655 9.8676515,-17.1459 9.124946,-15.886082 9.80053,-16.7846593 14.216081,-18.9084537 2.10488,-1.0124069 2.951041,-1.2269008 5.388213,-1.3658621 4.581893,-0.2612477 8.03815,0.970928 11.25361,4.0119755 3.389053,3.205226 4.965539,7.1576323 4.671176,11.7111183 -0.09589,1.483417 -0.33564,3.223885 -0.532763,3.867708 -0.46989,1.534682 -7.740087,14.266007 -9.043223,15.836194 -0.59797,0.720506 -0.219374,0.775003 6.672293,0.960456 9.664429,0.260064 14.238316,1.155764 17.771809,3.48024 2.144873,1.410984 2.22819,1.79064 2.22819,10.153344 0,7.21749 -0.0254,7.505143 -0.759383,8.599886 -2.076267,3.096774 -9.57175,4.967024 -19.89854,4.96502 -8.954872,-0.0017 -15.204462,-1.236913 -19.025098,-3.760143 -0.831096,-0.548873 -0.887692,-0.532597 -2.586512,0.743873 -0.955253,0.717764 -2.597893,1.637987 -3.650311,2.04494 C 18.258357,65.323313 13.605982,65.5412 11,64.81754 Z m 7.999999,-2.55223 c 1.719231,-0.523467 3.684357,-1.741387 5.003032,-3.100707 l 1.163635,-1.1995 c 0.11111,-4.903154 0.222222,-9.806309 0.333333,-14.709463 l 1.270266,-1.09733 c 0.698646,-0.603533 2.086146,-1.428473 3.083333,-1.833203 1.882284,-0.763964 2.098281,-1.009237 1.396401,-1.585677 -0.860299,-0.706547 -17.3355,-10.072763 -17.718018,-10.072763 -0.219637,0 -1.058005,1.1625 -1.863041,2.583333 -0.805037,1.420833 -2.2829014,3.933333 -3.2841443,5.583333 -1.0012433,1.65 -2.7137166,4.724014 -3.8054965,6.83114 l -1.9850547,3.831137 0.1379441,3.002197 c 0.1159983,2.52457 0.3080028,3.355806 1.2068799,5.224903 2.7117069,5.63863 9.0239645,8.38073 15.0609305,6.5426 z m 36.891935,-0.285743 c 3.708697,-0.689007 6.49907,-1.62677 7.4788,-2.513417 0.563077,-0.509577 0.629263,-1.09106 0.629263,-5.528273 0,-5.56796 -0.051,-5.67804 -2.211089,-4.772107 -2.203184,0.92401 -7.4324,1.87249 -11.955577,2.16851 -7.713506,0.504813 -18.813128,-0.870033 -20.163872,-2.49758 -0.229766,-0.276853 -0.77439,-0.503367 -1.210275,-0.503367 h -0.792518 v 5.108564 c 0,5.688943 0.01484,5.728623 2.639235,7.05658 4.446504,2.249956 17.40865,3.00029 25.586033,1.48109 z m -2.891936,-13.32466 c 4.71891,-0.704087 5.90007,-0.93585 7.57209,-1.48576 1.660353,-0.546074 3.427909,-1.8016 3.427909,-2.4349 0,-0.953584 -4.683013,-3.045574 -6.851176,-3.06055 -0.559817,-0.0039 -3.119523,0.947163 -5.68824,2.113403 -2.568716,1.166237 -5.227876,2.30442 -5.909243,2.52929 -1.639913,0.54122 -4.218006,1.995153 -4.218006,2.378773 0,0.403747 8.896646,0.373047 11.666666,-0.04026 z m -11.30174,-3.146464 c 2.614137,-1.235453 5.31588,-2.444886 6.003873,-2.687623 1.598967,-0.564147 3.006234,-1.483677 2.794634,-1.826053 -0.371857,-0.601674 -3.667117,-0.661867 -9.245227,-0.168877 -3.25332,0.287523 -6.300583,0.669323 -6.771699,0.84844 C 34.008725,41.85345 33.249801,42 32.793344,42 c -0.979765,0 -3.512536,1.100143 -4.264915,1.852523 -1.190849,1.190847 -0.262506,2.106314 3.449791,3.40193 3.068569,1.070954 4.183182,0.870737 9.720038,-1.74601 z m -4.517829,-8.92511 c 0.668153,-0.61832 2.879209,-4.075477 5.151066,-8.054085 4.81836,-8.438187 5.421376,-10.325115 4.542853,-14.215327 C 46.206245,11.355462 45.095808,9.4591067 42.806222,7.366555 40.387575,5.1560487 37.993908,4.2574507 34.499999,4.248348 32.223145,4.2424147 31.504092,4.3913957 29.581041,5.2675007 26.140004,6.8351707 24.781564,8.4913287 19.68777,17.329 c -2.463393,4.273956 -4.488393,8.06258 -4.5,8.419165 -0.01625,0.499105 1.573631,1.580949 6.907238,4.700085 10.830055,6.333503 12.352951,7.1659 13.159887,7.193033 0.415987,0.014 1.28045,-0.460976 1.925534,-1.05795 z M 25.857142,12.809524 c -0.638874,-0.638874 -0.177185,-1.330551 -0.03499,-1.78791 1.255484,-2.4278383 6.050783,-5.4232466 7.306738,-4.5048706 0.898484,0.656988 0.147403,1.9164989 -1.466237,2.7529603 -2.190728,0.9134903 -3.825255,4.6775633 -5.805511,3.5398203 z m 9.491577,-4.624316 c -0.90023,-1.084712 0.589573,-2.3897703 1.588143,-1.3912017 0.424517,0.4245157 0.46799,0.6849807 0.188427,1.128915 -0.48672,0.772887 -1.258274,0.8867964 -1.77657,0.2622867 z"
     style="fill:#232323;stroke-width:0.33333331" />
</svg>
