<svg width="14" height="19" viewBox="0 0 14 19" fill="none" xmlns="http://www.w3.org/2000/svg">
<path fill-rule="evenodd" clip-rule="evenodd" d="M1.57211 5.60687V7.55592H1.44545C0.648217 7.55592 0 8.21959 0 9.03583V17.1868C0 18.003 0.648217 18.6667 1.44545 18.6667H12.5546C13.3518 18.6667 14 18.003 14 17.1868V9.03201C14 8.21577 13.3518 7.5521 12.5546 7.5521H12.5173V5.60305C12.5173 2.51355 10.0623 0 7.0447 0C4.02714 0.00381419 1.57211 2.51737 1.57211 5.60687ZM7.85684 13.4717C7.74508 13.5556 7.71527 13.6357 7.71527 13.7692C7.719 14.3681 7.719 14.9631 7.719 15.5619C7.73018 15.8098 7.60724 16.0539 7.39117 16.1646C6.88079 16.4315 6.37041 16.0578 6.37041 15.5619V15.5581C6.37041 14.9593 6.37041 14.3604 6.37414 13.7616C6.37414 13.6396 6.34806 13.5595 6.24375 13.4794C5.71474 13.0789 5.53965 12.3961 5.80415 11.7973C6.0612 11.2137 6.69079 10.8705 7.28313 10.9925C7.94252 11.1298 8.40075 11.6714 8.4082 12.3465C8.4082 12.8157 8.22565 13.1971 7.85684 13.4717ZM7.0447 2.45634C5.34965 2.45634 3.96754 3.86759 3.96754 5.60687V7.55592H10.1219V5.60687C10.1219 3.87141 8.74348 2.45634 7.0447 2.45634Z" fill="#151D59"/>
</svg>
