<svg width="50" height="50" viewBox="0 0 50 50" fill="none" xmlns="http://www.w3.org/2000/svg">
<mask id="path-1-inside-1" fill="white">
<path d="M43.4087 23.2099C43.5632 24.8571 42.7896 26.0793 41.5152 27.0224C41.2091 27.2488 41.1145 27.439 41.1688 27.8321C41.5681 30.7793 40.7082 33.3626 38.7674 35.5849C36.3201 38.3863 33.141 39.9154 29.571 40.7196C27.0903 41.2779 24.5791 41.3974 22.0539 41.0821C19.167 40.7196 16.4136 39.9279 13.9316 38.364C11.757 36.9946 9.96638 35.2585 8.9257 32.8571C8.19389 31.1682 8.00606 29.4126 8.30797 27.6029C8.33997 27.4085 8.30102 27.3015 8.12293 27.1835C7.04329 26.4613 6.26 25.5099 6.05826 24.1946C5.54488 20.8488 8.52501 18.8126 11.0349 19.4765C11.7611 19.6682 12.4331 20.064 13.1218 20.3821C13.2902 20.4599 13.4029 20.5099 13.5865 20.3849C15.5997 19.014 17.8132 18.1168 20.1937 17.614C21.521 17.3335 22.8594 17.1418 24.2173 17.1515C24.4858 17.1529 24.5387 17.0085 24.6013 16.8085C25.3248 14.5071 26.0538 12.2085 26.7801 9.90848C27.0375 9.09181 27.4284 8.86265 28.2646 9.04181C30.2778 9.47098 32.291 9.8932 34.3014 10.3335C34.5504 10.3876 34.6923 10.3418 34.8593 10.1474C36.5664 8.16542 39.2154 9.07098 40.0682 10.5849C41.134 12.4793 39.9403 14.8446 37.7406 15.1988C36.1406 15.4557 34.556 14.4432 34.1302 12.8543C34.0398 12.5182 33.8812 12.4071 33.5626 12.3418C32.0099 12.0265 30.4642 11.6835 28.9171 11.3515C28.7947 11.3251 28.6694 11.3113 28.5136 11.2863C27.8653 13.3001 27.2239 15.2946 26.5644 17.3418C26.954 17.3821 27.2935 17.4182 27.6329 17.4529C30.6645 17.7599 33.4763 18.7001 36.028 20.3793C36.1893 20.4849 36.2853 20.4793 36.4426 20.3515C37.8185 19.2293 39.3531 19.0307 40.9573 19.7363C42.439 20.3932 43.2571 21.5946 43.4087 23.2099ZM30.4879 29.6668C31.8332 29.6654 33.0297 28.4751 33.0242 27.1446C33.0186 25.7279 31.868 24.5696 30.4739 24.5738C29.1202 24.5779 27.9404 25.7335 27.9418 27.0515C27.9432 28.4932 29.0882 29.6682 30.4879 29.6668ZM31.0889 34.4918C31.3811 34.1543 31.3059 33.7529 31.0374 33.4876C30.6645 33.1182 30.1832 33.0154 29.8089 33.2293C29.6586 33.3154 29.5209 33.4224 29.3734 33.5126C26.7954 35.0765 24.1019 35.3196 21.3109 34.1613C20.7391 33.9238 20.2132 33.571 19.6748 33.2585C19.2741 33.0251 18.7704 33.1071 18.3864 33.4946C18.1332 33.7488 18.1012 34.1863 18.3544 34.5446C18.4978 34.746 18.6911 34.9279 18.8943 35.0696C20.6389 36.2918 22.6007 36.8015 24.8698 36.8279C25.1161 36.8099 25.5196 36.7876 25.923 36.7501C27.3338 36.621 28.6792 36.2501 29.8966 35.5196C30.3404 35.2501 30.7466 34.8835 31.0889 34.4918ZM19.0334 29.6668C20.2981 29.664 21.5099 28.4251 21.5043 27.139C21.4988 25.7446 20.3259 24.5738 18.9374 24.5751C17.567 24.5751 16.3997 25.7501 16.4025 27.1265C16.4066 28.5182 17.599 29.6696 19.0334 29.6668Z"/>
</mask>
<path d="M43.4087 23.2099C43.5632 24.8571 42.7896 26.0793 41.5152 27.0224C41.2091 27.2488 41.1145 27.439 41.1688 27.8321C41.5681 30.7793 40.7082 33.3626 38.7674 35.5849C36.3201 38.3863 33.141 39.9154 29.571 40.7196C27.0903 41.2779 24.5791 41.3974 22.0539 41.0821C19.167 40.7196 16.4136 39.9279 13.9316 38.364C11.757 36.9946 9.96638 35.2585 8.9257 32.8571C8.19389 31.1682 8.00606 29.4126 8.30797 27.6029C8.33997 27.4085 8.30102 27.3015 8.12293 27.1835C7.04329 26.4613 6.26 25.5099 6.05826 24.1946C5.54488 20.8488 8.52501 18.8126 11.0349 19.4765C11.7611 19.6682 12.4331 20.064 13.1218 20.3821C13.2902 20.4599 13.4029 20.5099 13.5865 20.3849C15.5997 19.014 17.8132 18.1168 20.1937 17.614C21.521 17.3335 22.8594 17.1418 24.2173 17.1515C24.4858 17.1529 24.5387 17.0085 24.6013 16.8085C25.3248 14.5071 26.0538 12.2085 26.7801 9.90848C27.0375 9.09181 27.4284 8.86265 28.2646 9.04181C30.2778 9.47098 32.291 9.8932 34.3014 10.3335C34.5504 10.3876 34.6923 10.3418 34.8593 10.1474C36.5664 8.16542 39.2154 9.07098 40.0682 10.5849C41.134 12.4793 39.9403 14.8446 37.7406 15.1988C36.1406 15.4557 34.556 14.4432 34.1302 12.8543C34.0398 12.5182 33.8812 12.4071 33.5626 12.3418C32.0099 12.0265 30.4642 11.6835 28.9171 11.3515C28.7947 11.3251 28.6694 11.3113 28.5136 11.2863C27.8653 13.3001 27.2239 15.2946 26.5644 17.3418C26.954 17.3821 27.2935 17.4182 27.6329 17.4529C30.6645 17.7599 33.4763 18.7001 36.028 20.3793C36.1893 20.4849 36.2853 20.4793 36.4426 20.3515C37.8185 19.2293 39.3531 19.0307 40.9573 19.7363C42.439 20.3932 43.2571 21.5946 43.4087 23.2099ZM30.4879 29.6668C31.8332 29.6654 33.0297 28.4751 33.0242 27.1446C33.0186 25.7279 31.868 24.5696 30.4739 24.5738C29.1202 24.5779 27.9404 25.7335 27.9418 27.0515C27.9432 28.4932 29.0882 29.6682 30.4879 29.6668ZM31.0889 34.4918C31.3811 34.1543 31.3059 33.7529 31.0374 33.4876C30.6645 33.1182 30.1832 33.0154 29.8089 33.2293C29.6586 33.3154 29.5209 33.4224 29.3734 33.5126C26.7954 35.0765 24.1019 35.3196 21.3109 34.1613C20.7391 33.9238 20.2132 33.571 19.6748 33.2585C19.2741 33.0251 18.7704 33.1071 18.3864 33.4946C18.1332 33.7488 18.1012 34.1863 18.3544 34.5446C18.4978 34.746 18.6911 34.9279 18.8943 35.0696C20.6389 36.2918 22.6007 36.8015 24.8698 36.8279C25.1161 36.8099 25.5196 36.7876 25.923 36.7501C27.3338 36.621 28.6792 36.2501 29.8966 35.5196C30.3404 35.2501 30.7466 34.8835 31.0889 34.4918ZM19.0334 29.6668C20.2981 29.664 21.5099 28.4251 21.5043 27.139C21.4988 25.7446 20.3259 24.5738 18.9374 24.5751C17.567 24.5751 16.3997 25.7501 16.4025 27.1265C16.4066 28.5182 17.599 29.6696 19.0334 29.6668Z" stroke="white" mask="url(#path-1-inside-1)"/>
<mask id="path-2-inside-2" fill="white">
<path d="M49.0317 25.7432C49.3949 11.9307 38.1547 0.750141 24.4379 1.05847C11.6506 1.34736 1.01699 11.7057 0.937683 25.0474C1.00307 38.4085 11.6979 48.9237 24.7009 49.0543C38.348 49.1918 48.7006 38.3349 49.0317 25.7432Z"/>
</mask>
<path d="M49.0317 25.7432C49.3949 11.9307 38.1547 0.750141 24.4379 1.05847C11.6506 1.34736 1.01699 11.7057 0.937683 25.0474C1.00307 38.4085 11.6979 48.9237 24.7009 49.0543C38.348 49.1918 48.7006 38.3349 49.0317 25.7432Z" stroke="white" stroke-width="2" mask="url(#path-2-inside-2)"/>
</svg>
