<svg width="50" height="50" viewBox="0 0 50 50" fill="none" xmlns="http://www.w3.org/2000/svg">
<mask id="path-1-inside-1" fill="white">
<path d="M25 50C38.8071 50 50 38.8071 50 25C50 11.1929 38.8071 0 25 0C11.1929 0 0 11.1929 0 25C0 38.8071 11.1929 50 25 50Z"/>
</mask>
<path d="M25 50C38.8071 50 50 38.8071 50 25C50 11.1929 38.8071 0 25 0C11.1929 0 0 11.1929 0 25C0 38.8071 11.1929 50 25 50Z" stroke="white" stroke-width="2" mask="url(#path-1-inside-1)"/>
<mask id="path-2-inside-2" fill="white">
<path d="M20.4166 36.4584C19.6067 36.4584 19.7444 36.1526 19.465 35.3814L17.0833 27.543L35.4166 16.6667"/>
</mask>
<path d="M19.465 35.3814L18.5082 35.6722L18.5159 35.6973L18.5248 35.722L19.465 35.3814ZM17.0833 27.543L16.5731 26.6829L15.8985 27.0832L16.1265 27.8337L17.0833 27.543ZM20.4166 35.4584C20.3446 35.4584 20.3044 35.4549 20.2863 35.4525C20.2684 35.4501 20.2869 35.4507 20.3261 35.4658C20.3695 35.4826 20.4282 35.5134 20.4874 35.5646C20.5461 35.6154 20.5832 35.6671 20.6036 35.7018C20.6215 35.7322 20.6249 35.7467 20.6173 35.7253C20.6093 35.7029 20.5985 35.6681 20.5794 35.6012C20.5446 35.4788 20.4899 35.2746 20.4052 35.0409L18.5248 35.722C18.5798 35.8738 18.6127 35.997 18.6559 36.1489C18.6897 36.2678 18.754 36.5022 18.8801 36.7164C19.0386 36.9857 19.2774 37.2047 19.6051 37.3313C19.8823 37.4385 20.1718 37.4584 20.4166 37.4584V35.4584ZM20.4218 35.0907L18.0401 27.2523L16.1265 27.8337L18.5082 35.6722L20.4218 35.0907ZM17.5935 28.403L35.9269 17.5268L34.9064 15.8067L16.5731 26.6829L17.5935 28.403Z" fill="white" mask="url(#path-2-inside-2)"/>
<mask id="path-4-inside-3" fill="white">
<path d="M20.4167 36.4583C21.0417 36.4583 21.3178 36.1724 21.6667 35.8333L25 32.592L20.8421 30.0847"/>
</mask>
<path d="M21.6667 35.8333L22.3638 36.5503L22.3638 36.5502L21.6667 35.8333ZM25 32.592L25.6972 33.3089L26.6266 32.4051L25.5164 31.7357L25 32.592ZM20.4167 37.4583C20.9011 37.4583 21.3049 37.3422 21.6577 37.1316C21.9702 36.9451 22.2158 36.6941 22.3638 36.5503L20.9696 35.1163C20.7687 35.3116 20.7018 35.3731 20.6328 35.4143C20.6041 35.4314 20.5572 35.4583 20.4167 35.4583V37.4583ZM22.3638 36.5502L25.6972 33.3089L24.3029 31.8751L20.9696 35.1163L22.3638 36.5502ZM25.5164 31.7357L21.3585 29.2284L20.3257 30.9411L24.4836 33.4484L25.5164 31.7357Z" fill="white" mask="url(#path-4-inside-3)"/>
<mask id="path-6-inside-4" fill="white">
<path d="M20.8417 30.0855L30.9167 37.529C32.0663 38.1634 32.8961 37.8349 33.1825 36.4616L37.2835 17.136C37.7034 15.4526 36.6418 14.6891 35.542 15.1884L11.4607 24.4741C9.81698 25.1334 9.82656 26.0504 11.1611 26.4591L17.3409 28.3879L31.6478 19.3618C32.3232 18.9523 32.9431 19.1725 32.4343 19.624"/>
</mask>
<path d="M30.9167 37.529L30.3224 38.3333L30.3756 38.3726L30.4336 38.4046L30.9167 37.529ZM33.1825 36.4616L32.2043 36.254L32.2036 36.2575L33.1825 36.4616ZM37.2835 17.136L36.3133 16.894L36.309 16.9111L36.3053 16.9284L37.2835 17.136ZM35.542 15.1884L35.9018 16.1215L35.9289 16.111L35.9554 16.099L35.542 15.1884ZM11.4607 24.4741L11.1009 23.5409L11.0885 23.5459L11.4607 24.4741ZM11.1611 26.4591L11.4591 25.5045L11.4539 25.5029L11.1611 26.4591ZM17.3409 28.3879L17.043 29.3425L17.4839 29.4801L17.8745 29.2336L17.3409 28.3879ZM31.6478 19.3618L31.1293 18.5068L31.1217 18.5114L31.1142 18.5161L31.6478 19.3618ZM20.2474 30.8898L30.3224 38.3333L31.5109 36.7247L21.4359 29.2812L20.2474 30.8898ZM30.4336 38.4046C31.125 38.7861 31.9775 39.0236 32.7844 38.6598C33.5966 38.2936 33.9902 37.487 34.1614 36.6657L32.2036 36.2575C32.0884 36.8095 31.924 36.8538 31.9623 36.8366C31.9953 36.8217 31.858 36.9063 31.3998 36.6534L30.4336 38.4046ZM34.1607 36.6692L38.2618 17.3436L36.3053 16.9284L32.2043 36.254L34.1607 36.6692ZM38.2538 17.378C38.5144 16.3333 38.3759 15.3 37.6779 14.6249C36.9659 13.9363 35.9604 13.9002 35.1286 14.2779L35.9554 16.099C36.0893 16.0382 36.1812 16.0342 36.2261 16.0392C36.2663 16.0437 36.2799 16.0552 36.2875 16.0625C36.2902 16.0652 36.4726 16.2553 36.3133 16.894L38.2538 17.378ZM35.1822 14.2554L11.101 23.541L11.8205 25.4071L35.9018 16.1215L35.1822 14.2554ZM11.0885 23.5459C10.6123 23.7369 10.1934 23.9702 9.87055 24.2556C9.55413 24.5353 9.25129 24.9381 9.19902 25.4611C9.143 26.0216 9.3962 26.4839 9.72737 26.7965C10.0415 27.0929 10.45 27.2872 10.8684 27.4153L11.4539 25.5029C11.3356 25.4667 11.2487 25.4298 11.188 25.398C11.1265 25.3657 11.1022 25.344 11.1002 25.342C11.0987 25.3406 11.1275 25.3673 11.1541 25.4288C11.1827 25.495 11.1974 25.5767 11.1891 25.66C11.1731 25.8203 11.0926 25.8447 11.195 25.7542C11.291 25.6694 11.4873 25.5408 11.833 25.4022L11.0885 23.5459ZM10.8632 27.4137L17.043 29.3425L17.6389 27.4333L11.4591 25.5045L10.8632 27.4137ZM17.8745 29.2336L32.1814 20.2076L31.1142 18.5161L16.8073 27.5421L17.8745 29.2336ZM32.1663 20.2169C32.2457 20.1688 32.3047 20.1509 32.3289 20.146C32.3722 20.137 32.3011 20.1641 32.1607 20.1159C32.0848 20.0899 31.9462 20.0261 31.8219 19.8785C31.6843 19.715 31.614 19.5056 31.6217 19.2979C31.6286 19.1115 31.6952 18.9858 31.7275 18.9344C31.7612 18.8807 31.7854 18.8629 31.7705 18.8761L33.0981 20.3719C33.2816 20.2091 33.6018 19.8715 33.6203 19.372C33.6309 19.0866 33.5366 18.8098 33.3523 18.5908C33.1813 18.3876 32.9733 18.2803 32.8095 18.2241C32.4933 18.1157 32.1724 18.1362 31.9254 18.1871C31.6593 18.2419 31.3876 18.3501 31.1293 18.5068L32.1663 20.2169Z" fill="white" mask="url(#path-6-inside-4)"/>
</svg>
