<svg width="36" height="36" viewBox="0 0 36 36" fill="none" xmlns="http://www.w3.org/2000/svg">
<path fill-rule="evenodd" clip-rule="evenodd" d="M18 36C27.9411 36 36 27.9411 36 18C36 8.05887 27.9411 0 18 0C8.05887 0 0 8.05887 0 18C0 27.9411 8.05887 36 18 36Z" fill="#FFB41C"/>
<mask id="path-2-inside-1" fill="white">
<path d="M15.9808 23.2306C16.0314 23.4024 16.0567 23.5399 16.0567 23.8129C15.5916 23.7825 14.985 23.7674 14.2369 23.7674C13.5191 23.7674 12.9024 23.7826 12.3868 23.8129C12.3868 23.5702 12.4172 23.4378 12.4778 23.2457C12.862 23.2053 13.1198 23.1194 13.2512 22.9879C13.3826 22.8565 13.4483 22.5289 13.4483 22.1751C13.4483 21.9729 13.4332 21.7202 13.4029 21.4169L12.8569 16.2154L9.71788 23.7977C9.54601 23.8685 9.33877 23.9039 9.09614 23.9039L5.56281 16.2306L5.07753 21.0984C5.0472 21.4017 5.03206 21.6646 5.03206 21.887C5.03206 22.352 5.10786 22.7605 5.25951 22.9424C5.42126 23.1143 5.68918 23.2154 6.06324 23.2457C6.11378 23.4176 6.13905 23.55 6.13905 23.8129C5.65378 23.7825 5.11293 23.7674 4.51646 23.7674C3.91999 23.7674 3.4145 23.7826 3 23.8129C3 23.5601 3.02527 23.4277 3.07583 23.2457C3.3589 23.2154 3.57625 23.1446 3.7279 23.0334C3.87955 22.9222 3.99581 22.6351 4.07668 22.3419C4.16767 22.0386 4.2435 21.5786 4.30416 20.9619L4.78941 15.5634C4.7995 15.4724 4.80456 15.3511 4.80456 15.1994C4.80456 14.8051 4.72369 14.5271 4.56194 14.3654C4.40018 14.2036 4.13732 14.1228 3.77338 14.1228C3.72283 13.961 3.69757 13.7436 3.69757 13.4707C4.00085 13.501 4.38501 13.5162 4.85006 13.5162C5.22411 13.5162 5.60829 13.501 6.00257 13.4707L9.79368 21.8566L13.0996 13.4707C13.4433 13.501 13.8376 13.5162 14.2824 13.5162C14.6463 13.5162 15.0305 13.501 15.4349 13.4707C15.4349 13.7133 15.4096 13.9307 15.3591 14.1228C15.0153 14.1228 14.7525 14.2087 14.5705 14.3805C14.3986 14.5524 14.3127 14.8506 14.3127 15.2753C14.3127 15.437 14.3178 15.5634 14.3279 15.6544L14.8738 21.2197C14.9243 21.7252 14.99 22.1145 15.0709 22.3874C15.1518 22.6503 15.263 22.9222 15.4045 23.0334C15.5461 23.1446 15.7382 23.2104 15.9808 23.2306H15.9808Z"/>
</mask>
<path d="M15.9808 23.2306C16.0314 23.4024 16.0567 23.5399 16.0567 23.8129C15.5916 23.7825 14.985 23.7674 14.2369 23.7674C13.5191 23.7674 12.9024 23.7826 12.3868 23.8129C12.3868 23.5702 12.4172 23.4378 12.4778 23.2457C12.862 23.2053 13.1198 23.1194 13.2512 22.9879C13.3826 22.8565 13.4483 22.5289 13.4483 22.1751C13.4483 21.9729 13.4332 21.7202 13.4029 21.4169L12.8569 16.2154L9.71788 23.7977C9.54601 23.8685 9.33877 23.9039 9.09614 23.9039L5.56281 16.2306L5.07753 21.0984C5.0472 21.4017 5.03206 21.6646 5.03206 21.887C5.03206 22.352 5.10786 22.7605 5.25951 22.9424C5.42126 23.1143 5.68918 23.2154 6.06324 23.2457C6.11378 23.4176 6.13905 23.55 6.13905 23.8129C5.65378 23.7825 5.11293 23.7674 4.51646 23.7674C3.91999 23.7674 3.4145 23.7826 3 23.8129C3 23.5601 3.02527 23.4277 3.07583 23.2457C3.3589 23.2154 3.57625 23.1446 3.7279 23.0334C3.87955 22.9222 3.99581 22.6351 4.07668 22.3419C4.16767 22.0386 4.2435 21.5786 4.30416 20.9619L4.78941 15.5634C4.7995 15.4724 4.80456 15.3511 4.80456 15.1994C4.80456 14.8051 4.72369 14.5271 4.56194 14.3654C4.40018 14.2036 4.13732 14.1228 3.77338 14.1228C3.72283 13.961 3.69757 13.7436 3.69757 13.4707C4.00085 13.501 4.38501 13.5162 4.85006 13.5162C5.22411 13.5162 5.60829 13.501 6.00257 13.4707L9.79368 21.8566L13.0996 13.4707C13.4433 13.501 13.8376 13.5162 14.2824 13.5162C14.6463 13.5162 15.0305 13.501 15.4349 13.4707C15.4349 13.7133 15.4096 13.9307 15.3591 14.1228C15.0153 14.1228 14.7525 14.2087 14.5705 14.3805C14.3986 14.5524 14.3127 14.8506 14.3127 15.2753C14.3127 15.437 14.3178 15.5634 14.3279 15.6544L14.8738 21.2197C14.9243 21.7252 14.99 22.1145 15.0709 22.3874C15.1518 22.6503 15.263 22.9222 15.4045 23.0334C15.5461 23.1446 15.7382 23.2104 15.9808 23.2306H15.9808Z" fill="#282828"/>
<path d="M15.9808 23.2306L18.5326 22.4801L17.971 20.5707H15.9808V23.2306ZM16.0567 23.8129L15.8836 26.4671L18.7165 26.6518V23.8129H16.0567ZM12.3868 23.8129H9.727V26.6337L12.5429 26.4681L12.3868 23.8129ZM12.4778 23.2457L12.1994 20.6005L10.4662 20.7829L9.94145 22.4448L12.4778 23.2457ZM13.2512 22.9879L11.3704 21.1071L11.3704 21.1072L13.2512 22.9879ZM13.4029 21.4169L16.0496 21.1523L16.0482 21.1392L13.4029 21.4169ZM12.8569 16.2154L15.5022 15.9378L10.3994 15.198L12.8569 16.2154ZM9.71788 23.7977L10.7306 26.2572L11.7526 25.8364L12.1754 24.8151L9.71788 23.7977ZM9.09614 23.9039L6.68014 25.0164L7.39265 26.5637H9.09614V23.9039ZM5.56281 16.2306L7.97881 15.1181L3.88665 6.23126L2.9161 15.9668L5.56281 16.2306ZM5.07753 21.0984L7.72417 21.3631L7.72425 21.3623L5.07753 21.0984ZM5.25951 22.9424L3.21619 24.6453L3.26758 24.7069L3.32261 24.7654L5.25951 22.9424ZM6.06324 23.2457L8.615 22.4952L8.09944 20.7423L6.27819 20.5946L6.06324 23.2457ZM6.13905 23.8129L5.97313 26.4675L8.79888 26.6441V23.8129H6.13905ZM3 23.8129H0.340165V26.6743L3.19398 26.4656L3 23.8129ZM3.07583 23.2457L2.79248 20.601L0.996564 20.7935L0.513067 22.5337L3.07583 23.2457ZM4.07668 22.3419L1.52839 21.5774L1.51261 21.6346L4.07668 22.3419ZM4.30416 20.9619L6.95131 21.2223L6.95331 21.2001L4.30416 20.9619ZM4.78941 15.5634L2.1452 15.2703L2.14026 15.3253L4.78941 15.5634ZM4.56194 14.3654L6.44275 12.4846L6.44271 12.4846L4.56194 14.3654ZM3.77338 14.1228L1.2346 14.9161L1.81786 16.7826H3.77338V14.1228ZM3.69757 13.4707L3.96223 10.824L1.03773 10.5316V13.4707H3.69757ZM6.00257 13.4707L8.42624 12.375L7.65804 10.6757L5.79868 10.8187L6.00257 13.4707ZM9.79368 21.8566L7.37001 22.9523L9.96123 28.6841L12.2682 22.8321L9.79368 21.8566ZM13.0996 13.4707L13.3333 10.8211L11.3539 10.6465L10.6251 12.4952L13.0996 13.4707ZM15.4349 13.4707H18.0947V10.604L15.2361 10.8183L15.4349 13.4707ZM15.3591 14.1228V16.7826H17.4095L17.9313 14.7997L15.3591 14.1228ZM14.5705 14.3805L12.7435 12.446L12.6897 12.4998L14.5705 14.3805ZM14.3279 15.6544L16.9752 15.3947L16.9715 15.3614L14.3279 15.6544ZM14.8738 21.2197L12.2267 21.4794L12.2272 21.4844L14.8738 21.2197ZM15.0709 22.3874L12.5205 23.1431L12.5287 23.1696L15.0709 22.3874ZM15.4045 23.0334L13.7612 25.1249L13.7613 25.1249L15.4045 23.0334ZM15.9808 23.2306L15.7599 25.8812L15.8702 25.8904H15.9808V23.2306ZM13.4291 23.981C13.4317 23.99 13.4275 23.9765 13.4215 23.9504C13.415 23.9219 13.4086 23.8888 13.4037 23.8539C13.394 23.7847 13.3968 23.7568 13.3968 23.8129H18.7165C18.7165 23.2984 18.6583 22.9074 18.5326 22.4801L13.4291 23.981ZM16.2298 21.1587C15.6834 21.123 15.0128 21.1075 14.2369 21.1075V26.4272C14.9573 26.4272 15.4998 26.442 15.8836 26.4671L16.2298 21.1587ZM14.2369 21.1075C13.4854 21.1075 12.8138 21.1233 12.2307 21.1576L12.5429 26.4681C12.991 26.4418 13.5529 26.4272 14.2369 26.4272V21.1075ZM15.0467 23.8129C15.0467 23.8074 15.0468 23.8225 15.0446 23.8519C15.0422 23.8833 15.0377 23.922 15.0303 23.9649C15.0154 24.0507 14.9971 24.1008 15.0142 24.0467L9.94145 22.4448C9.82054 22.8277 9.727 23.2351 9.727 23.8129H15.0467ZM12.7563 25.891C13.2055 25.8437 14.2995 25.7012 15.132 24.8687L11.3704 21.1072C11.7 20.7776 12.0226 20.6595 12.1182 20.6276C12.2304 20.5902 12.2731 20.5928 12.1994 20.6005L12.7563 25.891ZM15.132 24.8688C15.7351 24.2657 15.9245 23.5504 15.9909 23.2623C16.0795 22.878 16.1082 22.4998 16.1082 22.1751H10.7885C10.7885 22.2042 10.7843 22.1668 10.8072 22.0675C10.819 22.0161 10.8477 21.9063 10.9122 21.7631C10.9715 21.6315 11.105 21.3726 11.3704 21.1071L15.132 24.8688ZM16.1082 22.1751C16.1082 21.8523 16.0847 21.5042 16.0495 21.1523L10.7562 21.6814C10.7817 21.9361 10.7885 22.0935 10.7885 22.1751H16.1082ZM16.0482 21.1392L15.5022 15.9378L10.2116 16.4931L10.7576 21.6945L16.0482 21.1392ZM10.3994 15.198L7.26032 22.7803L12.1754 24.8151L15.3145 17.2329L10.3994 15.198ZM8.70514 21.3382C8.93636 21.243 9.09241 21.244 9.09614 21.244V26.5637C9.58513 26.5637 10.1557 26.4939 10.7306 26.2572L8.70514 21.3382ZM11.5121 22.7913L7.97881 15.1181L3.14681 17.3431L6.68014 25.0164L11.5121 22.7913ZM2.9161 15.9668L2.43082 20.8346L7.72425 21.3623L8.20953 16.4945L2.9161 15.9668ZM2.4309 20.8338C2.39473 21.1954 2.37222 21.5508 2.37222 21.887H7.69189C7.69189 21.7784 7.69968 21.608 7.72417 21.3631L2.4309 20.8338ZM2.37222 21.887C2.37222 22.2498 2.40063 22.6562 2.48438 23.0604C2.55245 23.389 2.72089 24.0509 3.21619 24.6453L7.30283 21.2396C7.49709 21.4727 7.59082 21.6813 7.62991 21.7791C7.6729 21.8867 7.6891 21.9603 7.69345 21.9813C7.70138 22.0196 7.69189 21.9892 7.69189 21.887H2.37222ZM3.32261 24.7654C4.13758 25.6313 5.18594 25.8432 5.84829 25.8969L6.27819 20.5946C6.26682 20.5937 6.36302 20.5991 6.52083 20.6586C6.68622 20.721 6.94674 20.8542 7.1964 21.1195L3.32261 24.7654ZM3.51148 23.9962C3.51521 24.0089 3.51159 23.9976 3.5059 23.9732C3.49961 23.9462 3.49294 23.9125 3.4876 23.8755C3.4768 23.8008 3.47921 23.766 3.47921 23.8129H8.79888C8.79888 23.2943 8.73675 22.9092 8.615 22.4952L3.51148 23.9962ZM6.30496 21.1582C5.75376 21.1238 5.15641 21.1075 4.51646 21.1075V26.4272C5.06946 26.4272 5.55381 26.4413 5.97313 26.4675L6.30496 21.1582ZM4.51646 21.1075C3.8804 21.1075 3.30603 21.1236 2.80602 21.1601L3.19398 26.4656C3.52296 26.4416 3.95959 26.4272 4.51646 26.4272V21.1075ZM5.65983 23.8129C5.65983 23.7772 5.66159 23.813 5.65144 23.8832C5.6412 23.9541 5.62769 23.997 5.6386 23.9577L0.513067 22.5337C0.406028 22.919 0.340165 23.2916 0.340165 23.8129H5.65983ZM3.35919 25.8904C3.88755 25.8338 4.62481 25.6741 5.30083 25.1783L2.15497 20.8885C2.34994 20.7455 2.52355 20.6747 2.62766 20.6408C2.68113 20.6234 2.7227 20.6136 2.74909 20.6082C2.77558 20.6029 2.79074 20.6012 2.79248 20.601L3.35919 25.8904ZM5.30083 25.1783C5.91624 24.727 6.2153 24.1415 6.33122 23.8975C6.47969 23.5851 6.57725 23.2794 6.64075 23.0492L1.51261 21.6346C1.49524 21.6976 1.49423 21.6821 1.52644 21.6143C1.54383 21.5777 1.58742 21.4908 1.66667 21.3792C1.74099 21.2746 1.89552 21.0788 2.15497 20.8885L5.30083 25.1783ZM6.62434 23.1062C6.79157 22.5488 6.88647 21.8805 6.95122 21.2223L1.65709 20.7016C1.63072 20.9697 1.60339 21.179 1.57738 21.3368C1.56451 21.4149 1.55297 21.4742 1.54358 21.5172C1.53399 21.561 1.52848 21.5794 1.52903 21.5776L6.62434 23.1062ZM6.95331 21.2001L7.43857 15.8015L2.14026 15.3253L1.655 20.7238L6.95331 21.2001ZM7.43306 15.8564C7.45859 15.626 7.46439 15.3948 7.46439 15.1994H2.14472C2.14472 15.2469 2.14391 15.2774 2.14323 15.2935C2.14249 15.3115 2.14234 15.3013 2.14577 15.2704L7.43306 15.8564ZM7.46439 15.1994C7.46439 14.5753 7.36091 13.4028 6.44275 12.4846L2.68113 16.2461C2.37213 15.9371 2.24198 15.6171 2.18993 15.4381C2.13998 15.2664 2.14472 15.1695 2.14472 15.1994H7.46439ZM6.44271 12.4846C5.55587 11.5978 4.44058 11.4629 3.77338 11.4629V16.7826C3.77047 16.7826 3.65 16.7837 3.46128 16.7256C3.26136 16.6641 2.96328 16.5283 2.68117 16.2462L6.44271 12.4846ZM6.31215 13.3294C6.34827 13.445 6.35724 13.5199 6.35856 13.5313C6.36025 13.5458 6.3574 13.5284 6.3574 13.4707H1.03773C1.03773 13.8696 1.07009 14.3896 1.2346 14.9161L6.31215 13.3294ZM3.43291 16.1173C3.85698 16.1597 4.33728 16.176 4.85006 16.176V10.8563C4.43274 10.8563 4.14473 10.8423 3.96223 10.824L3.43291 16.1173ZM4.85006 16.176C5.29602 16.176 5.74831 16.1579 6.20646 16.1227L5.79868 10.8187C5.46827 10.8441 5.15221 10.8563 4.85006 10.8563V16.176ZM3.5789 14.5664L7.37001 22.9523L12.2174 20.761L8.42624 12.375L3.5789 14.5664ZM12.2682 22.8321L15.5741 14.4462L10.6251 12.4952L7.31918 20.8812L12.2682 22.8321ZM12.8658 16.1202C13.3056 16.159 13.7805 16.176 14.2824 16.176V10.8563C13.8946 10.8563 13.5809 10.843 13.3333 10.8211L12.8658 16.1202ZM14.2824 16.176C14.7198 16.176 15.1707 16.1578 15.6337 16.1231L15.2361 10.8183C14.8904 10.8442 14.5729 10.8563 14.2824 10.8563V16.176ZM12.7751 13.4707C12.7751 13.5332 12.7681 13.517 12.7868 13.4458L17.9313 14.7997C18.0512 14.3443 18.0947 13.8934 18.0947 13.4707H12.7751ZM15.3591 11.4629C14.5931 11.4629 13.5795 11.6579 12.7442 12.4468L16.3968 16.3143C15.9255 16.7594 15.4376 16.7826 15.3591 16.7826V11.4629ZM12.6897 12.4998C11.7564 13.4331 11.6529 14.6332 11.6529 15.2753H16.9726C16.9726 15.2274 16.9791 15.3096 16.933 15.4695C16.8851 15.6357 16.7599 15.9528 16.4513 16.2613L12.6897 12.4998ZM11.6529 15.2753C11.6529 15.4733 11.6582 15.7127 11.6842 15.9474L16.9715 15.3614C16.9754 15.3962 16.9751 15.4074 16.9742 15.3851C16.9734 15.3654 16.9726 15.3299 16.9726 15.2753H11.6529ZM11.6807 15.914L12.2267 21.4794L17.5209 20.9601L16.975 15.3947L11.6807 15.914ZM12.2272 21.4844C12.2836 22.0486 12.3692 22.6318 12.5207 23.1431L17.6212 21.6318C17.6216 21.6332 17.6174 21.6191 17.6101 21.586C17.6029 21.5534 17.5938 21.508 17.5837 21.448C17.5632 21.3264 17.5413 21.1641 17.5204 20.9551L12.2272 21.4844ZM12.5287 23.1696C12.5893 23.3665 12.6833 23.6422 12.8214 23.9272C12.9285 24.1482 13.2062 24.6888 13.7612 25.1249L17.0479 20.942C17.2811 21.1252 17.4197 21.3064 17.4848 21.3997C17.555 21.5002 17.5939 21.577 17.6086 21.6074C17.6355 21.6628 17.6334 21.6712 17.6131 21.6052L12.5287 23.1696ZM13.7613 25.1249C14.433 25.6527 15.1768 25.8326 15.7599 25.8812L16.2017 20.5799C16.2996 20.5881 16.6592 20.6366 17.0478 20.9419L13.7613 25.1249ZM15.9808 25.8904H15.9808V20.5707H15.9808V25.8904Z" fill="#282828" mask="url(#path-2-inside-1)"/>
<path d="M30.9422 9.94293L23.2749 27.737L18.0557 23.3147" stroke="#282828" stroke-width="0.1" stroke-linecap="round" stroke-linejoin="round"/>
<path d="M22.9035 28.6043C23.5606 28.6043 24.0934 28.086 24.0934 27.4467C24.0934 26.8074 23.5606 26.2891 22.9035 26.2891C22.2463 26.2891 21.7136 26.8074 21.7136 27.4467C21.7136 28.086 22.2463 28.6043 22.9035 28.6043Z" fill="#282828"/>
<path d="M5.31485 11.9882C5.94135 11.9882 6.44922 11.4822 6.44922 10.8581C6.44922 10.234 5.94135 9.72803 5.31485 9.72803C4.68835 9.72803 4.18048 10.234 4.18048 10.8581C4.18048 11.4822 4.68835 11.9882 5.31485 11.9882Z" fill="#282828"/>
<path d="M31.3193 11.4063C32.2476 11.4063 33.0001 10.6438 33.0001 9.70317C33.0001 8.76254 32.2476 8 31.3193 8C30.3911 8 29.6386 8.76254 29.6386 9.70317C29.6386 10.6438 30.3911 11.4063 31.3193 11.4063Z" fill="#282828"/>
<path d="M12.4083 28.6331C13.2934 28.6331 14.0108 27.906 14.0108 27.0092C14.0108 26.1123 13.2934 25.3853 12.4083 25.3853C11.5233 25.3853 10.8058 26.1123 10.8058 27.0092C10.8058 27.906 11.5233 28.6331 12.4083 28.6331Z" fill="#282828"/>
</svg>
