<svg width="50" height="50" viewBox="0 0 50 50" fill="none" xmlns="http://www.w3.org/2000/svg">
<mask id="path-1-inside-1" fill="white">
<path d="M23.2661 49.9661C22.5004 49.9004 22.1129 49.8567 21.5317 49.7786C21.3067 49.7473 21.2348 49.7379 20.7348 49.6536C20.5223 49.6192 19.8411 49.4848 19.6254 49.4379C19.5661 49.4254 19.4473 49.3973 19.3598 49.3786C19.1004 49.3223 18.1692 49.0817 18.0317 49.0348C17.9879 49.0192 17.8911 48.9911 17.8129 48.9692C17.3973 48.8504 15.8786 48.3223 15.8317 48.2786C15.8129 48.2629 15.7817 48.2504 15.7598 48.2504C15.7379 48.2504 15.6567 48.2223 15.5786 48.1879C15.5004 48.1536 15.3754 48.0973 15.2973 48.0629C15.2192 48.0286 15.1504 48.0004 15.1411 48.0004C15.1348 48.0004 15.0317 47.9567 14.9161 47.9036C14.7973 47.8504 14.6254 47.7723 14.5317 47.7286C14.3098 47.6286 13.2661 47.1098 13.1254 47.0286C13.0661 46.9942 12.9379 46.9254 12.8442 46.8723C12.7504 46.8223 12.6098 46.7442 12.5317 46.7004C12.4536 46.6536 12.3473 46.5911 12.2942 46.5629C12.2004 46.5067 11.9848 46.3786 11.6254 46.1536C11.5317 46.0942 11.4504 46.0379 11.4442 46.0254C11.4379 46.0098 11.4192 46.0004 11.4004 46.0004C11.3723 46.0004 10.7223 45.5723 10.6879 45.5317C10.6786 45.5192 10.5817 45.4504 10.4692 45.3754C10.3567 45.3004 10.2598 45.2317 10.2504 45.2192C10.2411 45.2098 10.1848 45.1661 10.1254 45.1254C10.0661 45.0848 10.0098 45.0411 10.0004 45.0317C9.99106 45.0223 9.93481 44.9786 9.87544 44.9379C9.81606 44.8942 9.74419 44.8442 9.71919 44.8223C9.69419 44.8036 9.55356 44.6911 9.40669 44.5754C9.25981 44.4567 9.13481 44.3567 9.12544 44.3473C9.11606 44.3348 9.04419 44.2754 8.96294 44.2098C8.88169 44.1442 8.79731 44.0754 8.77544 44.0536C8.75356 44.0317 8.64419 43.9379 8.53169 43.8442C7.92856 43.3317 6.66919 42.0723 6.15669 41.4692C6.06294 41.3567 5.96919 41.2473 5.94731 41.2254C5.92544 41.2036 5.85669 41.1192 5.79106 41.0379C5.72544 40.9567 5.66606 40.8848 5.65356 40.8754C5.64419 40.8661 5.54419 40.7411 5.42544 40.5942C5.30981 40.4473 5.19731 40.3067 5.17856 40.2817C5.15669 40.2567 5.10669 40.1848 5.06294 40.1254C5.02231 40.0661 4.97856 40.0098 4.96919 40.0004C4.95981 39.9911 4.91606 39.9348 4.87544 39.8754C4.83481 39.8161 4.79106 39.7598 4.78169 39.7504C4.76919 39.7411 4.70044 39.6442 4.62544 39.5317C4.55044 39.4192 4.48169 39.3223 4.46919 39.3129C4.45356 39.3004 4.08481 38.7473 3.96919 38.5629C3.95044 38.5379 3.88169 38.4254 3.80981 38.3129C3.57231 37.9442 3.37544 37.6098 3.14419 37.1879C3.09419 37.0942 3.01919 36.9598 2.97856 36.8911C2.90356 36.7598 2.37856 35.7036 2.24106 35.4067C2.09419 35.0848 2.00044 34.8723 2.00044 34.8598C2.00044 34.8504 1.97231 34.7817 1.93794 34.7036C1.90356 34.6254 1.84731 34.5004 1.81294 34.4223C1.77856 34.3442 1.75044 34.2629 1.75044 34.2411C1.75044 34.2192 1.73794 34.1879 1.72231 34.1723C1.67856 34.1223 1.15044 32.6036 1.03169 32.1879C1.00981 32.1098 0.981689 32.0129 0.966064 31.9692C0.919189 31.8317 0.678564 30.9004 0.622314 30.6411C0.603564 30.5567 0.575439 30.4348 0.562939 30.3754C0.516064 30.1598 0.381689 29.4786 0.347314 29.2661C0.262939 28.7661 0.253564 28.6942 0.222314 28.4692C0.141064 27.8661 0.0973144 27.4723 0.0316894 26.6661C-0.00893554 26.1754 -0.00893554 23.8254 0.0316894 23.3348C0.0973144 22.5286 0.141064 22.1348 0.222314 21.5317C0.253564 21.3067 0.262939 21.2348 0.347314 20.7348C0.381689 20.5223 0.516064 19.8411 0.562939 19.6254C0.575439 19.5661 0.603564 19.4473 0.622314 19.3598C0.678564 19.1004 0.919189 18.1692 0.966064 18.0317C0.981689 17.9879 1.00981 17.8911 1.03169 17.8129C1.15044 17.3973 1.67856 15.8786 1.72231 15.8317C1.73794 15.8129 1.75044 15.7817 1.75044 15.7598C1.75044 15.7379 1.77856 15.6567 1.81294 15.5786C1.84731 15.5004 1.90356 15.3754 1.93794 15.2973C1.97231 15.2192 2.00044 15.1504 2.00044 15.1411C2.00044 15.1348 2.04419 15.0317 2.09731 14.9161C2.15044 14.7973 2.22856 14.6192 2.27544 14.5192C2.48794 14.0504 3.13794 12.7879 3.25669 12.6192C3.28794 12.5754 3.31294 12.5286 3.31294 12.5192C3.31294 12.5004 3.50356 12.1817 3.87544 11.5786C4.02544 11.3348 4.44106 10.7129 4.46919 10.6879C4.48169 10.6786 4.55044 10.5817 4.62544 10.4692C4.70044 10.3567 4.76919 10.2598 4.78169 10.2504C4.79106 10.2411 4.83481 10.1848 4.87544 10.1254C4.91606 10.0661 4.95981 10.0098 4.96919 10.0004C4.97856 9.99107 5.02231 9.93481 5.06294 9.87544C5.10669 9.81606 5.15669 9.74419 5.17856 9.71919C5.19731 9.69419 5.30981 9.55357 5.42544 9.40669C5.54419 9.25981 5.64419 9.13481 5.65356 9.12544C5.66606 9.11607 5.72544 9.04419 5.79106 8.96294C5.85669 8.88169 5.92544 8.79731 5.94731 8.77544C5.96919 8.75356 6.06294 8.64419 6.15669 8.53169C6.66606 7.93169 7.92856 6.66606 8.53169 6.15669C8.64106 6.06294 8.75044 5.96919 8.77544 5.94731C8.79731 5.92544 8.88169 5.85669 8.96294 5.79106C9.04419 5.72544 9.11606 5.66606 9.12544 5.65356C9.13481 5.64419 9.25981 5.54419 9.40669 5.42544C9.55356 5.30981 9.69419 5.19731 9.71919 5.17856C9.74419 5.15669 9.81606 5.10669 9.87544 5.06294C9.93481 5.02231 9.99106 4.97856 10.0004 4.96919C10.0098 4.95981 10.0661 4.91606 10.1254 4.87544C10.1848 4.83481 10.2411 4.79106 10.2504 4.78169C10.2598 4.76919 10.3567 4.70044 10.4692 4.62544C10.5817 4.55044 10.6786 4.48169 10.6879 4.46919C10.7129 4.44106 11.3348 4.02544 11.5629 3.88481C11.6754 3.81606 11.8817 3.69106 12.0192 3.60356C12.2629 3.45044 12.4379 3.35044 12.8129 3.14419C12.9067 3.09419 13.0411 3.01919 13.1098 2.98169C13.2567 2.89419 14.2723 2.39106 14.5629 2.25669C14.9379 2.08481 15.1286 2.00044 15.1411 2.00044C15.1504 2.00044 15.2254 1.96919 15.3067 1.93481C15.3879 1.89731 15.5129 1.84106 15.5848 1.80981C15.6598 1.77544 15.7379 1.75044 15.7598 1.75044C15.7817 1.75044 15.8129 1.73794 15.8317 1.72231C15.8786 1.67856 17.3973 1.15044 17.8129 1.03169C17.8911 1.00981 17.9879 0.981689 18.0317 0.966064C18.1692 0.919189 19.1004 0.678564 19.3598 0.622314C19.4473 0.603564 19.5661 0.575439 19.6254 0.562939C19.8411 0.516064 20.5223 0.381689 20.7348 0.347314C21.2348 0.262939 21.3067 0.253564 21.5317 0.222314C22.1348 0.141064 22.5286 0.0973145 23.3348 0.0316895C23.8254 -0.00893555 26.1754 -0.00893555 26.6661 0.0316895C27.6911 0.116064 28.2754 0.184814 28.9848 0.300439C29.1411 0.328564 29.3442 0.359814 29.4379 0.375439C29.5942 0.400439 30.1098 0.503564 30.3754 0.562939C30.4348 0.575439 30.5567 0.603564 30.6411 0.622314C30.9004 0.678564 31.8317 0.919189 31.9692 0.966064C32.0129 0.981689 32.1098 1.00981 32.1879 1.03169C32.6036 1.15044 34.1223 1.67856 34.1692 1.72231C34.1879 1.73794 34.2192 1.75044 34.2411 1.75044C34.2629 1.75044 34.3442 1.77856 34.4223 1.81294C34.5004 1.84731 34.6254 1.90356 34.7036 1.93794C34.7817 1.97231 34.8504 2.00044 34.8598 2.00044C34.8723 2.00044 35.0286 2.06919 35.4067 2.24106C35.666 2.35981 36.7473 2.89731 36.8911 2.97856C36.9598 3.01919 37.0942 3.09419 37.1879 3.14419C37.5629 3.35044 37.7379 3.45044 37.9817 3.60356C38.1192 3.69106 38.3254 3.81606 38.4379 3.88481C38.666 4.02544 39.2879 4.44106 39.3129 4.46919C39.3223 4.48169 39.4192 4.55044 39.5317 4.62544C39.6442 4.70044 39.7411 4.76919 39.7504 4.78169C39.7598 4.79106 39.8161 4.83481 39.8754 4.87544C39.9348 4.91606 39.9911 4.95981 40.0004 4.96919C40.0098 4.97856 40.0661 5.02231 40.1254 5.06294C40.1848 5.10669 40.2567 5.15669 40.2817 5.17856C40.3067 5.19731 40.4473 5.30981 40.5942 5.42544C40.7411 5.54419 40.8661 5.64419 40.8754 5.65356C40.8848 5.66606 40.9567 5.72544 41.0379 5.79106C41.1192 5.85669 41.2035 5.92544 41.2254 5.94731C41.2473 5.96919 41.3567 6.06294 41.4692 6.15669C42.0692 6.66606 43.3348 7.92856 43.8442 8.53169C43.9379 8.64106 44.0317 8.75044 44.0535 8.77544C44.0754 8.79731 44.1442 8.88169 44.2098 8.96294C44.2754 9.04419 44.3348 9.11607 44.3473 9.12544C44.3567 9.13481 44.4567 9.25981 44.5754 9.40669C44.691 9.55357 44.8035 9.69419 44.8223 9.71919C44.8442 9.74419 44.8942 9.81606 44.9379 9.87544C44.9785 9.93481 45.0223 9.99107 45.0317 10.0004C45.041 10.0098 45.0848 10.0661 45.1254 10.1254C45.166 10.1848 45.2098 10.2411 45.2192 10.2504C45.2317 10.2598 45.3004 10.3567 45.3754 10.4692C45.4504 10.5817 45.5192 10.6786 45.5317 10.6879C45.5598 10.7129 45.9754 11.3348 46.116 11.5629C46.1848 11.6754 46.3098 11.8817 46.3973 12.0192C46.5504 12.2629 46.6504 12.4379 46.8567 12.8129C46.9067 12.9067 46.9817 13.0411 47.0223 13.1098C47.0973 13.2411 47.6223 14.2973 47.7598 14.5942C47.9067 14.9161 48.0004 15.1286 48.0004 15.1411C48.0004 15.1504 48.0317 15.2254 48.066 15.3067C48.1035 15.3879 48.1598 15.5129 48.191 15.5848C48.2254 15.6598 48.2504 15.7379 48.2504 15.7598C48.2504 15.7817 48.2629 15.8129 48.2785 15.8286C48.3223 15.8786 48.8504 17.3973 48.9692 17.8129C48.991 17.8911 49.0192 17.9879 49.0348 18.0317C49.0817 18.1692 49.3223 19.1004 49.3785 19.3598C49.3973 19.4473 49.4254 19.5661 49.4379 19.6254C49.4848 19.8411 49.6192 20.5223 49.6535 20.7348C49.7379 21.2348 49.7473 21.3067 49.7785 21.5317C49.8598 22.1348 49.9035 22.5286 49.9692 23.3348C50.0098 23.8254 50.0098 26.1754 49.9692 26.6661C49.9035 27.4723 49.8598 27.8661 49.7785 28.4692C49.7473 28.6942 49.7379 28.7661 49.6535 29.2661C49.6192 29.4786 49.4848 30.1598 49.4379 30.3754C49.4254 30.4348 49.3973 30.5567 49.3785 30.6411C49.3223 30.9004 49.0817 31.8317 49.0348 31.9692C49.0192 32.0129 48.991 32.1098 48.9692 32.1879C48.8504 32.6036 48.3223 34.1223 48.2785 34.1723C48.2629 34.1879 48.2504 34.2192 48.2504 34.2411C48.2504 34.2629 48.2223 34.3442 48.1879 34.4223C48.1535 34.5004 48.0973 34.6254 48.0629 34.7036C48.0285 34.7817 48.0004 34.8504 48.0004 34.8598C48.0004 34.8723 47.9067 35.0848 47.7598 35.4067C47.6223 35.7036 47.0973 36.7598 47.0223 36.8911C46.9817 36.9598 46.9067 37.0942 46.8567 37.1879C46.6535 37.5567 46.5504 37.7348 46.4067 37.9661C46.3254 38.0973 46.2129 38.2817 46.1535 38.3754C46.0942 38.4692 46.0379 38.5536 46.0254 38.5567C46.0098 38.5629 46.0004 38.5817 46.0004 38.6004C46.0004 38.6286 45.5723 39.2786 45.5317 39.3129C45.5192 39.3223 45.4504 39.4192 45.3754 39.5317C45.3004 39.6442 45.2317 39.7411 45.2192 39.7504C45.2098 39.7598 45.166 39.8161 45.1254 39.8754C45.0848 39.9348 45.041 39.9911 45.0317 40.0004C45.0223 40.0098 44.9785 40.0661 44.9379 40.1254C44.8942 40.1848 44.8442 40.2567 44.8223 40.2817C44.8035 40.3067 44.691 40.4473 44.5754 40.5942C44.4567 40.7411 44.3567 40.8661 44.3473 40.8754C44.3348 40.8848 44.2754 40.9567 44.2098 41.0379C44.1442 41.1192 44.0754 41.2036 44.0535 41.2254C44.0317 41.2473 43.9379 41.3567 43.8442 41.4692C43.3317 42.0723 42.0723 43.3317 41.4692 43.8442C41.3567 43.9379 41.2473 44.0317 41.2254 44.0536C41.2035 44.0754 41.1192 44.1442 41.0379 44.2098C40.9567 44.2754 40.8848 44.3348 40.8754 44.3473C40.8661 44.3567 40.7411 44.4567 40.5942 44.5754C40.4473 44.6911 40.3067 44.8036 40.2817 44.8223C40.2567 44.8442 40.1848 44.8942 40.1254 44.9379C40.0661 44.9786 40.0098 45.0223 40.0004 45.0317C39.9911 45.0411 39.9348 45.0848 39.8754 45.1254C39.8161 45.1661 39.7598 45.2098 39.7504 45.2192C39.7411 45.2317 39.6442 45.3004 39.5317 45.3754C39.4192 45.4504 39.3223 45.5192 39.3129 45.5317C39.3004 45.5473 38.7473 45.9161 38.5629 46.0317C38.5379 46.0504 38.4254 46.1192 38.3129 46.1911C37.9442 46.4286 37.6098 46.6254 37.1879 46.8567C37.0942 46.9067 36.9598 46.9817 36.8911 47.0223C36.7598 47.0973 35.7036 47.6223 35.4067 47.7598C35.0848 47.9067 34.8723 48.0004 34.8598 48.0004C34.8504 48.0004 34.7817 48.0286 34.7036 48.0629C34.6254 48.0973 34.5004 48.1536 34.4223 48.1879C34.3442 48.2223 34.2629 48.2504 34.2411 48.2504C34.2192 48.2504 34.1879 48.2629 34.1723 48.2786C34.1223 48.3223 32.6036 48.8504 32.1879 48.9692C32.1098 48.9911 32.0129 49.0192 31.9692 49.0348C31.8317 49.0817 30.9004 49.3223 30.6411 49.3786C30.5567 49.3973 30.4348 49.4254 30.3754 49.4379C30.1598 49.4848 29.4786 49.6192 29.2661 49.6536C28.7661 49.7379 28.6942 49.7473 28.4692 49.7786C27.8661 49.8598 27.5129 49.8973 26.6567 49.9692C26.2004 50.0067 23.7223 50.0036 23.2661 49.9661Z"/>
</mask>
<path d="M23.2661 49.9661C22.5004 49.9004 22.1129 49.8567 21.5317 49.7786C21.3067 49.7473 21.2348 49.7379 20.7348 49.6536C20.5223 49.6192 19.8411 49.4848 19.6254 49.4379C19.5661 49.4254 19.4473 49.3973 19.3598 49.3786C19.1004 49.3223 18.1692 49.0817 18.0317 49.0348C17.9879 49.0192 17.8911 48.9911 17.8129 48.9692C17.3973 48.8504 15.8786 48.3223 15.8317 48.2786C15.8129 48.2629 15.7817 48.2504 15.7598 48.2504C15.7379 48.2504 15.6567 48.2223 15.5786 48.1879C15.5004 48.1536 15.3754 48.0973 15.2973 48.0629C15.2192 48.0286 15.1504 48.0004 15.1411 48.0004C15.1348 48.0004 15.0317 47.9567 14.9161 47.9036C14.7973 47.8504 14.6254 47.7723 14.5317 47.7286C14.3098 47.6286 13.2661 47.1098 13.1254 47.0286C13.0661 46.9942 12.9379 46.9254 12.8442 46.8723C12.7504 46.8223 12.6098 46.7442 12.5317 46.7004C12.4536 46.6536 12.3473 46.5911 12.2942 46.5629C12.2004 46.5067 11.9848 46.3786 11.6254 46.1536C11.5317 46.0942 11.4504 46.0379 11.4442 46.0254C11.4379 46.0098 11.4192 46.0004 11.4004 46.0004C11.3723 46.0004 10.7223 45.5723 10.6879 45.5317C10.6786 45.5192 10.5817 45.4504 10.4692 45.3754C10.3567 45.3004 10.2598 45.2317 10.2504 45.2192C10.2411 45.2098 10.1848 45.1661 10.1254 45.1254C10.0661 45.0848 10.0098 45.0411 10.0004 45.0317C9.99106 45.0223 9.93481 44.9786 9.87544 44.9379C9.81606 44.8942 9.74419 44.8442 9.71919 44.8223C9.69419 44.8036 9.55356 44.6911 9.40669 44.5754C9.25981 44.4567 9.13481 44.3567 9.12544 44.3473C9.11606 44.3348 9.04419 44.2754 8.96294 44.2098C8.88169 44.1442 8.79731 44.0754 8.77544 44.0536C8.75356 44.0317 8.64419 43.9379 8.53169 43.8442C7.92856 43.3317 6.66919 42.0723 6.15669 41.4692C6.06294 41.3567 5.96919 41.2473 5.94731 41.2254C5.92544 41.2036 5.85669 41.1192 5.79106 41.0379C5.72544 40.9567 5.66606 40.8848 5.65356 40.8754C5.64419 40.8661 5.54419 40.7411 5.42544 40.5942C5.30981 40.4473 5.19731 40.3067 5.17856 40.2817C5.15669 40.2567 5.10669 40.1848 5.06294 40.1254C5.02231 40.0661 4.97856 40.0098 4.96919 40.0004C4.95981 39.9911 4.91606 39.9348 4.87544 39.8754C4.83481 39.8161 4.79106 39.7598 4.78169 39.7504C4.76919 39.7411 4.70044 39.6442 4.62544 39.5317C4.55044 39.4192 4.48169 39.3223 4.46919 39.3129C4.45356 39.3004 4.08481 38.7473 3.96919 38.5629C3.95044 38.5379 3.88169 38.4254 3.80981 38.3129C3.57231 37.9442 3.37544 37.6098 3.14419 37.1879C3.09419 37.0942 3.01919 36.9598 2.97856 36.8911C2.90356 36.7598 2.37856 35.7036 2.24106 35.4067C2.09419 35.0848 2.00044 34.8723 2.00044 34.8598C2.00044 34.8504 1.97231 34.7817 1.93794 34.7036C1.90356 34.6254 1.84731 34.5004 1.81294 34.4223C1.77856 34.3442 1.75044 34.2629 1.75044 34.2411C1.75044 34.2192 1.73794 34.1879 1.72231 34.1723C1.67856 34.1223 1.15044 32.6036 1.03169 32.1879C1.00981 32.1098 0.981689 32.0129 0.966064 31.9692C0.919189 31.8317 0.678564 30.9004 0.622314 30.6411C0.603564 30.5567 0.575439 30.4348 0.562939 30.3754C0.516064 30.1598 0.381689 29.4786 0.347314 29.2661C0.262939 28.7661 0.253564 28.6942 0.222314 28.4692C0.141064 27.8661 0.0973144 27.4723 0.0316894 26.6661C-0.00893554 26.1754 -0.00893554 23.8254 0.0316894 23.3348C0.0973144 22.5286 0.141064 22.1348 0.222314 21.5317C0.253564 21.3067 0.262939 21.2348 0.347314 20.7348C0.381689 20.5223 0.516064 19.8411 0.562939 19.6254C0.575439 19.5661 0.603564 19.4473 0.622314 19.3598C0.678564 19.1004 0.919189 18.1692 0.966064 18.0317C0.981689 17.9879 1.00981 17.8911 1.03169 17.8129C1.15044 17.3973 1.67856 15.8786 1.72231 15.8317C1.73794 15.8129 1.75044 15.7817 1.75044 15.7598C1.75044 15.7379 1.77856 15.6567 1.81294 15.5786C1.84731 15.5004 1.90356 15.3754 1.93794 15.2973C1.97231 15.2192 2.00044 15.1504 2.00044 15.1411C2.00044 15.1348 2.04419 15.0317 2.09731 14.9161C2.15044 14.7973 2.22856 14.6192 2.27544 14.5192C2.48794 14.0504 3.13794 12.7879 3.25669 12.6192C3.28794 12.5754 3.31294 12.5286 3.31294 12.5192C3.31294 12.5004 3.50356 12.1817 3.87544 11.5786C4.02544 11.3348 4.44106 10.7129 4.46919 10.6879C4.48169 10.6786 4.55044 10.5817 4.62544 10.4692C4.70044 10.3567 4.76919 10.2598 4.78169 10.2504C4.79106 10.2411 4.83481 10.1848 4.87544 10.1254C4.91606 10.0661 4.95981 10.0098 4.96919 10.0004C4.97856 9.99107 5.02231 9.93481 5.06294 9.87544C5.10669 9.81606 5.15669 9.74419 5.17856 9.71919C5.19731 9.69419 5.30981 9.55357 5.42544 9.40669C5.54419 9.25981 5.64419 9.13481 5.65356 9.12544C5.66606 9.11607 5.72544 9.04419 5.79106 8.96294C5.85669 8.88169 5.92544 8.79731 5.94731 8.77544C5.96919 8.75356 6.06294 8.64419 6.15669 8.53169C6.66606 7.93169 7.92856 6.66606 8.53169 6.15669C8.64106 6.06294 8.75044 5.96919 8.77544 5.94731C8.79731 5.92544 8.88169 5.85669 8.96294 5.79106C9.04419 5.72544 9.11606 5.66606 9.12544 5.65356C9.13481 5.64419 9.25981 5.54419 9.40669 5.42544C9.55356 5.30981 9.69419 5.19731 9.71919 5.17856C9.74419 5.15669 9.81606 5.10669 9.87544 5.06294C9.93481 5.02231 9.99106 4.97856 10.0004 4.96919C10.0098 4.95981 10.0661 4.91606 10.1254 4.87544C10.1848 4.83481 10.2411 4.79106 10.2504 4.78169C10.2598 4.76919 10.3567 4.70044 10.4692 4.62544C10.5817 4.55044 10.6786 4.48169 10.6879 4.46919C10.7129 4.44106 11.3348 4.02544 11.5629 3.88481C11.6754 3.81606 11.8817 3.69106 12.0192 3.60356C12.2629 3.45044 12.4379 3.35044 12.8129 3.14419C12.9067 3.09419 13.0411 3.01919 13.1098 2.98169C13.2567 2.89419 14.2723 2.39106 14.5629 2.25669C14.9379 2.08481 15.1286 2.00044 15.1411 2.00044C15.1504 2.00044 15.2254 1.96919 15.3067 1.93481C15.3879 1.89731 15.5129 1.84106 15.5848 1.80981C15.6598 1.77544 15.7379 1.75044 15.7598 1.75044C15.7817 1.75044 15.8129 1.73794 15.8317 1.72231C15.8786 1.67856 17.3973 1.15044 17.8129 1.03169C17.8911 1.00981 17.9879 0.981689 18.0317 0.966064C18.1692 0.919189 19.1004 0.678564 19.3598 0.622314C19.4473 0.603564 19.5661 0.575439 19.6254 0.562939C19.8411 0.516064 20.5223 0.381689 20.7348 0.347314C21.2348 0.262939 21.3067 0.253564 21.5317 0.222314C22.1348 0.141064 22.5286 0.0973145 23.3348 0.0316895C23.8254 -0.00893555 26.1754 -0.00893555 26.6661 0.0316895C27.6911 0.116064 28.2754 0.184814 28.9848 0.300439C29.1411 0.328564 29.3442 0.359814 29.4379 0.375439C29.5942 0.400439 30.1098 0.503564 30.3754 0.562939C30.4348 0.575439 30.5567 0.603564 30.6411 0.622314C30.9004 0.678564 31.8317 0.919189 31.9692 0.966064C32.0129 0.981689 32.1098 1.00981 32.1879 1.03169C32.6036 1.15044 34.1223 1.67856 34.1692 1.72231C34.1879 1.73794 34.2192 1.75044 34.2411 1.75044C34.2629 1.75044 34.3442 1.77856 34.4223 1.81294C34.5004 1.84731 34.6254 1.90356 34.7036 1.93794C34.7817 1.97231 34.8504 2.00044 34.8598 2.00044C34.8723 2.00044 35.0286 2.06919 35.4067 2.24106C35.666 2.35981 36.7473 2.89731 36.8911 2.97856C36.9598 3.01919 37.0942 3.09419 37.1879 3.14419C37.5629 3.35044 37.7379 3.45044 37.9817 3.60356C38.1192 3.69106 38.3254 3.81606 38.4379 3.88481C38.666 4.02544 39.2879 4.44106 39.3129 4.46919C39.3223 4.48169 39.4192 4.55044 39.5317 4.62544C39.6442 4.70044 39.7411 4.76919 39.7504 4.78169C39.7598 4.79106 39.8161 4.83481 39.8754 4.87544C39.9348 4.91606 39.9911 4.95981 40.0004 4.96919C40.0098 4.97856 40.0661 5.02231 40.1254 5.06294C40.1848 5.10669 40.2567 5.15669 40.2817 5.17856C40.3067 5.19731 40.4473 5.30981 40.5942 5.42544C40.7411 5.54419 40.8661 5.64419 40.8754 5.65356C40.8848 5.66606 40.9567 5.72544 41.0379 5.79106C41.1192 5.85669 41.2035 5.92544 41.2254 5.94731C41.2473 5.96919 41.3567 6.06294 41.4692 6.15669C42.0692 6.66606 43.3348 7.92856 43.8442 8.53169C43.9379 8.64106 44.0317 8.75044 44.0535 8.77544C44.0754 8.79731 44.1442 8.88169 44.2098 8.96294C44.2754 9.04419 44.3348 9.11607 44.3473 9.12544C44.3567 9.13481 44.4567 9.25981 44.5754 9.40669C44.691 9.55357 44.8035 9.69419 44.8223 9.71919C44.8442 9.74419 44.8942 9.81606 44.9379 9.87544C44.9785 9.93481 45.0223 9.99107 45.0317 10.0004C45.041 10.0098 45.0848 10.0661 45.1254 10.1254C45.166 10.1848 45.2098 10.2411 45.2192 10.2504C45.2317 10.2598 45.3004 10.3567 45.3754 10.4692C45.4504 10.5817 45.5192 10.6786 45.5317 10.6879C45.5598 10.7129 45.9754 11.3348 46.116 11.5629C46.1848 11.6754 46.3098 11.8817 46.3973 12.0192C46.5504 12.2629 46.6504 12.4379 46.8567 12.8129C46.9067 12.9067 46.9817 13.0411 47.0223 13.1098C47.0973 13.2411 47.6223 14.2973 47.7598 14.5942C47.9067 14.9161 48.0004 15.1286 48.0004 15.1411C48.0004 15.1504 48.0317 15.2254 48.066 15.3067C48.1035 15.3879 48.1598 15.5129 48.191 15.5848C48.2254 15.6598 48.2504 15.7379 48.2504 15.7598C48.2504 15.7817 48.2629 15.8129 48.2785 15.8286C48.3223 15.8786 48.8504 17.3973 48.9692 17.8129C48.991 17.8911 49.0192 17.9879 49.0348 18.0317C49.0817 18.1692 49.3223 19.1004 49.3785 19.3598C49.3973 19.4473 49.4254 19.5661 49.4379 19.6254C49.4848 19.8411 49.6192 20.5223 49.6535 20.7348C49.7379 21.2348 49.7473 21.3067 49.7785 21.5317C49.8598 22.1348 49.9035 22.5286 49.9692 23.3348C50.0098 23.8254 50.0098 26.1754 49.9692 26.6661C49.9035 27.4723 49.8598 27.8661 49.7785 28.4692C49.7473 28.6942 49.7379 28.7661 49.6535 29.2661C49.6192 29.4786 49.4848 30.1598 49.4379 30.3754C49.4254 30.4348 49.3973 30.5567 49.3785 30.6411C49.3223 30.9004 49.0817 31.8317 49.0348 31.9692C49.0192 32.0129 48.991 32.1098 48.9692 32.1879C48.8504 32.6036 48.3223 34.1223 48.2785 34.1723C48.2629 34.1879 48.2504 34.2192 48.2504 34.2411C48.2504 34.2629 48.2223 34.3442 48.1879 34.4223C48.1535 34.5004 48.0973 34.6254 48.0629 34.7036C48.0285 34.7817 48.0004 34.8504 48.0004 34.8598C48.0004 34.8723 47.9067 35.0848 47.7598 35.4067C47.6223 35.7036 47.0973 36.7598 47.0223 36.8911C46.9817 36.9598 46.9067 37.0942 46.8567 37.1879C46.6535 37.5567 46.5504 37.7348 46.4067 37.9661C46.3254 38.0973 46.2129 38.2817 46.1535 38.3754C46.0942 38.4692 46.0379 38.5536 46.0254 38.5567C46.0098 38.5629 46.0004 38.5817 46.0004 38.6004C46.0004 38.6286 45.5723 39.2786 45.5317 39.3129C45.5192 39.3223 45.4504 39.4192 45.3754 39.5317C45.3004 39.6442 45.2317 39.7411 45.2192 39.7504C45.2098 39.7598 45.166 39.8161 45.1254 39.8754C45.0848 39.9348 45.041 39.9911 45.0317 40.0004C45.0223 40.0098 44.9785 40.0661 44.9379 40.1254C44.8942 40.1848 44.8442 40.2567 44.8223 40.2817C44.8035 40.3067 44.691 40.4473 44.5754 40.5942C44.4567 40.7411 44.3567 40.8661 44.3473 40.8754C44.3348 40.8848 44.2754 40.9567 44.2098 41.0379C44.1442 41.1192 44.0754 41.2036 44.0535 41.2254C44.0317 41.2473 43.9379 41.3567 43.8442 41.4692C43.3317 42.0723 42.0723 43.3317 41.4692 43.8442C41.3567 43.9379 41.2473 44.0317 41.2254 44.0536C41.2035 44.0754 41.1192 44.1442 41.0379 44.2098C40.9567 44.2754 40.8848 44.3348 40.8754 44.3473C40.8661 44.3567 40.7411 44.4567 40.5942 44.5754C40.4473 44.6911 40.3067 44.8036 40.2817 44.8223C40.2567 44.8442 40.1848 44.8942 40.1254 44.9379C40.0661 44.9786 40.0098 45.0223 40.0004 45.0317C39.9911 45.0411 39.9348 45.0848 39.8754 45.1254C39.8161 45.1661 39.7598 45.2098 39.7504 45.2192C39.7411 45.2317 39.6442 45.3004 39.5317 45.3754C39.4192 45.4504 39.3223 45.5192 39.3129 45.5317C39.3004 45.5473 38.7473 45.9161 38.5629 46.0317C38.5379 46.0504 38.4254 46.1192 38.3129 46.1911C37.9442 46.4286 37.6098 46.6254 37.1879 46.8567C37.0942 46.9067 36.9598 46.9817 36.8911 47.0223C36.7598 47.0973 35.7036 47.6223 35.4067 47.7598C35.0848 47.9067 34.8723 48.0004 34.8598 48.0004C34.8504 48.0004 34.7817 48.0286 34.7036 48.0629C34.6254 48.0973 34.5004 48.1536 34.4223 48.1879C34.3442 48.2223 34.2629 48.2504 34.2411 48.2504C34.2192 48.2504 34.1879 48.2629 34.1723 48.2786C34.1223 48.3223 32.6036 48.8504 32.1879 48.9692C32.1098 48.9911 32.0129 49.0192 31.9692 49.0348C31.8317 49.0817 30.9004 49.3223 30.6411 49.3786C30.5567 49.3973 30.4348 49.4254 30.3754 49.4379C30.1598 49.4848 29.4786 49.6192 29.2661 49.6536C28.7661 49.7379 28.6942 49.7473 28.4692 49.7786C27.8661 49.8598 27.5129 49.8973 26.6567 49.9692C26.2004 50.0067 23.7223 50.0036 23.2661 49.9661Z" stroke="white" stroke-width="2" mask="url(#path-1-inside-1)"/>
<mask id="path-2-inside-2" fill="white">
<path d="M17.9688 37.9969C15.3313 37.8281 12.9375 37.1812 10.6344 36.0156C9.89066 35.6375 8.99691 35.1125 9.07504 35.1C9.10316 35.0937 9.29379 35.1031 9.50004 35.1219C10.0344 35.1719 11.1563 35.1625 11.7532 35.1062C14.1938 34.875 16.4563 34.0125 18.4219 32.5656L18.7 32.3594L18.5782 32.3531C16.8125 32.2437 15.3032 31.5656 14.1063 30.3375C13.4782 29.7 12.9344 28.8281 12.6438 28.0031L12.5625 27.775L12.6313 27.7937C12.6719 27.8031 12.9344 27.8375 13.2188 27.8656C13.6625 27.9094 13.8032 27.9125 14.2282 27.8812C14.6344 27.85 15.4469 27.7187 15.4875 27.6781C15.4938 27.6719 15.3282 27.6219 15.1188 27.5625C13.9657 27.2469 12.9688 26.6594 12.1375 25.8062C11.1438 24.7875 10.5219 23.5312 10.3313 22.1562C10.2782 21.7781 10.2375 21.1562 10.2657 21.1562C10.275 21.1562 10.4282 21.225 10.6032 21.3094C11.1032 21.5469 11.6188 21.7219 12.1407 21.8281C12.3844 21.8781 13.1907 21.975 13.2094 21.9562C13.2157 21.9531 13.0907 21.8531 12.9344 21.7344C12.1688 21.1656 11.4844 20.3531 11.0438 19.4937C10.7 18.8219 10.525 18.2687 10.3688 17.375C10.3157 17.0687 10.3188 15.9062 10.3719 15.5937C10.4782 14.9719 10.6032 14.4937 10.7813 14.0469C10.8719 13.8156 11.1782 13.1875 11.2 13.1875C11.2032 13.1875 11.3563 13.3594 11.5375 13.5719C12.3094 14.4687 13.275 15.3906 14.2032 16.1125C16.7907 18.125 19.775 19.4031 22.9876 19.8719C23.7594 19.9844 24.7501 20.0687 24.7501 20.0187C24.7501 20.0125 24.7344 19.9312 24.7157 19.8406C24.4376 18.4031 24.6344 16.9219 25.2813 15.625C26.4907 13.1937 29.0938 11.7406 31.7688 12.0031C33.2719 12.15 34.6032 12.7531 35.7063 13.7906C35.8469 13.925 35.9844 14.0312 36.0157 14.0312C36.1063 14.0312 36.7157 13.8812 37.1657 13.75C38.0813 13.4812 39.1344 13.0344 39.9313 12.5781C40.0376 12.5156 40.1251 12.4812 40.1251 12.5C40.1251 12.5719 39.8626 13.1906 39.7001 13.4969C39.3532 14.1531 38.9938 14.6312 38.4344 15.1719C38.0782 15.5187 37.7532 15.7781 37.4438 15.9687C37.3532 16.025 37.2813 16.075 37.2876 16.0781C37.3001 16.0906 37.7938 16.0187 38.1563 15.9531C38.9719 15.8 40.1407 15.4469 40.8376 15.1375C40.9251 15.1 41.0001 15.075 41.0001 15.0844C41.0001 15.1156 40.6344 15.6187 40.3438 15.9844C39.7032 16.7875 38.8438 17.6312 38.0751 18.2125L37.7594 18.4531L37.7407 19.5625C37.7157 21.1469 37.6001 22.0875 37.2438 23.5937C36.4126 27.1219 34.5313 30.4562 31.9626 32.9562C29.9938 34.8656 27.6063 36.3031 25.0313 37.1219C22.8094 37.825 20.2532 38.1437 17.9688 37.9969Z"/>
</mask>
<path d="M17.9688 37.9969C15.3313 37.8281 12.9375 37.1812 10.6344 36.0156C9.89066 35.6375 8.99691 35.1125 9.07504 35.1C9.10316 35.0937 9.29379 35.1031 9.50004 35.1219C10.0344 35.1719 11.1563 35.1625 11.7532 35.1062C14.1938 34.875 16.4563 34.0125 18.4219 32.5656L18.7 32.3594L18.5782 32.3531C16.8125 32.2437 15.3032 31.5656 14.1063 30.3375C13.4782 29.7 12.9344 28.8281 12.6438 28.0031L12.5625 27.775L12.6313 27.7937C12.6719 27.8031 12.9344 27.8375 13.2188 27.8656C13.6625 27.9094 13.8032 27.9125 14.2282 27.8812C14.6344 27.85 15.4469 27.7187 15.4875 27.6781C15.4938 27.6719 15.3282 27.6219 15.1188 27.5625C13.9657 27.2469 12.9688 26.6594 12.1375 25.8062C11.1438 24.7875 10.5219 23.5312 10.3313 22.1562C10.2782 21.7781 10.2375 21.1562 10.2657 21.1562C10.275 21.1562 10.4282 21.225 10.6032 21.3094C11.1032 21.5469 11.6188 21.7219 12.1407 21.8281C12.3844 21.8781 13.1907 21.975 13.2094 21.9562C13.2157 21.9531 13.0907 21.8531 12.9344 21.7344C12.1688 21.1656 11.4844 20.3531 11.0438 19.4937C10.7 18.8219 10.525 18.2687 10.3688 17.375C10.3157 17.0687 10.3188 15.9062 10.3719 15.5937C10.4782 14.9719 10.6032 14.4937 10.7813 14.0469C10.8719 13.8156 11.1782 13.1875 11.2 13.1875C11.2032 13.1875 11.3563 13.3594 11.5375 13.5719C12.3094 14.4687 13.275 15.3906 14.2032 16.1125C16.7907 18.125 19.775 19.4031 22.9876 19.8719C23.7594 19.9844 24.7501 20.0687 24.7501 20.0187C24.7501 20.0125 24.7344 19.9312 24.7157 19.8406C24.4376 18.4031 24.6344 16.9219 25.2813 15.625C26.4907 13.1937 29.0938 11.7406 31.7688 12.0031C33.2719 12.15 34.6032 12.7531 35.7063 13.7906C35.8469 13.925 35.9844 14.0312 36.0157 14.0312C36.1063 14.0312 36.7157 13.8812 37.1657 13.75C38.0813 13.4812 39.1344 13.0344 39.9313 12.5781C40.0376 12.5156 40.1251 12.4812 40.1251 12.5C40.1251 12.5719 39.8626 13.1906 39.7001 13.4969C39.3532 14.1531 38.9938 14.6312 38.4344 15.1719C38.0782 15.5187 37.7532 15.7781 37.4438 15.9687C37.3532 16.025 37.2813 16.075 37.2876 16.0781C37.3001 16.0906 37.7938 16.0187 38.1563 15.9531C38.9719 15.8 40.1407 15.4469 40.8376 15.1375C40.9251 15.1 41.0001 15.075 41.0001 15.0844C41.0001 15.1156 40.6344 15.6187 40.3438 15.9844C39.7032 16.7875 38.8438 17.6312 38.0751 18.2125L37.7594 18.4531L37.7407 19.5625C37.7157 21.1469 37.6001 22.0875 37.2438 23.5937C36.4126 27.1219 34.5313 30.4562 31.9626 32.9562C29.9938 34.8656 27.6063 36.3031 25.0313 37.1219C22.8094 37.825 20.2532 38.1437 17.9688 37.9969Z" stroke="white" stroke-width="2" mask="url(#path-2-inside-2)"/>
</svg>
