<svg width="49" height="50" viewBox="0 0 49 50" fill="none" xmlns="http://www.w3.org/2000/svg">
<g clip-path="url(#clip0)">
<mask id="path-1-inside-1" fill="white">
<path d="M22.925 48.8C21.58 48.69 20.17 48.46 18.925 48.155C10.42 46.05 3.68997 39.35 1.54997 30.85C1.04497 28.85 0.844971 27.17 0.844971 25C0.844971 23.635 0.879971 23.03 1.02997 21.875C2.12997 13.36 7.86998 5.995 15.875 2.825C18.89 1.635 21.93 1.09 25.175 1.165C28.34 1.24 31.18 1.845 34.015 3.055C41.615 6.3 47.075 13.39 48.245 21.525C48.435 22.835 48.475 23.455 48.475 25C48.475 26.545 48.435 27.165 48.245 28.475C47.425 34.18 44.415 39.565 39.975 43.27C36.255 46.38 32.005 48.18 27.115 48.73C26.3 48.82 23.73 48.865 22.925 48.8Z"/>
</mask>
<path d="M22.925 48.8C21.58 48.69 20.17 48.46 18.925 48.155C10.42 46.05 3.68997 39.35 1.54997 30.85C1.04497 28.85 0.844971 27.17 0.844971 25C0.844971 23.635 0.879971 23.03 1.02997 21.875C2.12997 13.36 7.86998 5.995 15.875 2.825C18.89 1.635 21.93 1.09 25.175 1.165C28.34 1.24 31.18 1.845 34.015 3.055C41.615 6.3 47.075 13.39 48.245 21.525C48.435 22.835 48.475 23.455 48.475 25C48.475 26.545 48.435 27.165 48.245 28.475C47.425 34.18 44.415 39.565 39.975 43.27C36.255 46.38 32.005 48.18 27.115 48.73C26.3 48.82 23.73 48.865 22.925 48.8Z" stroke="white" stroke-width="2" mask="url(#path-1-inside-1)"/>
<mask id="path-2-inside-2" fill="white">
<path d="M15.175 34.9C13.15 34.635 11.535 33.15 11.07 31.125C10.98 30.75 10.975 30.405 10.975 25.275V19.825L11.085 19.385C11.42 18.08 12.225 16.995 13.35 16.33C13.765 16.085 14.325 15.87 14.8 15.765C15.205 15.68 15.71 15.675 24.675 15.675C33.7 15.675 34.145 15.68 34.525 15.77C35.67 16.035 36.615 16.615 37.31 17.49C37.655 17.925 38.06 18.725 38.215 19.275L38.325 19.675L38.34 25.075C38.35 29.03 38.34 30.575 38.295 30.85C38.02 32.635 36.79 34.095 35.075 34.685C34.285 34.955 34.525 34.95 24.625 34.945C19.59 34.94 15.34 34.92 15.175 34.9ZM25.79 26.95C27.56 26.01 28.99 25.22 28.965 25.2C28.875 25.115 21.965 21.55 21.89 21.55C21.765 21.55 21.75 21.985 21.75 25.665V29.11L22.165 28.885C22.39 28.765 24.02 27.895 25.79 26.95Z"/>
</mask>
<path d="M15.175 34.9C13.15 34.635 11.535 33.15 11.07 31.125C10.98 30.75 10.975 30.405 10.975 25.275V19.825L11.085 19.385C11.42 18.08 12.225 16.995 13.35 16.33C13.765 16.085 14.325 15.87 14.8 15.765C15.205 15.68 15.71 15.675 24.675 15.675C33.7 15.675 34.145 15.68 34.525 15.77C35.67 16.035 36.615 16.615 37.31 17.49C37.655 17.925 38.06 18.725 38.215 19.275L38.325 19.675L38.34 25.075C38.35 29.03 38.34 30.575 38.295 30.85C38.02 32.635 36.79 34.095 35.075 34.685C34.285 34.955 34.525 34.95 24.625 34.945C19.59 34.94 15.34 34.92 15.175 34.9ZM25.79 26.95C27.56 26.01 28.99 25.22 28.965 25.2C28.875 25.115 21.965 21.55 21.89 21.55C21.765 21.55 21.75 21.985 21.75 25.665V29.11L22.165 28.885C22.39 28.765 24.02 27.895 25.79 26.95Z" stroke="white" stroke-width="2" mask="url(#path-2-inside-2)"/>
</g>
<defs>
<clipPath id="clip0">
<rect width="48.95" height="50" fill="white"/>
</clipPath>
</defs>
</svg>
