<svg width="1692" height="672" viewBox="0 0 1692 672" fill="none" xmlns="http://www.w3.org/2000/svg">
<g filter="url(#filter0_d)">
<path d="M760 345.77C760 504.855 630.624 634.231 471.538 634.231C312.453 634.231 183.077 505.334 183.077 345.77C183.077 186.685 312.453 57.3081 471.538 57.3081C631.103 57.3081 760 186.685 760 345.77Z" fill="#FFB41C" fill-opacity="0.8"/>
</g>
<path d="M435.814 306.42H427.678V308.22L431.17 308.724L425.986 323.052L420.478 308.544L423.43 308.22V306.42H412.774V308.22L414.934 308.472L423.538 330.36H425.338L433.15 308.652L435.814 308.22V306.42ZM454.186 323.736L453.43 328.056H445.726C445.654 325.068 445.654 322.008 445.654 318.768H450.298L450.73 321.936H452.674V313.584H450.73L450.262 316.788H445.654C445.654 313.944 445.654 311.136 445.726 308.4H452.71L453.466 312.684H456.166L455.914 306.42H437.41V308.22L440.326 308.544C440.398 311.532 440.398 314.556 440.398 317.58V318.84C440.398 321.9 440.398 324.924 440.326 327.876L437.41 328.2V330H456.634L456.886 323.736H454.186ZM484.484 306.42H474.908V308.22L479.048 308.688V322.368L466.412 306.42H459.32V308.256L461.768 308.508L462.308 309.156V327.732L458.96 328.2V330H468.536V328.2L464.432 327.732V311.82L479.336 330.36H481.136V308.688L484.484 308.22V306.42ZM504.705 308.4L505.425 313.044H508.125L507.945 306.42H486.561L486.381 313.044H489.081L489.801 308.4H494.553C494.625 311.46 494.625 314.52 494.625 317.58V318.84C494.625 321.864 494.625 324.888 494.553 327.84L491.277 328.2V330H503.229V328.2L499.953 327.84C499.881 324.852 499.881 321.828 499.881 318.84V317.58C499.881 314.484 499.881 311.424 499.953 308.4H504.705ZM527.007 323.736L526.251 328.056H518.547C518.475 325.068 518.475 322.008 518.475 318.768H523.119L523.551 321.936H525.495V313.584H523.551L523.083 316.788H518.475C518.475 313.944 518.475 311.136 518.547 308.4H525.531L526.287 312.684H528.987L528.735 306.42H510.231V308.22L513.147 308.544C513.219 311.532 513.219 314.556 513.219 317.58V318.84C513.219 321.9 513.219 324.924 513.147 327.876L510.231 328.2V330H529.455L529.707 323.736H527.007ZM442.535 363.352H453.407V359.032H440.699L439.943 369.796L440.951 370.408C442.067 370.192 443.435 370.012 444.551 370.012C447.611 370.012 449.087 371.92 449.087 374.944C449.087 378.4 447.467 380.74 444.767 380.74C444.119 380.74 443.507 380.632 442.715 380.38L442.355 378.112C441.995 375.88 441.095 375.232 440.015 375.232C438.935 375.232 438.107 375.88 437.783 377.176C437.783 380.164 440.915 382.54 445.235 382.54C450.347 382.54 454.199 379.768 454.199 374.872C454.199 369.904 450.455 367.492 445.739 367.492C444.551 367.492 443.363 367.6 442.211 367.852L442.535 363.352ZM462.057 370.516C462.057 361.696 463.389 360.292 465.261 360.292C467.133 360.292 468.465 361.732 468.465 370.516C468.465 379.3 467.133 380.74 465.261 380.74C463.389 380.74 462.057 379.336 462.057 370.516ZM465.261 358.492C461.085 358.492 457.089 361.984 457.089 370.516C457.089 379.048 461.085 382.54 465.261 382.54C469.437 382.54 473.433 379.048 473.433 370.516C473.433 361.984 469.437 358.492 465.261 358.492ZM480.714 365.62C480.714 360.724 481.578 359.752 482.622 359.752C483.666 359.752 484.494 360.76 484.494 365.62C484.494 370.48 483.666 371.524 482.622 371.524C481.578 371.524 480.714 370.516 480.714 365.62ZM482.622 358.456C479.886 358.456 477.186 360.652 477.186 365.62C477.186 370.624 479.886 372.82 482.622 372.82C485.358 372.82 487.986 370.624 487.986 365.62C487.986 360.652 485.358 358.456 482.622 358.456ZM497.274 374.944C497.274 370.048 498.138 369.076 499.182 369.076C500.226 369.076 501.054 370.084 501.054 374.944C501.054 379.804 500.226 380.848 499.182 380.848C498.138 380.848 497.274 379.84 497.274 374.944ZM499.182 367.78C496.446 367.78 493.746 369.976 493.746 374.944C493.746 379.948 496.446 382.144 499.182 382.144C501.918 382.144 504.546 379.948 504.546 374.944C504.546 369.976 501.918 367.78 499.182 367.78ZM483.63 382.9L500.154 359.32L498.39 358.132L481.866 381.712L483.63 382.9Z" fill="white"/>
<g filter="url(#filter1_d)">
<path d="M356.154 183.077C356.154 278.528 278.528 356.154 183.077 356.154C87.6259 356.154 10 278.816 10 183.077C10 87.6264 87.6259 10.0005 183.077 10.0005C278.815 10.0005 356.154 87.6264 356.154 183.077Z" fill="#FFB41C"/>
</g>
<path d="M146.129 152.348C143.681 151.484 142.277 150.476 142.277 148.46C142.277 146.156 144.149 144.86 146.525 144.86C147.461 144.86 148.397 145.076 149.333 145.436L150.053 149.684H153.005L153.257 144.752C151.529 143.564 149.117 142.88 146.489 142.88C141.053 142.88 137.777 145.796 137.777 149.792C137.777 153.356 140.297 155.876 144.545 157.424L146.309 158.072C148.901 159.008 150.017 159.908 150.017 161.744C150.017 164.048 148.253 165.56 145.229 165.56C143.825 165.56 142.745 165.236 141.629 164.696L140.909 160.376H137.921L137.705 165.668C139.649 166.856 142.565 167.54 145.265 167.54C150.989 167.54 154.769 164.336 154.769 160.16C154.769 157.388 153.149 154.796 148.001 152.996L146.129 152.348ZM167.382 163.58C166.518 164.3 165.726 164.444 165.258 164.444C164.142 164.444 163.386 163.688 163.386 161.924V152.024H167.49V149.72H163.386V144.68H159.93L158.922 149.684L156.078 150.044V152.024H158.49V159.152C158.49 160.556 158.454 161.456 158.454 162.932C158.454 165.956 160.29 167.36 163.206 167.36C165.762 167.36 167.526 166.208 168.426 164.804L167.382 163.58ZM178.844 150.872C181.364 150.872 182.624 153.356 182.624 158.324C182.624 163.364 181.364 165.74 178.844 165.74C176.36 165.74 175.064 163.364 175.064 158.324C175.064 153.356 176.36 150.872 178.844 150.872ZM178.844 149.072C174.02 149.072 169.736 152.636 169.736 158.36C169.736 164.084 173.66 167.54 178.844 167.54C184.064 167.54 187.952 164.084 187.952 158.36C187.952 152.636 183.632 149.072 178.844 149.072ZM205.668 162.032C204.552 163.868 203.256 164.732 201.348 164.732C198.324 164.732 196.128 162.5 196.128 157.82C196.128 153.284 198.396 150.872 201.06 150.872C201.42 150.872 201.816 150.908 202.176 151.016L202.284 152.924C202.392 155.048 203.472 155.876 204.804 155.876C205.92 155.876 206.676 155.3 206.928 154.148C206.892 151.268 204.048 149.072 200.16 149.072C195.12 149.072 190.908 152.564 190.908 158.36C190.908 164.192 194.328 167.54 199.584 167.54C203.184 167.54 206.028 165.812 206.892 162.716L205.668 162.032ZM226.338 164.804L220.83 155.3L224.538 151.736L227.814 151.304V149.72H219.534V151.304L222.198 151.7L215.718 158.036V146.48L215.862 141.368L215.358 141.08L208.266 142.7V144.14L210.966 144.5V159.44C210.966 160.988 210.966 163.184 210.93 164.984L208.734 165.416V167H217.95V165.416L215.754 164.984C215.754 163.472 215.718 161.672 215.718 160.232L217.446 158.576L222.198 167H228.966V165.416L226.338 164.804ZM153.589 214.68L156.109 212.304C161.221 207.444 164.173 205.32 164.173 201.324C164.173 198.552 162.301 195.492 157.009 195.492C152.725 195.492 149.233 197.436 149.125 201.396C149.557 202.26 150.349 202.8 151.321 202.8C152.401 202.8 153.337 202.152 153.805 199.812L154.309 197.364C154.597 197.292 154.849 197.292 155.101 197.292C157.765 197.292 159.133 199.092 159.133 201.936C159.133 204.996 157.549 207.588 154.309 210.936L149.377 216.012V219H164.893V214.68H153.589ZM173.903 197.364C174.299 197.328 174.659 197.292 174.983 197.292C177.323 197.292 178.727 198.876 178.727 201.576C178.727 204.492 177.467 205.968 174.371 205.968H172.967V207.948H174.695C177.935 207.948 179.303 209.856 179.303 212.628C179.303 216.012 177.575 217.74 174.335 217.74C173.867 217.74 173.435 217.704 173.003 217.596L172.643 215.148C172.283 212.88 171.383 212.34 170.195 212.34C169.403 212.34 168.539 212.592 168.107 213.816C168.107 217.416 171.239 219.54 175.631 219.54C181.535 219.54 184.487 216.696 184.487 212.916C184.487 209.424 182.471 207.516 178.583 206.832C181.715 205.968 183.623 204.132 183.623 201.252C183.623 197.94 180.959 195.492 176.027 195.492C172.391 195.492 169.223 197.22 169.007 201.036C169.547 201.864 170.303 202.332 171.203 202.332C172.175 202.332 173.039 201.756 173.399 199.884L173.903 197.364ZM191.732 202.62C191.732 197.724 192.596 196.752 193.64 196.752C194.684 196.752 195.512 197.76 195.512 202.62C195.512 207.48 194.684 208.524 193.64 208.524C192.596 208.524 191.732 207.516 191.732 202.62ZM193.64 195.456C190.904 195.456 188.204 197.652 188.204 202.62C188.204 207.624 190.904 209.82 193.64 209.82C196.376 209.82 199.004 207.624 199.004 202.62C199.004 197.652 196.376 195.456 193.64 195.456ZM208.292 
211.944C208.292 207.048 209.156 206.076 210.2 206.076C211.244 206.076 212.072 207.084 212.072 211.944C212.072 216.804 211.244 217.848 210.2 217.848C209.156 217.848 208.292 216.84 208.292 211.944ZM210.2 204.78C207.464 204.78 204.764 206.976 204.764 211.944C204.764 216.948 207.464 219.144 210.2 219.144C212.936 219.144 215.564 216.948 215.564 211.944C215.564 206.976 212.936 204.78 210.2 204.78ZM194.648 219.9L211.172 196.32L209.408 195.132L192.884 218.712L194.648 219.9Z" fill="white"/>
<g filter="url(#filter2_d)">
<path d="M323.846 479.616C323.846 530.523 282.446 571.923 231.538 571.923C180.631 571.923 139.231 530.676 139.231 479.616C139.231 428.709 180.631 387.308 231.538 387.308C282.599 387.308 323.846 428.709 323.846 479.616Z" fill="#FFB41C"/>
</g>
<path d="M190.629 445C193.749 445 195.189 446.56 195.189 449.29C195.189 451.93 193.749 453.73 190.569 453.73H189.639V452.65C189.639 450.07 189.639 447.52 189.699 445H190.629ZM190.089 455.38C197.439 455.38 199.329 452.32 199.329 449.2C199.329 445.66 196.839 443.35 190.869 443.35H182.769V444.85L185.199 445.12C185.259 447.61 185.259 450.13 185.259 452.65V453.7C185.259 456.25 185.259 458.77 185.199 461.23L182.769 461.5V463H192.429V461.5L189.699 461.2C189.639 459.25 189.639 457.24 189.639 455.38H190.089ZM206.651 448.36L206.201 448.06L200.771 450.01V451.15L202.781 451.42C202.841 452.62 202.871 453.31 202.871 454.96V456.7C202.871 457.99 202.871 459.85 202.841 461.32L201.011 461.68V463H209.261V461.68L206.981 461.23C206.951 459.76 206.951 457.96 206.951 456.7V453.49C207.401 452.38 208.031 451.51 208.751 450.85L208.811 450.91C209.591 451.75 210.311 452.14 211.121 452.14C212.381 452.14 213.221 451.24 213.221 449.92C212.921 448.48 211.841 448.06 211.001 448.06C209.621 448.06 208.061 449.29 206.951 451.3L206.651 448.36ZM218.812 445.57C220.192 445.57 221.302 444.55 221.302 443.17C221.302 441.79 220.192 440.8 218.812 440.8C217.462 440.8 216.322 441.79 216.322 443.17C216.322 444.55 217.462 445.57 218.812 445.57ZM220.942 461.32C220.912 459.85 220.912 457.99 220.912 456.7V452.65L221.002 448.36L220.552 448.06L214.732 450.01V451.15L216.742 451.42C216.802 452.62 216.832 453.55 216.832 455.2V456.7C216.832 457.99 216.832 459.82 216.802 461.32L214.972 461.68V463H222.652V461.68L220.942 461.32ZM248.48 461.32C248.45 459.85 248.45 458.02 248.45 456.7V453.34C248.45 449.74 247.07 448.06 244.22 448.06C242 448.06 240.74 448.87 239.18 450.82C238.61 448.96 237.26 448.06 235.07 448.06C233.09 448.06 231.83 448.87 230.33 450.73L230.12 448.36L229.67 448.06L224.24 450.01V451.15L226.31 451.42C226.37 452.62 226.4 453.31 226.4 454.96V456.7C226.4 457.96 226.4 459.82 226.37 461.29L224.54 461.68V463H232.1V461.68L230.45 461.35C230.42 459.85 230.42 457.99 230.42 456.7V452.23C231.41 451.3 232.64 450.52 233.66 450.52C234.89 450.52 235.52 451.57 235.52 453.82V456.7C235.52 458.02 235.52 459.85 235.49 461.29L233.66 461.68V463H241.22V461.68L239.51 461.32C239.48 459.85 239.48 458.02 239.48 456.7V453.34C239.48 452.95 239.45 452.56 239.42 452.2C240.38 451.33 241.61 450.52 242.66 450.52C243.86 450.52 244.49 451.57 244.49 453.82V456.7C244.49 458.02 244.49 459.85 244.46 461.29L242.63 461.68V463H250.19V461.68L248.48 461.32ZM256.53 454.45C256.83 450.76 258.54 449.56 259.86 449.56C261.12 449.56 262.02 450.7 262.02 452.59C262.02 453.85 261.57 454.45 260.13 454.45H256.53ZM265.71 455.95C265.83 455.47 265.89 454.93 265.89 454.39C265.89 450.67 263.49 448.06 259.65 448.06C255.39 448.06 252.15 451.27 252.15 455.8C252.15 460.66 255.06 463.45 259.41 463.45C262.44 463.45 264.78 462.07 265.59 459.43L264.57 458.86C263.67 460.3 262.59 461.11 260.85 461.11C258.42 461.11 256.62 459.49 256.5 455.95H265.71ZM275.09 453.76C272.66 452.92 272.12 452.38 272.12 451.48C272.12 450.31 273.08 449.62 274.52 449.62C275.3 449.62 275.84 449.8 276.35 450.01L276.8 452.5H279.08L279.26 449.2C277.79 448.48 276.47 448.06 274.7 448.06C270.59 448.06 268.58 449.86 268.58 452.47C268.58 454.57 269.84 456.01 272.21 456.94L273.59 457.48C275.9 458.38 276.5 458.83 276.5 459.94C276.5 461.26 275.63 461.89 273.71 461.89C272.87 461.89 272.12 461.68 271.22 461.17L270.83 458.56H268.52V462.01C270.17 462.97 271.64 463.45 273.71 463.45C277.61 463.45 280.1 461.53 280.1 458.68C280.1 456.79 279.26 455.23 276.11 454.12L275.09 453.76ZM212.2 512.9C212.17 511.49 212.17 510.11 212.17 508.73V500.09L212.29 495.83L211.87 495.56L205.45 497.09V498.59L208.09 498.29V508.73C208.09 510.11 208.09 511.52 208.06 512.9L204.22 513.68V515H215.95V513.68L212.2 512.9ZM226.559 513.95C224.669 513.95 223.379 511.55 223.349 506.15C224.309 505.43 225.209 505.04 226.169 505.04C228.029 505.04 229.139 506.3 229.139 509.39C229.139 512.42 228.059 513.95 226.559 513.95ZM231.239 495.2C223.289 495.68 219.149 501.68 219.149 507.05C219.149 512.27 221.879 515.45 226.289 515.45C230.219 515.45 233.189 513.23 233.189 508.94C233.189 505.31 231.209 503.09 227.399 503.09C225.929 
503.09 224.609 503.51 223.469 504.41C224.009 501.23 226.259 497.54 231.419 496.55L231.239 495.2ZM239.089 501.35C239.089 497.27 239.809 496.46 240.679 496.46C241.549 496.46 242.239 497.3 242.239 501.35C242.239 505.4 241.549 506.27 240.679 506.27C239.809 506.27 239.089 505.43 239.089 501.35ZM240.679 495.38C238.399 495.38 236.149 497.21 236.149 501.35C236.149 505.52 238.399 507.35 240.679 507.35C242.959 507.35 245.149 505.52 245.149 501.35C245.149 497.21 242.959 495.38 240.679 495.38ZM252.889 509.12C252.889 505.04 253.609 504.23 254.479 504.23C255.349 504.23 256.039 505.07 256.039 509.12C256.039 513.17 255.349 514.04 254.479 514.04C253.609 514.04 252.889 513.2 252.889 509.12ZM254.479 503.15C252.199 503.15 249.949 504.98 249.949 509.12C249.949 513.29 252.199 515.12 254.479 515.12C256.759 515.12 258.949 513.29 258.949 509.12C258.949 504.98 256.759 503.15 254.479 503.15ZM241.519 515.75L255.289 496.1L253.819 495.11L240.049 514.76L241.519 515.75Z" fill="white"/>
<g filter="url(#filter3_d)">
<g filter="url(#filter4_d)">
<path d="M404.615 595C404.615 617.272 386.503 635.385 364.231 635.385C341.959 635.385 323.846 617.339 323.846 595C323.846 572.728 341.959 554.616 364.231 554.616C386.57 554.616 404.615 572.728 404.615 595Z" fill="#FFB41C"/>
</g>
<path d="M343.672 583.832L343.276 586.064H339.064C339.028 584.552 339.028 583.004 339.028 581.33H341.53L341.746 582.968H342.646V578.756H341.746L341.512 580.412H339.028C339.028 578.936 339.028 577.478 339.064 576.038H342.916L343.312 578.252H344.5L344.374 575.084H335.266V575.912L336.814 576.074C336.85 577.604 336.85 579.134 336.85 580.664V581.42C336.85 582.968 336.85 584.498 336.814 586.01L335.266 586.172V587H344.734L344.86 583.832H343.672ZM352.519 585.254C351.925 585.758 351.313 586.046 350.683 586.046C349.423 586.046 348.487 584.966 348.487 582.698C348.487 580.376 349.549 579.314 350.737 579.314C351.313 579.314 351.871 579.584 352.519 580.088V585.254ZM354.553 590.168C354.535 589.214 354.517 588.278 354.517 587.342V580.718L354.571 578.288L354.211 578.108L352.573 579.206C351.889 578.45 351.133 578.108 350.161 578.108C348.019 578.108 346.363 579.926 346.363 582.752C346.363 585.578 347.875 587.27 349.981 587.27C351.043 587.27 351.853 586.856 352.573 586.046V587.342C352.573 588.278 352.555 589.196 352.537 590.132L351.061 590.402V591.122H355.813V590.402L354.553 590.168ZM365.229 586.046V580.988L365.283 578.432L365.085 578.288L362.169 578.576V579.242L363.285 579.458L363.231 584.768C362.529 585.434 361.737 585.884 361.017 585.884C360.207 585.884 359.757 585.344 359.757 583.76V580.988L359.847 578.432L359.649 578.288L356.697 578.558V579.242L357.813 579.458L357.759 584.03C357.723 586.406 358.695 587.27 360.171 587.27C361.305 587.27 362.349 586.73 363.285 585.65L363.447 587.18L366.363 587V586.28L365.229 586.046ZM369.993 576.38C370.749 576.38 371.343 575.84 371.343 575.084C371.343 574.328 370.749 573.788 369.993 573.788C369.237 573.788 368.625 574.328 368.625 575.084C368.625 575.84 369.237 576.38 369.993 576.38ZM371.037 586.046C371.019 585.164 371.019 584.012 371.019 583.22V580.79L371.073 578.288L370.803 578.108L367.653 579.224V579.89L368.967 580.052C369.003 580.772 369.021 581.33 369.021 582.32V583.22C369.021 584.012 369.021 585.146 369.003 586.046L367.779 586.28V587H372.171V586.28L371.037 586.046ZM376.684 580.088C377.368 579.584 378.016 579.314 378.592 579.314C379.816 579.314 380.626 580.466 380.626 582.734C380.626 584.984 379.654 586.064 378.43 586.064C377.836 586.064 377.26 585.794 376.684 585.326V580.088ZM376.468 578.288L376.216 578.108L373.336 579.224V579.89L374.65 580.052C374.686 580.772 374.704 581.258 374.704 582.248V587.252C374.704 588.134 374.686 589.232 374.668 590.15L373.408 590.402V591.122H378.142V590.402L376.666 590.132C376.648 589.214 376.63 588.116 376.63 587.252V586.244C377.296 586.946 378.07 587.27 378.988 587.27C381.112 587.27 382.75 585.47 382.75 582.626C382.75 579.71 381.238 578.108 379.258 578.108C378.214 578.108 377.35 578.54 376.576 579.368L376.468 578.288ZM386.718 581.87C386.898 579.71 387.996 578.954 388.914 578.954C389.832 578.954 390.516 579.764 390.516 580.844C390.516 581.492 390.282 581.87 389.418 581.87H386.718ZM392.316 582.698C392.388 582.446 392.442 582.104 392.442 581.744C392.442 579.53 390.984 578.108 388.878 578.108C386.466 578.108 384.558 580.016 384.558 582.752C384.558 585.578 386.214 587.27 388.734 587.27C390.48 587.27 391.776 586.442 392.334 585.002L391.812 584.678C391.218 585.488 390.534 585.992 389.436 585.992C387.834 585.992 386.736 584.876 386.682 582.698H392.316ZM352.306 601.462V603.298H358.318L353.548 612.82L353.728 613H355.582L359.794 602.56V601.462H352.306ZM363.476 604.828C363.476 602.326 363.998 601.84 364.574 601.84C365.132 601.84 365.618 602.344 365.618 604.828C365.618 607.33 365.132 607.834 364.574 607.834C363.998 607.834 363.476 607.33 363.476 604.828ZM364.574 601.192C363.242 601.192 361.946 602.29 361.946 604.828C361.946 607.384 363.242 608.464 364.574 608.464C365.888 608.464 367.166 607.384 367.166 604.828C367.166 602.29 365.888 601.192 364.574 601.192ZM371.612 609.454C371.612 606.952 372.134 606.466 372.71 606.466C373.268 606.466 373.754 606.97 373.754 609.454C373.754 611.956 373.268 612.46 372.71 612.46C372.134 612.46 371.612 611.956 371.612 609.454ZM372.71 605.818C371.378 605.818 370.082 606.916 370.082 609.454C370.082 612.01 371.378 613.09 372.71 613.09C374.024 613.09 375.
302 612.01 375.302 609.454C375.302 606.916 374.024 605.818 372.71 605.818ZM364.916 613.45L373.232 601.534L372.512 601.012L364.196 612.928L364.916 613.45Z" fill="white"/>
</g>
<g filter="url(#filter5_d)">
<g filter="url(#filter6_d)">
<path d="M480.71 634.077C480.71 646.804 470.36 657.154 457.634 657.154C444.907 657.154 434.557 646.843 434.557 634.077C434.557 621.351 444.907 611 457.634 611C470.399 611 480.71 621.351 480.71 634.077Z" fill="#FFB41C"/>
</g>
<path d="M429.337 627.466L429.057 629.16C428.567 629.37 428.049 629.468 427.573 629.468C425.781 629.468 424.465 628.04 424.465 625.366C424.465 622.692 425.851 621.264 427.615 621.264C428.063 621.264 428.483 621.362 428.917 621.558L429.197 623.28H430.191L430.135 621.194C429.239 620.676 428.357 620.522 427.531 620.522C424.703 620.522 422.617 622.37 422.617 625.366C422.617 628.404 424.605 630.21 427.461 630.21C428.483 630.21 429.449 629.986 430.275 629.552L430.331 627.466H429.337ZM435.018 623.742C436.11 623.742 436.698 624.75 436.698 626.654C436.698 628.586 436.11 629.538 435.018 629.538C433.926 629.538 433.338 628.586 433.338 626.654C433.338 624.75 433.926 623.742 435.018 623.742ZM435.018 623.084C433.268 623.084 431.63 624.4 431.63 626.668C431.63 628.936 433.184 630.21 435.018 630.21C436.852 630.21 438.406 628.936 438.406 626.668C438.406 624.4 436.754 623.084 435.018 623.084ZM446.533 629.258C446.519 628.572 446.519 627.69 446.519 627.06V625.604C446.519 623.84 445.861 623.084 444.587 623.084C443.663 623.084 442.935 623.518 442.193 624.344L442.081 623.224L441.871 623.084L439.617 623.952V624.47L440.639 624.596C440.667 625.156 440.681 625.534 440.681 626.304V627.06C440.681 627.676 440.681 628.558 440.667 629.258L439.715 629.44V630H443.145V629.44L442.249 629.258C442.235 628.558 442.235 627.676 442.235 627.06V625.016C442.851 624.442 443.383 624.148 443.985 624.148C444.713 624.148 444.965 624.596 444.965 625.772V627.06C444.965 627.69 444.965 628.572 444.951 629.258L444.013 629.44V630H447.429V629.44L446.533 629.258ZM451.476 625.828C450.426 625.45 450.132 625.198 450.132 624.708C450.132 624.12 450.58 623.756 451.336 623.756C451.686 623.756 451.98 623.84 452.246 623.966L452.47 625.114H453.366L453.436 623.63C452.792 623.28 452.19 623.084 451.392 623.084C449.684 623.084 448.746 623.966 448.746 625.114C448.746 626.066 449.362 626.682 450.44 627.102L451.084 627.34C452.064 627.718 452.414 627.984 452.414 628.53C452.414 629.16 451.966 629.524 450.986 629.524C450.566 629.524 450.216 629.44 449.824 629.244L449.614 628.026H448.676L448.704 629.594C449.432 630 450.09 630.21 450.972 630.21C452.778 630.21 453.814 629.286 453.814 628.082C453.814 627.214 453.366 626.5 451.938 625.982L451.476 625.828ZM456.839 626.01C456.979 624.33 457.833 623.742 458.547 623.742C459.261 623.742 459.793 624.372 459.793 625.212C459.793 625.716 459.611 626.01 458.939 626.01H456.839ZM461.193 626.654C461.249 626.458 461.291 626.192 461.291 625.912C461.291 624.19 460.157 623.084 458.519 623.084C456.643 623.084 455.159 624.568 455.159 626.696C455.159 628.894 456.447 630.21 458.407 630.21C459.765 630.21 460.773 629.566 461.207 628.446L460.801 628.194C460.339 628.824 459.807 629.216 458.953 629.216C457.707 629.216 456.853 628.348 456.811 626.654H461.193ZM464.335 621.74C464.923 621.74 465.385 621.32 465.385 620.732C465.385 620.144 464.923 619.724 464.335 619.724C463.747 619.724 463.271 620.144 463.271 620.732C463.271 621.32 463.747 621.74 464.335 621.74ZM465.147 629.258C465.133 628.572 465.133 627.676 465.133 627.06V625.17L465.175 623.224L464.965 623.084L462.515 623.952V624.47L463.537 624.596C463.565 625.156 463.579 625.59 463.579 626.36V627.06C463.579 627.676 463.579 628.558 463.565 629.258L462.613 629.44V630H466.029V629.44L465.147 629.258ZM469.579 629.258C469.565 628.53 469.551 627.788 469.551 627.06V621.95L469.607 619.962L469.411 619.85L466.905 620.48V621.012L468.011 621.152V627.06C468.011 627.788 467.997 628.516 467.983 629.258L467.003 629.44V630H470.517V629.44L469.579 629.258ZM474.067 629.258C474.053 628.53 474.039 627.788 474.039 627.06V621.95L474.095 619.962L473.899 619.85L471.393 620.48V621.012L472.499 621.152V627.06C472.499 627.788 472.485 628.516 472.471 629.258L471.491 629.44V630H475.005V629.44L474.067 629.258ZM477.827 626.01C477.967 624.33 478.821 623.742 479.535 623.742C480.249 623.742 480.781 624.372 480.781 625.212C480.781 625.716 480.599 626.01 479.927 626.01H477.827ZM482.181 626.654C482.237 626.458 482.279 626.192 482.279 625.912C482.279 624.19 481.145 623.084 479.507 623.084C477.631 623.084 476.147 624.568 476.147 626.696C476.147 628.894 477.435 630.21 479.
395 630.21C480.753 630.21 481.761 629.566 482.195 628.446L481.789 628.194C481.327 628.824 480.795 629.216 479.941 629.216C478.695 629.216 477.841 628.348 477.799 626.654H482.181ZM485.995 623.224L485.785 623.084L483.531 623.952V624.47L484.553 624.596C484.581 625.156 484.595 625.534 484.595 626.304V627.06C484.595 627.676 484.595 628.572 484.581 629.258L483.643 629.44V630H487.283V629.44L486.163 629.23C486.149 628.53 486.149 627.662 486.149 627.06V625.716C486.387 625.072 486.737 624.582 487.171 624.218L487.241 624.288C487.549 624.61 487.843 624.75 488.179 624.75C488.711 624.75 489.089 624.4 489.089 623.854C488.977 623.28 488.487 623.084 488.095 623.084C487.395 623.084 486.653 623.7 486.135 624.708L485.995 623.224ZM492.806 625.828C491.756 625.45 491.462 625.198 491.462 624.708C491.462 624.12 491.91 623.756 492.666 623.756C493.016 623.756 493.31 623.84 493.576 623.966L493.8 625.114H494.696L494.766 623.63C494.122 623.28 493.52 623.084 492.722 623.084C491.014 623.084 490.076 623.966 490.076 625.114C490.076 626.066 490.692 626.682 491.77 627.102L492.414 627.34C493.394 627.718 493.744 627.984 493.744 628.53C493.744 629.16 493.296 629.524 492.316 629.524C491.896 629.524 491.546 629.44 491.154 629.244L490.944 628.026H490.006L490.034 629.594C490.762 630 491.42 630.21 492.302 630.21C494.108 630.21 495.144 629.286 495.144 628.082C495.144 627.214 494.696 626.5 493.268 625.982L492.806 625.828ZM450.359 642.43L453.187 638.482V642.43H450.359ZM456.029 642.43H454.629V636.886H453.565L449.337 642.64V643.564H453.187V646H454.629V643.564H456.029V642.43ZM458.598 639.644C458.598 637.698 459.004 637.32 459.452 637.32C459.886 637.32 460.264 637.712 460.264 639.644C460.264 641.59 459.886 641.982 459.452 641.982C459.004 641.982 458.598 641.59 458.598 639.644ZM459.452 636.816C458.416 636.816 457.408 637.67 457.408 639.644C457.408 641.632 458.416 642.472 459.452 642.472C460.474 642.472 461.468 641.632 461.468 639.644C461.468 637.67 460.474 636.816 459.452 636.816ZM464.926 643.242C464.926 641.296 465.332 640.918 465.78 640.918C466.214 640.918 466.592 641.31 466.592 643.242C466.592 645.188 466.214 645.58 465.78 645.58C465.332 645.58 464.926 645.188 464.926 643.242ZM465.78 640.414C464.744 640.414 463.736 641.268 463.736 643.242C463.736 645.23 464.744 646.07 465.78 646.07C466.802 646.07 467.796 645.23 467.796 643.242C467.796 641.268 466.802 640.414 465.78 640.414ZM459.718 646.35L466.186 637.082L465.626 636.676L459.158 645.944L459.718 646.35Z" fill="white"/>
</g>
<g filter="url(#filter7_d)">
<path d="M1287.16 252.578C1287.16 356.578 1202.58 441.156 1098.58 441.156C994.578 441.156 910 356.891 910 252.578C910 148.579 994.578 64.0005 1098.58 64.0005C1202.89 64.0005 1287.16 148.579 1287.16 252.578Z" fill="#417691" fill-opacity="0.6"/>
</g>
<path d="M937.437 234.36C937.341 230.28 937.341 226.104 937.341 221.64V220.44C937.341 216.312 937.341 212.232 937.437 208.2H939.117C945.213 208.2 949.245 212.76 949.245 221.256C949.245 229.752 945.213 234.36 939.165 234.36H937.437ZM926.349 205.56V207.96L930.237 208.392C930.333 212.376 930.333 216.408 930.333 220.44V221.64C930.333 226.104 930.333 230.232 930.237 234.168L926.349 234.6V237H939.885C949.533 237 956.589 231.48 956.589 221.064C956.589 211.08 950.253 205.56 940.845 205.56H926.349ZM974.425 207.24C977.257 204.984 978.025 203.928 978.025 202.68C978.025 201.24 976.969 200.376 975.625 200.376C974.041 200.376 972.889 201.528 971.017 204.792L968.233 209.64L969.865 210.936L974.425 207.24ZM966.985 223.32C967.465 217.416 970.201 215.496 972.313 215.496C974.329 215.496 975.769 217.32 975.769 220.344C975.769 222.36 975.049 223.32 972.745 223.32H966.985ZM981.673 225.72C981.865 224.952 981.961 224.088 981.961 223.224C981.961 217.272 978.121 213.096 971.977 213.096C965.161 213.096 959.977 218.232 959.977 225.48C959.977 233.256 964.633 237.72 971.593 237.72C976.441 237.72 980.185 235.512 981.481 231.288L979.849 230.376C978.409 232.68 976.681 233.976 973.897 233.976C970.009 233.976 967.129 231.384 966.937 225.72H981.673ZM1009.06 213.96H1000.23V216.072L1003.2 216.6L998.116 229.992L993.316 216.744L996.724 216.072V213.96H983.62V216.072L986.212 216.6L994.756 237.48H997.492L1006.04 216.6L1009.06 216.072V213.96ZM1017.03 223.32C1017.51 217.416 1020.25 215.496 1022.36 215.496C1024.38 215.496 1025.82 217.32 1025.82 220.344C1025.82 222.36 1025.1 223.32 1022.79 223.32H1017.03ZM1031.72 225.72C1031.91 224.952 1032.01 224.088 1032.01 223.224C1032.01 217.272 1028.17 213.096 1022.02 213.096C1015.21 213.096 1010.02 218.232 1010.02 225.48C1010.02 233.256 1014.68 237.72 1021.64 237.72C1026.49 237.72 1030.23 235.512 1031.53 231.288L1029.9 230.376C1028.46 232.68 1026.73 233.976 1023.94 233.976C1020.06 233.976 1017.18 231.384 1016.98 225.72H1031.72ZM1044.29 234.312C1044.24 231.864 1044.2 229.368 1044.2 226.92V209.64L1044.39 202.824L1043.72 202.44L1034.16 204.6V206.52L1037.76 207V226.92C1037.76 229.368 1037.72 231.816 1037.67 234.312L1034.79 234.888V237H1046.98V234.888L1044.29 234.312ZM1061.85 215.496C1065.21 215.496 1066.89 218.808 1066.89 225.432C1066.89 232.152 1065.21 235.32 1061.85 235.32C1058.54 235.32 1056.81 232.152 1056.81 225.432C1056.81 218.808 1058.54 215.496 1061.85 215.496ZM1061.85 213.096C1055.42 213.096 1049.71 217.848 1049.71 225.48C1049.71 233.112 1054.94 237.72 1061.85 237.72C1068.81 237.72 1073.99 233.112 1073.99 225.48C1073.99 217.848 1068.23 213.096 1061.85 213.096ZM1086.56 218.424C1087.95 217.464 1089.44 216.84 1090.88 216.84C1093.95 216.84 1095.83 219.576 1095.83 225.432C1095.83 231.288 1093.47 234.024 1090.55 234.024C1089.2 234.024 1087.86 233.448 1086.56 232.536V218.424ZM1085.94 213.576L1085.36 213.096L1076.67 216.216V218.04L1079.89 218.472C1079.99 220.392 1080.03 221.544 1080.03 224.184V237C1080.03 239.16 1080.03 242.376 1079.99 244.872L1077.06 245.448V247.56H1090.02V245.448L1086.47 244.728C1086.42 242.232 1086.42 239.16 1086.42 237V235.32C1088.05 236.904 1090.02 237.72 1092.56 237.72C1098.27 237.72 1102.79 233.016 1102.79 225.288C1102.79 217.224 1098.71 213.096 1093.28 213.096C1090.31 213.096 1088.15 214.248 1086.18 216.216L1085.94 213.576ZM1115.59 218.424C1116.99 217.464 1118.47 216.84 1119.91 216.84C1122.99 216.84 1124.86 219.576 1124.86 225.432C1124.86 231.288 1122.51 234.024 1119.58 234.024C1118.23 234.024 1116.89 233.448 1115.59 232.536V218.424ZM1114.97 213.576L1114.39 213.096L1105.71 216.216V218.04L1108.92 218.472C1109.02 220.392 1109.07 221.544 1109.07 224.184V237C1109.07 239.16 1109.07 242.376 1109.02 244.872L1106.09 245.448V247.56H1119.05V245.448L1115.5 244.728C1115.45 242.232 1115.45 239.16 1115.45 237V235.32C1117.08 236.904 1119.05 237.72 1121.59 237.72C1127.31 237.72 1131.82 233.016 1131.82 225.288C1131.82 217.224 1127.74 213.096 1122.31 213.096C1119.34 213.096 1117.18 214.248 1115.21 216.216L1114.97 213.576ZM1142.92 223.32C1143.4 217.416 1146.14 215.496 1148.25 215.496C1150.27 215.496 1151.71 217.32 1151.71 
220.344C1151.71 222.36 1150.99 223.32 1148.68 223.32H1142.92ZM1157.61 225.72C1157.8 224.952 1157.9 224.088 1157.9 223.224C1157.9 217.272 1154.06 213.096 1147.91 213.096C1141.1 213.096 1135.91 218.232 1135.91 225.48C1135.91 233.256 1140.57 237.72 1147.53 237.72C1152.38 237.72 1156.12 235.512 1157.42 231.288L1155.79 230.376C1154.35 232.68 1152.62 233.976 1149.83 233.976C1145.95 233.976 1143.07 231.384 1142.87 225.72H1157.61ZM1200.02 234.312C1199.97 231.96 1199.97 229.032 1199.97 226.92V221.544C1199.97 215.784 1197.77 213.096 1193.21 213.096C1189.65 213.096 1187.64 214.392 1185.14 217.512C1184.23 214.536 1182.07 213.096 1178.57 213.096C1175.4 213.096 1173.38 214.392 1170.98 217.368L1170.65 213.576L1169.93 213.096L1161.24 216.216V218.04L1164.55 218.472C1164.65 220.392 1164.69 221.496 1164.69 224.136V226.92C1164.69 228.936 1164.69 231.912 1164.65 234.264L1161.72 234.888V237H1173.81V234.888L1171.17 234.36C1171.13 231.96 1171.13 228.984 1171.13 226.92V219.768C1172.71 218.28 1174.68 217.032 1176.31 217.032C1178.28 217.032 1179.29 218.712 1179.29 222.312V226.92C1179.29 229.032 1179.29 231.96 1179.24 234.264L1176.31 234.888V237H1188.41V234.888L1185.67 234.312C1185.62 231.96 1185.62 229.032 1185.62 226.92V221.544C1185.62 220.92 1185.57 220.296 1185.53 219.72C1187.06 218.328 1189.03 217.032 1190.71 217.032C1192.63 217.032 1193.64 218.712 1193.64 222.312V226.92C1193.64 229.032 1193.64 231.96 1193.59 234.264L1190.66 234.888V237H1202.76V234.888L1200.02 234.312ZM1212.75 223.32C1213.23 217.416 1215.97 215.496 1218.08 215.496C1220.09 215.496 1221.53 217.32 1221.53 220.344C1221.53 222.36 1220.81 223.32 1218.51 223.32H1212.75ZM1227.44 225.72C1227.63 224.952 1227.73 224.088 1227.73 223.224C1227.73 217.272 1223.89 213.096 1217.74 213.096C1210.93 213.096 1205.74 218.232 1205.74 225.48C1205.74 233.256 1210.4 237.72 1217.36 237.72C1222.21 237.72 1225.95 235.512 1227.25 231.288L1225.61 230.376C1224.17 232.68 1222.45 233.976 1219.66 233.976C1215.77 233.976 1212.89 231.384 1212.7 225.72H1227.44ZM1255.79 234.312C1255.74 232.008 1255.74 229.032 1255.74 226.92V221.544C1255.74 215.784 1253.19 213.096 1248.63 213.096C1245.37 213.096 1243.5 214.344 1240.81 217.368L1240.47 213.576L1239.75 213.096L1231.07 216.216V218.04L1234.28 218.472C1234.38 220.392 1234.43 221.544 1234.43 224.184V226.92C1234.43 228.984 1234.43 231.912 1234.38 234.312L1231.45 234.888V237H1243.74V234.888L1241 234.312C1240.95 231.96 1240.95 228.984 1240.95 226.92V219.864C1242.83 218.088 1244.55 217.032 1246.38 217.032C1248.59 217.032 1249.21 218.664 1249.21 222.312V226.92C1249.21 229.032 1249.21 231.96 1249.16 234.312L1246.23 234.888V237H1258.52V234.888L1255.79 234.312ZM1275.57 232.44C1274.42 233.4 1273.36 233.592 1272.74 233.592C1271.25 233.592 1270.24 232.584 1270.24 230.232V217.032H1275.72V213.96H1270.24V207.24H1265.64L1264.29 213.912L1260.5 214.392V217.032H1263.72V226.536C1263.72 228.408 1263.67 229.608 1263.67 231.576C1263.67 235.608 1266.12 237.48 1270 237.48C1273.41 237.48 1275.76 235.944 1276.96 234.072L1275.57 232.44ZM1063.65 268.152C1064.18 268.104 1064.66 268.056 1065.09 268.056C1068.21 268.056 1070.08 270.168 1070.08 273.768C1070.08 277.656 1068.4 279.624 1064.28 279.624H1062.4V282.264H1064.71C1069.03 282.264 1070.85 284.808 1070.85 288.504C1070.85 293.016 1068.55 295.32 1064.23 295.32C1063.6 295.32 1063.03 295.272 1062.45 295.128L1061.97 291.864C1061.49 288.84 1060.29 288.12 1058.71 288.12C1057.65 288.12 1056.5 288.456 1055.92 290.088C1055.92 294.888 1060.1 297.72 1065.96 297.72C1073.83 297.72 1077.76 293.928 1077.76 288.888C1077.76 284.232 1075.08 281.688 1069.89 280.776C1074.07 279.624 1076.61 277.176 1076.61 273.336C1076.61 268.92 1073.06 265.656 1066.48 265.656C1061.64 265.656 1057.41 267.96 1057.12 273.048C1057.84 274.152 1058.85 274.776 1060.05 274.776C1061.35 274.776 1062.5 274.008 1062.98 271.512L1063.65 268.152ZM1088.16 281.688C1088.16 269.928 1089.93 268.056 1092.43 268.056C1094.93 268.056 1096.7 269.976 1096.7 281.688C1096.7 293.4 1094.93 295.32 1092.43 295.32C1089.93 295.32 1088.16 293.448 1088.16 281.688ZM1092.43 265.656C1086.86 265.656 1081.53 270.312 1081.53 
281.688C1081.53 293.064 1086.86 297.72 1092.43 297.72C1098 297.72 1103.33 293.064 1103.33 281.688C1103.33 270.312 1098 265.656 1092.43 265.656ZM1112.95 275.16C1112.95 268.632 1114.1 267.336 1115.5 267.336C1116.89 267.336 1117.99 268.68 1117.99 275.16C1117.99 281.64 1116.89 283.032 1115.5 283.032C1114.1 283.032 1112.95 281.688 1112.95 275.16ZM1115.5 265.608C1111.85 265.608 1108.25 268.536 1108.25 275.16C1108.25 281.832 1111.85 284.76 1115.5 284.76C1119.14 284.76 1122.65 281.832 1122.65 275.16C1122.65 268.536 1119.14 265.608 1115.5 265.608ZM1135.03 287.592C1135.03 281.064 1136.18 279.768 1137.58 279.768C1138.97 279.768 1140.07 281.112 1140.07 287.592C1140.07 294.072 1138.97 295.464 1137.58 295.464C1136.18 295.464 1135.03 294.12 1135.03 287.592ZM1137.58 278.04C1133.93 278.04 1130.33 280.968 1130.33 287.592C1130.33 294.264 1133.93 297.192 1137.58 297.192C1141.22 297.192 1144.73 294.264 1144.73 287.592C1144.73 280.968 1141.22 278.04 1137.58 278.04ZM1116.84 298.2L1138.87 266.76L1136.52 265.176L1114.49 296.616L1116.84 298.2Z" fill="white"/>
<g filter="url(#filter8_d)">
<path d="M1617.16 468.578C1617.16 572.578 1532.58 657.156 1428.58 657.156C1324.58 657.156 1240 572.891 1240 468.578C1240 364.579 1324.58 280 1428.58 280C1532.89 280 1617.16 364.579 1617.16 468.578Z" fill="#417691" fill-opacity="0.6"/>
</g>
<path d="M1355.2 427.96V425.56H1345.12L1334.56 448.12L1323.71 425.56H1314.06V427.96L1318.04 428.392V453.976L1313.53 454.6V457H1325.2V454.6L1320.68 453.976V433.72L1331.53 457H1333.45L1344.2 433.672V442.12C1344.2 446.2 1344.2 450.232 1344.11 454.168L1340.22 454.6V457H1355.2V454.6L1351.31 454.168C1351.21 450.184 1351.21 446.152 1351.21 442.12V440.44C1351.21 436.36 1351.21 432.328 1351.31 428.392L1355.2 427.96ZM1370.75 452.728C1369.4 453.688 1368.54 453.976 1367.53 453.976C1366.48 453.976 1365.56 453.688 1364.84 452.968C1364.32 452.44 1363.93 451.72 1363.93 450.472C1363.93 448.456 1364.89 446.728 1367.68 445.624C1368.44 445.336 1369.55 444.952 1370.75 444.616V452.728ZM1380.16 453.064L1379.92 453.352C1379.44 453.928 1379.1 454.36 1378.48 454.36C1377.66 454.36 1377.28 453.64 1377.28 452.632V442.744C1377.28 435.592 1374.83 433.096 1368.83 433.096C1362.73 433.096 1358.94 435.88 1358.51 439.624C1358.8 441.112 1359.95 442.072 1361.44 442.072C1363.12 442.072 1364.41 440.872 1364.75 438.376L1365.13 435.592C1365.66 435.544 1366.14 435.496 1366.62 435.496C1369.69 435.496 1370.75 437.08 1370.75 441.112V442.552C1369.21 442.984 1367.68 443.416 1366.57 443.8C1359.28 446.2 1357.69 448.984 1357.69 451.96C1357.69 455.704 1360.38 457.72 1364.17 457.72C1367.2 457.72 1368.92 456.664 1371.08 454.696C1371.8 456.376 1373.58 457.48 1376.17 457.48C1378.62 457.48 1380.16 456.616 1381.4 453.976L1380.16 453.064ZM1392.27 433.576L1391.55 433.096L1382.86 436.216V438.04L1386.08 438.472C1386.17 440.392 1386.22 441.496 1386.22 444.136V446.92C1386.22 448.984 1386.22 451.96 1386.17 454.312L1383.25 454.888V457H1396.45V454.888L1392.8 454.168C1392.75 451.816 1392.75 448.936 1392.75 446.92V441.784C1393.47 440.008 1394.48 438.616 1395.63 437.56L1395.73 437.656C1396.97 439 1398.13 439.624 1399.42 439.624C1401.44 439.624 1402.78 438.184 1402.78 436.072C1402.3 433.768 1400.57 433.096 1399.23 433.096C1397.02 433.096 1394.53 435.064 1392.75 438.28L1392.27 433.576ZM1427.73 454.072L1420.38 441.4L1425.33 436.648L1429.7 436.072V433.96H1418.66V436.072L1422.21 436.6L1413.57 445.048V429.64L1413.76 422.824L1413.09 422.44L1403.63 424.6V426.52L1407.23 427V446.92C1407.23 448.984 1407.23 451.912 1407.18 454.312L1404.26 454.888V457H1416.54V454.888L1413.62 454.312C1413.62 452.296 1413.57 449.896 1413.57 447.976L1415.87 445.768L1422.21 457H1431.23V454.888L1427.73 454.072ZM1439.45 443.32C1439.93 437.416 1442.67 435.496 1444.78 435.496C1446.8 435.496 1448.24 437.32 1448.24 440.344C1448.24 442.36 1447.52 443.32 1445.21 443.32H1439.45ZM1454.14 445.72C1454.33 444.952 1454.43 444.088 1454.43 443.224C1454.43 437.272 1450.59 433.096 1444.45 433.096C1437.63 433.096 1432.45 438.232 1432.45 445.48C1432.45 453.256 1437.1 457.72 1444.06 457.72C1448.91 457.72 1452.65 455.512 1453.95 451.288L1452.32 450.376C1450.88 452.68 1449.15 453.976 1446.37 453.976C1442.48 453.976 1439.6 451.384 1439.41 445.72H1454.14ZM1472.07 452.44C1470.92 453.4 1469.86 453.592 1469.24 453.592C1467.75 453.592 1466.74 452.584 1466.74 450.232V437.032H1472.22V433.96H1466.74V427.24H1462.14L1460.79 433.912L1457 434.392V437.032H1460.22V446.536C1460.22 448.408 1460.17 449.608 1460.17 451.576C1460.17 455.608 1462.62 457.48 1466.5 457.48C1469.91 457.48 1472.26 455.944 1473.46 454.072L1472.07 452.44ZM1481.66 429.112C1483.86 429.112 1485.64 427.48 1485.64 425.272C1485.64 423.064 1483.86 421.48 1481.66 421.48C1479.5 421.48 1477.67 423.064 1477.67 425.272C1477.67 427.48 1479.5 429.112 1481.66 429.112ZM1485.06 454.312C1485.02 451.96 1485.02 448.984 1485.02 446.92V440.44L1485.16 433.576L1484.44 433.096L1475.13 436.216V438.04L1478.34 438.472C1478.44 440.392 1478.49 441.88 1478.49 444.52V446.92C1478.49 448.984 1478.49 451.912 1478.44 454.312L1475.51 454.888V457H1487.8V454.888L1485.06 454.312ZM1514.91 454.312C1514.86 452.008 1514.86 449.032 1514.86 446.92V441.544C1514.86 435.784 1512.32 433.096 1507.76 433.096C1504.49 433.096 1502.62 434.344 1499.93 437.368L1499.6 433.576L1498.88 433.096L1490.19 436.216V438.04L1493.41 438.472C1493.5 440.392 1493.55 441.544 1493.55 444.184V446.92C1493.55 448.984 1493.55 451.912 1493.5 454.312L1490.57 454.
888V457H1502.86V454.888L1500.13 454.312C1500.08 451.96 1500.08 448.984 1500.08 446.92V439.864C1501.95 438.088 1503.68 437.032 1505.5 437.032C1507.71 437.032 1508.33 438.664 1508.33 442.312V446.92C1508.33 449.032 1508.33 451.96 1508.29 454.312L1505.36 454.888V457H1517.65V454.888L1514.91 454.312ZM1531.15 446.632C1528.75 446.632 1527.45 444.472 1527.45 440.92C1527.45 437.368 1528.7 435.256 1531.15 435.256C1533.55 435.256 1534.89 437.368 1534.89 440.92C1534.89 444.472 1533.55 446.632 1531.15 446.632ZM1534.6 457.72C1537.58 457.72 1538.49 458.968 1538.49 460.264C1538.49 462.472 1535.85 464.2 1530.95 464.2C1527.93 464.2 1525.87 463.192 1525.87 460.216C1525.87 459.304 1526.06 458.44 1526.54 457.432C1527.35 457.624 1528.31 457.72 1529.37 457.72H1534.6ZM1544.15 433.576L1543.43 433.096L1537.63 434.968C1535.99 433.768 1533.79 433.096 1531.15 433.096C1525.43 433.096 1521.64 436.312 1521.64 440.92C1521.64 443.8 1523.13 446.104 1525.58 447.496C1523.42 448.936 1522.07 450.568 1522.07 452.728C1522.07 454.408 1522.84 455.896 1524.71 456.808C1521.5 458.392 1520.35 459.928 1520.35 461.896C1520.35 464.968 1523.18 466.6 1530.14 466.6C1539.55 466.6 1543.91 462.808 1543.91 458.2C1543.91 454.36 1541.37 451.912 1534.7 451.912H1529.51C1527.83 451.912 1526.87 451.336 1526.87 450.088C1526.87 449.416 1527.11 448.984 1527.5 448.264C1528.6 448.6 1529.8 448.792 1531.15 448.792C1536.86 448.792 1540.65 445.528 1540.65 440.92C1540.65 439.48 1540.27 438.184 1539.59 437.08H1544.15V433.576ZM1391.71 480.152C1392.24 480.104 1392.72 480.056 1393.15 480.056C1396.27 480.056 1398.15 482.168 1398.15 485.768C1398.15 489.656 1396.47 491.624 1392.34 491.624H1390.47V494.264H1392.77C1397.09 494.264 1398.91 496.808 1398.91 500.504C1398.91 505.016 1396.61 507.32 1392.29 507.32C1391.67 507.32 1391.09 507.272 1390.51 507.128L1390.03 503.864C1389.55 500.84 1388.35 500.12 1386.77 500.12C1385.71 500.12 1384.56 500.456 1383.99 502.088C1383.99 506.888 1388.16 509.72 1394.02 509.72C1401.89 509.72 1405.83 505.928 1405.83 500.888C1405.83 496.232 1403.14 493.688 1397.95 492.776C1402.13 491.624 1404.67 489.176 1404.67 485.336C1404.67 480.92 1401.12 477.656 1394.55 477.656C1389.7 477.656 1385.47 479.96 1385.19 485.048C1385.91 486.152 1386.91 486.776 1388.11 486.776C1389.41 486.776 1390.56 486.008 1391.04 483.512L1391.71 480.152ZM1416.22 493.688C1416.22 481.928 1418 480.056 1420.49 480.056C1422.99 480.056 1424.76 481.976 1424.76 493.688C1424.76 505.4 1422.99 507.32 1420.49 507.32C1418 507.32 1416.22 505.448 1416.22 493.688ZM1420.49 477.656C1414.92 477.656 1409.6 482.312 1409.6 493.688C1409.6 505.064 1414.92 509.72 1420.49 509.72C1426.06 509.72 1431.39 505.064 1431.39 493.688C1431.39 482.312 1426.06 477.656 1420.49 477.656ZM1441.01 487.16C1441.01 480.632 1442.17 479.336 1443.56 479.336C1444.95 479.336 1446.05 480.68 1446.05 487.16C1446.05 493.64 1444.95 495.032 1443.56 495.032C1442.17 495.032 1441.01 493.688 1441.01 487.16ZM1443.56 477.608C1439.91 477.608 1436.31 480.536 1436.31 487.16C1436.31 493.832 1439.91 496.76 1443.56 496.76C1447.21 496.76 1450.71 493.832 1450.71 487.16C1450.71 480.536 1447.21 477.608 1443.56 477.608ZM1463.09 499.592C1463.09 493.064 1464.25 491.768 1465.64 491.768C1467.03 491.768 1468.13 493.112 1468.13 499.592C1468.13 506.072 1467.03 507.464 1465.64 507.464C1464.25 507.464 1463.09 506.12 1463.09 499.592ZM1465.64 490.04C1461.99 490.04 1458.39 492.968 1458.39 499.592C1458.39 506.264 1461.99 509.192 1465.64 509.192C1469.29 509.192 1472.79 506.264 1472.79 499.592C1472.79 492.968 1469.29 490.04 1465.64 490.04ZM1444.9 510.2L1466.93 478.76L1464.58 477.176L1442.55 508.616L1444.9 510.2Z" fill="white"/>
<g filter="url(#filter9_d)">
<path d="M1681.08 558.289C1681.08 610.289 1638.8 652.578 1586.8 652.578C1534.8 652.578 1492.51 610.446 1492.51 558.289C1492.51 506.29 1534.8 464 1586.8 464C1638.95 464 1681.08 506.29 1681.08 558.289Z" fill="#E9BCF1"/>
</g>
<path d="M1515.35 532.984V531.788H1507.63V532.984L1509.86 533.218C1509.92 535.428 1509.92 537.638 1509.92 539.848V540.94C1509.92 543.176 1509.92 545.386 1509.86 547.57L1507.63 547.804V549H1515.35V547.804L1513.11 547.57C1513.06 545.36 1513.06 543.15 1513.06 540.94V539.848C1513.06 537.612 1513.06 535.402 1513.11 533.218L1515.35 532.984ZM1530.26 547.622C1530.24 546.348 1530.24 544.71 1530.24 543.54V540.836C1530.24 537.56 1529.02 536.156 1526.65 536.156C1524.93 536.156 1523.58 536.962 1522.2 538.496L1522 536.416L1521.61 536.156L1517.42 537.768V538.73L1519.32 538.964C1519.37 540.004 1519.4 540.706 1519.4 542.136V543.54C1519.4 544.684 1519.4 546.322 1519.37 547.622L1517.6 547.96V549H1523.97V547.96L1522.31 547.622C1522.28 546.322 1522.28 544.684 1522.28 543.54V539.744C1523.43 538.678 1524.41 538.132 1525.53 538.132C1526.88 538.132 1527.35 538.964 1527.35 541.148V543.54C1527.35 544.71 1527.35 546.348 1527.33 547.622L1525.58 547.96V549H1531.93V547.96L1530.26 547.622ZM1541 546.842C1540.35 547.362 1539.8 547.518 1539.36 547.518C1538.53 547.518 1537.96 546.946 1537.96 545.646V538.132H1541.21V536.624H1537.98L1538.06 532.984H1536.01L1535.3 536.572L1533.15 536.858V538.132H1535.07V543.696C1535.07 544.71 1535.04 545.308 1535.04 546.166C1535.04 548.272 1536.29 549.26 1538.24 549.26C1539.85 549.26 1541.02 548.584 1541.67 547.648L1541 546.842ZM1546.13 541.59C1546.39 538.47 1547.98 537.378 1549.3 537.378C1550.63 537.378 1551.62 538.548 1551.62 540.108C1551.62 541.044 1551.28 541.59 1550.03 541.59H1546.13ZM1554.22 542.786C1554.32 542.422 1554.4 541.928 1554.4 541.408C1554.4 538.21 1552.29 536.156 1549.25 536.156C1545.77 536.156 1543.01 538.912 1543.01 542.864C1543.01 546.946 1545.4 549.39 1549.04 549.39C1551.57 549.39 1553.44 548.194 1554.24 546.114L1553.49 545.646C1552.63 546.816 1551.64 547.544 1550.06 547.544C1547.74 547.544 1546.16 545.932 1546.08 542.786H1554.22ZM1561.09 536.416L1560.7 536.156L1556.51 537.768V538.73L1558.41 538.964C1558.46 540.004 1558.49 540.706 1558.49 542.136V543.54C1558.49 544.684 1558.49 546.348 1558.46 547.622L1556.72 547.96V549H1563.48V547.96L1561.4 547.57C1561.37 546.27 1561.37 544.658 1561.37 543.54V541.044C1561.81 539.848 1562.46 538.938 1563.27 538.262L1563.4 538.392C1563.97 538.99 1564.52 539.25 1565.14 539.25C1566.13 539.25 1566.83 538.6 1566.83 537.586C1566.62 536.52 1565.71 536.156 1564.99 536.156C1563.69 536.156 1562.31 537.3 1561.35 539.172L1561.09 536.416ZM1581.06 547.622C1581.03 546.348 1581.03 544.71 1581.03 543.54V540.836C1581.03 537.56 1579.81 536.156 1577.44 536.156C1575.73 536.156 1574.37 536.962 1573 538.496L1572.79 536.416L1572.4 536.156L1568.21 537.768V538.73L1570.11 538.964C1570.16 540.004 1570.19 540.706 1570.19 542.136V543.54C1570.19 544.684 1570.19 546.322 1570.16 547.622L1568.39 547.96V549H1574.76V547.96L1573.1 547.622C1573.07 546.322 1573.07 544.684 1573.07 543.54V539.744C1574.22 538.678 1575.21 538.132 1576.32 538.132C1577.68 538.132 1578.14 538.964 1578.14 541.148V543.54C1578.14 544.71 1578.14 546.348 1578.12 547.622L1576.38 547.96V549H1582.72V547.96L1581.06 547.622ZM1591.82 546.478C1590.75 547.258 1590.23 547.518 1589.53 547.518C1588.93 547.518 1588.41 547.336 1588.02 546.946C1587.71 546.634 1587.5 546.244 1587.5 545.568C1587.5 544.632 1587.92 543.67 1589.79 542.942C1590.26 542.76 1591.04 542.5 1591.82 542.266V546.478ZM1596.45 547.102L1596.32 547.232C1596.08 547.492 1595.82 547.726 1595.43 547.726C1594.94 547.726 1594.68 547.284 1594.68 546.504V541.044C1594.68 537.43 1593.38 536.156 1590.39 536.156C1587.4 536.156 1585.4 537.56 1585.06 539.562C1585.16 540.29 1585.68 540.784 1586.44 540.784C1587.27 540.784 1587.84 540.238 1588.05 539.146L1588.41 537.482C1588.8 537.404 1589.17 537.378 1589.48 537.378C1591.17 537.378 1591.82 538.132 1591.82 540.498V541.2C1590.88 541.46 1589.92 541.746 1589.22 541.98C1585.48 543.28 1584.64 544.658 1584.64 546.192C1584.64 548.272 1586.18 549.39 1588.15 549.39C1589.77 549.39 1590.65 548.74 1591.92 547.518C1592.24 548.584 1593.12 549.26 1594.55 549.26C1595.64 549.26 1596.4 548.896 1597.05 547.622L1596.45 547.102ZM1605.47 546.842C1604.82 547.362 1604.28 547.
518 1603.83 547.518C1603 547.518 1602.43 546.946 1602.43 545.646V538.132H1605.68V536.624H1602.46L1602.53 532.984H1600.48L1599.78 536.572L1597.62 536.858V538.132H1599.54V543.696C1599.54 544.71 1599.52 545.308 1599.52 546.166C1599.52 548.272 1600.77 549.26 1602.72 549.26C1604.33 549.26 1605.5 548.584 1606.15 547.648L1605.47 546.842ZM1610.58 533.66C1611.67 533.66 1612.53 532.88 1612.53 531.788C1612.53 530.696 1611.67 529.916 1610.58 529.916C1609.49 529.916 1608.6 530.696 1608.6 531.788C1608.6 532.88 1609.49 533.66 1610.58 533.66ZM1612.09 547.622C1612.06 546.348 1612.06 544.684 1612.06 543.54V540.03L1612.14 536.416L1611.75 536.156L1607.2 537.768V538.73L1609.1 538.964C1609.15 540.004 1609.17 540.81 1609.17 542.24V543.54C1609.17 544.684 1609.17 546.322 1609.15 547.622L1607.38 547.96V549H1613.72V547.96L1612.09 547.622ZM1621.82 537.378C1623.85 537.378 1624.94 539.25 1624.94 542.786C1624.94 546.374 1623.85 548.142 1621.82 548.142C1619.79 548.142 1618.7 546.374 1618.7 542.786C1618.7 539.25 1619.79 537.378 1621.82 537.378ZM1621.82 536.156C1618.57 536.156 1615.53 538.6 1615.53 542.812C1615.53 547.024 1618.41 549.39 1621.82 549.39C1625.22 549.39 1628.11 547.024 1628.11 542.812C1628.11 538.6 1625.04 536.156 1621.82 536.156ZM1642.99 547.622C1642.96 546.348 1642.96 544.71 1642.96 543.54V540.836C1642.96 537.56 1641.74 536.156 1639.37 536.156C1637.66 536.156 1636.31 536.962 1634.93 538.496L1634.72 536.416L1634.33 536.156L1630.14 537.768V538.73L1632.04 538.964C1632.09 540.004 1632.12 540.706 1632.12 542.136V543.54C1632.12 544.684 1632.12 546.322 1632.09 547.622L1630.33 547.96V549H1636.7V547.96L1635.03 547.622C1635.01 546.322 1635.01 544.684 1635.01 543.54V539.744C1636.15 538.678 1637.14 538.132 1638.26 538.132C1639.61 538.132 1640.08 538.964 1640.08 541.148V543.54C1640.08 544.71 1640.08 546.348 1640.05 547.622L1638.31 547.96V549H1644.65V547.96L1642.99 547.622ZM1653.75 546.478C1652.69 547.258 1652.17 547.518 1651.46 547.518C1650.87 547.518 1650.35 547.336 1649.96 546.946C1649.64 546.634 1649.44 546.244 1649.44 545.568C1649.44 544.632 1649.85 543.67 1651.72 542.942C1652.19 542.76 1652.97 542.5 1653.75 542.266V546.478ZM1658.38 547.102L1658.25 547.232C1658.02 547.492 1657.76 547.726 1657.37 547.726C1656.87 547.726 1656.61 547.284 1656.61 546.504V541.044C1656.61 537.43 1655.31 536.156 1652.32 536.156C1649.33 536.156 1647.33 537.56 1646.99 539.562C1647.1 540.29 1647.62 540.784 1648.37 540.784C1649.2 540.784 1649.77 540.238 1649.98 539.146L1650.35 537.482C1650.74 537.404 1651.1 537.378 1651.41 537.378C1653.1 537.378 1653.75 538.132 1653.75 540.498V541.2C1652.82 541.46 1651.85 541.746 1651.15 541.98C1647.41 543.28 1646.58 544.658 1646.58 546.192C1646.58 548.272 1648.11 549.39 1650.09 549.39C1651.7 549.39 1652.58 548.74 1653.86 547.518C1654.17 548.584 1655.05 549.26 1656.48 549.26C1657.57 549.26 1658.33 548.896 1658.98 547.622L1658.38 547.102ZM1664.78 547.622C1664.75 546.27 1664.73 544.892 1664.73 543.54V534.05L1664.83 530.358L1664.47 530.15L1659.81 531.32V532.308L1661.87 532.568V543.54C1661.87 544.892 1661.84 546.244 1661.81 547.622L1659.99 547.96V549H1666.52V547.96L1664.78 547.622ZM1570.24 581.284C1570.21 580.036 1570.21 578.788 1570.21 577.54V570.026L1570.32 566.308L1569.95 566.074L1564.49 567.426V568.596L1567.33 568.336V577.54C1567.33 578.788 1567.33 580.062 1567.3 581.31L1563.79 581.96V583H1573.7V581.96L1570.24 581.284ZM1579.76 568.986H1587.38V566.334H1578.54L1578 574.134L1578.72 574.472C1579.53 574.29 1580.44 574.186 1581.22 574.186C1583.59 574.186 1584.89 575.59 1584.89 577.956C1584.89 580.452 1583.61 582.142 1581.38 582.142C1580.91 582.142 1580.44 582.09 1579.89 581.908L1579.58 580.4C1579.27 578.892 1578.75 578.45 1577.97 578.45C1577.27 578.45 1576.75 578.84 1576.51 579.62C1576.77 581.908 1578.75 583.39 1581.64 583.39C1585.3 583.39 1587.9 581.258 1587.9 577.8C1587.9 574.264 1585.38 572.47 1582 572.47C1581.14 572.47 1580.31 572.574 1579.5 572.756L1579.76 568.986ZM1593.06 571.196C1593.06 567.582 1593.81 566.88 1594.64 566.88C1595.45 566.88 1596.15 567.608 1596.15 571.196C1596.15 574.81 1595.45 575.538 1594.64 575.538C1593.81 575.538 1593.06 
574.81 1593.06 571.196ZM1594.64 565.944C1592.72 565.944 1590.85 567.53 1590.85 571.196C1590.85 574.888 1592.72 576.448 1594.64 576.448C1596.54 576.448 1598.39 574.888 1598.39 571.196C1598.39 567.53 1596.54 565.944 1594.64 565.944ZM1604.81 577.878C1604.81 574.264 1605.56 573.562 1606.39 573.562C1607.2 573.562 1607.9 574.29 1607.9 577.878C1607.9 581.492 1607.2 582.22 1606.39 582.22C1605.56 582.22 1604.81 581.492 1604.81 577.878ZM1606.39 572.626C1604.47 572.626 1602.6 574.212 1602.6 577.878C1602.6 581.57 1604.47 583.13 1606.39 583.13C1608.29 583.13 1610.14 581.57 1610.14 577.878C1610.14 574.212 1608.29 572.626 1606.39 572.626ZM1595.14 583.65L1607.15 566.438L1606.11 565.684L1594.1 582.896L1595.14 583.65Z" fill="#282828"/>
<g filter="url(#filter10_d)">
<g filter="url(#filter11_d)">
<path d="M1098.58 410.289C1098.58 462.289 1056.29 504.578 1004.29 504.578C952.289 504.578 910 462.446 910 410.289C910 358.29 952.289 316 1004.29 316C1056.45 316 1098.58 358.29 1098.58 410.289Z" fill="#E9BCF1"/>
</g>
<path d="M982.765 391.848C982.765 389.482 982.765 387.298 982.817 385.114H984.455C987.055 385.114 988.199 386.232 988.199 388.312C988.199 390.34 987.055 391.848 984.325 391.848H982.765ZM991.085 399.57L990.201 396.008C989.733 394.136 988.745 393.096 987.263 392.654C990.201 392.004 991.293 390.106 991.293 388.156C991.293 385.452 988.979 383.788 985.053 383.788H977.357V384.984L979.593 385.218C979.645 387.428 979.645 389.638 979.645 391.848V392.94C979.645 395.176 979.645 397.386 979.593 399.57L977.357 399.804V401H985.079V399.804L982.817 399.544C982.765 397.464 982.765 395.358 982.765 393.174H983.727C985.625 393.174 986.483 393.642 986.899 395.514L987.757 399.336C988.069 400.87 989.213 401.26 991.059 401.26C991.813 401.26 992.489 401.182 993.295 401V399.804L991.085 399.57ZM1001.04 399.57C998.8 399.57 997.474 397.828 997.474 395.8C997.474 394.422 998.046 393.07 999.554 392.082C1000.36 392.992 1001.22 394.084 1002.21 395.254C1003.04 396.19 1003.77 397.1 1004.52 398.01C1003.64 398.868 1002.52 399.57 1001.04 399.57ZM1000.07 389.17C999.19 388.182 998.8 387.272 998.8 386.414C998.8 385.244 999.606 384.386 1000.96 384.386C1002.31 384.386 1003.04 385.4 1003.04 386.83C1003.04 388.104 1002.36 389.248 1001.17 390.288C1000.75 389.872 1000.39 389.508 1000.07 389.17ZM1012.29 389.716V388.624H1006.63V389.716L1008.99 390.054C1008.29 392.186 1007.38 394.162 1006.21 396.034C1005.3 394.916 1004.36 393.85 1003.56 392.914C1002.88 392.134 1002.31 391.51 1001.79 390.964C1004.05 389.716 1005.14 388.52 1005.14 386.752C1005.14 384.828 1003.61 383.398 1001.04 383.398C998.41 383.398 996.512 384.802 996.512 387.012C996.512 388.676 997.396 389.742 998.722 391.172L998.878 391.354C996.044 392.706 994.64 394.318 994.64 396.554C994.64 399.206 996.694 401.39 1000.1 401.39C1002.65 401.39 1004.16 400.246 1005.27 398.946L1005.74 399.492C1006.89 400.792 1007.54 401.26 1009.43 401.26C1010.21 401.26 1010.89 401.182 1011.72 401V399.986L1008.91 399.414C1008.29 398.608 1007.61 397.75 1006.91 396.892C1008.39 394.812 1009.51 392.498 1010.5 390.002L1012.29 389.716ZM1019.65 399.674C1019.6 397.412 1019.6 395.124 1019.6 392.654V391.848C1019.6 389.586 1019.6 387.324 1019.65 385.114H1021.24C1024.7 385.114 1026.98 387.662 1026.98 392.394C1026.98 397.126 1024.7 399.674 1021.26 399.674H1019.65ZM1014.17 383.788V384.984L1016.4 385.218C1016.45 387.428 1016.45 389.638 1016.45 391.848V392.654C1016.45 395.124 1016.45 397.386 1016.4 399.57L1014.17 399.804V401H1021.42C1026.46 401 1030.39 397.984 1030.39 392.342C1030.39 386.83 1026.88 383.788 1021.94 383.788H1014.17ZM987.24 433.284C987.214 432.036 987.214 430.788 987.214 429.54V422.026L987.318 418.308L986.954 418.074L981.494 419.426V420.596L984.328 420.336V429.54C984.328 430.788 984.328 432.062 984.302 433.31L980.792 433.96V435H990.698V433.96L987.24 433.284ZM996.763 420.986H1004.38V418.334H995.541L994.995 426.134L995.723 426.472C996.529 426.29 997.439 426.186 998.219 426.186C1000.59 426.186 1001.89 427.59 1001.89 429.956C1001.89 432.452 1000.61 434.142 998.375 434.142C997.907 434.142 997.439 434.09 996.893 433.908L996.581 432.4C996.269 430.892 995.749 430.45 994.969 430.45C994.267 430.45 993.747 430.84 993.513 431.62C993.773 433.908 995.749 435.39 998.635 435.39C1002.3 435.39 1004.9 433.258 1004.9 429.8C1004.9 426.264 1002.38 424.47 998.999 424.47C998.141 424.47 997.309 424.574 996.503 424.756L996.763 420.986ZM1010.06 423.196C1010.06 419.582 1010.81 418.88 1011.64 418.88C1012.45 418.88 1013.15 419.608 1013.15 423.196C1013.15 426.81 1012.45 427.538 1011.64 427.538C1010.81 427.538 1010.06 426.81 1010.06 423.196ZM1011.64 417.944C1009.72 417.944 1007.85 419.53 1007.85 423.196C1007.85 426.888 1009.72 428.448 1011.64 428.448C1013.54 428.448 1015.39 426.888 1015.39 423.196C1015.39 419.53 1013.54 417.944 1011.64 417.944ZM1021.81 429.878C1021.81 426.264 1022.56 425.562 1023.39 425.562C1024.2 425.562 1024.9 426.29 1024.9 429.878C1024.9 433.492 1024.2 434.22 1023.39 434.22C1022.56 434.22 1021.81 433.492 1021.81 429.878ZM1023.39 424.626C1021.47 424.626 1019.6 426.212 1019.6 429.878C1019.6 433.57 1021.47 435.13 1023.39 435.13C1025.29 435.13 1027.14 433.
57 1027.14 429.878C1027.14 426.212 1025.29 424.626 1023.39 424.626ZM1012.14 435.65L1024.15 418.438L1023.11 417.684L1011.1 434.896L1012.14 435.65Z" fill="#282828"/>
</g>
<g filter="url(#filter12_d)">
<g filter="url(#filter13_d)">
<path d="M1469.72 189.86C1469.72 224.526 1441.53 252.719 1406.86 252.719C1372.19 252.719 1344 224.631 1344 189.86C1344 155.193 1372.19 127 1406.86 127C1441.63 127 1469.72 155.193 1469.72 189.86Z" fill="#E9BCF1"/>
</g>
<path d="M1360.1 177.808L1361.57 173.728L1362.99 177.808H1360.1ZM1366.11 181.152L1362.56 171.408H1361.6L1358.1 181.056L1356.72 181.264V182H1360.35V181.264L1358.93 181.056L1359.81 178.624H1363.26L1364.13 181.104L1362.7 181.28V182H1367.23V181.28L1366.11 181.152ZM1373.36 180.48C1372.85 180.912 1372.32 181.152 1371.76 181.152C1370.64 181.152 1369.81 180.192 1369.81 178.176C1369.81 176.112 1370.75 175.168 1371.81 175.168C1372.31 175.168 1372.8 175.392 1373.36 175.824V180.48ZM1375.14 181.152V172.8L1375.2 170.528L1374.98 170.4L1372.11 171.12V171.728L1373.44 171.888V175.056C1372.85 174.4 1372.18 174.096 1371.33 174.096C1369.39 174.096 1367.92 175.712 1367.92 178.224C1367.92 180.736 1369.27 182.24 1371.14 182.24C1372.11 182.24 1372.82 181.84 1373.43 181.168L1373.55 182.16L1376.24 182V181.36L1375.14 181.152ZM1389.93 181.152C1389.92 180.368 1389.92 179.36 1389.92 178.64V176.896C1389.92 174.944 1389.18 174.096 1387.77 174.096C1386.67 174.096 1385.8 174.56 1384.97 175.568C1384.68 174.544 1384.01 174.096 1382.92 174.096C1381.9 174.096 1381.05 174.608 1380.27 175.52L1380.14 174.256L1379.9 174.096L1377.32 175.088V175.68L1378.51 175.824C1378.54 176.464 1378.56 176.896 1378.56 177.776V178.64C1378.56 179.344 1378.56 180.352 1378.54 181.152L1377.45 181.36V182H1381.34V181.36L1380.33 181.152C1380.32 180.368 1380.32 179.344 1380.32 178.64V176.272C1380.94 175.696 1381.61 175.312 1382.25 175.312C1383.04 175.312 1383.39 175.84 1383.39 177.168V178.64C1383.39 179.36 1383.39 180.368 1383.37 181.152L1382.3 181.36V182H1386.17V181.36L1385.15 181.152C1385.13 180.368 1385.13 179.36 1385.13 178.64V176.976C1385.13 176.736 1385.12 176.496 1385.1 176.288C1385.72 175.712 1386.41 175.312 1387.04 175.312C1387.82 175.312 1388.19 175.824 1388.19 177.152V178.64C1388.19 179.36 1388.19 180.368 1388.17 181.152L1387.08 181.36V182H1390.96V181.36L1389.93 181.152ZM1394.19 172.56C1394.86 172.56 1395.39 172.08 1395.39 171.408C1395.39 170.736 1394.86 170.256 1394.19 170.256C1393.51 170.256 1392.97 170.736 1392.97 171.408C1392.97 172.08 1393.51 172.56 1394.19 172.56ZM1395.11 181.152C1395.1 180.368 1395.1 179.344 1395.1 178.64V176.48L1395.15 174.256L1394.91 174.096L1392.11 175.088V175.68L1393.27 175.824C1393.31 176.464 1393.32 176.96 1393.32 177.84V178.64C1393.32 179.344 1393.32 180.352 1393.31 181.152L1392.22 181.36V182H1396.12V181.36L1395.11 181.152ZM1405.15 181.152C1405.13 180.368 1405.13 179.36 1405.13 178.64V176.976C1405.13 174.96 1404.38 174.096 1402.93 174.096C1401.87 174.096 1401.04 174.592 1400.19 175.536L1400.06 174.256L1399.82 174.096L1397.25 175.088V175.68L1398.41 175.824C1398.45 176.464 1398.46 176.896 1398.46 177.776V178.64C1398.46 179.344 1398.46 180.352 1398.45 181.152L1397.36 181.36V182H1401.28V181.36L1400.25 181.152C1400.24 180.352 1400.24 179.344 1400.24 178.64V176.304C1400.94 175.648 1401.55 175.312 1402.24 175.312C1403.07 175.312 1403.36 175.824 1403.36 177.168V178.64C1403.36 179.36 1403.36 180.368 1403.34 181.152L1402.27 181.36V182H1406.17V181.36L1405.15 181.152ZM1409.39 172.56C1410.06 172.56 1410.59 172.08 1410.59 171.408C1410.59 170.736 1410.06 170.256 1409.39 170.256C1408.72 170.256 1408.17 170.736 1408.17 171.408C1408.17 172.08 1408.72 172.56 1409.39 172.56ZM1410.32 181.152C1410.3 180.368 1410.3 179.344 1410.3 178.64V176.48L1410.35 174.256L1410.11 174.096L1407.31 175.088V175.68L1408.48 175.824C1408.51 176.464 1408.52 176.96 1408.52 177.84V178.64C1408.52 179.344 1408.52 180.352 1408.51 181.152L1407.42 181.36V182H1411.32V181.36L1410.32 181.152ZM1415.87 177.232C1414.67 176.8 1414.34 176.512 1414.34 175.952C1414.34 175.28 1414.85 174.864 1415.71 174.864C1416.11 174.864 1416.45 174.96 1416.75 175.104L1417.01 176.416H1418.03L1418.11 174.72C1417.38 174.32 1416.69 174.096 1415.78 174.096C1413.83 174.096 1412.75 175.104 1412.75 176.416C1412.75 177.504 1413.46 178.208 1414.69 178.688L1415.43 178.96C1416.55 179.392 1416.95 179.696 1416.95 180.32C1416.95 181.04 1416.43 181.456 1415.31 181.456C1414.83 181.456 1414.43 181.36 1413.99 181.136L1413.75 179.744H1412.67L1412.71 181.536C1413.54 182 1414.29 182.24 1415.3 182.24C1417.36 182.24 1418.55 181.184 1418.55 179.
808C1418.55 178.816 1418.03 178 1416.4 177.408L1415.87 177.232ZM1424.41 180.672C1424.01 180.992 1423.68 181.088 1423.41 181.088C1422.89 181.088 1422.54 180.736 1422.54 179.936V175.312H1424.54V174.384H1422.56L1422.61 172.144H1421.34L1420.91 174.352L1419.58 174.528V175.312H1420.77V178.736C1420.77 179.36 1420.75 179.728 1420.75 180.256C1420.75 181.552 1421.52 182.16 1422.72 182.16C1423.71 182.16 1424.43 181.744 1424.83 181.168L1424.41 180.672ZM1428.42 174.256L1428.18 174.096L1425.61 175.088V175.68L1426.77 175.824C1426.81 176.464 1426.82 176.896 1426.82 177.776V178.64C1426.82 179.344 1426.82 180.368 1426.81 181.152L1425.73 181.36V182H1429.89V181.36L1428.61 181.12C1428.6 180.32 1428.6 179.328 1428.6 178.64V177.104C1428.87 176.368 1429.27 175.808 1429.77 175.392L1429.85 175.472C1430.2 175.84 1430.53 176 1430.92 176C1431.53 176 1431.96 175.6 1431.96 174.976C1431.83 174.32 1431.27 174.096 1430.82 174.096C1430.02 174.096 1429.17 174.8 1428.58 175.952L1428.42 174.256ZM1437.18 180.448C1436.53 180.928 1436.21 181.088 1435.78 181.088C1435.41 181.088 1435.09 180.976 1434.85 180.736C1434.66 180.544 1434.53 180.304 1434.53 179.888C1434.53 179.312 1434.78 178.72 1435.94 178.272C1436.22 178.16 1436.7 178 1437.18 177.856V180.448ZM1440.03 180.832L1439.95 180.912C1439.81 181.072 1439.65 181.216 1439.41 181.216C1439.1 181.216 1438.94 180.944 1438.94 180.464V177.104C1438.94 174.88 1438.14 174.096 1436.3 174.096C1434.46 174.096 1433.23 174.96 1433.02 176.192C1433.09 176.64 1433.41 176.944 1433.87 176.944C1434.38 176.944 1434.74 176.608 1434.86 175.936L1435.09 174.912C1435.33 174.864 1435.55 174.848 1435.74 174.848C1436.78 174.848 1437.18 175.312 1437.18 176.768V177.2C1436.61 177.36 1436.02 177.536 1435.58 177.68C1433.28 178.48 1432.77 179.328 1432.77 180.272C1432.77 181.552 1433.71 182.24 1434.93 182.24C1435.92 182.24 1436.46 181.84 1437.25 181.088C1437.44 181.744 1437.98 182.16 1438.86 182.16C1439.54 182.16 1440 181.936 1440.4 181.152L1440.03 180.832ZM1445.68 180.672C1445.28 180.992 1444.94 181.088 1444.67 181.088C1444.16 181.088 1443.81 180.736 1443.81 179.936V175.312H1445.81V174.384H1443.82L1443.87 172.144H1442.61L1442.18 174.352L1440.85 174.528V175.312H1442.03V178.736C1442.03 179.36 1442.02 179.728 1442.02 180.256C1442.02 181.552 1442.78 182.16 1443.98 182.16C1444.98 182.16 1445.7 181.744 1446.1 181.168L1445.68 180.672ZM1448.92 172.56C1449.59 172.56 1450.12 172.08 1450.12 171.408C1450.12 170.736 1449.59 170.256 1448.92 170.256C1448.25 170.256 1447.7 170.736 1447.7 171.408C1447.7 172.08 1448.25 172.56 1448.92 172.56ZM1449.85 181.152C1449.83 180.368 1449.83 179.344 1449.83 178.64V176.48L1449.88 174.256L1449.64 174.096L1446.84 175.088V175.68L1448.01 175.824C1448.04 176.464 1448.06 176.96 1448.06 177.84V178.64C1448.06 179.344 1448.06 180.352 1448.04 181.152L1446.95 181.36V182H1450.86V181.36L1449.85 181.152ZM1451.98 174.528V175.312H1453.17V178.64C1453.17 179.472 1453.15 180.304 1453.13 181.152L1452.01 181.36V182H1456.29V181.36L1454.97 181.12C1454.96 180.288 1454.94 179.472 1454.94 178.64V175.312H1456.89V174.384H1454.91C1454.88 172.88 1455.07 171.92 1455.49 171.312C1455.61 171.104 1455.77 170.96 1455.93 170.832L1456.19 171.088C1456.61 171.6 1457.01 171.856 1457.45 171.856C1458.01 171.856 1458.41 171.472 1458.41 170.96C1458.25 170.384 1457.63 170.08 1456.78 170.08C1455.98 170.08 1455.12 170.352 1454.38 171.104C1453.73 171.776 1453.36 172.688 1453.18 174.368L1451.98 174.528ZM1394.02 207.68C1394 206.72 1394 205.76 1394 204.8V199.02L1394.08 196.16L1393.8 195.98L1389.6 197.02V197.92L1391.78 197.72V204.8C1391.78 205.76 1391.78 206.74 1391.76 207.7L1389.06 208.2V209H1396.68V208.2L1394.02 207.68ZM1401.26 202.6C1401.26 197.78 1402.18 196.84 1403.32 196.84C1404.44 196.84 1405.36 197.8 1405.36 202.6C1405.36 207.38 1404.44 208.34 1403.32 208.34C1402.18 208.34 1401.26 207.4 1401.26 202.6ZM1403.32 195.88C1401.08 195.88 1398.94 197.74 1398.94 202.6C1398.94 207.44 1401.08 209.3 1403.32 209.3C1405.52 209.3 1407.68 207.44 1407.68 202.6C1407.68 197.74 1405.52 195.88 1403.32 195.88ZM1411.69 199.92C1411.69 197.14 1412.27 196.6 1412.91 196.6C1413.53 196.6 1414.07 197.
16 1414.07 199.92C1414.07 202.7 1413.53 203.26 1412.91 203.26C1412.27 203.26 1411.69 202.7 1411.69 199.92ZM1412.91 195.88C1411.43 195.88 1409.99 197.1 1409.99 199.92C1409.99 202.76 1411.43 203.96 1412.91 203.96C1414.37 203.96 1415.79 202.76 1415.79 199.92C1415.79 197.1 1414.37 195.88 1412.91 195.88ZM1420.73 205.06C1420.73 202.28 1421.31 201.74 1421.95 201.74C1422.57 201.74 1423.11 202.3 1423.11 205.06C1423.11 207.84 1422.57 208.4 1421.95 208.4C1421.31 208.4 1420.73 207.84 1420.73 205.06ZM1421.95 201.02C1420.47 201.02 1419.03 202.24 1419.03 205.06C1419.03 207.9 1420.47 209.1 1421.95 209.1C1423.41 209.1 1424.83 207.9 1424.83 205.06C1424.83 202.24 1423.41 201.02 1421.95 201.02ZM1413.29 209.5L1422.53 196.26L1421.73 195.68L1412.49 208.92L1413.29 209.5Z" fill="#282828"/>
</g>
<defs>
<filter id="filter0_d" x="173.077" y="51.3081" width="596.923" height="596.923" filterUnits="userSpaceOnUse" color-interpolation-filters="sRGB">
<feFlood flood-opacity="0" result="BackgroundImageFix"/>
<feColorMatrix in="SourceAlpha" type="matrix" values="0 0 0 0 0 0 0 0 0 0 0 0 0 0 0 0 0 0 127 0"/>
<feOffset dy="4"/>
<feGaussianBlur stdDeviation="5"/>
<feColorMatrix type="matrix" values="0 0 0 0 0 0 0 0 0 0 0 0 0 0 0 0 0 0 0.25 0"/>
<feBlend mode="normal" in2="BackgroundImageFix" result="effect1_dropShadow"/>
<feBlend mode="normal" in="SourceGraphic" in2="effect1_dropShadow" result="shape"/>
</filter>
<filter id="filter1_d" x="0" y="0.000488281" width="366.154" height="366.154" filterUnits="userSpaceOnUse" color-interpolation-filters="sRGB">
<feFlood flood-opacity="0" result="BackgroundImageFix"/>
<feColorMatrix in="SourceAlpha" type="matrix" values="0 0 0 0 0 0 0 0 0 0 0 0 0 0 0 0 0 0 127 0"/>
<feOffset/>
<feGaussianBlur stdDeviation="5"/>
<feColorMatrix type="matrix" values="0 0 0 0 0 0 0 0 0 0 0 0 0 0 0 0 0 0 0.25 0"/>
<feBlend mode="normal" in2="BackgroundImageFix" result="effect1_dropShadow"/>
<feBlend mode="normal" in="SourceGraphic" in2="effect1_dropShadow" result="shape"/>
</filter>
<filter id="filter2_d" x="129.231" y="377.308" width="204.615" height="204.615" filterUnits="userSpaceOnUse" color-interpolation-filters="sRGB">
<feFlood flood-opacity="0" result="BackgroundImageFix"/>
<feColorMatrix in="SourceAlpha" type="matrix" values="0 0 0 0 0 0 0 0 0 0 0 0 0 0 0 0 0 0 127 0"/>
<feOffset/>
<feGaussianBlur stdDeviation="5"/>
<feColorMatrix type="matrix" values="0 0 0 0 0 0 0 0 0 0 0 0 0 0 0 0 0 0 0.25 0"/>
<feBlend mode="normal" in2="BackgroundImageFix" result="effect1_dropShadow"/>
<feBlend mode="normal" in="SourceGraphic" in2="effect1_dropShadow" result="shape"/>
</filter>
<filter id="filter3_d" x="313.846" y="544.616" width="100.769" height="100.769" filterUnits="userSpaceOnUse" color-interpolation-filters="sRGB">
<feFlood flood-opacity="0" result="BackgroundImageFix"/>
<feColorMatrix in="SourceAlpha" type="matrix" values="0 0 0 0 0 0 0 0 0 0 0 0 0 0 0 0 0 0 127 0"/>
<feOffset/>
<feGaussianBlur stdDeviation="5"/>
<feColorMatrix type="matrix" values="0 0 0 0 0 0 0 0 0 0 0 0 0 0 0 0 0 0 0.25 0"/>
<feBlend mode="normal" in2="BackgroundImageFix" result="effect1_dropShadow"/>
<feBlend mode="normal" in="SourceGraphic" in2="effect1_dropShadow" result="shape"/>
</filter>
<filter id="filter4_d" x="313.846" y="548.616" width="100.769" height="100.769" filterUnits="userSpaceOnUse" color-interpolation-filters="sRGB">
<feFlood flood-opacity="0" result="BackgroundImageFix"/>
<feColorMatrix in="SourceAlpha" type="matrix" values="0 0 0 0 0 0 0 0 0 0 0 0 0 0 0 0 0 0 127 0"/>
<feOffset dy="4"/>
<feGaussianBlur stdDeviation="5"/>
<feColorMatrix type="matrix" values="0 0 0 0 0 0 0 0 0 0 0 0 0 0 0 0 0 0 0.25 0"/>
<feBlend mode="normal" in2="BackgroundImageFix" result="effect1_dropShadow"/>
<feBlend mode="normal" in="SourceGraphic" in2="effect1_dropShadow" result="shape"/>
</filter>
<filter id="filter5_d" x="412.617" y="601" width="92.5273" height="66.1538" filterUnits="userSpaceOnUse" color-interpolation-filters="sRGB">
<feFlood flood-opacity="0" result="BackgroundImageFix"/>
<feColorMatrix in="SourceAlpha" type="matrix" values="0 0 0 0 0 0 0 0 0 0 0 0 0 0 0 0 0 0 127 0"/>
<feOffset/>
<feGaussianBlur stdDeviation="5"/>
<feColorMatrix type="matrix" values="0 0 0 0 0 0 0 0 0 0 0 0 0 0 0 0 0 0 0.25 0"/>
<feBlend mode="normal" in2="BackgroundImageFix" result="effect1_dropShadow"/>
<feBlend mode="normal" in="SourceGraphic" in2="effect1_dropShadow" result="shape"/>
</filter>
<filter id="filter6_d" x="424.557" y="605" width="66.1538" height="66.1538" filterUnits="userSpaceOnUse" color-interpolation-filters="sRGB">
<feFlood flood-opacity="0" result="BackgroundImageFix"/>
<feColorMatrix in="SourceAlpha" type="matrix" values="0 0 0 0 0 0 0 0 0 0 0 0 0 0 0 0 0 0 127 0"/>
<feOffset dy="4"/>
<feGaussianBlur stdDeviation="5"/>
<feColorMatrix type="matrix" values="0 0 0 0 0 0 0 0 0 0 0 0 0 0 0 0 0 0 0.25 0"/>
<feBlend mode="normal" in2="BackgroundImageFix" result="effect1_dropShadow"/>
<feBlend mode="normal" in="SourceGraphic" in2="effect1_dropShadow" result="shape"/>
</filter>
<filter id="filter7_d" x="900" y="54.0005" width="397.156" height="397.156" filterUnits="userSpaceOnUse" color-interpolation-filters="sRGB">
<feFlood flood-opacity="0" result="BackgroundImageFix"/>
<feColorMatrix in="SourceAlpha" type="matrix" values="0 0 0 0 0 0 0 0 0 0 0 0 0 0 0 0 0 0 127 0"/>
<feOffset/>
<feGaussianBlur stdDeviation="5"/>
<feColorMatrix type="matrix" values="0 0 0 0 0 0 0 0 0 0 0 0 0 0 0 0 0 0 0.25 0"/>
<feBlend mode="normal" in2="BackgroundImageFix" result="effect1_dropShadow"/>
<feBlend mode="normal" in="SourceGraphic" in2="effect1_dropShadow" result="shape"/>
</filter>
<filter id="filter8_d" x="1230" y="270" width="397.156" height="397.156" filterUnits="userSpaceOnUse" color-interpolation-filters="sRGB">
<feFlood flood-opacity="0" result="BackgroundImageFix"/>
<feColorMatrix in="SourceAlpha" type="matrix" values="0 0 0 0 0 0 0 0 0 0 0 0 0 0 0 0 0 0 127 0"/>
<feOffset/>
<feGaussianBlur stdDeviation="5"/>
<feColorMatrix type="matrix" values="0 0 0 0 0 0 0 0 0 0 0 0 0 0 0 0 0 0 0.25 0"/>
<feBlend mode="normal" in2="BackgroundImageFix" result="effect1_dropShadow"/>
<feBlend mode="normal" in="SourceGraphic" in2="effect1_dropShadow" result="shape"/>
</filter>
<filter id="filter9_d" x="1482.51" y="454" width="208.578" height="208.578" filterUnits="userSpaceOnUse" color-interpolation-filters="sRGB">
<feFlood flood-opacity="0" result="BackgroundImageFix"/>
<feColorMatrix in="SourceAlpha" type="matrix" values="0 0 0 0 0 0 0 0 0 0 0 0 0 0 0 0 0 0 127 0"/>
<feOffset/>
<feGaussianBlur stdDeviation="5"/>
<feColorMatrix type="matrix" values="0 0 0 0 0 0 0 0 0 0 0 0 0 0 0 0 0 0 0.25 0"/>
<feBlend mode="normal" in2="BackgroundImageFix" result="effect1_dropShadow"/>
<feBlend mode="normal" in="SourceGraphic" in2="effect1_dropShadow" result="shape"/>
</filter>
<filter id="filter10_d" x="906" y="316" width="196.578" height="196.578" filterUnits="userSpaceOnUse" color-interpolation-filters="sRGB">
<feFlood flood-opacity="0" result="BackgroundImageFix"/>
<feColorMatrix in="SourceAlpha" type="matrix" values="0 0 0 0 0 0 0 0 0 0 0 0 0 0 0 0 0 0 127 0"/>
<feOffset dy="4"/>
<feGaussianBlur stdDeviation="2"/>
<feColorMatrix type="matrix" values="0 0 0 0 0 0 0 0 0 0 0 0 0 0 0 0 0 0 0.25 0"/>
<feBlend mode="normal" in2="BackgroundImageFix" result="effect1_dropShadow"/>
<feBlend mode="normal" in="SourceGraphic" in2="effect1_dropShadow" result="shape"/>
</filter>
<filter id="filter11_d" x="900" y="306" width="208.578" height="208.578" filterUnits="userSpaceOnUse" color-interpolation-filters="sRGB">
<feFlood flood-opacity="0" result="BackgroundImageFix"/>
<feColorMatrix in="SourceAlpha" type="matrix" values="0 0 0 0 0 0 0 0 0 0 0 0 0 0 0 0 0 0 127 0"/>
<feOffset/>
<feGaussianBlur stdDeviation="5"/>
<feColorMatrix type="matrix" values="0 0 0 0 0 0 0 0 0 0 0 0 0 0 0 0 0 0 0.25 0"/>
<feBlend mode="normal" in2="BackgroundImageFix" result="effect1_dropShadow"/>
<feBlend mode="normal" in="SourceGraphic" in2="effect1_dropShadow" result="shape"/>
</filter>
<filter id="filter12_d" x="1340" y="127" width="133.719" height="133.719" filterUnits="userSpaceOnUse" color-interpolation-filters="sRGB">
<feFlood flood-opacity="0" result="BackgroundImageFix"/>
<feColorMatrix in="SourceAlpha" type="matrix" values="0 0 0 0 0 0 0 0 0 0 0 0 0 0 0 0 0 0 127 0"/>
<feOffset dy="4"/>
<feGaussianBlur stdDeviation="2"/>
<feColorMatrix type="matrix" values="0 0 0 0 0 0 0 0 0 0 0 0 0 0 0 0 0 0 0.25 0"/>
<feBlend mode="normal" in2="BackgroundImageFix" result="effect1_dropShadow"/>
<feBlend mode="normal" in="SourceGraphic" in2="effect1_dropShadow" result="shape"/>
</filter>
<filter id="filter13_d" x="1334" y="117" width="145.719" height="145.719" filterUnits="userSpaceOnUse" color-interpolation-filters="sRGB">
<feFlood flood-opacity="0" result="BackgroundImageFix"/>
<feColorMatrix in="SourceAlpha" type="matrix" values="0 0 0 0 0 0 0 0 0 0 0 0 0 0 0 0 0 0 127 0"/>
<feOffset/>
<feGaussianBlur stdDeviation="5"/>
<feColorMatrix type="matrix" values="0 0 0 0 0 0 0 0 0 0 0 0 0 0 0 0 0 0 0.25 0"/>
<feBlend mode="normal" in2="BackgroundImageFix" result="effect1_dropShadow"/>
<feBlend mode="normal" in="SourceGraphic" in2="effect1_dropShadow" result="shape"/>
</filter>
</defs>
</svg>
