<svg width="50" height="50" viewBox="0 0 50 50" fill="none" xmlns="http://www.w3.org/2000/svg">
<g clip-path="url(#clip0)">
<path d="M21.5608 49.8138C15.7672 48.9275 10.8333 46.3878 6.86506 42.2344C4.17987 39.4302 2.42062 36.454 1.17723 32.6577C0.277758 29.8799 0.0793457 28.5307 0.0793457 25.0651C0.0793457 22.446 0.119028 21.7979 0.370351 20.4355C0.872997 17.7767 1.81215 15.2106 3.18781 12.7238C5.58199 8.41165 9.32538 4.85345 13.8624 2.57831C15.2645 1.87725 18.1084 0.871963 19.6561 0.528048C22.0635 -0.00105263 25.7804 -0.146555 28.3069 0.184133C29.7354 0.382545 31.3492 0.713233 31.8122 0.911646C31.9577 0.964556 32.5926 1.1762 33.2275 1.37461C34.5635 1.78466 37.1693 3.04128 38.545 3.92752C43.3069 6.9963 46.9444 11.6921 48.7434 17.1021C49.7222 20.0122 49.9338 21.4804 49.9206 25.1312C49.9206 27.9619 49.8809 28.3852 49.5635 29.8931C48.545 34.7476 46.3227 38.9408 42.9365 42.4328C40.1984 45.2635 36.7328 47.4725 33.3862 48.5572C32.6719 48.7952 31.9709 49.0333 31.8518 49.0863C31.7196 49.1524 30.8862 49.3508 30 49.5492C28.6111 49.8402 27.9629 49.8931 25.5291 49.9328C23.6111 49.9725 22.3148 49.9328 21.5608 49.8138Z" fill="white" stroke="white"/>
<path d="M21.1111 39.8668C21.0715 39.7478 21.0318 36.388 21.0318 32.3933V25.1314L20.7143 25.052C20.5424 25.0123 20.3175 24.9859 20.2249 24.9991C20.1191 25.0256 19.5767 25.0256 19.008 25.0123L17.9894 24.9991L18.0159 22.4594L18.0556 19.9065L19.5503 19.8668L21.0318 19.8271V17.9488C21.0318 15.4092 21.1905 14.4303 21.7725 13.2398C22.5662 11.6393 23.7434 10.6737 25.3572 10.3298C25.8863 10.224 29.8281 10.1314 31.7857 10.1843C31.9974 10.1843 32.0106 10.3959 32.0106 12.6975V15.2107H30.4233C27.6455 15.2107 27.3281 15.515 27.3281 18.1208L27.3148 19.7742L29.6032 19.8139L31.8783 19.8404V20.2769C31.8783 20.5017 31.8254 21.2028 31.7593 21.8245C31.6799 22.4462 31.5873 23.3986 31.5476 23.9409C31.4947 24.4832 31.3889 24.9726 31.2963 25.0256C31.217 25.0785 30.3043 25.1314 29.2725 25.1314H27.381V32.4462C27.381 37.9621 27.3413 39.8007 27.2222 39.9197C27.1032 40.0388 26.2302 40.0785 24.127 40.0785C21.5741 40.0785 21.1773 40.052 21.1111 39.8668Z" fill="#3B5998" stroke="white"/>
</g>
<defs>
<clipPath id="clip0">
<rect width="50" height="50" fill="white" transform="translate(0 -0.000976562)"/>
</clipPath>
</defs>
</svg>
