<svg width="50" height="50" viewBox="0 0 50 50" fill="none" xmlns="http://www.w3.org/2000/svg">
<g clip-path="url(#clip0)">
<path fill-rule="evenodd" clip-rule="evenodd" d="M49.375 24.9991C49.375 38.461 38.4618 49.3742 25 49.3742C11.5376 49.3742 0.625 38.461 0.625 24.9991C0.625 11.5368 11.5376 0.624023 25 0.624023C38.4618 0.624023 49.375 11.5368 49.375 24.9991Z" fill="white" stroke="white"/>
<path fill-rule="evenodd" clip-rule="evenodd" d="M26.575 22.7022C26.6952 22.573 26.742 22.5334 26.7756 22.4845C28.4137 20.0942 30.7535 19.3914 33.4836 19.811C36.6385 20.2965 38.6574 22.5049 39.1727 25.884C39.295 26.6852 39.3558 27.4897 39.3552 28.2998C39.3533 31.6642 39.348 35.0284 39.3623 38.3927C39.3644 38.7716 39.2713 38.8829 38.8829 38.8781C37.1204 38.8569 35.3572 38.8572 33.5944 38.8781C33.2088 38.8824 33.11 38.7724 33.112 38.3929C33.1263 35.2552 33.1213 32.1174 33.1182 28.98C33.1171 28.2669 33.0681 27.5582 32.8676 26.8677C32.225 24.6527 29.705 23.8751 27.9106 25.348C26.9409 26.1435 26.562 27.1954 26.5693 28.4334C26.585 31.3932 26.5739 34.353 26.5739 37.3129C26.5739 37.7012 26.5522 38.0907 26.5804 38.4767C26.6052 38.8122 26.4681 38.8768 26.1641 38.8748C24.3688 38.8627 22.5737 38.8615 20.7786 38.8756C20.4528 38.8781 20.3358 38.8119 20.3394 38.4539C20.3657 35.7859 20.3764 33.1167 20.3776 30.4485C20.3781 27.1652 20.3715 23.882 20.3486 20.5988C20.3462 20.2394 20.4215 20.133 20.7927 20.1372C22.5881 20.1573 24.3833 20.1542 26.1784 20.1392C26.5017 20.1362 26.5919 20.2335 26.5816 20.548C26.5594 21.2245 26.575 21.9022 26.575 22.7022Z" fill="#0E76A8" stroke="white"/>
<path fill-rule="evenodd" clip-rule="evenodd" d="M16.9255 29.5097C16.9255 32.4683 16.9192 35.4271 16.933 38.3859C16.9345 38.7533 16.8605 38.8842 16.46 38.8789C14.6818 38.8553 12.9032 38.8608 11.1249 38.8756C10.7948 38.8784 10.6834 38.7959 10.6838 38.4488C10.6924 32.4826 10.6909 26.5167 10.6821 20.5507C10.6818 20.2399 10.7575 20.136 11.0836 20.139C12.8946 20.1545 14.7055 20.1564 16.5161 20.1378C16.8775 20.1338 16.9337 20.2657 16.9323 20.585C16.9212 23.5601 16.9259 26.5348 16.9255 29.5097Z" fill="#0E76A8" stroke="white"/>
<path fill-rule="evenodd" clip-rule="evenodd" d="M13.8556 11.1211C16.2413 11.1236 17.7913 13.0133 17.2259 15.2297C16.7986 16.9032 15.0678 17.8666 13.07 17.5422C10.948 17.1979 9.76518 15.1269 10.5471 13.1256C11.0352 11.8759 12.2841 11.1192 13.8556 11.1211Z" fill="#0E76A8" stroke="white"/>
</g>
<defs>
<clipPath id="clip0">
<rect width="50" height="50" fill="white" transform="translate(0 -0.000976562)"/>
</clipPath>
</defs>
</svg>
