<svg width="50" height="50" viewBox="0 0 50 50" fill="none" xmlns="http://www.w3.org/2000/svg">
<g clip-path="url(#clip0)">
<path d="M23.2661 49.9653C22.5004 49.8997 22.1129 49.856 21.5317 49.7778C21.3067 49.7466 21.2348 49.7372 20.7348 49.6528C20.5223 49.6185 19.8411 49.4841 19.6254 49.4372C19.5661 49.4247 19.4473 49.3966 19.3598 49.3778C19.1004 49.3216 18.1692 49.081 18.0317 49.0341C17.9879 49.0185 17.8911 48.9903 17.8129 48.9685C17.3973 48.8497 15.8786 48.3216 15.8317 48.2778C15.8129 48.2622 15.7817 48.2497 15.7598 48.2497C15.7379 48.2497 15.6567 48.2216 15.5786 48.1872C15.5004 48.1528 15.3754 48.0966 15.2973 48.0622C15.2192 48.0278 15.1504 47.9997 15.1411 47.9997C15.1348 47.9997 15.0317 47.956 14.9161 47.9028C14.7973 47.8497 14.6254 47.7716 14.5317 47.7278C14.3098 47.6278 13.2661 47.1091 13.1254 47.0278C13.0661 46.9935 12.9379 46.9247 12.8442 46.8716C12.7504 46.8216 12.6098 46.7435 12.5317 46.6997C12.4536 46.6528 12.3473 46.5903 12.2942 46.5622C12.2004 46.506 11.9848 46.3778 11.6254 46.1528C11.5317 46.0935 11.4504 46.0372 11.4442 46.0247C11.4379 46.0091 11.4192 45.9997 11.4004 45.9997C11.3723 45.9997 10.7223 45.5716 10.6879 45.531C10.6786 45.5185 10.5817 45.4497 10.4692 45.3747C10.3567 45.2997 10.2598 45.231 10.2504 45.2185C10.2411 45.2091 10.1848 45.1653 10.1254 45.1247C10.0661 45.0841 10.0098 45.0403 10.0004 45.031C9.99106 45.0216 9.93481 44.9778 9.87544 44.9372C9.81606 44.8935 9.74419 44.8435 9.71919 44.8216C9.69419 44.8028 9.55356 44.6903 9.40669 44.5747C9.25981 44.456 9.13481 44.356 9.12544 44.3466C9.11606 44.3341 9.04419 44.2747 8.96294 44.2091C8.88169 44.1435 8.79731 44.0747 8.77544 44.0528C8.75356 44.031 8.64419 43.9372 8.53169 43.8435C7.92856 43.331 6.66919 42.0716 6.15669 41.4685C6.06294 41.356 5.96919 41.2466 5.94731 41.2247C5.92544 41.2028 5.85669 41.1185 5.79106 41.0372C5.72544 40.956 5.66606 40.8841 5.65356 40.8747C5.64419 40.8653 5.54419 40.7403 5.42544 40.5935C5.30981 40.4466 5.19731 40.306 5.17856 40.281C5.15669 40.256 5.10669 40.1841 5.06294 40.1247C5.02231 40.0653 4.97856 40.0091 4.96919 39.9997C4.95981 39.9903 4.91606 39.9341 4.87544 39.8747C4.83481 39.8153 4.79106 39.7591 4.78169 39.7497C4.76919 39.7403 4.70044 39.6435 4.62544 39.531C4.55044 39.4185 4.48169 39.3216 4.46919 39.3122C4.45356 39.2997 4.08481 38.7466 3.96919 38.5622C3.95044 38.5372 3.88169 38.4247 3.80981 38.3122C3.57231 37.9435 3.37544 37.6091 3.14419 37.1872C3.09419 37.0935 3.01919 36.9591 2.97856 36.8903C2.90356 36.7591 2.37856 35.7028 2.24106 35.406C2.09419 35.0841 2.00044 34.8716 2.00044 34.8591C2.00044 34.8497 1.97231 34.781 1.93794 34.7028C1.90356 34.6247 1.84731 34.4997 1.81294 34.4216C1.77856 34.3435 1.75044 34.2622 1.75044 34.2403C1.75044 34.2185 1.73794 34.1872 1.72231 34.1716C1.67856 34.1216 1.15044 32.6028 1.03169 32.1872C1.00981 32.1091 0.981689 32.0122 0.966064 31.9685C0.919189 31.831 0.678564 30.8997 0.622314 30.6403C0.603564 30.556 0.575439 30.4341 0.562939 30.3747C0.516064 30.1591 0.381689 29.4778 0.347314 29.2653C0.262939 28.7653 0.253564 28.6935 0.222314 28.4685C0.141064 27.8653 0.0973144 27.4716 0.0316894 26.6653C-0.00893554 26.1747 -0.00893554 23.8247 0.0316894 23.3341C0.0973144 22.5278 0.141064 22.1341 0.222314 21.531C0.253564 21.306 0.262939 21.2341 0.347314 20.7341C0.381689 20.5216 0.516064 19.8403 0.562939 19.6247C0.575439 19.5653 0.603564 19.4466 0.622314 19.3591C0.678564 19.0997 0.919189 18.1685 0.966064 18.031C0.981689 17.9872 1.00981 17.8903 1.03169 17.8122C1.15044 17.3966 1.67856 15.8778 1.72231 15.831C1.73794 15.8122 1.75044 15.781 1.75044 15.7591C1.75044 15.7372 1.77856 15.656 1.81294 15.5778C1.84731 15.4997 1.90356 15.3747 1.93794 15.2966C1.97231 15.2185 2.00044 15.1497 2.00044 15.1403C2.00044 15.1341 2.04419 15.031 2.09731 14.9153C2.15044 14.7966 2.22856 14.6185 2.27544 14.5185C2.48794 14.0497 3.13794 12.7872 3.25669 12.6185C3.28794 12.5747 3.31294 12.5278 3.31294 12.5185C3.31294 12.4997 3.50356 12.181 3.87544 11.5778C4.02544 11.3341 4.44106 10.7122 4.46919 10.6872C4.48169 10.6778 4.55044 10.581 4.62544 10.4685C4.70044 10.356 4.76919 10.2591 4.78169 10.2497C4.79106 10.2403 4.83481 10.1841 4.87544 10.1247C4.91606 10.0653 4.95981 10.0091 4.96919 9.99971C4.97856 9.99033 5.02231 9.93408 5.06294 9.87471C5.10669 9.81533 5.15669 9.74346 5.17856 9.71846C5.19731 9.69346 5.30981 9.55283 5.42544 9.40596C5.54419 9.25908 5.64419 9.13408 5.65356 9.12471C5.66606 9.11533 5.72544 9.04346 5.79106 8.96221C5.85669 8.88096 5.92544 8.79658 5.94731 8.77471C5.96919 8.75283 6.06294 8.64346 6.15669 8.53096C6.66606 7.93096 7.92856 6.66533 8.53169 6.15596C8.64106 6.06221 8.75044 5.96846 8.77544 5.94658C8.79731 5.92471 8.88169 5.85596 8.96294 5.79033C9.04419 5.72471 9.11606 5.66533 9.12544 5.65283C9.13481 5.64346 9.25981 5.54346 9.40669 5.42471C9.55356 5.30908 9.69419 5.19658 9.71919 5.17783C9.74419 5.15596 9.81606 5.10596 9.87544 5.06221C9.93481 5.02158 9.99106 4.97783 10.0004 4.96846C10.0098 4.95908 10.0661 4.91533 10.1254 4.87471C10.1848 4.83408 10.2411 4.79033 10.2504 4.78096C10.2598 4.76846 10.3567 4.69971 10.4692 4.62471C10.5817 4.54971 10.6786 4.48096 10.6879 4.46846C10.7129 4.44033 11.3348 4.02471 11.5629 3.88408C11.6754 3.81533 11.8817 3.69033 12.0192 3.60283C12.2629 3.44971 12.4379 3.34971 12.8129 3.14346C12.9067 3.09346 13.0411 3.01846 13.1098 2.98096C13.2567 2.89346 14.2723 2.39033 14.5629 2.25596C14.9379 2.08408 15.1286 1.99971 15.1411 1.99971C15.1504 1.99971 15.2254 1.96846 15.3067 1.93408C15.3879 1.89658 15.5129 1.84033 15.5848 1.80908C15.6598 1.77471 15.7379 1.74971 15.7598 1.74971C15.7817 1.74971 15.8129 1.73721 15.8317 1.72158C15.8786 1.67783 17.3973 1.14971 17.8129 1.03096C17.8911 1.00908 17.9879 0.980957 18.0317 0.965332C18.1692 0.918457 19.1004 0.677832 19.3598 0.621582C19.4473 0.602832 19.5661 0.574707 19.6254 0.562207C19.8411 0.515332 20.5223 0.380957 20.7348 0.346582C21.2348 0.262207 21.3067 0.252832 21.5317 0.221582C22.1348 0.140332 22.5286 0.096582 23.3348 0.030957C23.8254 -0.00966797 26.1754 -0.00966797 26.6661 0.030957C27.6911 0.115332 28.2754 0.184082 28.9848 0.299707C29.1411 0.327832 29.3442 0.359082 29.4379 0.374707C29.5942 0.399707 30.1098 0.502832 30.3754 0.562207C30.4348 0.574707 30.5567 0.602832 30.6411 0.621582C30.9004 0.677832 31.8317 0.918457 31.9692 0.965332C32.0129 0.980957 32.1098 1.00908 32.1879 1.03096C32.6036 1.14971 34.1223 1.67783 34.1692 1.72158C34.1879 1.73721 34.2192 1.74971 34.2411 1.74971C34.2629 1.74971 34.3442 1.77783 34.4223 1.81221C34.5004 1.84658 34.6254 1.90283 34.7036 1.93721C34.7817 1.97158 34.8504 1.99971 34.8598 1.99971C34.8723 1.99971 35.0286 2.06846 35.4067 2.24033C35.666 2.35908 36.7473 2.89658 36.8911 2.97783C36.9598 3.01846 37.0942 3.09346 37.1879 3.14346C37.5629 3.34971 37.7379 3.44971 37.9817 3.60283C38.1192 3.69033 38.3254 3.81533 38.4379 3.88408C38.666 4.02471 39.2879 4.44033 39.3129 4.46846C39.3223 4.48096 39.4192 4.54971 39.5317 4.62471C39.6442 4.69971 39.7411 4.76846 39.7504 4.78096C39.7598 4.79033 39.8161 4.83408 39.8754 4.87471C39.9348 4.91533 39.9911 4.95908 40.0004 4.96846C40.0098 4.97783 40.0661 5.02158 40.1254 5.06221C40.1848 5.10596 40.2567 5.15596 40.2817 5.17783C40.3067 5.19658 40.4473 5.30908 40.5942 5.42471C40.7411 5.54346 40.8661 5.64346 40.8754 5.65283C40.8848 5.66533 40.9567 5.72471 41.0379 5.79033C41.1192 5.85596 41.2035 5.92471 41.2254 5.94658C41.2473 5.96846 41.3567 6.06221 41.4692 6.15596C42.0692 6.66533 43.3348 7.92783 43.8442 8.53096C43.9379 8.64033 44.0317 8.74971 44.0535 8.77471C44.0754 8.79658 44.1442 8.88096 44.2098 8.96221C44.2754 9.04346 44.3348 9.11533 44.3473 9.12471C44.3567 9.13408 44.4567 9.25908 44.5754 9.40596C44.691 9.55283 44.8035 9.69346 44.8223 9.71846C44.8442 9.74346 44.8942 9.81533 44.9379 9.87471C44.9785 9.93408 45.0223 9.99033 45.0317 9.99971C45.041 10.0091 45.0848 10.0653 45.1254 10.1247C45.166 10.1841 45.2098 10.2403 45.2192 10.2497C45.2317 10.2591 45.3004 10.356 45.3754 10.4685C45.4504 10.581 45.5192 10.6778 45.5317 10.6872C45.5598 10.7122 45.9754 11.3341 46.116 11.5622C46.1848 11.6747 46.3098 11.881 46.3973 12.0185C46.5504 12.2622 46.6504 12.4372 46.8567 12.8122C46.9067 12.906 46.9817 13.0403 47.0223 13.1091C47.0973 13.2403 47.6223 14.2966 47.7598 14.5935C47.9067 14.9153 48.0004 15.1278 48.0004 15.1403C48.0004 15.1497 48.0317 15.2247 48.066 15.306C48.1035 15.3872 48.1598 15.5122 48.191 15.5841C48.2254 15.6591 48.2504 15.7372 48.2504 15.7591C48.2504 15.781 48.2629 15.8122 48.2785 15.8278C48.3223 15.8778 48.8504 17.3966 48.9692 17.8122C48.991 17.8903 49.0192 17.9872 49.0348 18.031C49.0817 18.1685 49.3223 19.0997 49.3785 19.3591C49.3973 19.4466 49.4254 19.5653 49.4379 19.6247C49.4848 19.8403 49.6192 20.5216 49.6535 20.7341C49.7379 21.2341 49.7473 21.306 49.7785 21.531C49.8598 22.1341 49.9035 22.5278 49.9692 23.3341C50.0098 23.8247 50.0098 26.1747 49.9692 26.6653C49.9035 27.4716 49.8598 27.8653 49.7785 28.4685C49.7473 28.6935 49.7379 28.7653 49.6535 29.2653C49.6192 29.4778 49.4848 30.1591 49.4379 30.3747C49.4254 30.4341 49.3973 30.556 49.3785 30.6403C49.3223 30.8997 49.0817 31.831 49.0348 31.9685C49.0192 32.0122 48.991 32.1091 48.9692 32.1872C48.8504 32.6028 48.3223 34.1216 48.2785 34.1716C48.2629 34.1872 48.2504 34.2185 48.2504 34.2403C48.2504 34.2622 48.2223 34.3435 48.1879 34.4216C48.1535 34.4997 48.0973 34.6247 48.0629 34.7028C48.0285 34.781 48.0004 34.8497 48.0004 34.8591C48.0004 34.8716 47.9067 35.0841 47.7598 35.406C47.6223 35.7028 47.0973 36.7591 47.0223 36.8903C46.9817 36.9591 46.9067 37.0935 46.8567 37.1872C46.6535 37.556 46.5504 37.7341 46.4067 37.9653C46.3254 38.0966 46.2129 38.281 46.1535 38.3747C46.0942 38.4685 46.0379 38.5528 46.0254 38.556C46.0098 38.5622 46.0004 38.581 46.0004 38.5997C46.0004 38.6278 45.5723 39.2778 45.5317 39.3122C45.5192 39.3216 45.4504 39.4185 45.3754 39.531C45.3004 39.6435 45.2317 39.7403 45.2192 39.7497C45.2098 39.7591 45.166 39.8153 45.1254 39.8747C45.0848 39.9341 45.041 39.9903 45.0317 39.9997C45.0223 40.0091 44.9785 40.0653 44.9379 40.1247C44.8942 40.1841 44.8442 40.256 44.8223 40.281C44.8035 40.306 44.691 40.4466 44.5754 40.5935C44.4567 40.7403 44.3567 40.8653 44.3473 40.8747C44.3348 40.8841 44.2754 40.956 44.2098 41.0372C44.1442 41.1185 44.0754 41.2028 44.0535 41.2247C44.0317 41.2466 43.9379 41.356 43.8442 41.4685C43.3317 42.0716 42.0723 43.331 41.4692 43.8435C41.3567 43.9372 41.2473 44.031 41.2254 44.0528C41.2035 44.0747 41.1192 44.1435 41.0379 44.2091C40.9567 44.2747 40.8848 44.3341 40.8754 44.3466C40.8661 44.356 40.7411 44.456 40.5942 44.5747C40.4473 44.6903 40.3067 44.8028 40.2817 44.8216C40.2567 44.8435 40.1848 44.8935 40.1254 44.9372C40.0661 44.9778 40.0098 45.0216 40.0004 45.031C39.9911 45.0403 39.9348 45.0841 39.8754 45.1247C39.8161 45.1653 39.7598 45.2091 39.7504 45.2185C39.7411 45.231 39.6442 45.2997 39.5317 45.3747C39.4192 45.4497 39.3223 45.5185 39.3129 45.531C39.3004 45.5466 38.7473 45.9153 38.5629 46.031C38.5379 46.0497 38.4254 46.1185 38.3129 46.1903C37.9442 46.4278 37.6098 46.6247 37.1879 46.856C37.0942 46.906 36.9598 46.981 36.8911 47.0216C36.7598 47.0966 35.7036 47.6216 35.4067 47.7591C35.0848 47.906 34.8723 47.9997 34.8598 47.9997C34.8504 47.9997 34.7817 48.0278 34.7036 48.0622C34.6254 48.0966 34.5004 48.1528 34.4223 48.1872C34.3442 48.2216 34.2629 48.2497 34.2411 48.2497C34.2192 48.2497 34.1879 48.2622 34.1723 48.2778C34.1223 48.3216 32.6036 48.8497 32.1879 48.9685C32.1098 48.9903 32.0129 49.0185 31.9692 49.0341C31.8317 49.081 30.9004 49.3216 30.6411 49.3778C30.5567 49.3966 30.4348 49.4247 30.3754 49.4372C30.1598 49.4841 29.4786 49.6185 29.2661 49.6528C28.7661 49.7372 28.6942 49.7466 28.4692 49.7778C27.8661 49.8591 27.5129 49.8966 26.6567 49.9685C26.2004 50.006 23.7223 50.0028 23.2661 49.9653Z" fill="white" stroke="white"/>
<path d="M17.9688 37.9959C15.3313 37.8271 12.9375 37.1803 10.6344 36.0146C9.89066 35.6365 8.99691 35.1115 9.07504 35.099C9.10316 35.0928 9.29379 35.1021 9.50004 35.1209C10.0344 35.1709 11.1563 35.1615 11.7532 35.1053C14.1938 34.874 16.4563 34.0115 18.4219 32.5646L18.7 32.3584L18.5782 32.3521C16.8125 32.2428 15.3032 31.5646 14.1063 30.3365C13.4782 29.699 12.9344 28.8271 12.6438 28.0021L12.5625 27.774L12.6313 27.7928C12.6719 27.8021 12.9344 27.8365 13.2188 27.8646C13.6625 27.9084 13.8032 27.9115 14.2282 27.8803C14.6344 27.849 15.4469 27.7178 15.4875 27.6771C15.4938 27.6709 15.3282 27.6209 15.1188 27.5615C13.9657 27.2459 12.9688 26.6584 12.1375 25.8053C11.1438 24.7865 10.5219 23.5303 10.3313 22.1553C10.2782 21.7771 10.2375 21.1553 10.2657 21.1553C10.275 21.1553 10.4282 21.224 10.6032 21.3084C11.1032 21.5459 11.6188 21.7209 12.1407 21.8271C12.3844 21.8771 13.1907 21.974 13.2094 21.9553C13.2157 21.9521 13.0907 21.8521 12.9344 21.7334C12.1688 21.1646 11.4844 20.3521 11.0438 19.4928C10.7 18.8209 10.525 18.2678 10.3688 17.374C10.3157 17.0678 10.3188 15.9053 10.3719 15.5928C10.4782 14.9709 10.6032 14.4928 10.7813 14.0459C10.8719 13.8146 11.1782 13.1865 11.2 13.1865C11.2032 13.1865 11.3563 13.3584 11.5375 13.5709C12.3094 14.4678 13.275 15.3896 14.2032 16.1115C16.7907 18.124 19.775 19.4021 22.9876 19.8709C23.7594 19.9834 24.7501 20.0678 24.7501 20.0178C24.7501 20.0115 24.7344 19.9303 24.7157 19.8396C24.4376 18.4021 24.6344 16.9209 25.2813 15.624C26.4907 13.1928 29.0938 11.7396 31.7688 12.0021C33.2719 12.149 34.6032 12.7521 35.7063 13.7896C35.8469 13.924 35.9844 14.0303 36.0157 14.0303C36.1063 14.0303 36.7157 13.8803 37.1657 13.749C38.0813 13.4803 39.1344 13.0334 39.9313 12.5771C40.0376 12.5146 40.1251 12.4803 40.1251 12.499C40.1251 12.5709 39.8626 13.1896 39.7001 13.4959C39.3532 14.1521 38.9938 14.6303 38.4344 15.1709C38.0782 15.5178 37.7532 15.7771 37.4438 15.9678C37.3532 16.024 37.2813 16.074 37.2876 16.0771C37.3001 16.0896 37.7938 16.0178 38.1563 15.9521C38.9719 15.799 40.1407 15.4459 40.8376 15.1365C40.9251 15.099 41.0001 15.074 41.0001 15.0834C41.0001 15.1146 40.6344 15.6178 40.3438 15.9834C39.7032 16.7865 38.8438 17.6303 38.0751 18.2115L37.7594 18.4521L37.7407 19.5615C37.7157 21.1459 37.6001 22.0865 37.2438 23.5928C36.4126 27.1209 34.5313 30.4553 31.9626 32.9553C29.9938 34.8646 27.6063 36.3021 25.0313 37.1209C22.8094 37.824 20.2532 38.1428 17.9688 37.9959Z" fill="#00ACEE" stroke="white"/>
</g>
<defs>
<clipPath id="clip0">
<rect width="50" height="50" fill="white" transform="translate(0 -0.000976562)"/>
</clipPath>
</defs>
</svg>
