<svg width="50" height="50" viewBox="0 0 50 50" fill="none" xmlns="http://www.w3.org/2000/svg">
<g clip-path="url(#clip0)">
<path d="M23.4167 48.799C22.0429 48.689 20.6026 48.459 19.3309 48.154C10.6435 46.049 3.76913 39.349 1.58322 30.849C1.06739 28.849 0.863098 27.169 0.863098 24.999C0.863098 23.634 0.898849 23.029 1.05207 21.874C2.17566 13.359 8.03879 5.99403 16.2155 2.82403C19.2952 1.63403 22.4004 1.08903 25.715 1.16403C28.9479 1.23903 31.8488 1.84403 34.7446 3.05403C42.5077 6.29903 48.0848 13.389 49.2799 21.524C49.474 22.834 49.5148 23.454 49.5148 24.999C49.5148 26.544 49.474 27.164 49.2799 28.474C48.4423 34.179 45.3677 39.564 40.8325 43.269C37.0327 46.379 32.6915 48.179 27.6966 48.729C26.8641 48.819 24.239 48.864 23.4167 48.799Z" fill="white" stroke="white"/>
<path d="M15.5005 34.8988C13.4321 34.6338 11.7825 33.1488 11.3075 31.1238C11.2156 30.7488 11.2104 30.4038 11.2104 25.2738V19.8238L11.3228 19.3838C11.665 18.0788 12.4873 16.9938 13.6364 16.3288C14.0603 16.0838 14.6323 15.8688 15.1175 15.7638C15.5312 15.6788 16.047 15.6738 25.2043 15.6738C34.4229 15.6738 34.8775 15.6788 35.2656 15.7688C36.4352 16.0338 37.4004 16.6138 38.1103 17.4888C38.4628 17.9238 38.8764 18.7238 39.0348 19.2738L39.1471 19.6738L39.1624 25.0738C39.1727 29.0288 39.1624 30.5738 39.1165 30.8488C38.8356 32.6338 37.5792 34.0938 35.8274 34.6838C35.0205 34.9538 35.2656 34.9488 25.1532 34.9438C20.0102 34.9388 15.6691 34.9188 15.5005 34.8988ZM26.3432 26.9488C28.1512 26.0088 29.6119 25.2188 29.5863 25.1988C29.4944 25.1138 22.4362 21.5488 22.3596 21.5488C22.2319 21.5488 22.2166 21.9838 22.2166 25.6638V29.1088L22.6405 28.8838C22.8703 28.7638 24.5353 27.8938 26.3432 26.9488Z" fill="#C4302B" stroke="white"/>
</g>
<defs>
<clipPath id="clip0">
<rect width="50" height="50" fill="white" transform="translate(0 -0.000976562)"/>
</clipPath>
</defs>
</svg>
